/* XPM */
static char *door_dark_oak_upper[] = {
/* columns rows colors chars-per-pixel */
"128 128 69 1 ",
"  c #2F1B0E",
". c #321D0F",
"X c #3B1D09",
"o c #2F1C10",
"O c #331E11",
"+ c #3D210F",
"@ c #362113",
"# c #3C2516",
"$ c #3E2718",
"% c #3F2818",
"& c #402716",
"* c #412817",
"= c #402718",
"- c #452C1B",
"; c #482F1E",
": c #49301F",
"> c #472F20",
", c #482F20",
"< c #473021",
"1 c #4B3222",
"2 c #4E3728",
"3 c #4F3829",
"4 c #503727",
"5 c #503728",
"6 c #503A2B",
"7 c #533E31",
"8 c #544033",
"9 c #59473B",
"0 c #5E4E44",
"q c #5F5046",
"w c #605046",
"e c #64574E",
"r c #63584F",
"t c #655951",
"y c #6A5E56",
"u c #6B6059",
"i c #716760",
"p c #726A63",
"a c #766E6A",
"s c #78716C",
"d c #7B7672",
"f c #7B7877",
"g c #7E7C7A",
"h c #817D7C",
"j c #82807F",
"k c #848382",
"l c #888786",
"z c #8A8887",
"x c #878788",
"c c #8C8B8B",
"v c #908E8D",
"b c #8F908F",
"n c #92918F",
"m c #8D8F91",
"M c #8F9091",
"N c #949494",
"B c #989696",
"V c #979897",
"C c #999897",
"Z c #969798",
"A c #989798",
"S c #96989A",
"D c #9B9B9B",
"F c #9C9EA0",
"G c #9FA0A1",
"H c #A2A4A5",
"J c #A4A7A9",
"K c #A5ABAB",
"L c None",
/* pixels */
";;;;-;;;-;*,--;;;;;;-;;1;-;;1;-;;;---4:111112;-;;;;;;1;1;111111111111-;;11;-;-;---;;;-;;-;---;--;:;---;;;;;1,:,-:,,:;-,,,,,;;;1-",
"--;--;;;;-*-&-;;;;441-14;--11;;-4;&;;111:1151;-11:;;1::;;111114121611-;;11-;-;------;*--;-;----:-:;;--:-;;,,1,,-,,,,;;;,;,14,4;-",
"-;;-;;;1---;-;---;;2,;;4;-;;1;,11;---2;;11161;-11:1;11111122;:1141421;;-11;-;-*--*-;;;----:-::::-;----;-;&,,15:-11-:,,;,,;,,;,;-",
"----;;11----;;;;-;--;;*;;--;;-111;;;;1;,11111;;2;1;;11111111111111112;;-1:--;-;;-;:-;*;;*;::-;--;--;-;:-;:1;111-,,,:11-,;,1,;,;-",
"--;;,1111;1;;:---;*-;-;;;--;1;;1:4;;-;;;1;111;:111;;111113111,11111122;;4;--*-;-:;---------;--;--;;;-;:;;;,;111:,1,,15,,-4;;;1;;",
"&;-;11,2;-1;:;;-;---*-*;;-;;;--;;4;4-;:-1111;;11;1;114161111111111112;;1;;;;;-;-14-:;:------:---&---;;;:;,,;1,,1-5,,111,4,1--1;;",
"---;11;4,,4144;--------;;---;*-1;:1::-;41;11--;111;-11:11111311161511::;1;;;;:;;11-;:;-:;;------;:;;;-;:;,;;1111,1,,1,--,;;-;,--",
";-;--1;1,,4114----;--;;;;---;-;:;4:::--;;-;;--;<11:;111;1113111141111;1;14-;;;-;:::4:----:;:----::-;;-;:;;-:11,,115,15,,4-4;;;-&",
"-;;1;;;4;;1,44&--;,;;;-;-*;;;;;;:;-;:;;;;;;1--11441111:;4,14111211144;;;11-;;,;;::1:;;;;-;:11:::1:-----:;;;;,:,:111;21111-,;;;;-",
"--;;;;;44;24;4;;-;;1::;----;;;;11:;;;-;;11;1-;11111:111;,11421<1112141;;1;-;;;1,:111:;-;--::1111::-:-;;::;::1;;;,1;2111;1;;-;;;-",
",;-;--;4;1,,;;;;;-4;1:;-;-;;;-;;1111;-;;1111::111;;1;;1-111212;12141,;-;;;--;,;1;111:;----1::11:;-;;;;:::;;;1,:,;111,1141,,;;;4&",
";;--;--;11114;;-;-;:::-;;&--;;;;1111;;;;:144-:111;;--;;;-15211;11111::;;1-;;;1;-:11:::1;:-;1-1114;;;:::::;;;11::11,111111;;-;;;&",
"-;--;-;42-141;;;-;--;--1;-;;:;;;::11:--::161;-1:11;-;;;;-1622,;>2;1;1;;;;-;11;-;-1:;:;:::--1;1;11:::::::;::::1;-;1>;11,14;---;4&",
";;--;-;;1111;:;-;-;;---:;&;-;;:;::;;::-11144-;:1111;;1--,11211;11;11;;;----:;;::----;1;;;;;:;;;;4::::::1;;::11;-1;>;1,1:;;--;;1&",
";,-*-;;;4;,1;4----;---;;--;-;:;1:-::-:111121;:-111:::1;;12222,;;1;;,;:;-;;---;1-;--11:;1:1:-;1:---1:::-::1:::1;;;;1-1;;14;---;1-",
";;--;;,;1,1;;;-;-;;-;;;;--;;;:;;:--:-:-14161;;-111;;1;1;;121;;;;;-;;1;-;---;;;-;:-:61--::211;1;;::1:1:;-:111;;;;;11;14111;--;;;&",
"-;;;;;;;1211;-;-;:-;:-;:--;;;:1;-;;:;::;1461-;-:1:1;;:;;<1:211-:;;;;;-;;;--;-:1;;;;1;--:--1<;;--1:;11;;;;1;1;,;;>111>1111;;-;;;-",
"-;;:11;:1111-;;,--;;-;-:--;;;::;;;;-;-::1661;-;11:;1-:1;11:211--;;;;;-;;::----1:;-----;--;1;:;--;111;;-,--;;;1;;>1;;11121-;;;;;-",
"-;;,111;;;1;-,>,;:;---;:-;;-,,;;;--;---11161;;;111-:::1;11:211--;;;-;-;;-:;;---;---;;;;--;;1;;;-;:1;1;;;---;;;;;1<;;12211;>-;;;-",
"#1;;111111,,;11>:::---;;&&&&****#-%--*&#-#=*$%-%$--*$*#&%%-@-1;;;:1-@#&&$$#*-*-&*-#=%**-%$-#%$$-%*%$-#$@-;-;;;;;11>;11<11;;;;;;;",
"-;--;<1111111111:;;;;;;-#@@#####&#$$#%##$#%$$$#-$$#$#####@@@-:;:;;1;@@@=####*#%##$$###-##%####$###$##@@$------;-;1;;11>11;;:;;:;",
"---;-;11111111>1;;--*;;;=@@@#===#&&&-%%-%-%-*#**-%*#&#&#@@@#11;;;-;-@@@##&-###$$-#---$-&#-----$$%-$#@@@-;;-*;-;;1;;;111>11-1:;;;",
"----;;1221;1111>;:;;;;;;-@@O@@O@@##@@#####$###@###@@@@@@@O##::;;;;;-##@@@@@@####@#$%###@###$####@@O@@@#*;----;;;;<;1111111;;:;;<",
"---1;,2121,11111::;*;;;*-##O@LLLLLLLLLLLLLLLLLLLLLLLLLLLO@##::---;;;#$@OLLLLLLLLLLLLLLLLLLLLLLLLLLL@@##*-;---;;;;;;>111111;:;;;;",
"---:;141<1>1121111---;1--##.LLLLLLLLLLLLLLLLLLLLLLLLLLLLo@%#<;------###@LLLLLLLLLLLLLLLLLLLLLLLLLLLL@##-;;;----;-,;;;;;111;--::;",
"-;;-;14121>>111211,;-;1;-#&@LLLLLLLLLLLLLLLLLLLLLLLLLLLL@#%%;:;;--;-=##@LLLLLLLLLLLLLLLLLLLLLLLLLLLL@=#-;-;;;-;1-;,;,1;:1:-;;-:;",
"-;;-;1,2221111112;1-;112%$%@LLLLLLLLLLLLLLLLLLLLLLLLLLLL@##$-:;;---*$##@LLLLLLLLLLLLLLLLLLLLLLLLLLLL@$#%;-;;;-;1,,>;;;1;;1;;;;:-",
"-;;;;;1111111111111:;11,-#%@LLLLLLLLLLLLLLLLLLLLLLLLLLLL##%$-;-;-;*-$&#@LLLLLLLLLLLLLLLLLLLLLLLLLLLL@$#-;;;:;;-;-;;1--;;:<;1:-:-",
";1::;112122111234111-:1;%#-@LLLLLLLLLLLLLLLLLLLLLLLLLLLL##*#-;;;----&&#+LLLLLLLLLLLLLLLLLLLLLLLLLLLL#*#-;;:;;;--:-;1;;;;;;;1;-;-",
"-;;1;,,1121111111411-;;;%#-$LLLLLLLLLLLLLLLLLLLLLLLLLLLL@-#----1;-;-&&&@LLLLLLLLLLLLLLLLLLLLLLLLLLLL#&#-;-:1-;;-;;1,>,1;:1-:;;:-",
"-;;;;11111112213611:--;1%$-%LLLLLLLLLLLLLLLLLLLLLLLLLLLL##&&-;&-;;;-&=#@LLLLLLLLLLLLLLLLLLLLLLLLLLLL@%#-;-:1-,--;;11;1,-;:;::;--",
"*--;,1;42122126611:;-;;;%#-;LLLLLLLLLLLLLLLLLLLLLLLLLLLL@&&&-;--,;;-$##@LLLLLLLLLLLLLLLLLLLLLLLLLLLL#-$%;-;1;;--;111111;;;:-;;--",
":111;4;4,112133341:-:;-;-$;-LLLLLLLLLLLLLLLLLLLLLLLLLLLL#%%$-----;;-#&&@LLLLLLLLLLLLLLLLLLLLLLLLLLLL#-#-;;-;-;;-;;11111,11;-;---",
"zBk4-;;44,,2132211;-:;-1**>%LLLLLLLLLLLLLLLLLLLLLLLLLLLL#%#$*;;-----##&@LLLLLLLLLLLLLLLLLLLLLLLLLLLL#$#$;;-;;;:;;;:1,1;;11;---;-",
"NDc2-;;22;12122114-;:1;:%%>%LLLLLLLLLLLLLLLLLLLLLLLLLLLL##-#*;-:--;*&$%#LLLLLLLLLLLLLLLLLLLLLLLLLLLL#%#-1;;1;-;1;;11,11;,1;-;-:-",
"lNj1*,-1,2212222:4-;:1;1%#>>LLLLLLLLLLLLLLLLLLLLLLLLLLLL#-##------;-%&$#LLLLLLLLLLLLLLLLLLLLLLLLLLLL#-#-1,;1-*;;;;41;111;2;-;--;",
"xNj2--;2111211111:;-1411>#--LLLLLLLLLLLLLLLLLLLLLLLLLLLL##$#--------#-$#LLLLLLLLLLLLLLLLLLLLLLLLLLLL#-#$;;,;--;;--1111;1:;41:;;;",
"cBk2*;:1211222111;11:41:%%>>LLLLLLLLLLLLLLLLLLLLLLLLLLLL#$#$----:;;;##-@LLLLLLLLLLLLLLLLLLLLLLLLLLLL@-#-,;11;;::;-11;211;4-;;;:;",
"jcf1--;4211112111;;411;:%%>%LLLLLLLLLLLLLLLLLLLLLLLLLLLL#%%$-&;--;-;#--#LLLLLLLLLLLLLLLLLLLLLLLLLLLL@-#-:-;1;-1-;;;1;1;;1:;;-41&",
"kmf2;-:1211112114-::1141-#>%LLLLLLLLLLLLLLLLLLLLLLLLLLLL#%$$----;-;-#=$#LLLLLLLLLLLLLLLLLLLLLLLLLLLL#-$#;;;1;::-;-;1;;-;:;1::1;-",
"lCj:;;;;222121>1:;;:4-:1%#-%LLLLLLLLLLLLLLLLLLLLLLLLLLLL##=&----;;;-##$@LLLLLLLLLLLLLLLLLLLLLLLLLLLL#-#-:;;<;;1--;;;;-;;;;;---;-",
"jcd1;*;-<1212>>>:--:4:;4%#>#LLLLLLLLLLLLLLLLLLLLLLLLLLLL#-##-----;;;$--#LLLLLLLLLLLLLLLLLLLLLLLLLLLL#%%%1211;;;:---;;;;;;;----1-",
"jnh4;-;;212111-,::;:::;--#;#LLLLLLLLLLLLLLLLLLLLLLLLLLLL#%&#-:--;::-%$#@LLLLLLLLLLLLLLLLLLLLLLLLLLLL#%#-;1111;11;;-4;,1-;--;;:1-",
"lNj4;-;;112>1,,1---11:-:$#-#LLLLLLLLLLLLLLLLLLLLLLLLLLLL@%#&-;;;-;:-$-=@LLLLLLLLLLLLLLLLLLLLLLLLLLLL#-%%;:211;11;;-;,41;;;-:::1-",
"kbg3---:41612,,1;;-11;;;$#%@LLLLLLLLLLLLLLLLLLLLLLLLLLLL#%$$%---;;;-$$$@LLLLLLLLLLLLLLLLLLLLLLLLLLLL#$%-:121,12;;;;;44;;;;;:;::-",
"kbg3:;;1111121111;:;1;;;-#-#LLLLLLLLLLLLLLLLLLLLLLLLLLLL#%%$-;-;1;--%$%@LLLLLLLLLLLLLLLLLLLLLLLLLLLL#*#%-<111;12;;-;:44;:;;;;:;*",
"MFc2-;;:111111;;::;-;;-;-&-@LLLLLLLLLLLLLLLLLLLLLLLLLLLL@$%#;;;;;;--%=%@LLLLLLLLLLLLLLLLLLLLLLLLLLLL#-#%-;11;;144;&;;:::::-;;-;-",
"sga1;1;114512,;;1:;;;;-;-@-@LLLLLLLLLLLLLLLLLLLLLLLLLLLL@$-#<;-;;;;;$=%@LLLLLLLLLLLLLLLLLLLLLLLLLLLL@-#-;;11-;11:;--411-;;-;;;;;",
"$*-;::::161111--1;1;-:--%##@LLLLLLLLLLLLLLLLLLLLLLLLLLLL@#%#1<;;-;--#%$oLLLLLLLLLLLLLLLLLLLLLLLLLLLL@#$-;111-;;;4;-;;;;;----;*;-",
":::::;::144111--1:;;;;;1-##@LLLLLLLLLLLLLLLLLLLLLLLLLLLLo#%#21;<-;;;$%#oLLLLLLLLLLLLLLLLLLLLLLLLLLLL@#$%111;;-14;;;:;1-;;-;;;-;;",
"---;::;:12141:-;111;;;;;-##@LLLLLLLLLLLLLLLLLLLLLLLLLLLLO@$#11>2-;;-#%@OLLLLLLLLLLLLLLLLLLLLLLLLLLLL@#$-;14-,;;14;;:;1;-*---;;-;",
"*;:-;;:114114:--1::;;;;;*#@@@O@@###@####@#@###$##@#@#@@@oO##12-<:1--$@OOOoOO@##@@###@####@#@@@@O.OOO@@$%;;4-11-,41;1;;;--;*--;;-",
"-;:;:;-;41141;*--4:;;;;:*@@@@##&#$#$%-%$###*#-#-$#$$#$##@@@#>21;:1;-@@@#@##%%-###-$*##&*&*%##&##&@#X@O@-;,4;4;-44;;1,4,;---;;:::",
";1;;1;--11111:**-11-;;;;$@@@###&##-$%%$$-*=&$%#$$$%%$$$##@O@<311-;;*@O@$%%%#$$%#%#$$--#&$%#$#-%%-#$#@@@=1111;-;4,;;4;4,;--;-;;-;",
"-::;1--,111111--;::;;:::@@###&&&#%$$$$$$##$%*%#%%$#%%%$$###o-31<;;;-@@###$##$#%%$%%$#-&*-#$####%#%%$$#@#12611;;1;4-;12-;--;;----",
"-4:;1*-414114:;-:1:---:;--;;;;--;:;>1>-------;-;-;--;--;;<<<1111;;;--;-;;12<;-;;--;--;-;-;-;;;1;1;><1><,1111,-,2,,-;411-**;;;;--",
"&;;;1--114112::;--4;-;-;;1;:--:-;;;;11-;--*---1;:;--;:-;;;14<111;-;:::--12631:;1:-:1:1::11;1,1;111111451;,2,;;114,;;41::--;;::;:",
"-11;;-;1114111;;-1:--;:;;:--;-;;;;--2:-;-;--;-1;-;--;:-:;-111;:1-;-::---2111<:-:;--:;--;11:,;;;;:1121116212;1;1;;;;,111;*-;;:-;-",
"-;-;;;;1111111;--;;1-;1;1::;;-:,;:-;2;;;---;--;-*---:;;:1;162:;;--;;:---;2131;-;--;-;1:111:11,;111116111142,21,;1;;14;1:-:::;--&",
"&;--;-;11141:1-;--;-;;::411:--:1:--11--;------;;---::-;-:1641;11;--;;;-;<1161:;---;;::::;4;:1111;1116113,4,2141;4-;;4;::--;:;;;-",
"-1;-;;;14:11:1;;--;--;:;:1,1,;,,;-111;-;---;;--;------:-<11<112:-;-----:12221;-;-;-=;;,,;11;;1<1<;1111112,4,14;;;-4,1:::-;::-;-*",
"-1,-;1;,111111;-*-;;-;;114211,11:;112;;--:;;3<;<;-;-;;;-<1;1212;----;--:12231:-:;1;-;,1>:1;1211111214161,4221,4;;-1,4::;;::;-;;-",
"*11;;;;1111111;-;;1;;;;1-->-;--;;-->------;-;;-;------;--;--<121-;:-%--;-<<<:----;----<-->;->;-;;;-><-<-,411414;--114:::-:;:;;-*",
";;1-;;-,1:1:<1;;1;1;-;;1&X@$##$##=#####$*&#$#%$#&##&&####@@O-22<:-;-@#@#############$$##%$%##%#$$#$##$@@4111;;;;;4;;::::-:;-;4;-",
";::-;;;1,;,,1;-;-11:;-;1-@@@#-&##%$--%-$#--%-%$%-*#-%$$%#@O#>1>11;;-#o#$%%%>$$$$-$$#$--#---#-#&=*-*#@O@&11;4;;11,;;;4;------;4;-",
";;;:11:;;;;;4;1--:;:1;::&@@O@@#####%$##%%####$$$######@@@@@@161>;;--$@O@@#$%###$%$$-##&#@####&###@@@@@@-;;;;,4,;-;;,11;;;;;;;;-&",
";;;;;;,1111,,,;;;--;;-1:-@@OOO@@@##@@#######@###@X@#@@@@o@##<22>::-;#%@@Oo@@@##@######@#@@###@@@OOO@@##=1;;:-1;;--,;;;-1-;;-;---",
"--;;1;:;1,;;41;;;:-;--;;-##OLLLLLLLLLLLLLLLLLLLLLLLLLLLLo@$#;21-1:--%%@oLLLLLLLLLLLLLLLLLLLLLLLLLLLL@@#-;-;:;1;;-;;-;;;;--;;,;;&",
";;;:1,;;-;;-1;;;-1;;;-;;-##@LLLLLLLLLLLLLLLLLLLLLLLLLLLLo@%$-21-1;;;#%#oLLLLLLLLLLLLLLLLLLLLLLLLLLLL@#*-;---;;-1--;;;;;;-;--;;1&",
"-:;11;,1;;--,;-1;;;-;-1:&#&@LLLLLLLLLLLLLLLLLLLLLLLLLLLL@$%$-22>1;;1#%%@LLLLLLLLLLLLLLLLLLLLLLLLLLLL@###;--;;;;1--1;1,;;-*--;;;&",
"-:-;,;-1;;-;;-;;;;--;-;,-#&@LLLLLLLLLLLLLLLLLLLLLLLLLLLL@%%%>12>;;1;#-#@LLLLLLLLLLLLLLLLLLLLLLLLLLLL###----1,1;1--;;;;;;-;*;;;;&",
"-;1:;;;--;,;-;;;;:;;;:11$#-#LLLLLLLLLLLLLLLLLLLLLLLLLLLL@%%#>221-;1;%%#@LLLLLLLLLLLLLLLLLLLLLLLLLLLL###-4;1,,,-;*-;;;4;;;;-;;;--",
"--;;;;;;;;,;;;;;1;;,--,1#$-#LLLLLLLLLLLLLLLLLLLLLLLLLLLL@%%$<7262;:-$$##LLLLLLLLLLLLLLLLLLLLLLLLLLLL#&#$:;::;;-&;,;;;4;;;&-;;;;;",
":1;-;;;:;44;1;;-,;;1;-;;-##@LLLLLLLLLLLLLLLLLLLLLLLLLLLL#%%$13261<1-#-#@LLLLLLLLLLLLLLLLLLLLLLLLLLLL#*#-;---;;*-1,;;;1;;;;;1:4--",
";:;1;:1;:4*-4;;-;;;1;-;,-#*#LLLLLLLLLLLLLLLLLLLLLLLLLLLL#%%$>31>2:11#-*#LLLLLLLLLLLLLLLLLLLLLLLLLLLL###$;;;;-;-&;;;,;1:;;;:;;4-;",
"-1:11;<;;4*-;;:;;;-,:;14*#-@LLLLLLLLLLLLLLLLLLLLLLLLLLLL#-%#%32>2131#%#@LLLLLLLLLLLLLLLLLLLLLLLLLLLL#-#-;-:;;;---;-;;,;;-;;;;,-&",
"*1;;1;<1;,---11;;;;11;4;##-#LLLLLLLLLLLLLLLLLLLLLLLLLLLL#%%#;132223<#-##LLLLLLLLLLLLLLLLLLLLLLLLLLLL#-#$-;;;;;-&-*;;;::;;;;,;--&",
"-1;:;;11;;---;,1;;1,;11;-###LLLLLLLLLLLLLLLLLLLLLLLLLLLL$%-#-1112232#$$@LLLLLLLLLLLLLLLLLLLLLLLLLLLL###--;;1-;---;;-:1;;-:,;;;--",
"-:;:;;1;;-1:;;;;1;;14;;;-#-#LLLLLLLLLLLLLLLLLLLLLLLLLLLL#%%#--11;<2<#-$@LLLLLLLLLLLLLLLLLLLLLLLLLLLL#*&=-&-,;;-;;;;;;1;;;-;;;-;-",
"*;-1;;1;--1;:-;;;;:;1;:1-#$#LLLLLLLLLLLLLLLLLLLLLLLLLLLL#%%$--;2<<<;$%*#LLLLLLLLLLLLLLLLLLLLLLLLLLLL@*#---;-;;;;;;;;;1**;-;;;,--",
"--;;--:--;-*;;;;;;;1111;-==#LLLLLLLLLLLLLLLLLLLLLLLLLLLL#$=%;;-31:<<$%##LLLLLLLLLLLLLLLLLLLLLLLLLLLLO=O=;;1;;;;;1;4--;&-;-::;::-",
"-------;;-----;;;;,11;11&&-#LLLLLLLLLLLLLLLLLLLLLLLLLLLL#$-$;;;1122-#%&@LLLLLLLLLLLLLLLLLLLLLLLLLLLL&=>>--1;;;-;:;;;;;----;:;;;-",
"--:---;:;-1;-;-;-;11;1:;-#&#LLLLLLLLLLLLLLLLLLLLLLLLLLLL#$%$;;-;;13<###@LLLLLLLLLLLLLLLLLLLLLLLLLLLL#===;-;;1;;;;-;;;;---:-;;::-",
"&-:-;-;;---;;;;;-1;;;;11##-#LLLLLLLLLLLLLLLLLLLLLLLLLLLL$$%$-1*;;-31#-*#LLLLLLLLLLLLLLLLLLLLLLLLLLLL#===;;;1;1;;;4;;;;-*-::-:;;&",
"--;;;--;-;;;-;;;-;;,1111%$%#LLLLLLLLLLLLLLLLLLLLLLLLLLLL#$$%;1-;;-<2*%##LLLLLLLLLLLLLLLLLLLLLLLLLLLL&&==;1;;1;;;;;-;;----:;4;;:-",
"-;;;;-;;-;;;-;::;-4;;114-%-#LLLLLLLLLLLLLLLLLLLLLLLLLLLL#$$$-;--;-12#-&@LLLLLLLLLLLLLLLLLLLLLLLLLLLL&===-;-;;;;;--;;;*-*;:::;;;;",
"*:-;--;;-1;;1:;:;-;1111,%%-#LLLLLLLLLLLLLLLLLLLLLLLLLLLL@$$$-;----11#%$#LLLLLLLLLLLLLLLLLLLLLLLLLLLL&=&&---;;-;;-;;-;**-:-;:;;;;",
"-;-:--;:;1;;;:-;;;11,111%#-@LLLLLLLLLLLLLLLLLLLLLLLLLLLL#$$$-;;-;::<#-#@LLLLLLLLLLLLLLLLLLLLLLLLLLLL=&=&--;;;-;;;*;**;;;41-;;---",
"-;----::;;::;;::-;;;;;11-&-#LLLLLLLLLLLLLLLLLLLLLLLLLLLL##&#-;;-:-:1#-@@LLLLLLLLLLLLLLLLLLLLLLLLLLLL=$#-&-&;;-;--&;;-;-&;1;;----",
"+;;-;-::;;;-;;:;;-;11;11###@LLLLLLLLLLLLLLLLLLLLLLLLLLLL@#$&-;----:1$%%@LLLLLLLLLLLLLLLLLLLLLLLLLLLL$=#=;&-;;;&--&&;-;;;;--;;--;",
"-:;;-&::;;**-::;;-;1;;;,-@#@LLLLLLLLLLLLLLLLLLLLLLLLLLLL@#&#-;--:-:1#$$@LLLLLLLLLLLLLLLLLLLLLLLLLLLL#$$=-;;;;1;;--&&-&::-:-;;;-:",
"&:-;;-;;--*-::--;;111;---#-@LLLLLLLLLLLLLLLLLLLLLLLLLLLL@#&&;;;---11#$#@LLLLLLLLLLLLLLLLLLLLLLLLLLLL@$#-;;;;;;-&-----;&:-&:-:;;;",
"-;;:;-;;;;---:--;;;11;;;$##@LLLLLLLLLLLLLLLLLLLLLLLLLLLLO###;;;;-:::#-#@LLLLLLLLLLLLLLLLLLLLLLLLLLLL@$#-;;;1;;;-;--&---;;;--,;;;",
"-;::;;;-:--;-1::1:111--:-@$@LLLLLLLLLLLLLLLLLLLLLLLLLLLLO###-;:;;--;##@OLLLLLLLLLLLLLLLLLLLLLLLLLLLLO-#%-;-;;--&---;:;;&---;:;;;",
"-;::;-;;---:::;:::;,1,;:-##@@LOL@#@@@++@@@@#@####@@@LLLL@@##-;:;----#%@@LLLLO.+@#@##@@#@##@@@@#@LOL@o$#--;111-;----;51--;&-:;;;:",
";;;:;--;::::;4::;1;,;;11#@@@O@@##########&##$$#$###%###@O@@#;;;1:---##@O@@##@#@###&####&&#########@@@@@$-111;;:--&-151&;;--;-:-1",
";-;;--;;;;;1;:;;;1;,,,1,*OO###==&&&*-=%%%-$#=-#-#--$$*$$@O@#-;-:;*--#@@@##=-#-=&$$$$%-$-#-$$-&=&$$###O@--;1,;-,;--;132;--&;1;:;1",
";;;;-;:;;;;;::;;1:;11114&O#O###$&&&#$$%%$####&#$#####$##&O#O-;-;:;--@O##@##@##&##$##$#####$##=###$#@#@O#;1;;;,,--;;132----1:;:;>",
";----;::;;;;1:::;;11,,,1=&=-=-=-**-*-------*-&&---#-*------&-;;1;:;-#----;-------*%----*--------%-$--=$@;1111;;-->1121----,1;1;,",
";;;--;;:;1;:::;:141;;,,4,4,,2,,1:-::;;;;--;;-:;-:;;;1:::1;1;;;;;;;-;*-;;1:;;1,-;::;;1;-:;;1;1>;;,;;---;2-1121-;;-112<;----;1;;:1",
";;;;-;;;:1:;:;;;14;;4414;;:;,;,;:-::;;;;-----:----;12:-;;;;;;;-;1;-;-;;;111;12;-;;::1:-;-;1111,;1;;-;--;-,111;:--123>>;-*;,1-;;>",
";;;:-;;;1:::1;-;;;4;,,141;1;,1,;:;--1--;----;-;;;--12:-:;11:;;;;1;;-;::1:111111-;:::1::--;13111,;;;-,--1;;1;;--&;121->;---;1-;>;",
":;;;;;::;:;;1;;;;,1;,,;1;-;;1;;:;::1::;--*;---::1-::;---;1;;;:;;;;----;1;1::1,1;-:::1-;;;111,1,-;*-;;;-4-;:1:;&-,211--;=-;;,--;<",
";;;--;:;11::1;;;;;4;,411:--,;;;;:-:;;:;-;---::;:;:::--;*-1411-;;;;&---::::1;;;;;-;:1:;:-;11341,--;&--*-1;;1;:-;:112>%-;-;;;1-;<;",
";;:;;;;;;:;:::;;1;11-;;::---;;::;:;;;;;;;;-;1;;1;;:;*-;;;;:1:--:-;---;-;;;1;-;;;:::::;:;:::1;;1-&*&*&&&;-&-&#*&-22,,;;;*-;11--;-",
";:;;;1;;;1:::;;;;;11;;41;--;--;;41;1;:;--;:-1:;;-;;;-;-::41;1*;:-;----::4;;4;:,;;--::-1-:;14;;--**--*-*;--;;-<1444;;**-;;;11;;;;",
";1;;;,;4;;:;1;;;-,11;1;;:;;;--:::;;;11--;;;-1-;;;-;-;:;;11:;:--;-;;-*;;:;:;1;;;;-:-::-1-;::4,;---1-;;-;*;:;;-;--*1*-*-;-;111;1;;",
";::;4:;:;;;;:;;:;111;44;;*---;::::::;;;4::;;:1--:;-;1;;-11;41;;;:;;;-*;;,;-41,;;--;-1-:;;-;:---475777677576777785-;-&;--1;111;->",
";1;114;;;;::::;;1111;;;;;;-;--;-:-4-;1;1;;;;:;-;;-;;;-;-;,121;;;:;;;*;;:,;444;;;;;--1;:;;-;:&;-sGvBzzNBBBNADDHBGy+--&;;&;;,111->",
"-4,4,1;4:;;:::;;111;--;;---;:44-;;;:111:;;1-1;-*;;;:::;;1;14,1,1:-1:::;14;4;;4;-::--4;:;;;;*&-;NHDCzvzDDDDNnAGBHy&,---&---;;;;-<",
"-;;,1:;1:;;;:;:;1111;;;:;;-44:;-:;;:;1-:;;;;1;;---;11:;-,;111111:;;,;1114;4:414;;;;;11:;:;--&;-sGvCzjvNNBvnADFAJy&,*,;*--*---;->",
"-;1;;;;:1;4;;::;-111;;;11:-;1;4-;;;111;-;-;::-;1:;11---;11144,114;;;;4114;1;;;11;-;;:11;;*;;---2557766554450NGBJt&,-21-------;-;",
"-;;4;;-;;;1;;--;-;1;,1-4&-;->,,----;--;-----------;----;>-;-11251;;-=,>;>;-;-;;-;----;--------*-*---*-*$1*1+qHnJy&-&12,;------;;",
"*-;:;;-4;11:---;-;;-;,;;&O#=#$##$-$$#$%%#$$%$####%#%#%#$$##@>1164;--@@$$#$-&$$#$$$#$#$%%%%###-&@@###$@@#:$:<:ZZJy&-*1,,------&-,",
"-:;:-:;11111---;----;;;;-@O@#@@@@@@@@@@@@@@@#@@@#@@#@@#@@@O$,121,1;;=OOO@@@@@@@@@@@@@@#@@@@@@@@@@@+@@.O#:--:<NNGyX--2;1;;-;----,",
":;;;;1::;;1:----;;---,-;&@@@@@@@@@@@@@@@@@@@@@@@@@@@@@@@@@@$1111;;1;&O#OO@#@@O@O@@@@@@@@#@@@@@@@@@@@@.#%:-211DMZe&-;41;------*--",
";;*--::;-;:;-;<:;;---;;;-#@#-##-=&=&>-=--$&#-#&*%%$%**$%$@@#,1111;1,*#O&%-;;;-%-%#*#-&-=$%%-%##*&*&*#.#%;*112ZbNe&;-2;---;-;;--,",
"-*&-:--;;-;-;>1;;;---;-;%#@@--###&=$===&%$##&###%$##$#--#O@#;221;;1;=&O#<-%%-$$$-&#-###&$%%%-%%#*#--@@#-;*::1NlNe&;-1;-;-;*-,;;,",
"4-;;---:-:;;;11;;;-*;;;1-#@@--;;-;;,,,,,>;;;;;;;--;;::-$#@##>1:11;1;$#O$%-;111<;;-;;;;;----;---;-;-$@@$*--:-2McMe&*-;--*-*--,;,-",
"&&&--;::-::-;121:-1---;;-#O@-$;;;;,,22441>1;;:11--;::1-**@##1111;;11$$O&%>4,1111111;11;;;;-1;;;>::$-#@$*--:;2SZZe&;-1-&---;--;4*",
"weq<;;1;-;;;;;1:;;;1-;;;%#@@;$-;--;11411:;:;---;-;:;;:;##@#%1112;;1<##.%%>2>121111,,1;----;4:;:;;;%-@@#---:-1DBSe&2-,,-;-*;;;;;*",
"BDc3&111-;;;;:411;----1;-#O$-$,--;:4;1:1:::;;-;;--:::1;*%@@-<2,1;:11%#O%$>22211;11;;1;;;-;;;1-1;:1#*@@#-;-;45DDSe&--,;--;-*;--1-",
"lNj3;1;1;;;---4111-----;%#@@-=;--;1:11;,;;:;;;;;--:::1;#*@@%<112;;1<##.-$-2212121,-;:;;-;;;11--;11-$@O#%;-;12FCDe&2*4,-;;**;-;;&",
"lBh111:;;;;--;4:1;=-;-#;%#O@--;-;;:;14,4:;:--;;;-::;;1;##@#-1121>;1;##.-->2111111---1;;--;11,-;:1;$-@O#-1*-11DBDt+,*25;-;--;;1;&",
"cBk3;1;;:;---:121;1;;-;;-#@@$$;;-;;;1;;4:;;;-1---;1;-:;*$@@%<111<11;%@O&--4142;;1;;;1-;--;;;1--11;%%@@#-1*;42nvBe&;-;14*----*;:;",
"cZk2;:----;;--<211;;-;;;-#@@$-;;-;:;1;;11;;;;;&----;;:;#$@#-;321112;%@O--;4151111:-;:-:;;-4::--:;;$-#@#%-*-;2FCKy&1&*;1----;;;11",
"kMg111;;---;-;2111;-;;;;##@#-#;1--;-1-*111;;;1-;----;;;#*@@%;111111;%@O>%-111,11;;;;1;;;--;;;:;--,%%#o#-*---3iis9;2;;-;--;&-;,;;",
"cSk2;<;;::---:11611;;<1;-#@@&--;;;:*;-&14;*;;1--;--;;1;#&@@%>1<2111;%@o-%>,2611,1:;:;;4-;;;;-;-;-1###@#---;*:*&#;5111:;1-;;--,;-"
};
