/* XPM */
static char *door_acacia_upper[] = {
/* columns rows colors chars-per-pixel */
"128 128 62 1 ",
"  c #7F7B77",
". c #8C5431",
"X c #8B5837",
"o c #84573A",
"O c #86593C",
"+ c #8A5C3E",
"@ c #915E3C",
"# c #93603E",
"$ c #855B42",
"% c #8D5F42",
"& c #915F41",
"* c #8E6144",
"= c #86634C",
"- c #8D644A",
"; c #8F684F",
": c #926344",
"> c #986746",
", c #976847",
"< c #986847",
"1 c #946648",
"2 c #976848",
"3 c #996948",
"4 c #866957",
"5 c #8D6A52",
"6 c #846D5E",
"7 c #8D6F5C",
"8 c #916950",
"9 c #8C715F",
"0 c #846E61",
"q c #877265",
"w c #8A7365",
"e c #88776C",
"r c #86786D",
"t c #877A72",
"y c #897C74",
"u c #817E7B",
"i c #8F8076",
"p c #83817F",
"a c #8F837C",
"s c #7E7F80",
"d c #807F80",
"f c #848483",
"g c #8A8784",
"h c #898987",
"j c #848789",
"k c #868A8E",
"l c #8B8B8C",
"z c #8E908F",
"x c #94928F",
"c c #8B8E91",
"v c #8D9194",
"b c #939494",
"n c #999797",
"m c #9A9897",
"M c #92979A",
"N c #95999B",
"B c #9A9B9B",
"V c #979EA1",
"C c #999EA1",
"Z c #95A0A3",
"A c #99A0A4",
"S c None",
/* pixels */
"*:**11::&;&&8&1&1-%%-1&&&2&1&1&1:#::#-*:****&%1::>::::::#,#-#-##-##--+:::::::***1&8&-&1%&8&1::::::1&&&1%*::::>-*:**1::,::::*::#:",
"%:%:%:1%&1-&1&1&%%=%&-&12&&11&1&:::::**,**:*1&&:::>:::::-#-#,#-##--##-:::::***-*&1&%8&&1&&&&1:&:::&11&&&*:*>::**1%*1::::*::*:::#",
"%:%11%:%%&1&&11%1%%&-&2&-1&&2&-&::::::*#**::1::&:::&:::>-,,##+-,-###:#:#+::*****&&1&%&&1&%11::::::1&&&-&*:*>:::*1%*>:,:::::#:#:-",
"*:%*%1%11&>31&1%%1&-&1&-&&&-&&2&1:##-#*:**,:::&:::>::::>+,#--##,-,#-#---:,,#****8&%&%&1&%&1&&:::>&&>--&1:**::>:***%:*11>:*#*:-:#",
"1&%%&1%%&11&11%%%1-&1&-&&1&&1&1&:::,**::**>::::::#:**:::#:##-##:#-#-#--#*>::*-:*&1&1&&&&;%::&1::&&1&%1%1::::::*-*-%**:::,+#-###-",
"&1&1%%%1&1&11%%%1&%1&&1&1&11&&&1,#::*:::**::&::::::#:*::-:,-#:::,##=,+#-::,:**,*&&-1-%8-&&1&%&:111%&%&%-::1>%:1**$%*:::1-+,#:-##",
"&11%%1%1>&>11&%1&&-&-1&%&1&&&2&3:::::::,***::&*:::::::::-##:::::,+,,,,-#::::*-:*&8&-&&&&%%811%&11&&--&%--:*2:>1*1%%1-:1:#--:-#-#",
"&1&1%1%%&:::1%%11%&-&1%1%321&&1&:::::*::***:::*1::::::::#-,::::#+,+,,+#-:::#:*:*-&%&&-11-&&1%1&1&--&%&%%*:*::::*1%*1:>:*,##:#::+",
"%1&1&1&%11&11&%&::1:::*%%3:1::::::::*:#:&%%&::&:::::::>*::::#::-::*::11%:::::%*:%%&%&&&&1%1%::1:&1&11&1%1%111>*-:::-#---+###,#,+",
"%&&113%1&11&>%%1&:1:111&%1&:::::::1,*#:,%1%1::::%*:::***:*:::+:#*::::&:::::::*::&%&-&81%&%&1&:::&1&%&:%&&1&:::1*:::##,###--##-#-",
"%%1&13&&&11:1&1%%1>:>:1%1&1::%&:*:::-*#,1%1&::1::*>>>**%:::::-:##*::1&%::::*:*:*1&;&%;%&1&&%&:::%11%1&%1::::::1%:::,,--,-##-#-#,",
"1&11&311&&>:&%%111>:1:**1&&1:::>:#::*:::%1:&1&:1*:>:1****:::#:::*#*::::1*:%:::::11&&&&&1%1&:1&1&-&1%11&%*::1:1*-::-#,#,,-#-####-",
"%%&-&81%&1&&1&%%%1>&11&*:1::&&1:::#:&::11&1&:%1%%::,1:**%::>:*#*::#:::>%*&1%:*1:&&1--&%11%1&*%11&&&&1&%1*>:1::-%-:-#-#,##-##,#,-",
"%&&&%11&1%1&&1&:%1111&%*:%1&:&&:>::::&::%11%:%&1*:1::::***::::**:*:::1:1*:%%:%1:8&&&&&-&%%&%%1%%&18&1&%;*::1::$1,**1-,,--#---###",
"&&11%3&%&111&&%1%:&:::::::&1&1:1:::1&%:&%1&%%%:1*:::,:**:%*:*:::##:#:::1%*1%1%1:&11&-&;&%%1%::1*11&&2&%&*1:,:*-*:**:-#-,#-##-#-#",
"&;&1%11%1%&%1%1%*1%:1%:%::1&1%&&::::&11&11;&1*&%*>::::**:%::#**#--#-1&:111:1%&1:11&%1-%%11%1**:131&1>%%&**>:>*::,**1-,##-#-##,#-",
"%1***%:&*:#:***:1%1*%:1::::::&::&:>:&::::1&%:&1%%>::::**::::*:*##--,#-,,1:::*:>::2****1*:::%1:&*>::>>%:::&::11&1::::***::*#::*#:",
"%1*%::*:*::*:**:%%1%%:&*:::>:::::::::::&::1%::%1*:*::*:*-**,:::*-##:::#,::::::,>:2**::::1:*::1%::>*::%::1:1:1%%1:-*:=*:1:#:#-##-",
"%1:%>%::**:::**,**1%%>&::::::&:::::::::&%&%%::%:::::::-:#*-:1:#*+-#-:::11-*-::>:*:**&::*>*:::%&%>*:::%:::%1::%%>::*--*,1:::-:::*",
"%::%::::**:::**:*&:%::::O+++%+%&%@::%+%%%O%%++%+%%+*:+++++#O+::,#::#O+++++#+++++++++%+%%++%++%%%+%++++O+%%>:1%%::**:**,1::#::*#*",
"%::%::-:::>::**:1&&1%1::OoOOOO+++:%++++++OO++++++++%#++++OoO*>::,,:*OoOO++++++OO++O+O+%++O++++++O+++Ooo+11::1%%1:-$1*$1:-#::#*::",
"%11%*:::::::,**#%11%11>:+OOO+++%+::+++:+O%+++++%++:+*+++OOo+#::::::+OooO+++#+++++%++++++++%+++++%O++OOO+:1::3%%3::*:**:>#::#:**#",
"%&:%:#*:::,::*:#%&%%&:1:+++oOOO+++%++++%+O++++++O+++++OooO+O*::::::*+OooOOO++O++O+%OO++++O++++++OOoooO%%*>::1&&>::::-*::-#:#:**:",
"%1&1,::*#::::-+-111%::::&+OooSSSSSSSSSSSSSSSSSSSSSSSSSSSoOO+:::>#,#-+OOoSSSSSSSSSSSSSSSSSSSSSSSSSSSoO+%%:>1:&1&>:::>*$*1-#::#:**",
"%>&1::1:#-:::-:#*::*::,:%++OSSSSSSSSSSSSSSSSSSSSSSSSSSSSOOO+::::,:1#++OoSSSSSSSSSSSSSSSSSSSSSSSSSSSSO++%:1:::::::**:**:1*+::#-+:",
"&11&:&:::#:::#:,::,+::::+:%OSSSSSSSSSSSSSSSSSSSSSSSSSSSSOO+O&&::::-*+++OSSSSSSSSSSSSSSSSSSSSSSSSSSSSO++%:1::>::>11*:*+::::::-#:*",
"&::1::::#-::::*:-*#-#,::+:+OSSSSSSSSSSSSSSSSSSSSSSSSSSSSO+++%:::::+*#OOOSSSSSSSSSSSSSSSSSSSSSSSSSSSSO++:1&:1::&:::**:$:1::-::*:*",
"11:::::::::#,*+:::,-:#:::+@+SSSSSSSSSSSSSSSSSSSSSSSSSSSSOOO+::::::**+++OSSSSSSSSSSSSSSSSSSSSSSSSSSSSO++#&1:&::&1***::%*:::##:*:*",
":::::>#::-#-::#::,:#::::#*++SSSSSSSSSSSSSSSSSSSSSSSSSSSSOOO+%:1::--+#++OSSSSSSSSSSSSSSSSSSSSSSSSSSSSO++*&1:::::>:%*::**::*,:#::*",
"##,#::::#:::::::,:**::::*:++SSSSSSSSSSSSSSSSSSSSSSSSSSSSOO+%%::::#,++++OSSSSSSSSSSSSSSSSSSSSSSSSSSSSO+++::1:>::>>*%::**::*#*::*:",
":::,,::#::::*:*:#,:*::::+:++SSSSSSSSSSSSSSSSSSSSSSSSSSSSO+O%%*:::#,#+#OOSSSSSSSSSSSSSSSSSSSSSSSSSSSSO#+%::::::::::11::-:**::::**",
"##:*#:::+*,1#:::::,:#:::*:*+SSSSSSSSSSSSSSSSSSSSSSSSSSSSO+O%%:::-#-#+-+OSSSSSSSSSSSSSSSSSSSSSSSSSSSS+++*>::>::>::1&%,*:#:*:*#:**",
"-:-*:::#:*:::*:#::,:#:::::*OSSSSSSSSSSSSSSSSSSSSSSSSSSSS+O%+%1:::#:*+**oSSSSSSSSSSSSSSSSSSSSSSSSSSSS+++*>::,::#1:,#*:1&::&:&:::%",
"hna-:##:#*,:,**::::::*::#:#+SSSSSSSSSSSSSSSSSSSSSSSSSSSSO+O%%1&::*:*++++SSSSSSSSSSSSSSSSSSSSSSSSSSSS++++::::::,:::**1*1:%:&:%:%:",
"zVl-#:#::*,#:::#:::#::*:*:*+SSSSSSSSSSSSSSSSSSSSSSSSSSSSO+++%*:::**#++++SSSSSSSSSSSSSSSSSSSSSSSSSSSS++O*,::::::::::*:%*>%%:%::%:",
"fzp1:#:,::::,:::::::#*-:##*+SSSSSSSSSSSSSSSSSSSSSSSSSSSSOO++%:::::-*+#+OSSSSSSSSSSSSSSSSSSSSSSSSSSSS+%O#:1:,:::::,:*1**::&::::*%",
"fvf-:#:#::::#:#:*::::#::*:#+SSSSSSSSSSSSSSSSSSSSSSSSSSSSO$++%:*1:::*+++oSSSSSSSSSSSSSSSSSSSSSSSSSSSS+%O*:::::::::,:*:*:>:*::::**",
"hbf-#:##::::::#-*,**:*::#:**SSSSSSSSSSSSSSSSSSSSSSSSSSSSO+++*:%1::-#++#+SSSSSSSSSSSSSSSSSSSSSSSSSSSS+++#*::1-:::::**:*:::*#:::::",
"pl -::#:#::::#:*:::-#-*:#:#+SSSSSSSSSSSSSSSSSSSSSSSSSSSSOO++%***::*#+*+OSSSSSSSSSSSSSSSSSSSSSSSSSSSS++O*#:::#:::#:**-*:::::#:::&",
"fl -:#::#-:#-:#*::::#+,:***+SSSSSSSSSSSSSSSSSSSSSSSSSSSS++%+%:>***-*++++SSSSSSSSSSSSSSSSSSSSSSSSSSSS+++:+-1::,::*::*:::::::::#:*",
"jbp+#,###,#-#-#-,#:*:#:##:+*SSSSSSSSSSSSSSSSSSSSSSSSSSSS+OO+%&%1:::*++++SSSSSSSSSSSSSSSSSSSSSSSSSSSS++%***,:+-,::*:%-::::*#:::::",
"pk -,#-##-,:,###::**:*::*#-#SSSSSSSSSSSSSSSSSSSSSSSSSSSSOO%O:1%::::%+++OSSSSSSSSSSSSSSSSSSSSSSSSSSSS+++**#::*:##::**::*,:+:*:#::",
"pzp--##-#:,:##-#*,+=::::+-++SSSSSSSSSSSSSSSSSSSSSSSSSSSS+%+%%1*:>::&+++OSSSSSSSSSSSSSSSSSSSSSSSSSSSS+%+#*:,:*#:##:#*::::::::#:*:",
"pbp-####-#-#--#,::#*:#::+#*#SSSSSSSSSSSSSSSSSSSSSSSSSSSSOO+%%>:*:::*O++OSSSSSSSSSSSSSSSSSSSSSSSSSSSS+#+:*::::#-**::::*::*::::*1:",
"sks-,#--#,--##-#:::*:#::+:+#SSSSSSSSSSSSSSSSSSSSSSSSSSSSO+++*>::::::+++OSSSSSSSSSSSSSSSSSSSSSSSSSSSS+*+:#::::*#:::::-::#:#::::::",
"pzp:####-#,##-,#::#--:::+:-+SSSSSSSSSSSSSSSSSSSSSSSSSSSSO+O+%:::&::%O++OSSSSSSSSSSSSSSSSSSSSSSSSSSSS+++::::::::*:::*1:,:*:::#::-",
"jNj-#-###,#,#-#-::-*::::#:++SSSSSSSSSSSSSSSSSSSSSSSSSSSSO++O:>:1&1:%O++OSSSSSSSSSSSSSSSSSSSSSSSSSSSS+%%::::*:#*#:::**##,::::-#:,",
"ipi:,#-,+#--##,##:##-##-+#++SSSSSSSSSSSSSSSSSSSSSSSSSSSSo+++:::::&:%++OoSSSSSSSSSSSSSSSSSSSSSSSSSSSSO#+::->:::*:::::-::-:##-#:::",
"+@#::,#:##-,+,#,-#:--#-#+#++SSSSSSSSSSSSSSSSSSSSSSSSSSSSoOO+&:>%:1%&O%OoSSSSSSSSSSSSSSSSSSSSSSSSSSSS+#+##;#,###;*:::,-#-#:#::-+,",
"#:::::-#-####--,#-###:::#-++SSSSSSSSSSSSSSSSSSSSSSSSSSSSoOO+::>::&1%O+OoSSSSSSSSSSSSSSSSSSSSSSSSSSSS$++-,#,+,;###:,::##,-#-#,#+-",
"+##:,:+#-#,+,,-,,#---,#:+++OSSSSSSSSSSSSSSSSSSSSSSSSSSSSoOOO::>:&1%&O+ooSSSSSSSSSSSSSSSSSSSSSSSSSSSS$++##,#=-#;#::::::#-##-,::-#",
"-#:-*#-:##-,+,###-#,##-,#++o++:+#+OOO+++++%+OO+O+OOOOOoooOOO%:::1%1&OOooOOOOOOO+++,#:#*O+**#+#++#+OooO++#--#;###-:::#-:#::::#:+-",
"+:*:::+,#,,+,#-#::,#:,#:++O+-+-+*:++++*+%+%+O%O%+++++OO+OOOO&11::&%%%ooOOOOOOO+%+,--;+#+***+*:::-+#$OO+#,#,-#-+;,,#:-#-#-#-#---#",
"*:-*::-##-+,#-#,::::::,:+OO++##-##*++++++++++O+%++++++O+OOoo:1::::1&OoOOOO+++++++####+,-#:#*+#+*#++O+OO+-#-#,#,#-#,##-###,##,#:+",
"*:+:-+#:,##--##-,::::::#$O#+#-##+#+O++#+%++%++$$%+OO+O+++OOo%>::1:&&o+O%O+OOOOO++--##++#*#*#++*#-+#+#+$+,-#-#-,###:-#-#--#:-#-:-",
"*:*::*-##,###-,#::,:::::##-#,#-#**:*::**%:%:&%%%::%::%%%%%:%*>*:::1&%&%%%::%%%%:+,###;#-#***::::##:--+###,,##-+,:::::#:#+,::#:-#",
"*:**:*:*:#,#-#,,::::,#-#,:::,-##::::::::*::>1&%%::%1:&11&&11>::1:&&1:1&1:>1&1*11-##,+,,+#-#,-,+,,#,#:##,,#5,-##+##,#::#-,-#-##-#",
"+:****:#*::*###-:#,::::,::,:#-#-:::*,:*-*:::1&%1::%*1%:%*1::>:::%1&%:1&:*::1%%%%,+,+-++,+,,+#+,+:::::-,-#,##+,,+--#-#:##-#-#,-::",
"*1**:*:*:*:##--,#,#:::#,,,:####::::*:::**:::1$%%1**:%::&::>>>::11&&11:%1:>:*1&1%#,,+##,+,,#,-##,::::#--#-++,,-#,#,:#-#-##-#-:+-,",
"*:**::*::#:*-##:,#-,,#-#:#,--+,#::::,-:**:>111%1****1:::::>1>1:>&11&::11:1::%1%:-#-##;+,+,-#,#-,#-#:-#,,,+,#+,,+#-#-#,###,:#:-#,",
"*:*::*:*:###-##:-#,#-:#-:::::-#-#:*:,***1%::1&1$:*::*:::&1::::::1&%%:&:&::::1&*1+-#-,#-#+#-##-##-#,###,-,+,--,-#,#,#-,#+#:1+:-::",
":::::-::-:-#::,:,:,##,,-,,:::#,-:::1:*,*1:1%%11%::**::>:1&::1::>&1%1::1::>1:1%1:,,,#--##,,#+-,-##-###-#,+-#,###-#-#,#:#--,:::::,",
"#:::::::+:#:::,::#,-,#,,+#-#-##:#-#*+**#%&&%%%%%**%%*%*+%%%+:::>111&+%%%&&&%%%%%#+-#+##-+,,-###-#-,-###-#####,##-#+-#:#-#:*:*::-",
"*::,:*::::-#-#::#--#-,-#OoO++++++#++OO+++O%%%OO+++O++O+++Ooo&>:1&&1%oO+OO+OOOO+O+++,++#+-,+++-#+#+++++OO-#---#-###-#-:##::*::-::",
"*1,:::::-#-#,:::-##::,::*Oo++::#*:++O+++++++++++++O+++++OOOO*::1%1&&OOOOOOOO++++%:%::#:+:#::+::#:%+++OO+:::::*#*::#:-##:::-##--#",
"*#::1*:::,#-#:#:##-::,-#+++o++++O+:%#+*++%+%*%O+*+++++OOOoOO*>>:1%1%OOoOOOOO+O++++:::**+::::+::O+++OO++#:>:::::*::**#--#-#:::,+-",
"*:::**:-#-:#::::,#::::::+++oooO+O+++++++++++++O++OOOOOOoooOO:>1:1&1%+OoooOOOOOO+++:>++++*::#+*%OOOOoO++*%1:1::**#-:#:##-##::#,-#",
"*#*:**:*-#:::::*#-#,::::*+#OSSSSSSSSSSSSSSSSSSSSSSSSSSSSoOOO*:::*%1%O$OoSSSSSSSSSSSSSSSSSSSSSSSSSSSS+++#%:>&:*:##::-:::#:::::,-:",
"*#*:**-:#:::::::#-#,::-,+#*OSSSSSSSSSSSSSSSSSSSSSSSSSSSSoOOO::11%1&&%OOoSSSSSSSSSSSSSSSSSSSSSSSSSSSS+++#%1111*::::-#,,:,:#:#::-:",
"*:::+***-#,:::,#-#-::::,++++SSSSSSSSSSSSSSSSSSSSSSSSSSSSOO+O%1>:%%1%O+OOSSSSSSSSSSSSSSSSSSSSSSSSSSSS+*+*%*1%*%::-:#--#:#::*:,#::",
":::1**-#-##-*:,#-##,,:1:*+*+SSSSSSSSSSSSSSSSSSSSSSSSSSSSOOOO%>>11%1%OOOOSSSSSSSSSSSSSSSSSSSSSSSSSSSS#*+#1&::1$1:#-####-#**::,:1*",
"****:-#-:,,#*:,:#,#:::::++#+SSSSSSSSSSSSSSSSSSSSSSSSSSSSOO+O:1>1%11%O%+OSSSSSSSSSSSSSSSSSSSSSSSSSSSS**O+%1:1*%%:,#-#+-#-:::::-:*",
"*::-:::*#::#::::-#-#::,-++#+SSSSSSSSSSSSSSSSSSSSSSSSSSSSOO+O:1>>:%>%O+OOSSSSSSSSSSSSSSSSSSSSSSSSSSSS*:O+::*>%%%1*#::::::**:::::*",
":,::::**,:,-:::,#,#-:::#++-+SSSSSSSSSSSSSSSSSSSSSSSSSSSS+OOO:>1>%::%O+$OSSSSSSSSSSSSSSSSSSSSSSSSSSSS*#O+*:::1%1%::%::&:%%##*::::",
"#:,:*:%*#,::,:-:-#=,:,:#-+#+SSSSSSSSSSSSSSSSSSSSSSSSSSSSOOOO:1>1*1:%++OOSSSSSSSSSSSSSSSSSSSSSSSSSSSS::+***::%11:#*:::%*:**#*:*>%",
"*::::1**-,::,#,##,#:,#-,++#+SSSSSSSSSSSSSSSSSSSSSSSSSSSSO+O%&1>::1:*++%OSSSSSSSSSSSSSSSSSSSSSSSSSSSS*:O+**>:&1&&:::::&&:**:*::*%",
"::1:*:%1,:::,##--,-#--###+#+SSSSSSSSSSSSSSSSSSSSSSSSSSSSOO+O&>:11>:%O+OOSSSSSSSSSSSSSSSSSSSSSSSSSSSS:*++:*:&1&%1#:::::::&%:::::%",
"&:&11:*&::#:,,,####-#,#-++-+SSSSSSSSSSSSSSSSSSSSSSSSSSSSOOOO::11:1>%%++OSSSSSSSSSSSSSSSSSSSSSSSSSSSS::+#:11::11%:::#&:*:1%&:*::%",
"&>&:%1*1-#:#-##,#,-#,#-#++:#SSSSSSSSSSSSSSSSSSSSSSSSSSSSO%O+%1:&:>1:+O+OSSSSSSSSSSSSSSSSSSSSSSSSSSSS#*O+:::1&%*%,:*#::&1:&%:%1:*",
"&:11%&%1-#,:::-,,+##--,+++-+SSSSSSSSSSSSSSSSSSSSSSSSSSSSOO++&1111:>:O+++SSSSSSSSSSSSSSSSSSSSSSSSSSSS*+++::*%%11%::::&1*&%1*:**::",
"1::&&1%&&1::1&1>#-#,-#-#++-+SSSSSSSSSSSSSSSSSSSSSSSSSSSSO%OO&1:&>:>*O%OOSSSSSSSSSSSSSSSSSSSSSSSSSSSS*%++&1%-%1&1:-##:::::::#*-:*",
"::1&%%%8%1:&&:::-#+:,,,#++#OSSSSSSSSSSSSSSSSSSSSSSSSSSSSOO%O%1:11*>:OOO%SSSSSSSSSSSSSSSSSSSSSSSSSSSS*:++&&1&%&11::#-::::#-::*::*",
"&::11%%11&1:::1:-#+#-,#-++#$SSSSSSSSSSSSSSSSSSSSSSSSSSSS$OOO&1&1:13:O+OOSSSSSSSSSSSSSSSSSSSSSSSSSSSS#*+%81&&%&1&:::##:#::*::::::",
"%1%&1&%%%1:$1::::#=-::,+++#OSSSSSSSSSSSSSSSSSSSSSSSSSSSSOO++%*1%>%>:O%+$SSSSSSSSSSSSSSSSSSSSSSSSSSSS+:++1&%;%1&1:,::+:*-:+:1:-**",
"1&&1&*%11:1&&&:1#-###,:--+-OSSSSSSSSSSSSSSSSSSSSSSSSSSSSO++O%11*1%*%O+OOSSSSSSSSSSSSSSSSSSSSSSSSSSSS%:++:1&1%&1&::##-#:*::**:*:*",
"%1&11%1&&1&&:1::-#-#--##+##OSSSSSSSSSSSSSSSSSSSSSSSSSSSSOO+O%:*%1&1:O+OOSSSSSSSSSSSSSSSSSSSSSSSSSSSS%&++&1&&;%11:-,:::#-*:*::::*",
"&::&1&111::&:&:>#,-##,#:++-+SSSSSSSSSSSSSSSSSSSSSSSSSSSSOO++%1&1*::%++OOSSSSSSSSSSSSSSSSSSSSSSSSSSSS%&%%&11%;%1;:-#:,-#+:::>::**",
"&1::::1&%&1:::>:#-#,#--#+##+SSSSSSSSSSSSSSSSSSSSSSSSSSSSO+O+%:*:%:*:++OOSSSSSSSSSSSSSSSSSSSSSSSSSSSS+%%%&&1%&&%%-+,:,#:-::::::**",
":>::11&:-1%%111:::#:,,#-*+%OSSSSSSSSSSSSSSSSSSSSSSSSSSSSOOO+%11%&1*%&+OOSSSSSSSSSSSSSSSSSSSSSSSSSSSS+#*+**:%1%1%%%:>::1%:>::>::%",
"::>:1%%1%&1%1&::::::::::++&+SSSSSSSSSSSSSSSSSSSSSSSSSSSSOO+O%:&1*:*:++OOSSSSSSSSSSSSSSSSSSSSSSSSSSSS+*%+:*:%*%%-%%>::1&&:::::>:%",
"%:::::1&%%11&:::1:*:::::+#%+SSSSSSSSSSSSSSSSSSSSSSSSSSSSO++O&1:&%:*:++OoSSSSSSSSSSSSSSSSSSSSSSSSSSSSO*++::1%1%%%1%:::>1$%::%:::%",
"*>:::1%1%-1&:::1:*#,::::*+%OSSSSSSSSSSSSSSSSSSSSSSSSSSSSOO+O%11:*1*%++OOSSSSSSSSSSSSSSSSSSSSSSSSSSSSO#*+&:1%%11%%%:>::11*>::*::1",
":::::&&1%%&&:1::,*+::::#+%#oSSSSSSSSSSSSSSSSSSSSSSSSSSSSoO+O&11:**1$%%OoSSSSSSSSSSSSSSSSSSSSSSSSSSSSo*#+:::$1%;%%;&1:::%::::1:1:",
"%::::1%%%&11:&&:::*:,,*:#+*oSSSSSSSSSSSSSSSSSSSSSSSSSSSSoOO+%1%:%11%OOOoSSSSSSSSSSSSSSSSSSSSSSSSSSSSo+*+&1:*1&&%%%%1:1:&::::::1>",
"::::1%;&%%%1::::#:*:#:-:+++ooSoSOOOOOOOOOO+OOO+OOOOOSSSSoOO%%&%:*%1%O+OoSSSSOoO+OOO++OO++OO+++O+SOSoo+++&1%-1%1&%1%11&%%:&::1:>>",
"::::1&&&=%&:::>::::::::**++oooOOOOOOOOO%OO$OO+++++O+OOOooOOO%111%*%%+Ooo+O+O++O*+O%+%%++:++++++:+++oo+++&11%1%11%&%%1%1>1%::>>:>",
":::::*::%;%&11>:::&::,::#OOOO++++O+++OO+%++O++++++++++++OOoO%:1&%1*%OoOOOO++++%&+++*-++#-++-##+#+:-++OO#*,*::*::*****1%1%11%>1>1",
"%::::#,*&%%8:1:&&::::,#:+OOOO+++OOOO++OOOOO+++++++++++OO++oO%:&1%*%%oOOO+OOOO+O++O+++++-+#+++-+++*#O+OOO#,**-:::***%%*%11%%%33>:",
"%:::::::&;%1:::>#:&:1,-:O+++++++%%%%+O%%+%%+%+%%+%%%%%%+&&%O%&:1*1%%O+%%%%%%%%&&+*#+@+#+####-+#-#**#*##+::*:,::**:*%*%:11%111>>:",
"&::@:#::11%%>:::::::::##-#:,:,:,1&&%&1::%:::1:&1:&:%:>:::1:::%:%*%&:::>::&&:1&::*:::::#--::::,:#:::,:*:*::*::::**:%%>1>21%1%11>:",
":::::::::1&1>:::::#:::#,%:*:::::1&:11&11%*1&1&&>31%%:::::%1:1&&%1&1%&:1:&11&1:&:::*::::#:,#:::#,::##::,#:#*::>>:1:%%11>>1:1*33>:",
"#:::#:#:1&%%>::::::::1:,:::::::-::1&:1&1%11%::11%1&%&:%%&1%11%-;1:1%11:11&&%&11:1:*:+-::::#:,,,::::-*#:::*******::%1111>:***3>:*",
"*-:#:#::111:>&::::::,:1#::**:-:*1&1&::%%%*%%1&1:&8%1%%1$:&::1%%&%%%1&&&:1%1&1%%11**:#-#,:::--,,,::,::::#:*%>%***%:&%>113::::331:",
":::::*::&1%&::::::#::,:,:****:**::::&11%1%=1&:>>&%%1%1%&::111%%1%1%%1::11%%1%1%%:**#-#-::::#:::,+-#-::::::::*::*1:%1>&1>:1:*>1::",
"#:::*:#:,:::&1:::::::>1&:::*%&%1%::&1*1111%%&:11111%%1%&;&&81&%%11%1%%&3>&%%%%&&:,*::**:*:::#*-#+#:+::#:###:+:#,%&%111>1$11%11&%",
"*:::::::::>::1:&@%:::::1::%:11:11&1&::**1&%11:>:&&&&&;-%&1%&1%1%&1%1%1%1::>&1%11:,:::*::**:::::#::-*>:*::*:***:3&1%&&&31&:1%1&%1",
":1:#:##:::::1&1::*::::1&::::1:&%:1:&1&1%1%&%::1:1&&8-&;&1%1&1%;&%:%%1%11:11&%&&%:::::-*:**::1:,:#:###+*#&:###:#*11%111311%1&>11&",
"*:::::::>1::&:&::%::::8&::*:&1&1:::1&1%1%%1::::1&&%1%%&%%1%11&%&11%11%&1:::1&1&1***::**:#:::::#-=-5=;;;;;--;====8%&31&38&%%1>&1%",
"+:::,:::%::&::%1*%::&&1&1&%1111&:&1&&11&%%1%&:111%-&%;%&1&%11%11&11%%-%1:::%%:::::*::#*::::,#1+aNzvhfzbbcbbvNNbNw&1>&13&%%%1311&",
"#-:::#::%:::&1&:::::1&&1%;%&&%1%1&&11&11111&1:&&&&&&&&8&%1%11&%-%1&1%%&1:::&::%::1*1,::::::::1#xBnbhljBnBmbxmAnBw@>&&13&-&%&1&1%",
":*:::::#:&1:&1&1::::%1&%&11%1%%%&11&:&1%11&1:::&;&&&&%;&%1%%%&&%&11&%11&&1%1:::::::::::>,:::#1@iNzbjslxbbvzvNNnAw@3>133&&1%1&11&",
"*-::::#,::::1&%1%*::;%1%8&%1&1%111&:133&&%&1::::&8&88&%111&11&1%&&%1%1&111&&:>1::1:*>>:::::1,::--------1*--4bBbA0@>>1131&1%%1%&1",
"%%&11&::&1&1&1&1+*::1%11%%&&&%%%&%%&%%&%&&&%@%++%%%@++%+%%&%&1%1;%8%+@%@%%&%%%+&*+*+**#*****-::#&@@@@>&+&@>.6NbCw@>@1>31::1%11%1",
"%%11:&1&&&11&1&1%:::-%%%O$+O+%+++OO+OOOOOO+++O+O+++O+O+OOOOO&3%%&%&%oOOO+OOO++++++++#++*#++#+#+@++%++++O:&::obnVw@1>:3>>:>%%%1&1",
"1%1&&&1:&11&&8&1%:*:1%1%%OooOOOOOooOOOoOOOOOoOOOOooO+OOOOOoO%1:%&88&OoOOOOoOOOOOOooooOO+OOoOOOO+O++XXOX+::&@$bbNw@>&::3>>1:11&%1",
"%11&1%&1&1&1&&1&**%:*%*%+OOoooOOoOooOoooooOoOOOOOOOOOOOOOoO%&1&1&&&&OOoOOoOOOOOOOo+OooooOOOOOoOoOOOooO++:::*%bzv7@:>:>3>>>&%&%&1",
"%%%&1%&&111&&&81:**:*%&1%OOO+O++$%O++$$$O+++%%:&++&%%%%++oOO::::11&&%$O%:++&+:&++*#++#+#+##-#+#+::+@OOO+::&&=blc0@>:>>3>3>%1&&11",
"&&%1&11&&&%%8&%&::::-%1&+OOo%+++%$O+++X$O++%++:&O++++%%:+O+O::::1%&1%$O+++++O+++#++*+++O+++++O#+@:+:+O++>&:&*zgc6@1@3131311&1%%1",
"111%1%1&&11%&&&&*:::%*:1%+Oo++:*%&%&&&%-:&1%::::::::::&@OO++::%1&1&&%OO&+:%%:::*::***:::*:::1:+-%:+:+O+%:&::*vlc0@1>>13>311&%1%1",
"&&&%&&1&1&1%;&-%*:::%1:1+OOO++1:11&1&1&13:&1:::::::::>&++OO+&:1&1&1&OOO%+&*::::::::,:>,:::::,:::*:+:+O+@:>&:-bbv0@::31><31%1%&&1",
"7971&&::&8&&&1-1%1%&::&1++oO+O:&%-%&%8332:**:#::::::::&%+O++&::1:%:*+OO*+::::>:*:::#:::##*:#::#-%:#*+o++:&:::NNv6@:>>1313&&&%1%1",
"cNk*&&::&11&&&&&%&111:1&++oO++*%%-&-%1332-*::,:#::::::&%+O++:::::::%+OO@%%:>&1:*,:,:*,:::*1,,::*:#++Oo+*:&@:-nBv6+>:>3>>3:111&1&",
"gbf1:&&:1&%1-&&%1*%1&&%1%+OO%%%-%%%%%&332*:::::::1&1:>%++O++:::::1::+OO++%:::>::#::::,:::*:1,#:*%:O#+OO+:>@>*Nmv6@1:33>>>&&11%&%",
"dcd1:&::&1&&&-&;%%%&1%&1+OOO+$%1%11%%-83**:::::::::&&>:++OO+::*:&%>:++O:+:::::::::::*:::*:::,*:*::+:Oo+#::%:*Mbc6@1>331>31%>11%%",
"hbf1>&::&&;1%1111$%1:&1&%OOO++1%%*11%::31***:::::*:::::++O++&1%%%11&+OO+%&::%11%::#:*:::::::,#:***+*+o++#:::*zxv6@3>33>131&>1&%%",
"lbf*::&:&&%&%%&%&11&:&%1+OooO+11%:11*>111**:::*#:*::::&++O+O:1%11%1:++O+%&%:%%:1,**,*1:::::1-#:+::#*+o++:::#*MbZq#<>3>11>313&11%",
"fcu:::&:1%%%%1&%11&1:1&:+OoOO+1&*11*1>>1::*::::::%:::::++OO%&1%11%:&+OO+&%:::%&::#::*:::#*,::,#*#:+*+oO+::**-eet5:>>>>133331&-%%",
"hNf1:&&:1%%%%1:1&*%%1%%:++oO%%1%%1>:*111::%:>:*:**>:>::++OO%&:%1&:::+OO%*&1&::::**:::::::::,1#-*#*+*+o++::**>@+X:*:>:31333318%-%"
};
