/* XPM */
static char *door_birch_upper[] = {
/* columns rows colors chars-per-pixel */
"128 128 74 1 ",
"  c #7D7C7D",
". c #83817E",
"X c #AC9773",
"o c #AE9975",
"O c #B29C77",
"+ c #B49E79",
"@ c #B9A077",
"# c #B7A07A",
"$ c #BCA47D",
"% c #C0A77F",
"& c #C1A87F",
"* c #7C7E83",
"= c #7E8085",
"- c #848384",
"; c #888684",
": c #8B8987",
"> c #838589",
", c #898788",
"< c #87888D",
"1 c #8B8B8C",
"2 c #908D8B",
"3 c #979087",
"4 c #9C9385",
"5 c #92918F",
"6 c #9C958B",
"7 c #868B90",
"8 c #8C8D91",
"9 c #8E9094",
"0 c #939394",
"q c #989694",
"w c #9A9897",
"e c #939598",
"r c #9A999A",
"t c #A29684",
"y c #A59986",
"u c #A19788",
"i c #A39989",
"p c #A99D8B",
"a c #ADA08B",
"s c #BEA780",
"d c #B3A48B",
"f c #BDAA8B",
"g c #B7A890",
"h c #C0A780",
"j c #C4AB82",
"k c #C8AF85",
"l c #C4AE8B",
"z c #C8AF88",
"x c #C9B087",
"c c #C6B18D",
"v c #CDB48D",
"b c #D0B78F",
"n c #D3B98F",
"m c #D8BD8F",
"M c #CEB690",
"N c #CFB892",
"B c #D0B790",
"V c #D4BC95",
"C c #D8BF96",
"Z c #D7BF98",
"A c #D8BF98",
"S c #DAC096",
"D c #D7C099",
"F c #DAC29B",
"G c #DEC6A1",
"H c #DFC8A3",
"J c #E0C7A1",
"K c #E1CAA5",
"L c #E3CDAA",
"P c #E6D1AE",
"I c #E8D2AF",
"U c #E7D2B1",
"Y c #E9D4B2",
"T c None",
/* pixels */
"BVBVVDSVVVVVNVVVZVNNVVVVDDCVVDFFJFSDCVVVVCVBVVZZAAFFFKFFFKKFFKKKFJKLFCDCGGAFAZZZAZVVZZZHFFFBVMVVVVVBVVZVGGHUHHHZGFZNVVZZZZZZZFFZ",
"BVVBDVDVVNMVNVVVVNNNMMvVAFCCBFKJKFFJFVVVVDVBCVVAAFFGFFFFSFLFDSLGKKKGFVFFGGVFZZAVAVZBAZZGFAFVVNMBVNNVVVDDZVHYHGGZGGZZZVZZZZZFZDZN",
"BAVVVVVDVVNVVVVVZNVNMVBVDFADCJLKJFFFSVVVCAVVVAVAZFFFJKLFFKFKDFGFKHLKJCFDFFVDAAZZZVVAAAFAFFZANVVBVVNVVVVDZVPPHHHNGGZZDVNVZZFFZFZN",
"BVVVAVSDZNVVVVVVVVNVBVVZDFDFCFPKKFKKFCVCCCBBVVCFAGFKLJJKKPFGJGLKKKKLLFDVFFZVZZAAVAFZAZGFAAZVVVVVVVVVVVDZVGUHUUHZGGZFFDDDNZFZZZZN",
"BVZZADDFZVZZVVVVVVVVNBVZAFFDVAKKKKLJGVVVZVVVVVADFGCKLKLKKPFFGALFGGGKKFDDFFZVVVVZBVDZAVDFAVVVVVNNBVBVVZFDZKUGULHZZHFZGFZDAAFZZAAB",
"BZVCDDFFVVVVZCVVVVZVVVVZCFADVAFFKLKLFCVBVVVVCAVADFVFLJFKKLKJFCKKKGKKKFCGGFVAZZVVVVDFAAFFFVVVZVVVVVVVVVAFZLPFUHFFZHGZDFDFFAFVZFZB",
"BAVCDACJAZFFAAVVZBVVVNVDFFCADCFKFLKKLVVVCFCVVVAZDKDVKJSFSFKLLFFKIPLKKDSDGGVVVVZVVBAAVAFAAVVVVNVNVMVVVVVFVUHZUHGDFGZZFFNZFZAVFFBV",
"BCVVCCCFZZFAFDVBVVVBVVVDFAFFFCJLJPJFPVCFVFVVZVZZFJDSKJFFDKPYKDDLPLKFKDSDGGVCBVZAVCVVVAAAFVBVVVNVbMVVVADFGHDFHGDFGGGZFGDZFVFZZAVV",
"BFCVVAAFFZAZAAVVVBVvVBZFAKGAFZFKGKDFLFDDVACVVCAAKKFKKFFFFKKYKFFKLHKKKFDFFGVZBBVVBCVZAFFFFBnVnVVVvNVBZZZFAGCFHFFZGHZGGHAAFVAAAAZV",
"VVDVVZAFAFAAFVAVBVBNVBDFAHAFGFDKKKGGLFCCVVVVVCFDFKKFFJLFGLKYLGFGKHKKKFFFFGBVABVVVBVVCFFJFVVBVVnBVVVVVZAAFFAJLZZFZHZGFAFZFAAAAZAV",
"BVCSVBVFZZAZAVVCVVBBVbAFFFAAFFFAKLJJKDDABVVVCVDFFDFDFJKCGLLYUHAHKKKKJCAAFFZVVbVVVVVVFDFDFVNNVNNnNVVVZZZFKFFKKHGGZHZZZZGZAAAVAZAB",
"vVVVCVVAFVAZCCVVVVvNBBZDFGFFAJFAJPJKKFFCCVVVZVJFGSJDFFFFALLYUKAHHHJFFDVVAFVACCVVVVVCKFGADVVVVnNBvVVVZFAHJGFKHHGGGHFFFFFFAAZVAZAB",
"BDVVAVVCFZAAAVVVNBVVBBVFGKKFFCJSJLFJJAAVAVVVVVDDDFFDFFCCFLPYLKVFHZFFAACCAAVDAAAAVBVFJFFDVDVVVnVNNVVVSDAKGKGKLKFZVGZZAZAZAAVAAAFB",
"BVVADVVCFZAAVCVBVVVVVBZDGFJFFFFFCLFFKAAVVZAVVAAAFDFDACVFFPPPLKVGDZFFFVVVAAAAAAVAVZVADDFDDVVVVVNNNBVSDVFKGGGKLKGZGZGZFZFAAAVVAAFB",
"BAVVDDCCFDAZVCVVNVVVVVZFKKLDFKFJDKFDGAZVVCVVVACFFCACAFCAKPYPLHZFZZZADJVVZZAZZAAAVVCVVDVDDVVVVNVVVBSCDCAKLLLLLKGHZGGVGZAAFFZAZAAV",
"BDVAFDFVFFZVVCVVVVVVBVDGGALFKLDDFJFFGAAAAVVAVAVDFCVVCDVCKYYYGGVZDZVADDVVVVADDZAABZZVVAZSDBVVVBVBnDDDFFCFKPLLHGFFVGGVGGFFFAVVAAAB",
"BZAZAAAAAGAVVVZVVVNVVVFKKFKFJKFCFFFFDFAFVVVVVAVDDACVVVVFKPLPLKVVAAADAAVVVAZDFAVCBAZVZVVZFVVVBVBBVVDFFDAAHLHLLHFFFGGZDDFFGZVVZAAN",
"BZAAFGAAAFFZBVVVVVVZVSGFLKFGGLKDDDCAFJFDCVnVVDDFDVCAVVSFKLKYKGVVCVZAAAVVADAZAZZVVZZVVZZVFDVZBVVBVCFGFFZFZDHGHHFGZGGVGFFGFNVZVVAV",
"BAAAGGAAAAZVVZVZVZZDVFFKHDDDFGFCVCVVFCACCVBVBVVDACVCVVCFKKFPHGAVVZAAVZBVVVVVZVZZVVVVVVVNVBVVBBVVVCDDFDZZZVDGKHGFGZVZHGGFGZNNBVZB",
"VAAVFGGFAAZZVAZZAZDFVFFJsskjkjkkkkkkkjjjjjhjjjjjjjkjjkjkkjk#MJVAFAFv+jjkjkkjjkkjjjjjjjjljkjjl&j$h%$j&ks#ZZVDHGGFZGZZFGGFFVNVBVZV",
"VZZVAGHHGFFZAZZZDZADAJKFs#O$s&jj&j&&j%jjhj$$jsjjjjjjj%jjh%$+BKVDDCKBOO+jjj%jjj%jjssjjjhj&jjss$$$$hhs$+OsZZZZFFGDAAZZGHZGJCVVVVZB",
"VVVVVZKGZFZZZZZZZZCFDFLFk##$&j&kkkkkkjkkkjkkjkkkkjjkkjj&$+++AKVCFCFB#O+#jjjj$%kkjjkkjjjkkjjsjjjjs$s##++kZZZVGFGFZGZZGFFZAVVVBAZB",
"BVVZZZLHGHZFZZAVVDVDAFKCl$$oOO#$$&%&&$&$$j$$$s%$&&%%$$#+OO%$BFVVCSFB$$#++#+#++$$##$$%jjjj$##+##+oOOXX#$hZZVVDGGFZAZZZGFFFFVBBAVB",
"VVVGZFHLGHFZFGZZZZVDDJKFk&jO+TTTTTTTTTTTTTTTTTTTTTTTTTTTX+&$VKBZACFB$jh#TTTTTTTTTTTTTTTTTTTTTTTTTTTOOhslZZZVZHGFZZZAZFGFFFVVVVVV",
"VVVAZGKLDFZDDGZZAADDFKKGkj&#TTTTTTTTTTTTTTTTTTTTTTTTTTTTX#j$VFVAAAFB$&&#TTTTTTTTTTTTTTTTTTTTTTTTTTTTOjjjFDFVDJGFZAZZZAZAFAVVBVCB",
"VZVVVGHKHGFDDFZFAAFFFKLKkjk$TTTTTTTTTTTTTTTTTTTTTTTTTTTTX$k$BDVFbZFM%k&$TTTTTTTTTTTTTTTTTTTTTTTTTTTT#kjjFADZAGKFVZAZDAZAAAVBBCCV",
"ZFZVZAGLPUHZDDZFAVDFGKLLl&k#TTTTTTTTTTTTTTTTTTTTTTTTTTTT+$j%bCZFAFDN&j&#TTTTTTTTTTTTTTTTTTTTTTTTTTTT$&skFZFZAFLGAAFADAFZAFVBVVVB",
"ZGAZVAGLLUHFDFZZAVFKGLLLk&&$TTTTTTTTTTTTTTTTTTTTTTTTTTTT+&j&BDAGFFDB%&k#TTTTTTTTTTTTTTTTTTTTTTTTTTTT$k&lAAFFZGUGZZADVAFZFAVBBVAV",
"DGACAFGLUYUFAFDFFAKKDLLKx&k$TTTTTTTTTTTTTTTTTTTTTTTTTTTT#&k&VADGZVFBskj$TTTTTTTTTTTTTTTTTTTTTTTTTTTT$&kkDZGAZHLKFZZFZZAZAAVBBVCV",
"JJFJVAAKHULGHGFFDAKKSKJFx&k%TTTTTTTTTTTTTTTTTTTTTTTTTTTT#&jjBAFLGZFB$jj$TTTTTTTTTTTTTTTTTTTTTTTTTTTT&k&kFZFFVKLFZAAFAZFZAAVVVCFB",
"AFFFVFFKLPHGGGFGFDGJFSKGkkk&TTTTTTTTTTTTTTTTTTTTTTTTTTTT$&khMFCFFZFB%jj#TTTTTTTTTTTTTTTTTTTTTTTTTTTT$k&kAAFGVLKFADFGAGAZVFVbBCAV",
"FFFZAGFLPLHGZGHGJFFFFFGGkjx&TTTTTTTTTTTTTTTTTTTTTTTTTTTT#%kjBFDDHZGM%jk$TTTTTTTTTTTTTTTTTTTTTTTTTTTT&jjjFADFALKFFAGGFFFAAAVVVVCB",
"VbBCFLFLLLKGFKKGFFDFFAGFkjk&TTTTTTTTTTTTTTTTTTTTTTTTTTTT$jj%MGFDKFFB%kk%TTTTTTTTTTTTTTTTTTTTTTTTTTTT&x&kDAVFVGPKFFJGGFGFDFCVBVVV",
":02MSFJKLLKKFHGGFAVSFVFJkjk&TTTTTTTTTTTTTTTTTTTTTTTTTTTT$jjjMFGAFFFB&k&%TTTTTTTTTTTTTTTTTTTTTTTTTTTT&x&kZFZFDGYLJAAFFGAAGFAVVCDV",
">e;cFJJLPJFKGFGGAFVFFVJDkkk&TTTTTTTTTTTTTTTTTTTTTTTTTTTT$kk%VFGGFFGB&k&$TTTTTTTTTTTTTTTTTTTTTTTTTTTT$kjkFFFGFFLPFFGFFFFFDJVBCCDD",
"-1;MSJFLPKFFFKKGCCVACVGVkjk&TTTTTTTTTTTTTTTTTTTTTTTTTTTT$kj$BFZFDFFn%jk$TTTTTTTTTTTTTTTTTTTTTTTTTTTT&kjkGFGJDCKKGAKJFFJFDFVBVCAC",
"-<;vCAFLLLGGGGGDFCCJACFAj&k&TTTTTTTTTTTTTTTTTTTTTTTTTTTT$kj%BDZFDFJV%k&$TTTTTTTTTTTTTTTTTTTTTTTTTTTT&k&xAFFFACKJGAFGFKFDSFBBVFFD",
"-0;cDVJKYKGFZKFDFBAFAAFDkjk&TTTTTTTTTTTTTTTTTTTTTTTTTTTT$jk%bCVZDDPV$kj#TTTTTTTTTTTTTTTTTTTTTTTTTTTTkx&kFAJGAALLLGGGGHFDADVVVFKD",
"-,.vFSJKYLFGFKFCAVFJAAFAkjk&TTTTTTTTTTTTTTTTTTTTTTTTTTTT+jj&vZVZFDLV%k&$TTTTTTTTTTTTTTTTTTTTTTTTTTTT&k&xFFKFADKGKKFFZFZAFCnBCKKV",
".>.cSFJKULLKFJDVAVFFFFCVjjk&TTTTTTTTTTTTTTTTTTTTTTTTTTTT$&j&vAVVCVPD$k&#TTTTTTTTTTTTTTTTTTTTTTTTTTTT&x&kFDFJDFKJGKJGVZZVCVbVVFFb",
"-0.cFFFFUULKKGVZVVCFFACVjjkjTTTTTTTTTTTTTTTTTTTTTTTTTTTT$hjjBDVADJUVslj$TTTTTTTTTTTTTTTTTTTTTTTTTTTT&k&jDFKFDFKDDKFFVZVACVVBVVDV",
".-.vSSFCHUUKHVVVVVVJDCVCjjk$TTTTTTTTTTTTTTTTTTTTTTTTTTTT$jk%VADVGKUV#j&$TTTTTTTTTTTTTTTTTTTTTTTTTTTT$kjkFLLLGFFKDJFFAAAAAAVVMZDV",
"=;.cCCFCHHKGFZVVVVCFFCVVjjk$TTTTTTTTTTTTTTTTTTTTTTTTTTTT#jj%bAADKKYV$jk$TTTTTTTTTTTTTTTTTTTTTTTTTTTTjjskSGKLJFKYKFDFFFFSCZVVVFFA",
".0.zCCSCGGKFFVZAVBCFFCCVjjksTTTTTTTTTTTTTTTTTTTTTTTTTTTT#&k%VDVFGKYZ$k&$TTTTTTTTTTTTTTTTTTTTTTTTTTTT$kjkDKLKJDKLPFAFFKFFVVBVCFFV",
" -.MCCSCGGLFAVFKCVAAFDVVjjjsTTTTTTTTTTTTTTTTTTTTTTTTTTTT$&jjBAVFKKYV$j&$TTTTTTTTTTTTTTTTTTTTTTTTTTTT&k$kDLPKJKPLLLFFKKKDVVBVVDDV",
"*,;cCSJFGFHFFAFKFVFDJVVVjjk$TTTTTTTTTTTTTTTTTTTTTTTTTTTT#%j%BAVFLLLM%jj+TTTTTTTTTTTTTTTTTTTTTTTTTTTT$kjkVKLFHALPKKCCJLFFDAVNAACV",
"=8*cSFJDFGKFFAGGFCFFFCVVkjj$TTTTTTTTTTTTTTTTTTTTTTTTTTTT#$jjvAVFJKLb%k&#TTTTTTTTTTTTTTTTTTTTTTTTTTTT$k$kCFLJKFKPLLVDDFFCCCVVVCAB",
"364BFKFDFLKFFAFGKFFFKDBVkjk#TTTTTTTTTTTTTTTTTTTTTTTTTTTT#$j%vVVAGHLb%k&+TTTTTTTTTTTTTTTTTTTTTTTTTTTT&k%kDGLKFFKLLKFCKFGVAVVVVVSV",
"VCCCFGFFFKGDDCFGFFFFJDVVkjj#TTTTTTTTTTTTTTTTTTTTTTTTTTTT+sj$BDVVZGGMhk$OTTTTTTTTTTTTTTTTTTTTTTTTTTTT#k%lDGKKFAFLLJDFFFCCAVVVNVVB",
"VDACDSFDKKKDCCGACAFFGDAFkj$+TTTTTTTTTTTTTTTTTTTTTTTTTTTTo#jsvFVVDKFv$h#oTTTTTTTTTTTTTTTTTTTTTTTTTTTT#k$jGKKKKAKPLJJJFFVVZVVVVVAM",
"CSFVADAFKJFFAAAACVAKGAFCk$%OTTTTTTTTTTTTTTTTTTTTTTTTTTTTO+h$bAVZFLGbsj+OTTTTTTTTTTTTTTTTTTTTTTTTTTTT#&$kFGLFLFGKPLGGFFDVVVVBVVZB",
"VSSCAAFFKJFJAADAAVCJFVACk%#OOOOO++%%$$$$&$&##$$####+OOoOo+$%vCACGPFBs$OOoXOoOO##$##$h$$$$$#$$%%$#+O+#&$kFFPFKLFLYLKGDFCAVZVBVVVB",
"CAADFAVAJFFFDAVAFACGFAACk+++#%%%&$jjkkjjkjkjjjj$jkjs$#$$+++hvVVAKLKb$+++##$$$sjjjhjjkjjjkkjjkjjjk&%$+#+jFKYFPKFPPKKKGKFSAZVBVVBB",
"AFFAFAVVFFDFCDVVDVCKFFAAjO+$jjjjjjkjj%jjjjjjhjjjjsjjjjjs$+O+vVVVFGKB#+#$jjjsjsjhjj$s%jjjjjjj&jjjk&&&j#+kKKLKLFFKLHKKKLFDVDVVVVVB",
"VFGZFVCAJKFFFFDAFADKZACV##&%&h%&jjj&&j%&j%jjjhhh$sjs$js$%$+OkVBCFFKMO$$h$jjjhs$$jhh$%%&&%&jj$j&j&j&&$&##KKYKKJJKKKGFLPFDVZVVVVBB",
"VJFAGVAADJADDJFFFADFVAAZbVVbVVVVBBVvBBBVVBBBBBVBBBBBBVBBVBBvBAVVDFKCBFVBBMBBvBBVBBvBBBbVVVvBVVBVVVCCFFFGKGYLKDJLPGDGLLKDVVVBVBVN",
"VFFFFVZDFFDFKFGFFDFFVVVZAFAFADFFFDFVVZADFDAFFZZVDFVZDFDFCADCCVVVZZHLPLGAAVBVZVVFZZBVDDFFJKCAAGFFFJJFLJPPJKLKJFKPPFDFLKKFVZVVVBVB",
"VFFDAVVFFFFFLFFFFCJFCFFAZDVCCVAADAVVBVFAFAAVZVBVVVVVVAVDACAVVVAVFGGPLGGAVBnBBVVVVVVBVCAAFFAACDADFDFKPKKPLKPKLKYLKFFJLLLFBZVVVBVn",
"VFFAVZVVFFAJGDFAADJAADFAAAAADCFDDDVVVZFAFZDAAZVVVVVZDAVZVVVVBAACDHHLLFFDZVVVVDZZZVZBDFDFFFDDDFFDFFJKILKPLPPPLPLFKKFLLJKFDDAVVBVv",
"MFAZCVVFFAFFFFFVFGFAFADFJFGAAAFFFDZVAFFFAZADVAVZVVVZVDVDVVCVVAVCFHHKLFFDVAVBBVVVVZZVADFDAFAFFJJFFFFLPLLPJPLPPPLKLCKLLFKFADVVVVBN",
"VFGVAFVAFVGFZGFCJFKAAFDDGAJFSCFKFCBVVZFDAAAZBZVBVVVBVVVDVVFVVVVVGKHGDFJVVBBnBVDVVAZVVAZZVAAZFFFFCCFFKJPLLYPLPYKGJCLLPKJFVFDVDVVv",
"VGFVZVVVZFJFFZZFKKKFFFAFKKKFFGGFDVVCFFFDFAVAVVCVZVSVDDSFVZDDVCCVZKHHKFJADVCCVDDDDFAZAFFFAGAFLKJFJKKFLLYPPPLLPLLGJDKKPKFFCFDCVVVB",
"BKFVVVVFDGKKLGVZKFFFFGGGMMVvbBvvvvbvvbvvBvvvcvczvvvcvvvvMvvzbVVZAHHVvbbvvvcvcvvbvvvvvMvvvMMvBBbbbBbnBnVBPYKLPPPGDAJKPKLFCADDDBVN",
"BFFVAAVFDFHFFFDFGFKFHKDJ#++$%$jj%%%%sshhh%%$%%%%$j$$$$&&h$#OvDVCZZJcO$$%$%$$%$jjjh%hh$%%%$$s$%&&%j%%$$+$YPLKLPKJFFJKKKJFFDDVVBVv",
"bFCVVVVDZGFGKFFAFKGGKFFFk#+$$kkkjjjjkkjkjjjjjjjjjjjkjjjkh+O#BAAAVZFB#+#$jjjjjjkjkjjjjjkkkjjlkkjkjkk&$##kLKHKUULLGDZGGGFDDFAVVBVB",
"bDADVVCFGFZFKFJVVGDFKFKFk##o###jj$kk$&&k&jkkkjjjjjs$$$j#OO+#vZZFAAGB##O+#+##$$sh$$s%jk&kk&&&&jj&&$$+O##%HFHHLYKFVZGGFGFKFAAZCVVM",
"bVVBVVFKGGFFGFGASDDFJDKFl$$OOO+###$###$$#$%$$#$$#$#++##+OO#sbAVFAAFB$sOXoXXo+O####$$#$$&&$#$+##$#++OO$&jHZGHHULGZVGZZGFKFZAVVVZv",
"BVCBvnFFGDAAKAGVVGDFFSKFk&k#TTTTTTTTTTTTTTTTTTTTTTTTTTTTo#j$BVVFZDFV$j#oTTTTTTTTTTTTTTTTTTTTTTTTTTTT#&jkGVZGLUUGZVGZAAFGCZDVBVZM",
"BVVBBBDFZZZZFZFZVKDFGFKFk$k#TTTTTTTTTTTTTTTTTTTTTTTTTTTTO#jsBVVFVAFBhk#OTTTTTTTTTTTTTTTTTTTTTTTTTTTT#k&kGNFZHUPUGVZGVFAJZZDVVVDv",
"VCVBvBFFZDVZFVAVVDFFFDLFj&k$TTTTTTTTTTTTTTTTTTTTTTTTTTTTOsj%MZVFZVAbhj#oTTTTTTTTTTTTTTTTTTTTTTTTTTTT$xjkGZGHUHLYGZGGGHGFVZFVVVFB",
"BSDVVVZFVCZDFZAVVFDFGGLGkjk$TTTTTTTTTTTTTTTTTTTTTTTTTTTT+jjsBABZZVAB$jhOTTTTTTTTTTTTTTTTTTTTTTTTTTTT$k%kDZHHUUULZVFZGKGFZDZZVVVB",
"BDSVVVAVVVFDVAVVVJFFFFPKj&k$TTTTTTTTTTTTTTTTTTTTTTTTTTTT+$jhMAVAAZFM$jjOTTTTTTTTTTTTTTTTTTTTTTTTTTTT$kskDZHHUUGFNZGZZKGAFDZZVZVB",
"VVVVVDFDZZAFAZCVCFFJAGLLj&k$TTTTTTTTTTTTTTTTTTTTTTTTTTTT+hj$bABZAVAB$jj+TTTTTTTTTTTTTTTTTTTTTTTTTTTT%k&xCDFKUKVVZFFZGHFFFVAAVAVM",
"BDVBBDFFDFDFFVFDVFFFFFGFkkk&TTTTTTTTTTTTTTTTTTTTTTTTTTTT#hj$MABVZZAb$j%#TTTTTTTTTTTTTTTTTTTTTTTTTTTT%k&xCDFFLHZZHHGZHKGFFDAFAAVv",
"BSVVBVFFFGVZGCZAVFJKJFKFl&k&TTTTTTTTTTTTTTTTTTTTTTTTTTTT+jj$BDVVVZDv%jj#TTTTTTTTTTTTTTTTTTTTTTTTTTTT&x&cFFKFLHZZDHGGFKGFAFFAZABB",
"BDVVBZGSGGVVFDDAVFDKKFLGkjk&TTTTTTTTTTTTTTTTTTTTTTTTTTTT#jj$bAZVVZAv$jj#TTTTTTTTTTTTTTTTTTTTTTTTTTTT&x&kDFKKKKVAZZFZFHFGCVDAVAZB",
"nFnVVDKDJFVZDFDFVGGLKFLGjjkjTTTTTTTTTTTTTTTTTTTTTTTTTTTT$jj$MZBVAVZM$j$#TTTTTTTTTTTTTTTTTTTTTTTTTTTT&k&kZKHGHHZZZZGVZGAAVAAZVZZB",
"BDBVVVLFFDVVSFCCVDGKGFKFjjkjTTTTTTTTTTTTTTTTTTTTTTTTTTTT#jj$vFVVFVVcjjj#TTTTTTTTTTTTTTTTTTTTTTTTTTTTjkjkVFHHFZZAZHHZHGFVVAAZVZVV",
"BVVBBVSDVVVVCADFVCFLKFFFjjk&TTTTTTTTTTTTTTTTTTTTTTTTTTTThjj$vFVVZBAvjjj$TTTTTTTTTTTTTTTTTTTTTTTTTTTTkx&kZVGGFZDDAHHGGGZZVZZVZAVV",
"BVBVVVDVVVVVVDFDVVFGKFGJjjk&TTTTTTTTTTTTTTTTTTTTTTTTTTTT#jjsvAVVZVVv$jj$TTTTTTTTTTTTTTTTTTTTTTTTTTTT&x&kVFLGGFDFHGHGZGVVZVAVVAAB",
"BBBDVVVVNZVVBDAFDAGLKGGFkjkjTTTTTTTTTTTTTTTTTTTTTTTTTTTT$jj$BFVVVVVvhjj$TTTTTTTTTTTTTTTTTTTTTTTTTTTTjkhkZHLLFFDFGGHAGABZVVFZZAFB",
"BVVVVVVVVVMVVDAGVVFLKGKGjjk$TTTTTTTTTTTTTTTTTTTTTTTTTTTT$kk$VFBAZVZMhjj$TTTTTTTTTTTTTTTTTTTTTTTTTTTTkkhjZDLLKFFDAFGFAVZAVZAZZVZV",
"VBvVVVZVVVMVVDCFVVFKFKGFjkk$TTTTTTTTTTTTTTTTTTTTTTTTTTTT#hj#BFVADAFvjjj$TTTTTTTTTTTTTTTTTTTTTTTTTTTT&jhjZDGKFFADAFZVVVNZZAAZZVVV",
"VBBDZVZVNNNZADDFVVDGFGKGj$k&TTTTTTTTTTTTTTTTTTTTTTTTTTTT$jk$nKVDDAFB$jj$TTTTTTTTTTTTTTTTTTTTTTTTTTTT&kjjFDDKDFAAAFAAVAZFZZZZAAVB",
"NBVVVVZVVBVCAFFFVVGLGKKKl&k$TTTTTTTTTTTTTTTTTTTTTTTTTTTT#kj$NFVDAZFB$jh#TTTTTTTTTTTTTTTTTTTTTTTTTTTT%jjjDZVFDADZAAAAVVZNZZZAVVAV",
"NVVDSVAVABVCVAFJZSGGGKKLk&k&TTTTTTTTTTTTTTTTTTTTTTTTTTTT+jk&VFCDDZABjkk$TTTTTTTTTTTTTTTTTTTTTTTTTTTT%jjkZZAGFVZZZZAZVZZVZFFAZAAV",
"nVVVZDZDZVVVVFDFDVGPKKFKj&k&TTTTTTTTTTTTTTTTTTTTTTTTTTTT#kk$BKSSDFVBhjj#TTTTTTTTTTTTTTTTTTTTTTTTTTTT%k%lVZAGFZVZVAFVZZZZZZAAVAAV",
"BVBDZZAZCBnVVFFFDVFKGKGLl&&$TTTTTTTTTTTTTTTTTTTTTTTTTTTT#&k$BFDDFFZB%kj#TTTTTTTTTTTTTTTTTTTTTTTTTTTT%khlAZDJFZZAZFAZZZZZAGCAVAAV",
"BVBVABFDVVCDVJKAVVFDJAGGj&j$TTTTTTTTTTTTTTTTTTTTTTTTTTTT#jjhbJDAFADB$kj$TTTTTTTTTTTTTTTTTTTTTTTTTTTT&kkkVAVGGNZZZZFFZAZZZAZZVZFV",
"VVVVAVAAVVVDFJGAACKGHFGGjjk&TTTTTTTTTTTTTTTTTTTTTTTTTTTT+hj%bAAAAAFB$k$#TTTTTTTTTTTTTTTTTTTTTTTTTTTT&k%kAVZLHFVDZZZZAZZZZZVZZVVV",
"VVVVVVDFVVBAGFFADDFGFFFGkjk$TTTTTTTTTTTTTTTTTTTTTTTTTTTT+jj%vACCDVJBhjh+TTTTTTTTTTTTTTTTTTTTTTTTTTTT$khkZGLHGFNZFFZVFZFZZFVZAZVV",
"VZVVVZDAVVVFJFADFDGKKGDGjjk$TTTTTTTTTTTTTTTTTTTTTTTTTTTT#&jhBAFDCCFBhjh+TTTTTTTTTTTTTTTTTTTTTTTTTTTT$j%kVHHBHZZZZZZZZNZZZVZZAAVB",
"VDVDVZAAVVVAAAVAFAFKKGFGkskOTTTTTTTTTTTTTTTTTTTTTTTTTTTTO%jhbAFADCFBhj$OTTTTTTTTTTTTTTTTTTTTTTTTTTTT+k%kVGGHGAAVZAFZVZZAZZVZFAAB",
"VBCDCVVZDVCFDFCDFFFKKFHHksjOTTTTTTTTTTTTTTTTTTTTTTTTTTTTX#j$BFFAAAFB$j$OTTTTTTTTTTTTTTTTTTTTTTTTTTTT+j$jVGGGHFABNZAVBVZVZVVAFVAB",
"VVVVVVAZCVFJFFAFDDFGKFGKks$OOT+T+#$+#%#$$$$#$$#++++OTTTTo+j$BDFFDZZV$h#OTTTT#$#$$$++$$##$$$&&%$@T+TOO$$kAHLLHVANNZFANVVVVVVZACVB",
"VVVCZCVCAAFJCKFFSFFGFDKGj$#O+#$%%&&&&&j&&kk&$&&$j$j$$#++++#$bACJJAAB##OO+#$$%&j&j&$$jjj$k&&&&&%%$%%+O$#jAKULGGHZZZAZVVZZVVVZVCCb",
"BVVCVVAVDJGKFFFFFFFKGFKGkO#$&jkkkkkkkjkkkkkkjkkjjkkjjjjj&$O$nDCFGAAV#O$%jjkjkkkkkjjjjkjjjkkkkkjkkkk&$+OjDKULGDHGZVVVVNVVZVZFZZZM",
"BVVVCVSADFGFFFACFFFJKKLL$O+#$j&&&&%%%%&j%%j%$jhs%sh&$$&$%@++vDCFAAFb+$#%&%%%&&&jhj$shhjjjj&%hhjhj%j%$+O%FPLLHHHFFZVZVMNVVNDDZFAv",
"BVVVVVVVFKFFFCADFFFKKGLPlkkkxxxcvckzxxvxkckzkkxckcxxxxxcvvxjbFVFAVFBjcvvvxvvxxzccxkkkzkkkzvvvkzvkcvxkkj&DPLUHHGAGVVVVVVZVVZZDFAv",
"BVVVDCVDFLFFFVVFFKJFFFKYKKGFKKPJFFCCCDCJFAFFFFCVVVVBVVVFDKGJCDCAFAAFFDFGDCCFFDAZFSVVADAADFKLLGLKPGKSZDFJFLPUKGHFVVZVVVMVVVZGADFB",
"bVVFFCAVKKFJFVVDJKFFLPLLKFKFGGKFKAVVCAFGADFFADAZVVVBVVVDAFGGDCADFDFFAGFFFACFGAAFFDCbZAVVCVJPLHKHLGKFAZZGFLPPPGKFZZVAZVVVBZSKFADv",
"vVAFDSVDKFJFJCVADJKFFPKYKFKFKKFKKADVAACADFFFADASVVCVVBVFDKJFKAVDFFFFFFGFJAFFGFFZFDVBZFZVCDKYLHUKKFKFZVDKFGLPKFDDZVVVVVBVVDVFAADv",
"BVDFDCDJDFFAKVVSCFJFFKFKFFFKGGFFCAVVVVZZDAFAADCVBVVVVVCZDKKKJFVAAFVAFAFFAFAFFFFFVAVnAZFVCKPYLLUKLDGFZVFLFKKYKJCDZVZBVVVBVZDFCVCv",
"nVFADVCCFFFFKCVFFGLFJGGFKDAGFJDDCCVVAVZADFCAAVAVVDCDDVDVCKLPKAAZVFZAFDFFFAACAAAFCDVbAVCVAFLYKLLKKVADVVAKFGKGKGFAVVVVNBZVZDFFVVCv",
"BVGDVAVVAJFFJCDFHFKGFFGJFSAFFFGFACVVVDAVCDCVVVVVVDSDVZZAFKLKGVZAVFZZZGFZCAFCVADFADVBCDCVFGKYGGLKJVFFVZVJASJCFSSFZBVVNZZVVDFFCVVv",
"BCFVCFCCAAFFFCCAAHKKGKKACVSFCAJDACVVFVVCZFVCVBSVVVAABVVFJLPKGVZAVAFZZZGFDAAFCAFAAAABVDCCFFLUGFHKDVFSVVVAVAAAFBVSVVNNVVVVZAFFDAVv",
"VDFDFJVDCCVAFASFGKKKGKKGAVSDAFFGCVCVVVACDFDVVVVVZBAVBVAFHLKGGVZZVVFZZVFFFADFVCCFFFVBVAZVFFLYGFAFFVSSVBBZVVCCCCVSBBVNVMZVFFGKFVVv",
"BFFJJFCFAVCFFSFKKKKGGUKGFVDDDDFGCFCCCVADDFFDVDBVVVZVVCACKKKLGADZVVAZVZZAFFAFADVFFCBBVAZVFAGLZVVMlllccllcllzlfflfMBMVVVZVDFFLFBVv",
"VFFFFFDFFVCFJAFFKKUHGKFFFCADZDDFFCFVAAVFAZDAVAVBVADDCDAFHHPHHFZZVZDZZZZGJSFFDFCFKDBVAADVFCGLAAV4<<>-=,82,1019887pnBSBZDVSFDKFBVv",
"VFFFFFCFFVAFFJJJHGKGFGGAFDAJFKKFFFJFFFAFAAFVVSVVZFDCCFVALLPLZGZZAAJFGHAAJFJFFFFFKFMVVFFVGFKGFAv0q08-<;wqwq20erwepbBBVVVVDSFDVVBN",
"nCCFSCBFFADFFJKFHGLHKHFDVCVFFFJVAJDAGFADZZFACDVBVAAVCAVCGHHKHDDFACHGFLGZFAFCFFFDJFBVVFAVFFFAFCnp118= 158551>0e09amBnVNVVVVDVVVBv",
"VFDFACVFKGKFDFFFAHHGKFAFJFSFKJKFFJFGGFADAAFADDCVADVVADAJLUKKLGFHFFDGFKHFJFJFFFFJFFBVCJDCGAJKDCDVcMMMvzcclcMp8009pVBnBNVDVDDVVVVv",
"VDFFAVBADFJDADDFVFHFGGVFcvbbbbBNnbvvvvbvvbbvvbvvvvcvxvvbVBVcZPFLKAFVknvbbvbbbvbvvvkvvbvvvvnBbbbnnnnnbnvxVCnSa8q9pmNbVMVAVAZNVNVM",
"BVAAAAbGFJLGACDCAAGFFGAZ%$$h&j&&&j%%%%&&j&%&%j%%$$&$$$%%$$#@NKKPLJGv+@$&%j&&&&&&&%$$%%%$$&jj&jj&&&&&$$$&mVVml1q9pnvnMVVAZZVVVNVM",
"BFDZVAVDFKLJCVAVVFAZGFFFx#O#$$%$####++++++++++OOO+++###$$$O$SGGPFLGV%++##$##++##++O+O+#+##$$$#$$&%%$$+#xVVVSl808ymNnBVVAZVBVVVNM",
"BVVAVAVCAAKGVVVVAAAZZHDZk$+#+##+++#+####++++OO++@@#@$#$+#@$$VKFPGFKV%%+$$##$$##$$++#OOoOO@$##@+$@O++OO@xVSVVv10>yVvnVVAVGVNNVBVM",
"vVVBVCVAVAKFZZBVFDFAAHZZc$O$kkkkkkkxkkkkkkjjjjkkkkkkkkkxjO$jDLFGKGKD&%+jxkkkkxxxkkkkjksjkkkkkkkxxxkk#o$xVVVSc51=yCNnNVDDGZMVVNVN",
"BCSBVVVAACFZVVVVAFAAAGZZxs#$kk&&jjj&hjjj&&j%hjkjkj&&k&kvj+$&VKFGKDLCj%+jvjjj&j&kkjjjjj$%s&kj&&&j&&xx$#$cVVVmc1:=tCNnnVDDDVMVVVVN",
"vVBVBVCFDFFCVVVBFAAVZFFGk&+$kkVZVDAFFVDFnVVVBVBVCCVDDFNxkOj&VKSGLFPF%%#kkbSDDCCCVAAVMBbBBVVGDVVGFDxk$#&xVSBVc<1=tSvVVDDDAVVMVNVM",
"mmCBVVVFFFFVDVBVACFAVAZAk&O$kkKFGFJKLFLKADAVAAFZFSFLLLv&&Ok&FLFKGFLDj&+kkVLFJJFFJKKFZDDDDFFYKDKPPKkj$O$xVVVVc5e>ymnnNVDDZVVVVVVM",
"dggvnVVSJFFVCVVVVVZFVAAAkjO$xkDDDAFKJFKGZVZVVVVCDCCKKLVjxO&&FPKPJFKD&&+kjVKGJFFFKKGFVCBVDDJPLDKKGFjk$O$kVVVncqr>tmBBBNVZAVVZVVVv",
"=7-cVnSDFFCVVVVBBVZZVAFAk$O$xkFAFFKJFKGJAADVVVVDDVFKKYV&&O&&FKFPFKLF&%+kjVPKKKKFFKFFZVVDAJJKLAKKKGjk$O#kVCVnl0r=tCNnVBVVZVBZMVVM",
"<0;cVBSVFFCVVVVVBVZVBVAAksO&xkFAFFJFJGFFZVAVVVVDFFKFGLVjx+&&FKLPKGKD&&@kjBPLLKKFKGDDVZMVCFFLKVFKKGkk$O$cVVVCleq<tVMBVVZVGVMVNVVM",
".>-cnVSDFJCCCBVBVZZVVVAFksO$kkFZAAFFKKGLAZVVVVGFFJKJGLZjx@&&FKPPKFKC&%+j&VLJGFFDFDFDVZvVVFKLLDFKGDkk$O#xVSVVc11=XmNBVMVVFVMVBVVv",
";0;vnVSFFFAACCVVVZAZZVFDk$+$kkDVFDFFGFGGVVVBVZDDFFKFKPVjk+$&ZLUKKFLAj%+kjBKGKFDFFFFGDVBBBFKKLVVKGFkk$+#xVSVVc10<4VvBVBBDFDNBBVZN",
"<0-cnBSDDAFCVDVVVVVVVDDFz%O$kkFDFFFFFAAFVZVVVZDFFFGDGPD&k@$&VPKHGGLA&%+jjBKFKDFKLHFHVVBBVDKJJADJDDjk$+$kCFCVv<5<iDvVVVVDFDNVVBVB",
"-1;cBnDSVADFGDBBVvVVFDZGk$+$kkFSAADVGAZFAZVVVFFGGGVFKIZjkO$jVLGLKHLZj%+jjVGAKDFGKKFGDVBBBVJDADFDDFkk$+#xVFSVN644fVnVBVVAFDNVVVVB",
";0;vVVVVCCFFFFBBVBZVDFAFkh+$kkFCFAFVGAVFZZBVZGFFHFFKKYDjkO$sVGGKLKLZ&%OksVGGLFFFLKFFFVBBVVFDCCDFFFkx#+#kCDDDVSCnnNNVBVVVFDVBNVDB"
};
