/* XPM */
static char *planks_jungle[] = {
/* columns rows colors chars-per-pixel */
"128 128 45 1 ",
"  c #4D311E",
". c #553622",
"X c #583722",
"o c #573824",
"O c #5B3A25",
"+ c #5F3D28",
"@ c #623D26",
"# c #623F28",
"$ c #674027",
"% c #684027",
"& c #664129",
"* c #6A432B",
"= c #764A2E",
"- c #794C2F",
"; c #774C30",
": c #7B4E31",
"> c #7E5033",
", c #814F2F",
"< c #804F31",
"1 c #825334",
"2 c #8B5736",
"3 c #8E5837",
"4 c #865738",
"5 c #885738",
"6 c #875839",
"7 c #8D5A39",
"8 c #905733",
"9 c #925A36",
"0 c #9B5D37",
"q c #945D3B",
"w c #995F3A",
"e c #96603E",
"r c #9A613D",
"t c #A36137",
"y c #A1643D",
"u c #A8673D",
"i c #AB683F",
"p c #966240",
"a c #9C6441",
"s c #9E6845",
"d c #A16641",
"f c #A46943",
"g c #AB6A42",
"h c #B46F43",
"j c #B2734B",
/* pixels */
"*4>111:1>4>>1><1:<1:<<<:<:::<<1111:>111:::<111::>:::::::->::::>:-:::>::1-::>>::1>>:1>->>>>111111,1:>:>-::::::1>>>>>:::>>>:::>>>*",
">fafsasdddsdsdsddafddafddddfdddffryryrrfryyrrryyffyaryyrrrryyrrrrrrrrrrrryrrryyyyryrrrrryyrrrryrrrfayrayfaararrrerrerrrraereres4",
":r9qqqqqqqqppeaapaeaaaqqwqweaeqwwqwqwwwqrqwwqwwqwqqqrqwwwewwrewqwewwqqwewwqwereqeqeeerrreeeeqqqqreq7qqqqqqq777977qq77777qqq9wqr:",
"1frffdffyffrarweaaaaaaaaaaaaaadaaarrrarqeepeeeqaqqrqrreqeeeerrerererererreqeeerarrreereerrerererrrweeereeeaarrparaperrfffryffyf1",
":w7qqqeaaaaaafyfyrwwwewawqeqqqqqqqqrqeeqwrrwrrwqqwwrrrrwewwwwwwwrrwwwwqqwrwrrrrwerrrrrere99e9e9eqweeqqeeeqqqqqqeerrrryrrreqqq7r;",
";q5777777qqpeqraraaadrasayaaywrdyrarrrreqrerqqqrewqqqqqweqqq9weewwwqq79qqq7q9q8weq9e9r9errrryrrrre99wqwewwrrrrryyrrrqwp7772777e;",
">saaapqqqq9q9777q7qqqqqqeapepewape7qqqqqq7qqqpqeeqqeweqewqqqqqq77qqqwqqqqqqqqqqqeeeeeeeqwe7qwewerrrryrryryrrryrreqq777q7qeeeaes>",
":aqaqwqaeereeeqqqqqqq97qqqqqq77qpppaaaraaeeqqqqqqqq7q7q77qqq3qqqqqq77qqqq9q7qqqq9e39999ee9eq3q7qqq7q8qwewwwqwq7373779qeeppaerer>",
":w7q7qqqqqqqrewqqeeqeeeeeeeaeeawaaeqqq97777q77qqqqqqwwewweeeeeeweeweqqqqqqqqqqq9e9ee9ee9e9eeeeeeqqeqq7q7qq7q7qqqqeererewq7q3q3e=",
":e7q9qq77q9777qqqqqqqqqqwqqqq77q9732777qqrraarrrreeeerqqqqq9779q9q7qq9w9q7q833999999q99e9e99999eqqqqqqqqqqq7qeqqq9q983337q77q3e:",
":rqaqpqq797qqqq77qqqqqqqqqqqqeaqeeeprrerrqq7797q798q97qqeeqwwweww9wqqq9q87q377q79ee973339qe93qq9wrwqwwwww9qq3989qq99qw9eewwwr9r>",
":w9wwrqwreerrrrraeewqqeweaweeewqqqwqq9q77qq77qqqrrereqw9qq8qqq977q7q97e9qq7q9q9we9999ee09e9e99933378q8w9we9w00rrwrrrreerwwerrey-",
"=w389739qqqqq7qqqqwqqwqqqqqqqqq9qq7997qqqqqq9q9qew8q77qwq9qq9q9qqqq9e9w999e0www90r0r9r0re99r90909999888833888889899w99wwwq9993w=",
"-rq0qwq9q79qq97qq9q9q3qqqq9qwqqqqrwwqwwq9qq9qqq7q8qwew9ewqwq9qqqqqe9909rrr998qqwe99999999r990999908090909808888888989938399qw3w=",
"-09qqwwq9w8998wwqqqq90qqqwq00qqqq99qwwwwww9997q9qqqqqq9q7qqwq9999rr0908wr9wqrr9w99989e0898999r9r9998980890888888888988388989839=",
"-03q88398q9qq789qq99qqq9q99qqqqq97qqq99qqqqq9qqqwqqww9r9w909e0w000r0wqww9989q8q900000r0rrt9e98889990098989800808888899889999939=",
";r7wwq9qqq9q9qq998qqwq9q979qqqqqwqqqwwwwwwqwwwwq9rrr9er9999reeeee9q9q9999q9r9rr988999t0tttt00909983899eqwq999e8r089e83987q3ee39-",
"=w7q3797q979qq9wqqqq9q9qqqq0qqqqq8qqqq9q7993qqw99939999q9ee999939eqeeeew9qr99072qw999rt0rry088839983339e3w9989830t93q3eqq93333r-",
":r9q389qq9q99qq89wq0wwwwwwwwwww0wqwq89ewwqewqq9qeee9eee9rrreee9eqqqqqeeeqqe7327qwqewqqqeeqqweq83qqq79q7q333393399wr3qqqq7qq9e7r=",
"1r2qqqq7qq9q7qqww00qwq9qqqqqqq0qqqqweewwwwwewrqwr9e99399999e9ee99e9eq93eeew7wqqqqqqqqwqeeaereweeqq7qqqeeqwe99e9eeweeq7qqeq9eeer>",
"=w799q3qq9qeq9r0qw9q97qqwwwwrwq0wwwrwqrrerewwq9qe9e99r9re9wqe9eeq9wweq337eeq33393q7qq7qeqq777qqqeq7eeqqe77eqeqeeqq7q7qe9e73e92q=",
"=wqepe99q89999q3q9399999q9qqq9qqqeqwqwraweeeaaaqerrreeeee8q3933ee9e97qqq32q933eeeeqqqqqeeeeweqqeqeqqqqq7qewe9e3ee7qeqqqeq7e7e3e=",
":r7eeeqq7qqqq798qqqqq9qqqwqqqaeeqqqqqqqqq7peppasarrfeewqrrrre9999rrrqqqqeeqqee9eeeeeeqeeeeeeereqeeeereeqqeqee9ererrrrree977qe9r:",
";e7q7q77q77qqqqwqqwwqwqrwwwqw0wwwrrwrqqqqqqqq9q7q77q7e7737eee3937wqq77q7e77e3ee0w9w9wwwww9wqqwwww0we9ewwq9qqe9993737777777e735e=",
"2iyuyyyty0yyyyyrrwrwewrrwrwrrrarereerrrrrrrrrrrrrrryrrrrrrrrrrrtryryyyytrryrrrrrrreeweerrrreeqeewqr9reewrrrrrrrrrtrttrtrryutuyi2",
"X@OOOOXXOOOXXXXXoOOOXoOOOOXOOOOOOoOOOOOOXO.OXOXXX.OXOOOOO@@@OO@O+OOOOO@OXXXOXXOXXOXXOo.OoOOOoOOOOOOOOOOXOXX.XX.XXXOO@@O@O@@O@O@X",
"2572222255552223722279q9qqqq9qqqwwwqq989893893392w=Ow28332322212512222223399892822338q88w833999983222338899998388221112122211222",
"qrwqeqqe0ryyyyrryryyyryaarrrwawaraqeeepqqeqweewrqy:%y9trryrrtrrryytyryyyrtr99rrrr0erwrrrwrqrqrqqqqqq9e999r9e9r9rrrrttr99e9werrr9",
"q37qwwwr0qqqwq773797q77777779q77q97qq9qq7979333q2e;or277237373q999989739333332333387q38937q8w9w99w9e9r09e939399388338wrrr99q899q",
"rrrrrarrpq9qqqqqqqqqqwpwqwwqqwrarrrrrrwrrrrreewr9y>$ywyrrrewwewqqeq9qee9ee9eeeerrr0rerrrwrrfrfrrrrrrrrrreerrrrrrrreeqqqeeereryrr",
"qqeeeeq7qqqqqqqwwqqwqwwwqwwawrwqqrreqreaeerreeraqa>&f7rreqeqerererrreeeeee9eeee99werrrrrrrwq7qrwrrrereeeqqeerrerrree9rreqqe77eee",
"eeeeeereqrerrrrrawaaqaqpeaqeeeqaeeqeeqe7eeqqqeep7a>+a2eeeeeeeeeeeeeerrrrrrrrrrrrrrrrrrrrrqqerqepee7e777qqq3e3e9eeeeererrrrrearee",
"rrararaaaasaaappqq7q7q7qq7qqqqq7qqq797q7qqqqq7qw3r-@y8w9ww9w99eqqqqqqqaeeeeaeaaeeeeepqeqqqqqqqqqqqqwewwwrwwwwq9qqwqqqqpe7peerrrr",
"eqeeq77qqeqqpqqrwwwqqqqwqqw9wwqwqwwqwwwwwqwwwwwwqy1#r3ewrrwqeewwwqqw9qqqqqqqqeqqeqqqqqqq797q3qqqwwwwwqqwwewqqwree9w998797qqqeqqq",
"qwq9wwqwwwwwwwrrwqwwrwwwwwqqqqwrewrqqqrqqqqqeqqaqa>&f7reepeqeeeeeeereeqeweqaarawwwqqq730qrwwqwqqqqeeeeeeeaepeeeeeeeeqeerrwwwweew",
"qrerrrepperprrqrapqqqeawrewaepqeqeqaerrreerareerqa>#f7eqq7q77qq7qqqqeeepeeaeaaaaaaeeeereqeqqaqaaeeeeeeeeqwewwqewrerrraeerpppeaaq",
"eeeeeqqqqqqqqqpwpqeeeprqqqqqqqqerrqrqqqqqqeqq9qq7r:@f7eeqqeeeeeeqqqpqqqqqqqqeeeeadaaaaeeepqeqepqwweewerrrwrrrreqwqwqqrqrrrreeerr",
"qeqeeqqq7qqqqqqqqqqqqqqeqqqqqqqeqqqqqqqqqqqqqreaqa>&a7eqp7qqq7eqqqqqqqq7qqqqqqeeeeeeeerrrwawawwreerewqqweewqeqeqeeeeqepqqeqqeere",
"qe7q7qpepqqqqqqqqqqqqqeqeeqqqqqqqqqqqqrrpqeeeqqp7a>@a7w77qqqeqqqqqqqqqqqqq7pqqqeppeeeeeeeeeeaaapeqe77eeeeeeepaapepapeeeeerrpeppe",
"eeeeeqeepqqqqqqqqqqeqqqqqqpreqqqqerqqqqqqq7qqqqrqr>#rqrwerwewewrryreywrweeeqqwqqqqqeeeeeaeeeeeapeeeaeaaaprrreepqqq7qqqqqeeereqee",
"eeeeqq9weeqqwwqwqqqpqrq77ppqqqqeqeqeqqqqqqwwwwwr9y1@u9r009000rr9ww0w000w0ww0ywyweeeweeqeqpaapppeeeeeeeqeeeqqqqqqqeeeeqqqq7qqqqeq",
"eerpeqpqqarqqqrq99999qqqpqq77qepeqqwqwrwrrr0ww0y9y,@t8w9rr999900wwwwwwwwwwq90wwwwrw0wwrqqaqeqqqqeeeepqqqq7eppppqeeweqqqqqqweeqqp",
"rrqrraaaarrerrqwwqqqqqqqppqppp77qqqqqrqww0ywr00y0u1@yqr00rrerreewewerrwrwrrwwwwwww0qw0wdrwrwpwqqqqeqqeqqqeeqqq7qqqqqqweeeqqwqweq",
"qqq9qeaaararerrqqwwqqrqqqqpqqppp7q7qq8wwrryyyyydru1&uqrwqqweeer9wwwwwwwwwewrwewewewwwqq0wrqrwrawrwwwwwqwqpqqpqqepqqq7q939qq777qq",
"q7q7qqppqpqeepqeqqrqeqqqqeqqqeeqeee7q9qqweqqqqeaef>$rqrrrrrrrrrrrwwqqqqqqeweeweweqqwweeraqwrqrpreeqqeqwrrrwwwrwwqwqqqeqearqwrwrr",
"eqqqq779qq7qq9q9q79qqq7qqqpqqeeqe77e7qeqqq7qwqeaey>$u9tr0er9wewqqqqqwqwqqqqwwqwwwqwqqqwwqwwqqrwrewwqwereeqqrqwwwqwww099qq7qqqwww",
"w9qq33777799qqq7w98q799qqqqqewwrqwq9wrwwqqqrwwqr9r:@uqrrer9q8qwwqwww0wqqww0qwwwwwqq0wwqwwqrwwwwqwwqwwwweewrwwwweqwww0000w8w9qqq9",
"rrrqwwwwwqwrwrrrrrrrrrrrrrrrraaasrasaareerrrerry9u,$uqr9r9rrrrwwwwyrwwwwwdwydrwywadradwayarraffdfrarrreeraararryrwerrrrryrtrq3wa",
"wqwqqqqqeq7qqq97777732333qqqq77qq3eessppqw7wq8wr3r:+r2e7wqw2333qqqq3qeeewqqeqeqeqqqqqqqqqqqqq7q7w7997qeqq72qqqqew73q7e7q9qer037q",
"ffafaaaaararrafrrarfyffrrffrfaffrsrrrrraffyfryghig2*jagrrrffffffdddddfarrddffffffffryffaaaasaaaarfrfrrrraararfrafasrarrfuuuyrfrr",
">::->-::-:>>>::>>>>>::::>>>>:1>11>>1>>1>>>>>>>1117*.6>1>:=:>>>>>::<:>::::::>::::::::::::::::::::>::>>>1>>>>>>>>>>1>>>>>:11>>>;>>",
"++++@++++@@@&&&&***&&&&&&$$&&&&&****==****&********=*****&&&&&&&#*###**##*#*****&&&##################+ &$&&&&$$$&+$@$+@$&+$++&++",
"rarrryfyfyufufgfgfgfgffyryfryrffffffsfffffffssfffffffffsaaffffffgfdfffffffffffaaaaaaarrraarararaararrqOyeafrrfrssfrfrrrsrrarrars",
"qwrereweeqeqeeq973779q77q722323333222272377277q772777qe777777772777777777777775779777777777777777372q1.q27773377212233337q7q7q3q",
"errrereerarerrrrrerrrfrarrrrrrrerrereepeeeeeereapaaapapeaqpasppeeeeaaaaaaaaeaeasaarrarrarrqrwqrarqrwy7Ofrfrrrrrrrrwereeeeereerrr",
"qq7q9q9999qwqwrewwwwrrrrwrrrrrrwq9qqwqqeeqqqeeeeeeqeqqeeqpqqqqqqeqqqqqeeeeeqeaeqerqrraeeqqqqwqwwrrrqr7Orwrrrrrrrrrewqw99q93q999e",
"rrr0999999q9e999qw99qqqrrrqqerrereweeeeeeqe9qqeeeeeepeeqepppppeeqqqqeeeqqewqqqqqrqqqqqqerrwrweqwrarrr7@yrrrr9rr0r99errrr9w9wweww",
"8999r9r09w99989w8wwq99wrrrrrrqqrewq99eq9eeeeee7eeeepppqqeqp77qpqpppppqqeqqqqqwqwqqqwqqwwywwewwewwrrqr8Or9999e9999w9w990rwewr99w9",
"99998w00r999339wr9889w9wwwwrwwqew9qwq33q39qqwqeqqq7ee7qpeqqqeeqeqqqqq77aqqq3w0qqqqwqwrwwwqwrwerwwrr9w2.w9ryrrryr99998899wrw8r99w",
"q98939e9r9333q9q837qqeqeqqeerqqqqqqqe9e3qq7337777q77q77q7qq77qqpqpqqqqp77q7qwqqqq9qwqwrwr8q9ewwrr89892Oyrure99rre99999ww999999re",
"3322233q89q77q77qeeqeqeqqpppqpp7e7qq7eeee7q7eq7ee7p77777q7p7777qp7p7qp7qq7qqqeqqq7qqqeqqrqrreqqq938391Or9wq999939999333333q7w3q3",
"eeq93qq37q77eeqqqqqqqeeepapqeqqqeeqqq77qee9qe7e7e7q77pp77p7q7p7q7ppq7pqqpqqqqqqqeqqqq7qqwwweqqqqqweqr3Or3wqqeeqq9wqqqqewwqqqqeqw",
"9qqqe9eee9qwqwwqqeqeeepepperppqeeeeqeqqeqqqeeqqqeqq7pqqqp7qqeqqqqq7qqqq7qqeq7qqpqqqqqqqrqeeeeqqeeee7w2X93eqeqqqqqeeqpeeeqeeeeeqe",
"eeeeeee9qeeeeeqeqq7qqqqqw9qreeerereeeeeeeeeeeeeeeppepeeepqpepppepeeeeepeppeepeeppeeereeerqwqqqqq7qq7e3+reeerreeeee7qq7qqqqe7eeeq",
"erereeeeeeeaeeeraeqapeqqqeqqqqwqqqqqqqqqqqqqqqqqwqeeeweeqweeeeeeeeeeqaqqqqpqqqqpqqqqqqqqeqeeearaeeeerqOa7q7q7qqq7qqqqqqeqeeeeeee",
"e7eqeeereprreeqeqppqqeqqpqeepqqqqqppaapqqqqqqqqqqqqqqqqqqqqq9qq9qqqqqqq7qq7qqq7qeqeqqaeqqeeqqqqqqqq7q1.q3qqqqqeaeeqqqqqqqqqqqqqq",
"rewqerrfafrrerreaqqaaaaaeeeqqeapaqqqqqqqeeqeeeeeqeqqeqewqeeeeeeeeeqqqqqeppqqqppqqqeweeqeqeqeqeqeeeeea7Oaqeewqeqqqqq7qqwwqwwwwwee",
"eereerrrrrrrrrrraaaqqqqqqaeeeeqapaaeepqqqqweeerqqeeeeeeeeereereeeeeepqeqqqqpeqpqeeeeqeewqqqeeeeeqeeee7Oeqqqqqqqeweeaadwawaddaawa",
"rrr0wqqwrrrrrrrrrrrrrwwwqq9qwwwqqrrrrrrwqwwwwwrwerrrrwweewww9rr0eewqweewewewewweewawreweeewqqwwwwwwqr3Owwwrrrrwyrwwewwwqqeqaweqe",
"9qqqwwrrrrwwqwrwrqrraaarawwwrrwrrryrrrrrrrrrrrwrrrrrerrereewerrrerreewwrwreeeewewewawwreawwrrrarrrrwdq@deyyryrrreeeweeeeawqqqqqq",
"ww9rqqqwewqewewrqwwwwqwwqwweararwerrrrrwrqrrrwrrrewqqwqqwwqqeeeewqeeeqeeeweeewewaewereweweeeqqerreeqe5Ow7qeeweeewqqqewewqqwaawqw",
"qw0r0www99wwwwwwewwrwweqweqqwwwwraewrwrrrwwwwwewrw9q8wqqqqwq9r9eqwqwwewqweqwqeqwqwwqwwwqwqqqwwwwwrwwy3@wwww9wwwwwq0qwwwwwwqwwwwe",
"3793q99ww9w9wryrrwrw938q9qwwwqqqw9ww9w9w9wwwrwwwrarrwe9qe9ee999qqqqq3qqqqqqewewqwwewqw0ww0wwwwwwrraryqOrwryrrrrerrrewwwwwqwrwrww",
"rrrre9qwqwqqwwrrrryrrrewqwwwwwwwrrwrwwrwrrwrqwwrrrreq39q9ee9rrreerqewweewqrayrrdrdrywaaaaraaaaardrdrdqOdrddddryryrrrrreewawrarra",
"w3q73q379777277q877qerwqrw7997qq79q77q977773237qqqqq7qqqqqqeqqqqqwqqqqeqqqqqqqqqqqwqqqqwwewewqqqqqeqw4Oe7qq33733979q3797q777799q",
"rfyfrfyrrfyrrrrryfryrrrrggdyffydyffryyyfydyyfdfyfyyfffyrffrarfrfffffdddfdfdddffdfdfdffdfgffddfddyrywy9@dryyydyydrfyfryyaadydardd",
"&&***&&*&&&@$@&#+$#&@@$$&*&#*&#****&&&**@##@@$$*&&&****&&&&$$&&&######*##*########&##*####&&####@@#@@@ #########@@#@++@###+#####",
":=:>>>>>>>:::>:>>:>>>::;<.=1:<<<<<<:::<-:>1,>1>11611111111>1>>114:<4:<<<1<<<<<1<1<111<1<<1:::<4<<::<:<4;::::><::>>>>>>>>>::::<::",
"rssraafsaafasffarfryrrrrfOqfydryryaaryyyfyrrryryyyyyryrryrafrsfrdadrrdadaadrrrarrwwrayydddfddyyyaryyfyrydryraaaaaaaaaaaarapsaaaf",
"eeqeeeqeqeqqqqqepaseeae7q.492937q999wqqqweewqw3qq773q7qq7793q8933q333373333338333798377893qq9q3qqqqqqqw9w73577q7q77qpq7q777q77qq",
"raarapaaarerarqqesswsfqar+3rqaadrryfaaaffrrrrrrrrrrrwwqerrereerrwrwwwwwwwwwwwwwwwwwwwwwwwwrwwrryryrrrrrrrrrerrrrrreeqqwqaeeraraa",
"rrraarrfaaaaaaaqqqwqpqqqrX2raaaaaaaaaprrewqqwqqqeq9qqqwerrr0ww9rwwwwwwwweewww9www9qq9wwwwwwwrwwwrrrerwrrrwqq7qqeeeewqqqeeqeeq7qe",
"apppppqppeeeaeapaappeeaqsO7reaasaapaeeeeeqeewqeweeeeer0wrewweweqwwwqqqqqqqq77q77qqqqqwwwweqqwrrerrrrqqqeeeraarerraaasppeppaasaaa",
"apaapppppppppppppppppeapsO2aqpeppappeqqqqeerqq7qrrrew0wwqqwqqqqeeqqqewqwqq7pwwqq33q33qqwrrearaerafarreqeqwprpapsssssawrprrrrrfaa",
"appeeeepppeeqpppppapapspaO7pqqqqppppeqe7q7pqeqpq7pqpeeeeqqp7p77777eassaadaaaaappppaaapqaapqpaaaaaepapeaeeeepppaaaaaaaaaaaaaapaaa",
"epeepeeeepqepqqppq7q7e77aO4epqqqppeaqp7ppp77eppppppppqqeqe7ppppepaapeqqeappsppqppppapppppppppppqpeqqqeparasaapapappppssppppapqpa",
"eeeeqeeeqpeeppppeepeppeqpO6ppppppapppppqpppppq7p7pqpeqeepppppppsspppppspappappapaaaeaapaaaaapaeaapqqqaassepaeaprapapaaapaqqeeaeq",
"rrraaaraaarararrerrreapqrO7a7qqpeeeeeeeeeqqepeeepppqppee7ppppppepppqqepappaaaaaareeearepaqapapqqqqqpqqe7eeeeeeeeqqqpeppeeaafaraa",
"eqeqeqqq7qqqqq7qqqqpeeeqaO2e7qqeqpqqq7qq7q7eeqeeeeeeeeeeweeqqqqqqweweerrrwqqeeeqeqqqqqqqqqeeqqqeqpqw97qwre9eeereeeeeqqq777qqqpee",
"7q7777qqepeepqepqeeqeeeqaO7eqeee7q7qqqqqqqqqq77qq3e33e9eqqeqwweqqqqq7qqqqq9qqqqqqqpqqqqwqwwwqqqqqqqwqwwweee9qeeeerrereeeqarqp7q7",
"eqqeqqqppqq97p7qrqqwqereeO2aeerrpeqqqqqeqqqqrqqe9e9eeeeeqqeq7qqeqqqqqqqqqqqqqqwwwwqeereqqqqqqqqwqwq77q7q899ewqqeqwqqqwqeqpaaaqpe",
"eq83q77977777q9q9eeee7e7eo4e7q77qqqqqpqqqqeepqqeeeeee9e9eeqqqeeqeeeeqqqeweewrryyrqqqq7q3q37qqqqqq77qwqwwreerewe9weqwqqeqqw977q9q",
"wwqq9q999qq999q7339qqqqqeO2e7eeeeeqqqeeqpqqqqeq933q7q3qeqqqqqqqqqqqqqqqqeeqqq7q373qqqqwwqqwqq99qqqqweerrwwq9w888qwqqwqqwqqwereqw",
"qqqqqwqewqqqqqq9e97333q9q.5e2eeeappapraqqqqppqpqeeeeeeqqqeeeeeeeqeqqqpqqqqqqeaeereweq9qqeeqq3qqqwwewwwwwq9337q733w8383389q9wq99q",
"3w9wqwwqwqqrrwqw9rreq392q.132q37qq77777qqqpqqqqqeeeee9wqeqqqqqqqeeaepeeeqqewewqqqqqqqqqqewqq9e9wwwewww398q93q88rrww98w8wq83873q9",
"qwewqqqqqq9qqqpeee9qrrrerX1q2wqqq9weaqqqqqqqq9wq9e97qq7q7qqqqqqwqqqqqqeqqqq3q3q3qe3wewree9q3wr9wr9rweqw83q3qq8we099rwwwqwrwqwwee",
"rareeeeefarrq9qqdfsaseqqqo4q9qqqqqrqqq99qqqqqqqq7q9rw0rr0wqwqqq9qqqq7qeqqqqqqppsapeaaee9qwe8qaaaaeqe77q7qqwweqwqwwwqwrrqrwqqqw9a",
"eewee939raaapqqqaasddwq9rX30qeqqwwq99wqwqqwqwwwwrrrw0rryyrr0wwwrwww8q9q8q799qq99qee9eeee73387qqqqww0ww0rqqwwrwrarrrrqqw9qqwwwqqq",
"rrrrrrrrrrrrrrrwrww0y0dwd@quwuduryyyyyyyyyryytrrrrrwqe9rrwrrwryyrryyyrrrrqrrqqweee9eee9rwewrrrrrrrrrepwqqpqqeqqeqewraraarrrrrrrr",
"eq9wr9rewwq9w9wqqeqqqqqqqo1q70q39wqqqq8wqq8wqq97899q9398777777777873w9ww0r00rr0rrer0rre00rrwwwq73777777q7pqqqqq7qqqqq979qqqqq7qq",
"aaarrrreqqaaaapraaeqeeeqaO7aqwqepeeqpqeeweeeeepeeeepepprrrrrrrrarrpprqeqwpeaerrwrrrrrrrreewqeeppepaearrrwweeqarrapaaaaaarerraaaa",
"q777333377752277777777777.174777722727222222726277277227577223577372557577749544435553352262777777232322557777257777797727772277",
"OO+OO+OOOO@OOOOOOOOOXXOOOOOOOOXOOXOOOOOO+O+OOOOOOOOOOOOOOOOOOOOOOOOOXOOOOOOO.XOOOOOOOOOO+X++OOXXOOXOOOOOO@OOOOO#OOOOOoooO+OO+++O",
"aarfrarrrrraraasaaaaaaaeeaeeaeaaaeapaprareeepaaarsraararrafaaaaaaaraararea7f#:fqrrreereeewerqrraaaaraaraararaarwqawqewwaeeeqwqea",
"7e7qq7qq7q7q9qq9q7qqqqqqqqqwqweeqeqqqqqrqeeqqqqqeqw9qq9qq97q9q79wq9qqqqqwe3r$>aqree99eqqqpqqqqqperrrrqeqrqeq7797qq9qqqqqeeqqqwq7",
"rrrerarrrrrraapreaweqwqeeeeeeeewrrwprqqerqerrereeeeeeeeqqqqqerrepraeqqeeerqs@:aqree9eeeewqpqrarreeeeeqqqqqqqaaaaaeeaaaaawweqerrr",
"eerpppppeqeeqqwpwweweweweeeeeeqeqeqperqqeqqrrererrrrrarrrrarrrarrrrrrrrrrrqy@:yqre9e9q9eaqqqqqqqq9qqqeqwqrqrwwwqqwpeqeqqqppeqpeq",
"7qeeeqeqpeeeppqqeeeeeeeewawwwqwqqqqqqqrqqeqrqqqweqqq9qeqeqqqqqwqqqwqqqeqeeqa&>aqre9reqweqwqrqqwqqqqqeqqeqqeqqqaeeeqeqepqqq7eqqqq",
"eeeeeeqeqpqqpqqeeeeqeeaepeeeeepeppqqpqqpaepqeqpeeeeeppeepapeqpqpeppappeeerqf&>r2eqqqq7qeqqpqqqqwqqqqqeeeeqqqpqeaeeeeqqqqqqqqq7qq",
"eereeeeeeeepaerqqeqpeeeqqeqeeeaeqppqeqprqpepeppeeeqeeeeeqqerrerweqwqqqqqqr2a$1rqrwqwqweeqwwqqepwerraaarraaarrpqqpeeperpaaapasspp",
"eeqqqeeeqeqpqppaaapqwqqeqqeeqeqqqqqqqqrqqqqqqrrrewwqqqq9pqqrqqewqwwqw9ww0rwy@>yweqwerrrrawrradaraffyryrraryfarffwrdaafraaparassp",
"eeeeqq7eeqeqqeqpqqqreeqqqqqqqeqeq9wqwqeqrrqaprrrrewwrrerrrrrrrrrrwwwwwwwerqu%-r9reryryrryyyddwwrryrrrafyrfayfrwrrwadaffaaarfryaq",
"raaaraqarrrrerrrqqqqq9qqqqqqeqpqqqqqqqqwqqwwwwwerqreewqerrrrrqqwqqqqqqqqereu%1frfarafrfrrfrffrrwwwwaaaaaaaaepwwwweedsfafaasafaaa",
"rrrqqqraaaaraarrarrwwq9qqqqqq9q997qqq9qwqqqqqrawwwrwwrrwwreerrarwwqqqeeqrgrf&1fefrauyfaryryraarqaaeaweweaeqwaaqqqqqqqawaqwwqqraa",
"arawqqerreeerqrwwrwqwwwwwqqqqqqqqqq99qqqwrarwqwqrreww89wwqwwwrrrrrrq9999rr3g&2jefafrfaaffffeqqrasaawwqwawaaqwqqqwwweqwqwawqqqqrq",
"raarrrwwwwqwrwwrqqqqqqwqq9q9wqqqwqwwqearqrqwrwrrrrwqwrrrwwwwqrrrrrewweeewe3r*1feaarpqrraffasapaswaaaaeeaeaaqqawrdaraaawqqwwaqrwr",
"reewqw9qqqwwwwwwwwwwrrww0wwwqwq9q38qwraarrpprarfyarrrerw3q3qqqerarerwweerref&>s3rweqeeeepaaaaapqeqeweadaedwqarasareeewq9qq0qqqwq",
"qqqwwrqerwrryyrrrr0w0wrrwwwyy0f0rqq77qeppqqsqqqarrfaeeqewqqqqqqeweepeeeeeeef&1feapraaaeepppqqqqqeaaaqqdaqfqwwqqwwwwwwaqq9q9999qw",
"w9ryyyryfrrrrrrarrwqqwwwawrarafdarq79qq7qqqpeppeqqqpepspp7qeppppq7777ppaasqa+>fpsapaeaeeq7q777ssaeaadaeddwarwawwqqqqwqqqqw0yyyyy",
"rfararaaeaffaararwfaaaaasdaaaaaqpp7pqqqeppppappqqpqqepe7epqppeeeeqppe7q7qe7a+>s7spappaeepqpqqqqpqaqqqeweaqwrapq79qqqq99qqwq0ayae",
"waaqwrrqerarrpeeq7qrqraaaaawewafffarrrreeeeqqeeqqqqq7qqqeeqqqewqeeeeeeeeepes&1fesrreeewqwwrerrrraarwwwwwwwqqqw9qqwqqqqqq9qq9qeaa",
"qqeqpqqq7qerrrrerffaafarraaaayyfaafrfayaarrrrrrraafrraarrreeeeeeeee93eq97e3r+-r2eeeqwrrrerrrrrrrrrawrrrrrrw999w90wwddwaeweeqaeeq",
"rrrwwwqrwqewweerraaarpapeqeppeq7e7qqqeqprerrrraarrarrrrrrrrrrrrrrrerreerryeg$1ueyyyrrryreeeerrwqqwqpppaqqqqq997q3qwewweweawwrwaa",
"rwwqqaqqwwwq7qqqeaerqreaaqaqeqqq7qqqqqq7qq7qqq7qqqqq7qqqe7e737qqeee9weeeer9y$>y7eqq933qq99wqqq7qqqq99999qqq9qq9qqq3q9qqqewawewwa",
"qpqpappppppqqqqqqeqeqqeeaqeqqwqqeeewqeeeqereewweeeqqeeeeeeeeeeeeeeeqeeeeee3s$>aqeeeeeeeeeeqq7eqeweeeqqpeeaeaaaeadeeepeeeapppaaae",
"pqqpqpeqq97777772777777q9755555527777772722777227777779777973q3q7q733e373e7rO;e6q277277777q7qq7q77q7qqqqqqq777qq7qqq7qq7qeepqqeq",
"psfffssssssfsasaasraaprrpqwrrwwreqwqqwwwqwqeqerrreeweeeereeeeeereereererer7y$>reeeeerrerraraaaaaarreeeeraaaaeqqeeaeepaassssfasaa",
"1>1111>141111>>>>>>>>>>>>>:;:;;:::;:::=:;:::::::-===:--:---:==-::==::=-==:=>.*>=>>=>>>>;>:=>:::;:;;;;>::>>:>><>>>1><>11111>4>11:"
};
