/* XPM */
static char *planks_birch_s[] = {
/* columns rows colors chars-per-pixel */
"128 128 67 1 ",
"  c #6A0A00",
". c #770A00",
"X c #710A00",
"o c #730A00",
"O c #720A00",
"+ c #700A00",
"@ c #6F0A00",
"# c #740A00",
"$ c #6E0A00",
"% c #750A00",
"& c #760A00",
"* c #780A00",
"= c #790A00",
"- c #690A00",
"; c #900A00",
": c #880A00",
"> c #8C0A00",
", c #8B0A00",
"< c #860A00",
"1 c #800A00",
"2 c #7F0A00",
"3 c #830A00",
"4 c #870A00",
"5 c #8A0A00",
"6 c #850A00",
"7 c #890A00",
"8 c #820A00",
"9 c #840A00",
"0 c #810A00",
"q c #8E0A00",
"w c #8D0A00",
"e c #8F0A00",
"r c #910A00",
"t c #920A00",
"y c #7A0A00",
"u c #7C0A00",
"i c #7D0A00",
"p c #7B0A00",
"a c #6B0A00",
"s c #7E0A00",
"d c #6D0A00",
"f c #590A00",
"g c #5F0A00",
"h c #5D0A00",
"j c #5C0A00",
"k c #5A0A00",
"l c #5B0A00",
"z c #5E0A00",
"x c #600A00",
"c c #610A00",
"v c #570A00",
"b c #550A00",
"n c #560A00",
"m c #580A00",
"M c #630A00",
"N c #650A00",
"B c #660A00",
"V c #6C0A00",
"C c #620A00",
"Z c #930A00",
"A c #680A00",
"S c #960A00",
"D c #640A00",
"F c #670A00",
"G c #540A00",
"H c #520A00",
"J c white",
/* pixels */
" .XoOXOX+XXXX@++X#oOOo#o@$OX@@OoX@@$@O#Ooo#X%%%#ooO#&*#Xoo%%o#&&%##X+$@++@XO+++Oo#oO#o#..%%#%&#X+X##oo&==.*==.*...*.%#++Xo%%oO*-",
".;:>>>,:<1233<4:445:6647<89457::7:774501<:,>qq5<4:777755:>5>;q>5,w,,,>,:<664::557:5>>>ww,5::7,ww,47:<7>qq;;eqqwerqwew>7,w>>qq5t=",
"#5843<681yuipy8332p8940ip=8338199<:63%a=36<710<64s&00299910999:747733p*10833011393969963889641u08881189<:6947<4757<994<<969846,%",
"%,95:774699:6166693<9839287<<3894,,402*.us955<:<<629<4,5738:74>>7>,9666:3<9909446<634<<::4900083:77:77:69:4:q>><677467:4:55:>4e&",
"%,8<<45:<98639318630308<<939339834<<66<7:909<<:463938336444:5544:466<7:666<<666<<69399<<<90210<:4<683:733034::47>7938969<4:5><w&",
"%><7:4<36633088969809696310121118968223<::<<964:4933644<69<699966<4<39<698839633444:<4<6936<4<36<9<444986<477,7612<4<44<:7775:;*",
"&w3<<<80896699<6<68886<9633930s03<43221012s0339<66969:57:::7::6<4<<77:68333<<4<94<4<6<69969989<44446806694<:44:7<944<4:7401894e.",
"=e67<3698011s033880s2s23881083021206<808003888830<89697<<44:74<6023:<93086<4<4<6<6<<<<39936446446039647,:483<64,4<4777:933977<q&",
"X58<30136363ps1038393938000060s89938037<6<7746839<495576003<<<693393809<49001869446<698391633:<439<4:496<7:,428998369330i23032<+",
"%q946938801357::98826<5<18upi02p20<<00164<697>73<77306646<<<<<4:::744699<44:s*84<:4<64yy:48=::,0o4>>5<97,7>8u45,>8&X+%236<<4>:q&",
"O43577:48s&Xo3,,5,563u*64<<1s3s<:366<:09:,798064<:<444447<6663<47:<909998088982s1<96748901p0464457,7*i9364,:6<<:::777431264:,95O",
"@4s8311sip*&.94::7755:o.<347:4=&297689999397>:699900975444<90996444<4<47<939638377439388<4641%194wq>:<1i9<69138366383<<499699s4@",
"%537367:74<463947:3ss.ao9<7906612y=ui013<:7<9<:499<47>5,5,:4:477:<<<86:6699<<:93968sus06777::61u0012245540811<4463646<<<666649,o",
"o7099<61810381108010is23<3692s06444:7,,:63936<<6667,>ww7<:7<63013336743883839695,:<77,>,:6:5,>7::<66666946<54900696<7447<:69905#",
"#:s<<<749336930675>57:4446475ww990y#o#.y=s2101sp=..&*y165574<4<<:449pu:::::77<3024,7::,wqw7:<0ii957<<66<7,57<9663<:6<6:57<<::04+",
"+6i9<4:631ii8<6:389302283,7<<:57:6022up836<98690sus2899:5<6386::4982i1:::75,,56u&s5745w,6474::775wq>7<939964<34<4:989<:7554369<d",
"O56:6<6<38818693989<<::<696630<96<47777<475:4683996::4633339911009<:57<4::74:,7:77::6<7775>>>ww>5w5,>546<7::77:4:7>,55,575:448:O",
"X70<6<44<363864<<<<<<<94::69<7,:633<66:57318946<664683::<93947:466<6094,:<647>55::5755,w>7,5:549<<:577664776<<3<647>>ew,,<6643:X",
"X74w>,,>>,49<66<9996<44::<6<<7<3996347557639:75>,477::4<6<:<3<<639<<75<<6337>,7,w,5::98457:,77<896:5,,<638035w5:75>45w,577777<>o",
"o7299<<6<6<<98399396::775::75743644594:47394457469<>5:5<44464:<47::77:47775,,5757<<6:<<4<7:::7,4<67>4:7:<:5>:9<>wwww>4755::7,9:o",
"+3u457:<9993888836<4<8:555:4:7365<<2<54,9577,<,:945>><44<98080836934444:7<4:7:7::777,4i65757:9477777<9<4789559s7wqqw>5,4576<603a",
"$43,:<:68188396<913:30:44:4697:3:7>46>5,:,>e5,w5:44<44<9::4:<6<99<<:44:<757:::477:7:<3s37>4:7757:777744::<>q>,>,,>,>5,5230=s08eo",
"X73466446696<67::<457966:,4908<::5:5,,76<:,>w>:7>:7,<4<:::<<5,,7<64:577:4:5>5,5447,76446<<2s0<:<:::7447<5>4:5,47475wq>q,763676,#",
"X<266<9998<<9993<449<:4<4<668023::4<4669<<44<9<4490i*p13339933012183696696<<7:<49347446<49381039949<:4<964<4569<8<463063<::9<8:X",
"*t4>5:7,,>,55:,5,7:5,>,>>76<:467qqe;e;;>,,7755<<5,,,:7:44755,,:4:774<:5,,,75>,5>>qqw,,qw>546:54:45>5<:557577,5>q;><45,,775,,,7;.",
"fghhjkflzgxxgzjhzgggzgzhgzzjhjhgzzxgzggxggcghzgczzccgzjjlkvbnvfljkmnbvkffflzggxMNBMMMMMMgzgzlkhzhhhhjjlhzhlkljhgggzzzxxzzxgjjljv",
"0212sss1800010s00101s2ss08363888038083838202si20=3@g7i830uyoX.*==u203383820ss22su=O@O&..XV#piu2sii222s18308301082s2002202upy30i2",
",,,,55,>,,75>qqq,ww5:::7:47qq>>>55>qw,7:>q5:5,5w<r.Nt9,47,>q>:<<45>,>,:::42iipp%$O%O+$O&*%%i662081866337,:<45,>,57:>w,5745,,7,>5",
"466464447:::996<::77,>5<<6475,793637w5<6366830342>#x>uip12sppi1is8096:481108884::<8uyps1838900883999933<<<69693<<449396::7766444",
"7,,5,,,,>ww>5:5>qqw,5755:5>>,ww5w>>,5>:,w,:,7,,,3w&Mw8596:<4:<666<<:<<577766<<45,555:::::55:<<57547:<<45775,55,,7<<4<47>wqqw,577",
"696<<<::755466365,>,<380697,<:>>,<9<46:57430:75q<;.M;8:9<4<<4988030iu1<:<:999334:<9993996<:5:7::7<980116:44<<:775438947755:7:389",
"s866<96455<31s1<7,5::47,><865,>>>>ww>7496::77:<<3q*M;6::<6<<833038021206969663<475>,:62ss37<4:,557863<:8s<<4663<5w,434::6<4<46:<",
"10396936<:75,777>>57:64<3:7:6:>>,5>465>w72i2096407+C;6><<<8838832239989<<6<696<<:6686<631344<344449988476<<<<<<3698394:<86<<6968",
"3399<44:<364<444:<63<:43185w>7<::7<38<<<<82s1109s,%h9.i1<<6:43*i66746i657:60=9:6103sp47::<8i2864449<<:4<44::<93800y*294:48366908",
"981366663<75557336<<693645,7,4369<944<44454993062:oc514<699<432049<4744::46644<021801869<46012s09<44<86638366339036<383698033339",
"9836<47:664<4980039336<:7:5>>7:499344<<<9869<9941,%c:p31236:<3:4<44:::::::77<6911800330966666<9382u19898ss18880201122s29<4<<9999",
"820666:<938999681100086466<47:69999<4<6<9944669<15oC5s<9<6<664:::75,,7777>7:6998880833393963039931064688038002200802099<693866<6",
"0083896669839930188390363<<939<99693333693003006i:XCq37936<699<:608:4::::<4446010000020982si211393308123081p1su036338101s82s64<9",
"998396693809<00121108899964630086669310381239389p4#x>85<081880863943898889964<681110801081088006<8838213302038103<4632289<<93966",
"s211811180138082210933963990210069990001883381s027Og>092289<<33996<6<<996<:7<331122188339668930su3966988932380803021028366830888",
"022i2800020808001uu208988s21s210308831sius210883i4@j3p3839393222133<44::3399911281i03018338331111098<669133331110028012203946669",
"08suss2130si112iuis1888033632iss018802s1080s189:0:Xg4p0069888933383309:<3638<6910311009308886469309398388888881183801s1089999338",
"839964612s1s22u10139339399808820801112s2221y=u2487Xz4u881218330201081864:<::<9331011963963113<8109<6391i03316<696308iu0001280136",
"639003898830sis198i2021s1699<3888118300210sus209s4+h<i<3021189930s183<<6999<<993831399804303993si02p=i8883333320833801i101339839",
"98180is31s1i13ss10018033<7>7<80089800221331iui1325Xz<u30333003330108121939396699966<<8836:438019630081121893994:<333802s10021018",
"908806331022210893112181s8881069969338966<99939:07Xz8*68880838338969<<981036838121083333677:998931033933938998389888880203893839",
"812ui21003880su=09088838s2pi3<4<6:793386<9088088p:+C,1733iu0333338839647:<9368389<366<999369<46983833998122089399110833001210118",
"6<<4<663966<4<66<<744:<69<44:96<03<<7475608<74<:8>#Cq3,:7:7:74<457::445ww>77::75575,5,55::5>,>5,7:7757<66:7:<444:964:<6994444<46",
"0s101310811222iu2121108382s2ius1su13896690s=*213i6@g7i911038811830889696323336880ii363330830203833964<:66639960201199332i2180880",
"57>,577,>,74<477wq,74455>w5,,54445w>>>57,>,7:5,e:ZyAS7rwqw>,:555,>>>>557:::::,,5w;;w,>>q>77::7<47>eqw5>e5,7>qe;qw5:>>>w>55ww,>>,",
"%###%%%%#%%oO%.=.&&#%##&*=.&%#OOXOo%o#Oo#o##oo#=op kpo=%%..%%&%oo#%&#X@O%&#o#&&##oX&%%&..&.&%...%%&%*ys&#%%#&%%=**..#o%&%*&%#XOo",
"xcxcCMCCxgggxcCcMMDBNDDNNDMMMCxzcCNNMDDxgCDCzgMNBMBFMDMCCCCMCMDCxccxzczzxgCCMMDMMDCCccCcxxlhcxgCCccMNcbAFBBFNMNNNBDCCMDCccCMxzgc",
"5577,www>,7:::,5,qq;rewwerre,,,w;rtrq57,>,>55:7wweq57wqrrtr,5w,,>,55,>wqw>:65e;e;ee;q5wq55<6903467w5Z4xr7>44eeqq>,qq,55,q>44>,,>",
"82&p3603<300338i09663sp880020939698930122sus18031s288382py*i8003212u8214<62i1<664<6<31212s=ys082ii8i0pn018u%*&%&=s000889990i=i10",
",>:6<::6:<4,>,73:,ww7<4499::964<57469<<<186::7,:449:75<388345,,5<<994<:75:,ww757,>>,>w>775,w>,44<3626sm77>,,>wew77::7:4<:777:47>",
"8<664696::49<<:>,:7:57:44777:4:<:469693309<474696699994:4<::449930038899696694466644949644<67:<366626pl<399<:76<:<::4<31896:6461",
"s6034<s8,46i67:9630s<6:5,:<89:99<646<444:57::<:5775:633399999600893800644<9399<<69<<<4<<<4664<9380434im96:>555<94:<39<4439882080",
"809999667,474<:6977<<<<7:<6:4:9839<444:4:5555::4<<75:639<698888880012096<:5557:4:5:98<<9284:40is23:84ul6s:,:774:44<4:4<4<44<<930",
"<934690<5>54<474<<<4:77577:746<6666989<<:,>54<4446698234<69028019966386:<47744<9:4<66666<933236<63623=k<646<<443<:<<646699<4<:<3",
"33301083996<<664389<4<<44475::557<6009<7>>,7744464<66<4999<<31208966983<44:757777:46694<980ii6:549<s<pk<87::7489393893118931333<",
"99802098183336447:66<<96334447755::<64<<<<449:5557:4<7:4<882i20894<93998996<6::44<64384:49339338393s9ih423<446674601369688999<63",
"<98396<93998289<4<6<4:::<<339647:4333894:5793<94:9:<089812283396<933989828821039<4<983<4:7988386688i1pl9208686:4::4903690s03<<4<",
"7<69896638393803388s06<666<886<::7:74<47:7,,7777,,7:4499980966<49s13<639812ii183393880888339:4<:<:789yj,4ww555,,:646:<644<<964::",
"66330022s12s22ss20336699<6<447<999920<<74:69777763084:<<98336<75493122s100391s099383013666647:44636053c><,,5www>55444<<<<6<44<46",
"7993802ii188003020394:4<9<666696802i13<6:7697,4<3009<<693069<4,,7:<82u111206803936:4666:7:44<<4:7<32<shw,>5,w>>,577::<<<<44:4:::",
":4:44::631330096633094:54901036<69690883964577:<38336<63188474<4666<<3302i20133996<<969939<6994<<6494sz>5w,544675:557:446<<<66:7",
"4::4<466:382i8<:<6<47:62u2308<4:448066669380212si=isi03010099367::49<<812088808336666<<3096969<:4<48:0g5<<64667>>54:83082u23<4:<",
"96<66<461640<<47:44666<s#&y<6<<::<63036455,,7<693339945:681s1345::544<<49836364<<::444<4:69699<99<:<,0g73945::4<393996638206644<",
":<30<6s640380339093<::4<<81<44:4:,54888:7<::7:577:6<6<6s899779374663<5<39<<<6<<::<44934<002is3669<4370x54,5,e586<9633322s4:75607",
",4i8,:81666<996699<<644930999386<33639<<<748820969091s<:7449999<<46<<<46<986369<93779:5<1898930<<<76:2h<23947:44498003633019<<w>",
"91p944<312888089666338339689<6<669<<9864<:7,4:::367:546<<96644<66<449366<6647777:<<3944<68343113037672z4s9::,,7466455,5:98865574",
"s3<9<886:464443<3i8098836303699<46<::<964:7:4646339<46803644:910474::6<9930889<74<<666630990933:934651z>45:4:46380009:5:93<:<961",
"<<638969933<4<6<4<6<999983638963636<4<9933447,4<4<3<647<933<6<99<<44694:<1099<<4:<800213<663<755>5,<50g5664:5574<66<:<8ip1864698",
"y34444916<7557457:5:7<3218011366<55::777:7:77575:4<5w>:7>><3:::w,746755887,:7>>,<y14555,>>>>5>wwqe;7w9zq,>,>>>>,775,,,:<>,774682",
".y1888is9301999u0692yup2832ipO&11236:<383996<6396<903649868093828388931sssss18033018302u21s209601949:2f30666<6993339303393108i*%",
"w55,5wwe>66777,06q5:6w>5:477:454:we;,5,,,>>>7<:>>>5<7q;qweq7,qqwweqq;;w;w5::>qe;re;eqewqq539>w,,>erqt5Cq4,w;e;r;eqww575>qw,5qr;q",
"zzcCCMMMczggxxgcccCcDxggzCCMcczzDDxjlzccccCgzxNDMCccNBNNBBNMDMMMCMxxCCMgzxcDMMDDDNDCCCCcCCzgMCCMNDDMMCbFNBNNDDNDDMMxcDNNMcCCcggx",
"*##oo%&%%&.%%######OXo##*G+.%###OOo#%&&#%**.%&*&*o%&*==.#&%#X###%&.*&oo%&...y=.%o#%.*uyy=*..=**%ooo#.pioo&*=*....&.&&.=y==.%XO%*",
";q>>,ww>77>5755,wq569369,z0w,reqrrw55,>q>qw<:ww;75qw>we;qw74::47>,>q>5,>75,,w;w,qrrw,wrr;q>weew>>rZ;q>>>w5<5ww,:5,7>er;e;qqq>wqq",
"083469881sui99008200i231<ji547<8oXy26574388084<9s.289<4019831s88991999660i889<988289339694:49<<<::7:44<126490*p<64638ip9:66989<3",
"5q>:,e,:5:,2s>5,5:u.6,>:qc<;,e>6.=5qrtt314:wew,558y5,q55>57:9974,34,4:5>,9<7>q>54::447,,777,,>eew;w>w,54:>>,:55:7774:7,:4>q>>57:",
"<620::45>70u24<612134<57wC9q,eeqw386<77er54334::<:p077w68028989693s<<34777696574::4:5,755<:<97:64<4,4:775:6:5,9187>>w;w,;5:::<64",
"306,5,q,46367606<975740*yHouu4<94,w575w<s,5ww75q>54693569<667,::7::4<<<6135>,347464775<4:7,746638082:q,5<14:,537>5>qeq;9y67,>563",
"5865w5up94,5sy197:39<i%Xybop.ui0,>,,,,w49w,6<<,>5>,>:::<7::4669s19<6668<6644:8977:466<839993<496::496<69<89::>>37:675,w9p075589,",
"<6:7<si3:4::62369<6<6346,c9w4757::447,:5w,7:7>wwwq55>,>5499886<<36:45544903083996638993839966<481033i2009:5:7<5>,7>q:<77>u9,7:6<",
"66<:,7::<9909<<6<699080i6ju4946<755,7,,w>>,<6955,>5,5:81<<:77576499981836<6<491886<6938839206<666::<9469<65,>>,7>,>>:97775746944",
"<:<<4469<<1164547>w>57:37z2:3694:7:44:57>,74:5::55:57:9:7:4445,,46<903982i203699444<6<308009:44::4444466<<9<<46355wq46697:4:,7::",
"10865577494969308228812pib&30<,,549:464<36:,:4:757<9<:7:9944:32022:<7:46884:493<5,,:4469994:6:4989<::4::4::45574::84wq,:,7509q5:",
"8s13,,777<93802usuypuy=.ib=59667,>4:,w,894757493<4::7:68133<7:930<4693<<6699699445:6<<<:93<<9<80s677474<998347:444<:54:74<<3<7:<",
"6<<6<4:7:66<<694<7,w>57<qc6w7:<547>54:76:::7756009:749<44663<<691938933963388964<44743945:4<369::<9333<<4<93664577,<96999<677663",
"38803<475>5<<6988968099s3h8r>,7:75:557:577<4:44:438<4:664:,7481<<0u3<<66699966834<4<<6476993394434499097>7<94:45:::756<4<4<944<6",
"318664<6699<<63029:47646:ky:<w:4<67:75744<7::5::688669<96<<54766,7<3:4<308993896<44444::99:<98396020363s18834:7:7::397:744:7:<96",
":<6:57:::77,57<4662#i5>>rM<w217,55s8,::7<91<,546:467<649<1849<:89532<39693663339<<<99<48:e,w2:,78=0988&*is1184<69992033:5444<::7",
"::<:,>,7:7,74<99<<9p27>7qC372<>5,<u7,;5qeq12:946<43,5>8936314<:45324<:7:4<6664::7::9396607>,8i0991<<<91854762<4,9:q4064>e9<:7337",
"64:::<<6966<99<<<64<::<1sGs54w54767:420,:777:,64>><:540s1<23,<4:4396<::7:499664<3366996446<6<6<9<:66947<6444<4:75<sy05w557:774<3",
"6444:68384<44669<<<64<634j1797,>we,5:0863::755795763<775,59474:4944:483<::447:4777744::<:::5<<:7555463<77:<<6<47,7644,,47::4<<99",
"80339964:7:<90067:4<4:,5;C3>4,75,5w>7:::7996<6939644:7<939644<<47<31219::<66<44:4777448096647:7:7:6<<4:6<475:903:77486<4:4336396",
"0096<<:<986<9<9939993831<h3w45<4756382289346366<4446<44<96<7,7<<<<91i0<44<::4<93333444:6964:::::4:<030196<6<4:4<98201039001190u2",
"sypppyps19<444469<<48y13>C4;w:s<:7574<3456s28360109<996394:5>w,554:46<69663947554<45:7:3i8:4<<74<13:7::7:45570ui2889386<<<<<<003",
"8083983933<63201001s86<8:l1q556910264600132pipi2u1802i=14464:7,<6<<<454810s22s969<6638013633383380166399399332upi8810109880s2288",
"5755777755477::<63330974>z0q>q74<::754994:74999<77,>55::::5,>,::47>qw>w7,ww>:4:46<66<<:7745,ww44:44:5467>:<4<<<:4<7:6696864804:5",
"2212sss212i21suuiuiupps23kp8i812212usiisiiupppuy&*yus0802212s89938960018812u10s1siyu2is120012usuyui21suss012iuiii12spuuuy&ys201s",
"jzzhlkkfkljhzllkkklhhzgzghlkkkkjlhjlfmfklhzhjjllffllzzzzjjklljjhjjglfjjjkljCmfjklkkllllljllljljzggzzgzhzgzzzgxhjjjlljlkmmllkmljl",
"<<639<4<:444<446318<4755:7<64<345774<4:6346<6<636469<:44<::7::4:496984757><tD.ws818839<4<4:4:7<<777:<47:4:<57::::60883028<<46<44",
"1s112220021013322iyp0893333012p23<<66001081s220332=%#.ps0<<<638881200345:<s,C#7p1*p22s139901118899339<<310838101su2uisppi8869088",
"01863113930833338s1086<64:<46120896<693s296999<:493<61188386:43393<7:,weww8eN%>2<322is0093su1<99336698<<44<6:93980s2002223383<69",
"22189669891011222u28<::680088393696663808303<9<69811s203308933380663<4<::q:tD%>8:382222888086490993639<99989<66998012001iss10812",
"120889838361s8<<6398886<<9933399993980383339960011982012y=u2698222102880392>c%>1430028894<8893183669693693810189381upiisuuu20881",
"302889969866381is64:4<<993939812008010<60iu9<<99902101suisiu0030303<00363487xO4i90183006<::<3896886663631010018333011111s20s1038",
"003936:5:3809601838908120008210s1366<980396<<667592001183311110312896<6630u7x#7i99338ii06<45938339:77493931196839938330800110003",
"6321106<639694464:698822330s03832838649881i839003993i2333ii20080803323:7<3y4cX:157<44<6<4475554394777:699<9088011ss0390830088898",
"064<463<:<96<91110<:776<8222221030838si118680822388891s1811182s21836<9<47,8qM.w0:<6<666<::7555,,5577,4<4639933880033338866669968",
"0sy06<69902i139<808112183393ii8939<6889932011080103:<90s8668113968033966<<8eM&>054<4:::7755:<45,,55,>,5:43038893<303300184<89690",
"91s8:4<4:<<999086<990s111i0998110899669<<<88821800849382s191196809<6<966651>C#50,75:<4<6<:::<<88:,>55:,w,5::6<<63<4<699696:43833",
"<<::439903996836969966933098su280086983393120833309<<9999<774<<8801s=s2364s5C%q6>57,:::7533<<444:757:4<:<9664434<45>:<<3<::7:7:4",
"<3111<<609<<38<9631s133308318989389774<39668s238989<<<63<<6664<8336u#03<753qD.>8,7910uii*i36396<4:46<:>7<90s2369445>54:<83644944",
"<690y347543<5683380968380396468944::43111136999013999<6:5:9438u01p8:4<4<<w9eN*5s75746sy*=236<<44:4<744<4<<9810u86:,,5536,::492&2",
"38isi044691<46<647<6933698000<<<4746339838020969833<:5937796836<438214::9425Do717:395,7:<6986694<66<998s=s83:7>,:<<:5:<39:7:6328",
"3<36<4446<4<6666909<<698833039194:73sss03338389696664:4636<6669<<<6<<934:,3eMo>35,:6:46<666:75769666<9394:4<<66<477:7:77<66664:<",
"96<998364<49036:46::93393666<469<668229667::749366:7774469446:0468u=80<<<424z+4s:<44:744<93993336966693949366<96<47444:<69668839",
"898330<<469639:757498113964::49896:4:<333996<44:5,,746<<4<6339<<spuu0369<q4;N%e379947:<4:::7,7663833386<463<<44:5549666330002003",
"883009645,:::::44:46<4468366<3iu8964<49<469644664:,549<46966938180080381s32wD=q3wwqqq,5575542yp8<::46990196083369<49<93999693999",
"10398338346993645,:<<<963836<6630088123:5w,<<44::<96<<6303<<980108801s169:0>C#7s,<::4447557<s.2:w>55:9py8<:<644621<5,:4<<4:49801",
"33120894:<644698036998882s86<449::6396<449844<4<<<<666<633339912033833<64><rNut:>49838<4<<777579s9:<48=838699364<619644:<7,:<939",
":<66<<44664<<69<:777699<4:,,547:79<6394<647647775w63<4,,:444<44<:7<839<63<s;F=q9,477:66:7<381894:<<7743234,576<7579<<:5,57577,:<",
"9312s2381ius186<93839<<<39833206i246813sps60393<4:93696669396<<:47:4<88964i3k&>343i8<96629<23=&36<312s&u4::::964:746334:49193<46",
"5,>577774386445,75>>5:55:64:7>:,w>55547,,:5>w>>>55,,,5,>>>75,,,577:47,,77,8,x.r:>49<qq>,99,,ew,>7:,5:496>eqer;rre>,5,74755,wqee>",
"&#ooOXo#ooO+XXO#&#oO@OOO+@OoOoO#+@@@XOX@XOoO####%#O+o%####%##o&%%oX++@+OXOd%kD%X##O+@@XX#&XX#&oX+O%#&.y.&&..=y==...&#o++XX#%o#%%"
};
