/* XPM */
static char *planks_oak[] = {
/* columns rows colors chars-per-pixel */
"128 128 68 1 ",
"  c #5E4E34",
". c #604F35",
"X c #695537",
"o c #675539",
"O c #69573A",
"+ c #6D5A3D",
"@ c #725D3D",
"# c #76603F",
"$ c #78613F",
"% c #735F40",
"& c #766142",
"* c #7B6543",
"= c #7F6846",
"- c #7C6749",
"; c #7E6949",
": c #806742",
"> c #816A46",
", c #846D49",
"< c #886F4A",
"1 c #8A724C",
"2 c #92764D",
"3 c #96794E",
"4 c #987B4F",
"5 c #957A52",
"6 c #9A7E54",
"7 c #9D8156",
"8 c #9E8259",
"9 c #A28456",
"0 c #A88757",
"q c #AA8957",
"w c #A2855A",
"e c #A6885C",
"r c #AC8D5D",
"t c #B08F5C",
"y c #B3915E",
"u c #B9955E",
"i c #BE985F",
"p c #A78C62",
"a c #AD8E61",
"s c #AF9062",
"d c #B59463",
"f c #B99764",
"g c #B79867",
"h c #BC9966",
"j c #B69768",
"k c #B79869",
"l c #BD9C6A",
"z c #BF9F70",
"x c #C19D66",
"c c #C19E6A",
"v c #C09F70",
"b c #C7A167",
"n c #CAA266",
"m c #C4A16D",
"M c #C9A56D",
"N c #CEA86F",
"B c #D0A76A",
"V c #D1A96E",
"C c #C5A371",
"Z c #C9A671",
"A c #CDA973",
"S c #CDAC79",
"D c #D2AC73",
"F c #D1AE79",
"G c #D6B077",
"H c #D9B175",
"J c #D5B17A",
"K c #DBB479",
/* pixels */
"1e6953557777777988e88e878878eee88878w87668we756w0ew6667786552688w88777788678ee886p666666888886888668688886977868w8w877788888e8e1",
"wAlmccbccclcmMMmMmMMZZMZMMmmbllcMAAZZCllCCmMmkcmCmmmmCCZMmmmzCCCCCZCCCCCCzzmllzlcvvlvvlcvCCvmCCZSCCCCCCCCmCCCcClcmlmmlkllcCmmlZ8",
"6ZkkddklzlglcyrerytttyddyyfucclclkkklkllkkdsdjjddddddsddkkdhllkhlllllzldjjjdjdgkjdjlkjgdggkzllvlzzkjkkglklklllllddzZZZmsdkmmmrd5",
"8ClCsjlmZZMMmhfffffffllccmmlccmmmMMMCmCMZCmmmmmmmzlkklklllkmmmZZmMmZMzmmllllllclcclcCvvvCvClvlcCCCzCcmllzccmmCldlmchlmmMZmMmNhm7",
"6ldkllhcxhuffllhllglglfllhhlclcmclmmcmcmmmmhcxbMbMmclhkmmlclchfhmmlmMmmhMmhfsfflcdjklglxccclclclzcmccCkllllkgkdlzddmMmlMZbhMmkZ7",
"6MdbhrhhhlmmhlhmcmMclbchccCZcllccmAFFJFMmmclfnDVNxyumMZmmlCZmhxhdhCAClZMccfhmlxhlxcxkgghvllxcvlllclcclllllllllCZhkmNZdfbDMhlZzl5",
"5hubflmdffMfucxbNcyyyflCZANmlcccmmmhxhhcbbMMZMNbcxmccchhgylMmlcxfhcdsmZMhllfhhhfufffffdhkdhhgfllkkklhkllchhlclhhllmcmddhlMMlcdl2",
"6xyhtydhhhlclflhmxxxflhhhxxcbbcxbhlccmmCZMmmmchclbxmlhmlmmmfyyfxbmhdklddduyyuyudyifdffyiddddhfdtyfffhhlkdhhdfdhhhhhhfffhhfhflfM7",
"6nuiytyuuihfllfhflmcmmccbccmcccCmmllcllmlcllcllmcllllhhhfdqytyfffyyuttuuuyuuuuufhhhhixdffhxxxxlffhffhfflchhhxhhfdhhmNmclhfduyru3",
"7xtiuuixutq0yfhmclssfggllllzclclhhdlllzlllclllkdlcMMmCkffhfdfhfxltttucMuqqetyyyttttuihxffffdhxdffffhxhyqrdbbchfdfhxcmMNnxfyyt9y3",
"4xuiffffffuyufhmcudfgglcllcclclfdddlClzlljkddwedddkllmCllbhdhhxchuuhlhhhdudyyttytudtyyiiduytyttrtyhMMxdfhhhhhhhlmfhfduutr0rryym6",
"6mfhhhhhffhhhlhhgglclcllllllllccbccclclcCCmCldhllbbmccbmmhxcllhflclggyydfyyyyttydtttdhddddffydflccbhhhcccllcmmmccmmmhhflmbbMmfh4",
"3hyfffxxfhfhhihhchhhhxxhcchhllcxllhchclcllhhhxclklcMMMMnNbbbmchxhflclcgggfffgffdhhhffjjjhjfghfhghdfhhcmccmmhlcccmhlhhMMmMhhhfyh5",
"4xuuuuuxfhhifhhhccbxccchxhhxcbmMbxcxbccxlhchlllcmbcbbhcccklhlllhchcccmcllllhlfflfddfgfllhxxlxxxxhchhffhhlllmmcmmlMmhmmlmhlbhbfx7",
"6btudyuhiihhhxbbxbbcbxbxxxhhxhicxhxhfchfhxxxxxxxxxmxlblfhhfxxhhchllczCZmccclllfhhlcccstgclfcMhdxchflfhcffhdddlcdhhclhghlmhffnyx7",
"0iqtttuxxhxhhifhuhihcbcxuibhixmnbihxxddffuhfxxuxxbxhhhchdrxMcxytbbbhdmSCmzllfgddglflxlggccxxcMcMxdmmdmMdcffhmkdhylhdMyruuuumbtx7",
"4iyuuuuuiiihxxxxxhxxxxxxbxBBbxBnNBbxncffxxicdhcfxxxhMcxcdllfxccMmmmmzclgdddddfddfkllllxjjlcccccvbMmbxhfhhhlmMlllfhhlhxhiuufhbfx4",
"4iyuyyyuyuyuufihhhiiixxxbnxxxxxbxbxxxxxxchhhhxxxxixxxxlflxxccccvcczcclllllclccmlllfllllxjtdcvtcjslffbhdxxhfyfhhhhghffhhhhfuuuyn7",
"7byxuiuuuuiffuffuufhhhihiuxxxxbbxxcbxbmcxcxxxcxcxcccclccccclcZcZCCMMCmCzClkkclcvZZltradlvdjZckvjldgdhhddhxbcddfhhhhhbhlfhffiuyx4",
"4xixixhhhxhxxxbxxhhifyuhxblhlhxhhchlbclcclhlcmmCmMlllcccvccmZvcvcCzCmzlllcldadsddglZZdasvjsjvlcckmCMdghclfhchhhhlhxbhhhbhbhhxux4",
"7nxncbxxhhihxxxfuyyufdlffadgfldaddkmhkllflcvkdlccdlcllllccllklkkgllglzlgkddhkkllgpplClkddjlapjzZlsjlllkkfffdddddhffhmhfydhhhhuu2",
"9NcZbbccxhxxmbbhteefgmcfyccfyadclcckmCCccCljllchcAMxlclcvcvclcclllzzzCllkdjklkjdsajzZFCdcZvapsjvSCzkdjmCZmldhbxhrdhhmMlthhbmbff7",
"9MhxhxhfhhxcbcxccufhhulldllcldgZZmlkCCmmlczklZZlcZZAmZClvcllllllzllzgzzzlzmlkdsjcZACjddcvjpasjvSSACllCbmhdfhfhyfxcllhhgcmhhmmgM7",
"wbyfyfufyflxhhkhglfcblfgggpygldylkllhlckkdllkgkmcddfCcffdjjlllllggggkddyasddjllmvgapdlCla6asjvvSkpslmarrtyur0qycd0dyyhclgdllbcAw",
"wAlnmmmmmCAZZANAMzddbZMbccZcclcMCmkCSAmlSACCCCCklADxlCcccxcvcvccmmZzkkddlmmMMmklkzCSFZjsjkzvZSSFzjkvCmlhbxyyhxAZdbDmcMFMhfdhMbHr",
"O#&&&&&&%@@++++++@&&&&&%&@&&&++%&&&**#&%%&&*%&*&%&=%%@:&%%%%*:&**&-&+%+@****@O@*>,--%%%o%%%%%%%%%%O%%&&@++@@@@***@@*&&@%##@@+X+o",
"drrrasssdaadddaddddddsdkgdgkkggjddsssdjjdssssadksl2%cdfdffjjjdssssgssssrrsdklkddsajjjjjsasppaepweaerrasasaasdsdddrarydddrrqrdttd",
"lhhklmcchlhlclllllllllhlllcmzmmzllzCZZJACCmMmCmZlFe,FlCcvZvZZZZvCMzmmmzmcklmZCCmvvcgckkckkklklxllklhdhdhddklllllllcccclclllhddhh",
"kdhdhghklhhlhkhdgggggghhlhhhlclgdhzbcccgkhhklllckZ6*AjclllkklkkglllglglkkkgddkldjfdjgjjddsraasdaddkCCCsww8eaklkllkckkkdklkkkkkdk",
"mlmmmmmbmmmMMmCmlbmmbhzmmmclcMmmmmlccccxclbNmbbmhA8=AlZchhxglccxczzlllmhllhlCmmcgklklkkkkjllccljaaakCCkkkzCCCllzvCzlzlccllllhhhl",
"dddfdydddfhhlchhhhhdhlhhggffgldflhdhhdfdhhhhhxlchZ9;Afmlclgfllhxlgdgfydddddhdkldlvckkjjddyytsddddkmlkddlkzlkkzjllzllllhkhhhghkhd",
"lhhhfclhxxxhxhdhhhxhhhhffffhhxhhhhhhhdfckkdklkhcfC6=MdchfxccccvccmmlhlhhdyydfddhlyfjjdytydjddfjdggkkllljlllllklCllllzlmlkjlllhll",
"hhhhcxyyfuhxbcxcxcxxchhyyttyyyhxxhuhbxfbclhcchhclM6>AtflxhddxxlcmcmmccghxhxyyrtdstdffhhxbNx90edhlmZksclkZgdcddCCkCljkmvtaatglcdd",
"hfffffffffhhhhhhuffyffffhfudffhfxhhhhhchhxlxccccdZ9=Admxhfhhlllcmllmlkddffyddddsdddddxxxdyfldttdfllgllkglgdfgffxllllkflllgddlcll",
"hlhfdlffhffuffhxxxxhxxhhfhhfhlllhhhhhccbcccxxxxcfM9=Zhchllmcclcghhhdydyddufhgdhhgddghxchddddffdttdjllkcclcckclllflflkllclklgggdf",
"clcclclkhlhlhhhhkfdfdfhxlhcccxhhhhdydflxcccxxccmdM9=MdMlxxlclcxhhkdhhhhhllllllllglhdfggkhfjttrdtsllffllxxllxcccclglffjfkglllllgl",
"kkkkfgdkkddddhhlllmAZccCMcmmMmmmcchhfkllllhxcchcfM9;Ndcxcccllllclmmlcclllllzlmllcccllgllgdtdddddfffjlxlllhlflllllhxlccllcllllllf",
"lclllllzlkjjllmMZZMmccclllkkflllllkllkkccccmmmcMfAw>DlmlCcccxhcCmlllllhhhhhhhgkllglglflfhhfddttdljclkljxhlllhllllxclcCcccllclgkl",
"CCCCzzlllzlmlkklllkllllcchlhlccclcccclclllkccccClAe>DlZllcMfflllklllllkhhkhkhhhdfjglffhfhfghfffflclcckclffddhcxcccvclcllvcvcccvc",
"mlkkfkllllhlclllllcllkvllllmccmccclhchhhxhchcxcbfZ8;AdclcxfgllclmmmmmmmmlllhllhlcccxllllllhgflflvlcklxcxxxxxhlgllllcllccccccvcZv",
"chhhllhlklcllcclxccxccxlhxccxhccbmccclcmbMbmcclCzC6;AdmclllmcmmmAmllllllclclvclccvxvmCccccllllllllfllxxcccccxccccmlmmmccccbmmmml",
"mmmhxhhcllhllllclhlhhllxcccccccccmbmcmmlkllllllxsCw-vjcdlccCClcxfhbbmmCcllllcchhhlxxlflclcllhhxlxcxhhxljflllhlxllllcllllllllllzm",
"hllllllkkklfhllhlhhlxclxhfddfkhcClllclllllchxbxlsS8%AdfClzZCdcVffmFmxAkhcbNmdrrfxcxdxcMcchhhxhhlhxhhMcxxxxxllxxchhhhhhhxlhxhhhdh",
"lhdhfgkhfhlmlhkhlgfxfdfcxxxxhxddddddddtddfccAk0ljFp;ZallkglllcmfhbMMclCcbVDVdrdhvdhMDAlxccZmkhcbcvcxccihfhhlxccvMbcxbhxlchhxhxch",
"bmblhhtdhdyrfmhmhggggffdfxhchccxkccfhlxbMbNADcdfrv8,SdlfhllhlglllcllclcclccxhfudihhhxccccccCclhccMMADVDBcxxxxxxccmbmxbbmmbcmbccx",
"lmmmlhh0hdytlAbcdfAlkjdMcdhbclhrlNlcckhfffhlxccZkZ6-CdClllcccvlCmlzlcmlbchclclclffydtfhxhxxlccclhlhhxcvMbxxxxxxffbbhhuMMmbxhmAMh",
"chdhhdfufthlhdddfclhkdtfdfccxhhdcchdtrtdddgfgdfxfZw>CjcdkggklljllClCzllkllllhlhclhchhdudffdfffhhxldfddyudddfhhxxhgfxlcbccxmmMMmM",
"bmbmmbxhhxlfdhcmcxhffxxhccccchxhhfdfxcccccmcxccZfm8*AlZZCcccclccllcllcmmCmCZmZmCMcMcccbccccccmmcxcccxccxxxxxxxxcxbMMbMmmMbMMbmbb",
"ddyfhddydttttrytdytudftydtur09rtyfddyyddddyydddddh6*bdgrdadddddgddasssssddddjkgkljdjjdkkdddddddddddjddgdhkfddfddddhhkdfhdhhffhdd",
"bbNxxxxxxhhxfhxhxhiixxxxxxxxxcxxcxccmmmxcbxcmnbDbD9,GlAbcccmccccmmmmmmlzmlcczclmccvmlCmCCmCCmClCmzCCZZmCmbAmZMllmNGJKKMMbmmmbbMb",
"rr632347990qqqq94443245644666995690009776777678e6e<O037768699986887677777778778w88888888887768weew6668s8878w9ww968eesr7e667580r0",
">>*:::$*==&***:=:@@@@$$$:@@@@@@@*$&&**==>***<,**=*&=&***%==%%@%&#*&**&**--*=-===>;;>;>,;>>;;>;>==-**,& ,&--&*;*;**&&&*==***&&&==",
"cmMbbbcchcccclhhxhutqibxxlhhxxcxxfuudMAZmANxcDDDMbDMcdbJClZAbcdcMcmbMmmbbMMmmmMCZZZAAAZZZCmMZmCcmcMmAh*DMAZMZZmcMmMmmbcmmZMmmcxc",
"dkddddfyddytydddyttttttqrtttthtrr0rtddhddffdydbldfhdydzkdddkrr9rdddddsddddddddddddddddgklddjdddddgkdka+kdkkkdddaskdddddddddudddd",
"MMmmMmMmccmclhllhhffffhffhflxxxcMmmclmbmMbbmNAccmmcmCmlkhfdddhzCmmmmzzmzCCmCCCMmmlccclcclmccCccclCCmCd&ZlmmlccccmCmlklllccmmmbbm",
"ldjddddddddffkllkfdddddtdtyffdjgggghhhhgflkfflllkdlhklhkddklzcllklhkhhghkhhllllllllllklllklkklkgkhlkld%lhkhfhkllkhkkkhhhkhhlllck",
"mllllllhddjdddddddddhhfffdgccckkhkkhjlllllllclljhldkllccmclglfklllklllzlkkklkllklklllkgkkkkkkllkhkkdza%cgllgflkhlkkkkkfjlhklllll",
"lCzzlCCzClzlvckllljgjjytsyyggxclzmzmCCzCCClzlckCCCvllklllgglllcczllzzlzllmzlzllCcclclCzlCclcllllzlzlCk&ClcclvcCcmmclcllzllkllllz",
"ClhdfddjdkkkkkkjgjllggjjdtdfglllllllzCCCzCzkkkklckkCvCllllcgkklllllkjkjkkkllllkkkkkkjlkljjkkllzllllkzs%zgvvlllvvlllllllllclcmcml",
"mmllllkllfhkgfkjjddddfsdddfjdfllmCzmzzCCCZCCCCmlllmlcczlllllzlllzClczCCClllllllmllmllllllkkjkklkklljla+mgllllllcllkjlllkkllllklC",
"lzmlllzklkllllzzzlllklllkkjgjkllllCCClmlzzCcCCCCClklllklglllclcZCCCCcClcvlcxlllllcclllmccccCcCmCmmClCd&ljvCcvcclllklkklllcllhhlk",
"ClmlkkldlklkkkllgjjgkkkgjjdyjffllllllzlCCllcllllllljgclCCvccmmmCZmmlclllclllllckfhlhkddhdkjdkkkdklllCj&ClzlglllzlllllllllllCzlmC",
"gdddhhgdhddddddddjdjgdddjgjjfdjllljkkklllkkclllllklckkldddtdddddhfhffdfdathhfycklmfkhccccclkkhjlkdjsgw%kdkkllcllklljlklkllgdhkll",
"lklllzmCClzzzzlCvllklvvvldfjcvvvkkkkkllcllkfdarsdkjdfjdffdkccxlcclkdtrrflMANAchhdyrq0rlCAAACldsdCAClls%kdllkdddjjllkllllljhlklhk",
"mmllmmmllkkjlzkllkkzCkkddhmMZCkaaddjlmCZAZlddradhkllhddhlllcccccclfhkhlhhxfldlfhlffyflcZvcvlgklvCCvzzs%zdjjasjlCADVMcclkhgllllCZ",
"kdhddddgdkklzlClzCCSjaklmmCCCmkdkddddffkhdhkhllkhhhhhhfffhhfhflxhxhhhdhlkllllfllvklxccxlllglklkzjjjdka%zklhhlllcclddkgjkkgkglcll",
"sarakzzzCCZSSSFSCCCladddkhllllmCcclcllllkklkklklllllllmlcccCmmcvzllclzllclggddllkkkkjjggkkgkgkklkkzlzs%ljlzkkjkkkkkkkkdkglglllda",
"hddadssdllCCCCCCCCCCczlczmlmczllllzllvllllllllzlllllkhkllllllkvzlzllkljjkkkljjjjjkkgjljlcckxlvlcllckCd%zllklkllllklkklllclllgllg",
"kklldkhdsdddsggklllzlCzlllzklkllzzllllllllkklzllllkllkkkllllllzlllllllzllljgkkkkgkjdkkkcczllllzcclClCs%CmclllllklCllclllhllllglg",
"lllcCmmllkgddsdsddddklkkklkkkllllllllzzzCCmCllzllzlmzzmmCllCcclclClzlzlzzlzzllklkvzzvvlvlzzcCCCCCzCzCj&CkmzllllllkhkllClllllcllc",
"lmlllkklmllklllllllzccclllllklllllzlzllcCzCCzzlzllzlzlllzllllzlzllllClzzllllkgkkglkvvcvvvCvvvCcCvlclCd&CcmmllkllllmzmmlCcvcvvvck",
"clllllllllkdddydddhgdkkkkkkljkzljjllkkljkllkklklkzkllklkklzllkllklkzlklllkgggjjkgkgkklklvlcclvlllmmcCd%mhcmcccllmlllzlmlllccllll",
"llhlhhhklllllhhgdkdddddsddjdajkkljjffdkkkllkkkklkkgklzlCClllllzllllkkglgjkjjfgggggjklgjkkzzlzlvvClClCd&CkzlzvvlvlzzCvzccllghfglc",
"ccbccmmlcmmxmlclcllhlllcmmCcccmCCCCCCmmZmmczmbclCzzllmCmlcgkggllllkjgfdddjfffffddjglllkclllllclcCCCvZd&ZCCCCMcCCCCmcmccllccccCCc",
"hhfhhhdfdddtrrtyddydfhhmmckddkkjjdddddddddsfghddkgddgdsdddjdjjddssttytqrrrtrrataddddsssjddggjdfjdjldfr+lyfaqddfhddddcxxxfddyyhhh",
"HGDHDDVVVNMNDDDDDHGHKKKNchd0060ddkllvCZZAZAFFDFHGGGZMmmMcCcmccccvvcxllxxhhcxlxxxxxccvMccclcmcmcMMMAZAl&DmAMCMmMcbmbNNDFHGHHHHHHG",
">>=><>>>>>,=::>*:**>,<<<11,>>&&&&%&&&&-*-;,;,,<<<<-&&&**%%%@@@@@%%:%@@@@@@%*%&*@&***&*=*=;=*=&&*=>=%&%.>=*===:=>>>>:==:>:>>>>::>",
"w0909099ww900996779777770o5w8erepeeeew8855778888888e887799eeeew0w65522222652266986699966669999pewww090r979799990www000r0r000qr0e",
"NDNBNNNVVNNADDHDNNHDMMNnD&hNmZmCZcmcCCZmmzzzCCMmCMmmxmMZNMmcZDDZcccxdcxxxxlcZCZccCAccccZAZCcMZMMmNMbAMMBMNNnMMANDDNNNNNAMNMVAMMA",
"ffmfdxdhbfydutyhcchlcfdrf@dcdhhddgglkdddddddddddksaarrdddrdlmgpqdu06dd9drtadljtsjcs0wwtfxyrtratdfhchdduyyfuhxhfuuyyxxxfxlddtdxxh",
"MMNMmcbNnclDbcdnFFNNMhblM&dMlmllcvZcCCvCCmCCcCCZCkklddcMdyklADcdfftdccjflxlflcmmllcccllhlllxclxcbcmbbmZbbbmNVNbxhucDNMbxADbhnNNn",
"bmmcbbcccbbxxbMAcMchffclM@tcdchccklcllkllglklzzlzzckjjkhhlhhdlmCjyytrtddddddfffhflhlllhlcllflllcclkcllxhcxxxxhlhxxxhhfhcbhxxhllc",
"hbbccxhcMmxcmmlhcbfhfmAcD&fmdllccxvclcClzCvlllllllllllkddhccCdjlvvklgdtaatatdtdyffdfddffdflffflgllllllccmcxlllllfhxcmmbcccbhccbm",
"cmMmmbNMmMMmmmMMcchhhxccA*gClCccCvCvmvCClllllzllzlllkkklkcdcmCla0tjkvZccccxxlhlcxlhfflfdfffjfllfflhkhllkkllhlbbcmccclllhchlmmbcc",
"mbMMnNDNnNmbccmmcchcccchM%dMlclxlxcmmmbllkfhclllhlhclmchlblchdfdjddlxcxllxlhhxldtrrdfddkcclfdgZcjkkklllllcmlllllkllchhlchlhhhmbb",
"MMNNANMMMhlcbmcmchccxlchZ&dcccccccccmmmcmcmccclmCCCmclmmCmmlmlllccllkxlffxlcxddase9rkCCmcvgfllcccmlcmllzllllllmmmmkkkclmmmmlhhcm",
"mmhcbmmmmMmmmmmlccchccclZ&lMlMmcCmcMmmcmmmlclcACMCMMCmmmmmcbcllllkklgfjjgglxcmMMZckdhlhcccfjggfgkllllllllklllzzmmzzClmczmmkhlllZ",
"hlhhllbMMmhbmmxxhccmmcmcm%dclclclclxcmclxccxcxccllhkhhhlmccccmcbvchhlllhfgjdgfhlmccbmckffkffydljllcCzCClzzlllzlzlzlmckllllcmcmmm",
"MmhmMNNnblmmlhmlcccclcchm@yckcccxccbccbbxlcxxxccxbmchfdydffhhhllcvvlllcMmcxlxxlllclgllxdgvvcclfjkkczlczvllcClzlllccccchhlchbmmmm",
"mbMmmZMmmlblfhlccllhxcchb@dchxlxhlhhcxccbxxhxlxhhhhxxhbcxffhlffddtdccllffhytyufhhhhlllctfchxhxxlhhcbcmmcmmmlmlcllcmxcxhdhhhllmmc",
"cbbhchMMbbllllhMbNNbccbxA%yMxMnbMxcxxxhfhhhfffhhhuyfxhiyycxhfhcyxx09xxftrxxyxxytxhdhxxxxhhlxxhxxcccxxlxlxhxxlxmbmcxhxcxhhhmmmxMh",
"lbbhfMhlmlhffmbbxxhhhxcxx@txuxdfhhhfffuNMcxuddfMhyytcNiyfbhftchdhtrrhhytbbxMxNxhfhhddddtddyyddffhhhhhxxhhhxhhhhhhhxhhhhxmxhbxbxh",
"hihbbhfbhhbMBxbbhyhxMVByx@qxyiduffffhhxxihfhhhuyfxbcbxhccxhcbcddhtthhxhdffufhiufiuyfuyhiduyidhfihihhhhxxhiuhihxixxixxxxxixxxhxix",
"hbxhhbVhyhnVuhhbyiuuhxxhx$uxxxxxxhihhhiihxxcffxbmclhkclhhhhfdhlhffxhhhhduhuuhhhxdhhhfxhhxhxxhxfihxhuuduuuyffhhuxuhiyyixiiiiiuhii",
"ubuuhxbxiubbbbuuxxxxxixix@txyhfhhhhhhhlcxcllllclzlllcckckhhydmkhxtxMhyxuxudxMxixxxhfdhfhxxyyuifxixiuttyhuuyyutqyxxxuufyxxixuituu",
"bhhcihfhfffffhhmhxxcxxcxM%tchcccmcccCcvCmllmCvCCCCCCllckmCmlllllmlhccxxhxhxxxhhhhhhhhhccccxxxxhhfihiifihhiyihixxxhffxhixixxbixxx",
"lccbcccxhhhffghhhhhdddhdl@rkkmmmczlzczlzlzllkllljjllzlkjkddhhmmmlCCclcxlccccllllglllhklghlllhlcxxhccxxhhhxhxcxcxhhhxhhxxffhdhhhl",
"bhxcxhhhhhfhfdhhhhhhffhdm&dmhlkdzlcclmzCZlrgzlkkjllcClllkklmcmmmCclcllkllkllllclclcllcccclfddhkhfdfgffffffkhhffffkfhhhdggfkhhchc",
"mmchlxxxhhlhbmmlclhllmmll+dmmAZcdgjlzzmMClCSCzCCzClcClzCCCCmmCCmCCmmcvmccllllclllcllmCCZClllllcklclxcccclchfhlxlhlllhlllxlcxcmbm",
"dfflhfccmmclhhhhxxhdlzMktOrllmMhejlzghlzjzCkjkkdjlfkfhlklklzllllccvllcxcllhfklfflkldgkzczlljjddkfjfllxxcbxhhhdfdkldfdddarddsdddd",
"mZmCMmMmAAMMMMmmMHbmAZhhM&dZmShdlCJZlCJZlCSSSlkhMbcZASCkllllxMMNNNxbNxxNBNcxhfhufhhxmMMmchmcmcnmccvlllcllmbbnbbxcccmzljsdhmmmmmm",
"gddsydyddrgssgrerddydhdak+wt0dddrsjkjssjjkkkkssarddgjkkdsrstdffdfhftrryyfdfdfdrraadgfdar0acddrdkdrdjdadjdrddhhffffyfkljjapepdadd",
"@@%%@&&&&&%&&**&&&*##&&&&&-&+&%&&&%&&&&&&&&&&&***&&&#@%****&&@&&%@&&*=&&&&@&O@&%*%%@%@@@&:&$*$**%@&:&%&,;&O@>=&@:,&@=-**&++++@+&",
"CCMCmCCMCmmmmmmmMMmmmmmmCNmmmmMmMMzmmmbMmzlmmmmmmMMCMCmmmmMmbmmMMZmMccMbcbhD:9AfMxxccmbmbxccmMMCMAZMclCCCldxhhbANbxmSClljjlmmmzm",
"czcllllllllzclllllmczllccclcmhlllhhkhllllmllllcllgkllcmmClmmmlmmxCcfmmcccCdZ*6ZdclclgllllllhkllmccxZmANccccbbcmmllzldsddglfhmcmm",
"cccCCMMMccmccmmmmmmmMMMmlMmmmmmmlcllchlllxlhlhlhgghhddddfllCCMMCZZZAMMZZcmgA;eDlDcmcCmcmMmMmmZZCCvvZZZDANMCCCCzmzchlmMMmmlmmMZmm",
"cmmmblxhhfffyhcmmllmlzzmmmllcmllmccmmllmlllkclkhhhghklhdhdhhhhdhlchhlffhxcyN=wDvZCZcclxlghggklllllllzCCvCmmcczlvcmCCzcllmmllllll",
"lcccccllllfllfllllczmmmmmlcllllmlcllcllhllcmmmmmmCmllcmmmmCmClllfllffhclhlcF;eAlCmcclccvcmzCmmClvcvccCcCCvCvCCvCCCzlllczllmzmlkh",
"chgllflccclgglcmmhmmcMMccllzlmhllllhlhllxhhhffxhlhhmlccmmCbzllkmlCmllcklvcdA,wZgclgglggglzMZCCCCZCCCcCCCCZCmccccmbmmMmmlmmlMmmml",
"ccMchglllgcDDcfffmxydhhhlmbbmhllbclclmclllccCmMclbhxcbchmZSNAAmmlmCCccmclZhM-2ClvcZglvgllllmmCCCvcvCCClccccZZZZcMFGMmmhlhhMhhcmm",
"gfmbfflCddgcCmcghflfdyydfbNnuyydfytrtdcnbxfythZZldmnfuMNhdfMAZSMCCjjcCcllftA,6ZcZZZlvCcclklzCCCCZZSCCCcCZAAZAvlxMGDymmtlbFAdlbll",
"lhfhhlflcglllccmmcmlmxcxhdhmllhfffddfhMxhhfddlCklllhxxbZMmhmmcmclCvCZCdcCxaF>6FCZvlvcgdllCCSZAASZCCCcCZZZCcAZlggmNNhhmlhcbMllhlh",
"hxchdhhhhhhlhllllllmmcmzmlmclhmmmMmCMMlmhcmCZZmklchczcccmmCZclmzClkjkfZZdcmG&5JmCkkklmCCzlllkllllgzkllllllzllCzlhhmmhhhkdgdlhlhx",
"hchchlhkkhhhhhhhhhhhkkhhlmzMmcchmllllllllhhddllmllgccccCMzlclggrradlMmcddMfc@eFzCljdjdjkkhkkkkklllzzzzlzkhghllllllhgkljdlddhdfhd",
"khlklllccllmmmCCmZmmCmzllmllzmmCCClzmmlllmCCCCmCmMCCAZZzlglcccccmMZmhdddZAlA*5mdczCCCzzkzlkllzzlzlzCzzCCmzmzzzzmzCzllkhgkdlldckh",
"dfldhfcmlmmzmCCCCCCCMZCmZZZZmmzclhgdkllzCmlkkcmMmmCMmzllcmMmmmMMmmmlhhhclZhZ=6makddhlllCzlzlzlllzzCZCCZCZAASSZCCmmCmmmCzllhhdhkd",
"khdjkllklmllmzmlmmlmmmCCmmmmcmAFAZllgddkklmmhaddmmmlhfffgfydyfyyfdfhhfhhhlsM*7MdmhhhfdfhddfflllhlcclzmZCCzczmlCCzlddkkkmClljlddk",
"khkcmmmCzmCllzmCmzzmCCCASSSCdgmNSJFMdgzmAAMcldhlcgxcfcdflflfffllhlckdflklldM*7CdlhhklcllllkhhfdddfmmmMcCmzAZMmmllmhhllkdjklffddl",
"klclmmmmmmCCMMmmmmMmCCAAZAMczmZGGAkdMAGJJchmmAZflbMyygglmcccmmzmmldsdjddfhdM=8MjmkkkhhmCccclhkbAMcylAZZclftzFZMhgdzZzlhhhdddddgl",
"hlhlhclxlhhchmhclllmmbmmMmmmmmmMmMmMZCMNMdlMAbddhmmlfsfflcmMzlMCAmserqddxMxD,9MdurrqdmMfhhdtrfZMhlumNmmhrrrlMmmchtlldkhglclkfhkh",
"hlhhlhccmxhhlxhmclchhlhmmMNmccmmMmmmlmcchMmMblhchcmMbfrrydglhgmmmMCMhdddhhtm#6hyhhxxccddfhlhhxhuhccbluddlZDZmchchllhhllhffhhdddf",
"clllmccclhmlcmhmmclccmmhmMcbccmmmlzlmhlclchhlhmccbmccccmhhhhhhdrrghllmbchhdb*7byhffyytyuhhhhhdgmMhfllcMCmchllhmmmhhllhhkldfdhllc",
"hchhhhhhhffhfbhhfflhhhlhhhhxbMbMbmlhhxhhhhchfllhlchccgluhlhhmbhbmlhbxhhhfdyM*9Zlmchllhlllhhhlmmhhbccbcclhflfdlhlllhlcccmlclhkdhx",
"bhhxchxchmbhhhhmmbbmmbbmhfhxffufhxhhhffhcbhbhhmllhbdlcfchhmlhhbldxMhfxfudbhM=6hrfdhlhhffhlhmbbhbbmMMcNmmZmlcmcmmlMMklhhMMmmhcbcb",
"hhmZclcZZMfydhhmbMbxbmmhhgudfhbMbhNbbmbhNNbbMMmfcflgccgMbhlchMmccbmxhxmhkbhZ$7NgCMCmCClllbZDJAblNKHmDDMSZZhAmMFMZZclAlhNhFMbDMCA",
"hhhhyudfhggfhhffgfghfdygdudyufffhfhxbmhhlhhlghhllldddfudglhhffflhffdhdhhhhsm*8mglgkglzlllklklCAZhMNggcglllkxbmllhcllCllchbmlbhmM",
"NbbmbxbcbbMbmmbNNNnMMnNnnMMmbmmmMcmmcmMcmcccmmmcmMmbcmmMNMMmMMCMMMMmMCCZCAlA>eFhMmmMmllmmCMCCCCZZmAZmZMmZMCZAAZMCCZMCAZMMbZMMZMM",
"reew0969777797877756578887778we98w7777987775577777777777557757777888w78w8w7e&1e6e8888w0ww898888887888ee8w88w87877777766888wwwwee"
};
