/* XPM */
static char *planks_big_oak_s[] = {
/* columns rows colors chars-per-pixel */
"128 128 49 1 ",
"  c #5C0A00",
". c #670A00",
"X c #630A00",
"o c #660A00",
"O c #650A00",
"+ c #640A00",
"@ c #680A00",
"# c #620A00",
"$ c #610A00",
"% c #600A00",
"& c #770A00",
"* c #710A00",
"= c #750A00",
"- c #740A00",
"; c #730A00",
": c #720A00",
"> c #760A00",
", c #780A00",
"< c #790A00",
"1 c #700A00",
"2 c #690A00",
"3 c #6F0A00",
"4 c #6D0A00",
"5 c #6E0A00",
"6 c #6B0A00",
"7 c #6C0A00",
"8 c #7A0A00",
"9 c #7B0A00",
"0 c #6A0A00",
"q c #550A00",
"w c #590A00",
"e c #570A00",
"r c #560A00",
"t c #580A00",
"y c #5A0A00",
"u c #5B0A00",
"i c #5D0A00",
"p c #540A00",
"a c #5F0A00",
"s c #5E0A00",
"d c #7C0A00",
"f c #7D0A00",
"g c #7F0A00",
"h c #820A00",
"j c #7E0A00",
"k c #520A00",
"l c #800A00",
"z c #530A00",
"x c white",
/* pixels */
" .XooOO+O+XX+oOo.ooooooo@@@@oooo.@@oo@@@@o+X+Oo...@@@..oOoo.o+OX##$##$X#XoOOO++X%#++OO+XOOX.ooooooOo+O+o.++XXX+X+OOooooOoOOOO+. ",
"@&*=--;:-;*-====&>===>==>>&&,,>>=>>==>&&>:;::;==>&>,&,<,,&&,,>--=-:;;;::;-;:::=;*;:;==>=>&,<&>-====;;-:::****1:--==========->-<2",
"+;3;*11331*131*:::*11*1*1**::;:****14531343111**:::;;;:::*;--;*****::*:::******:;;:;:11*-=-====--;*1:---15466774553111**:--;:1-+",
".&:>--;**:::*:;--=---=====>&;;--=-:;>>=;;=-==---;-;--=>--=>>>>=;:::-;--;--:;:;;;->>=>>&,&&,,&==--====-;:;--;-;-;:;--;->>&&,>>-<2",
".>:=;-==--;---->>>>=>>>>--==--=---;:==--==>==-;;;:-;::;--;:;=-;:;->=-==-;;:--;===-=;-,&>=->>>:;----==-;*11**3131**;:*;-=>>=>&:>.",
"@>;&>&=>;;-;--=--&,&&&==&&&>====;;:;-=>;;-;:::;===,&>>>==>=--==;:--=;-=-===>>>>,,<<,<<<<,,,>-=--;;==---:;13*;:1*;->>=-=>&&&&&-<2",
"O>*-;;=>=>=-;-==>,,<<,&&&=-;-=-;::*:;;==-=---===>&&>>>=;---;>=--:--=--===>>>>,&,8<,&&>>&&&&>==;--;;-==-=:**1::-==--=-;=>===;=*=o",
"o&*;;;=====---==&>&>=-==;---;;;;--====>==>>=;;;=---->=---;::::;::;;::-=;;===>&&&&&&,,&&,>>>>=;>=-=-=>==;1*11311*::;;-=-----=>:&o",
"o>*----;;;:;-==>>>&==-;:->>=>=>>>===,,&>==>>>>===>>===->,&&-**=>&==--==>&&&&>&&&,,&&,&&&&,&>=->>>>>>&>=>>-*;;:::-;;;;::;;;;;-1-o",
"@&:=:;--===-=&>>>>&>=-:;-===-=-:--;>,&>=;-=&,&,&&&&,<,>>>>->===>>>=-;>&,,>>>>,,<<99,>>=>&&&&>>>->>-=,&>>=-::*:**13;-==-;;;;-=*>.",
".>*-;=::-->>&,,,&>=->;-=--->>=;->>==>&&&&&&,,>>&,,&&&=--;=->>;-->&=--->==&=>,>&><&&&>>=--==&>=-->>-===>=-;:*::*::*-;-=:;*::;-*=o",
"@&*;-=->=-=>,&>=-;;---;:;-=--===&&>&>&&&&==,,,,,&&&>=&=;:-;=-;;;;;;:*;-=->=->>>->==>,&=;-=====>>>>==-=>=--:;:****111:;;::;;;-:=.",
"0<;&>=&>>>>-->>-;;-;::::;-=-:;=>&&>>=--=;;;->>=-=-:::;;;;-:;;::;;::::;---;-;-==-=&&>===>>=>==>>=>=--;;==--;;:*:;;:11:;-;;--=>;&2",
"o&;>=-=--;;:::;;----**::-;;---=-;;:--*:-;:*11**::;;*:**11*:*11*::****:;-==-;===;;-=>>>>-==-=-==---===-=>;:::*11*;;1135355311*3-o",
"O;3;;;;;-=--;---=-=>>=-;--:-====;:;>>>=--=;--=>=&&=-::*:**11151**:-:;;--=;:;;==-;->&===-==-----===->>>--*:**1113*::14744353134;+",
"O-3;::;:--;------==;;*:****1::;;;:--==-=>&---=&&&>=;:1*11*1554533::::;::;=--=-;::---==-;;:;-==----==>=;;-=;;:--;;:1355*13***:3-O",
".>*;-;:*:**:::*;--;*::13311*:;:*13*::;:*3*;::--;::*:**:11*1133**1*::;:::;;:;-=-;;--;;;::*;;;;;;;;;===>=--->-;>>-;*133331***::1>o",
"O=*;:;;;;--=---;;-=;;;;;:*::*::*1::;;>>;**>&<<&>====-;-:;;**:*::;-;;**::::*:*;-;;-==---=-----==---;=>,<>;*>=-&&-*1::*:*::**1:1-O",
"o=*-;-=-;=>>>=>>>====>=-;:;-;-*:;;;;;-===->&>,,&>-==&&>=-=;:::::;;;:*:;;;=-==-;;-=-;--;:;---=>=---;;-=>>>-=-;-;335**1*;:1:**:3-o",
"o=*-->>>==>&&&>==-->>>==;;;*:**;;::*-&>>&>=>>>=;;->=>>=-=--;*351*1:;---;;;;=->=-=-:=>==>>>&>>===>&>=>>>>&>--=;:13:;*--;:;;::;3-O",
"o>;>>&&>======&>====>-=>=--==;=--;:;;>&&&>&&>>--;:-;;--;-=>==;:*:::-==;-;-===&&>&=-=====-=&>>>&&=;:::--==->=:;*::1;:;;;:;-=--1;O",
"O=*=>=--=>>>&&>>--=--;-;:-===-=-;;:-=>&>,,>&>,&-;;-;-=-===---;*3*::->=;:;-->&>>>>&&&=---;=&&&<,,=>-=>>&>,&=>==-;::-----;;-->>1=O",
".,;>-:1*--===>>===>>====&>---==;;-=>==>=>>==>==------;-==-;;;----;--;--===>>&&>>==&&=-=>>====>>--&>>;--;>>==>:-;:=;;==--->>=-:-O",
"+;1-::331*:***:;:;-:**1113-:1**11;;::*;*1131*11*135311*;;::;:;1*:11::;-=--=-==--=-------;:;;;--;=-=;*->;---;155*11**11*1131313:+",
".=1-------=>>>>>>>======,,&&;:>>-=>&&&-,&-=-----=---;-=->>>>=-;:-=-=>&,,,<<&=&,,>&,,==&,,,,<,,<9<888<,,<,-==--;;=-;-===>>>;:;3=O",
"qweeqqretereeeewwtwtwtwwwttretteewyytttwwweeerrrrtttwwwwtttwwttwwuuyyyyyyywttwyywwywwwtyyywwu iuyu u  uuuytwteteettwwwywwtteeerp",
"*553555474776655553544444453335533445531*13553317;Oy-71455555435311:*1354444447743311453**1:*;;;;*355511*113331*11*****1**35445*",
"&-;---;--;;**-;-;:=>->>-=-;---;-----*1>--=>==-=,;87a9;&==--;:---==>&>>=---==;;;=;->&=;-->&>&&&>>>==>>=>>&&====>>&>>,&&=--=-->&>&",
"-;:;;*116535151***;;:11**:;;:::-;:-;11;361;===-&;,oy&*-:*::::;-===*-*1-=-::1:153**;;-:1:;;-;;;;-;;-;::---=-;:---;;;-:;:*::::;;;-",
"&>>>=&&-:--;:;---;;=>*=>>&>,>=>=>::13:5**:::;>&<-<0i,*>;--;:;:-;=>=-:;::;::11::*:*::1;=:;-=>>>>&,&&>>&,&=-==>&>&&>&==--=:144;>--",
"&&====;-::;*:;:1::;;--;--;:;;==>>==;;:***1*1*;:-1,0s<1-:*:;;;:::;=-;-;;;;;:**:;;;:-=-*5*;-;---=&=>==>->>-::;=>=:*=&&&==:;*1*;---",
">&8,&>>>--=>----:111;*5*:::*11:>==:3353:;-;::;:*3-Xw,1=;:;;;;:::-=--=>-;::**:*175151*555*=:->->&>>&&&===---=--:45;-;-=>>&&,>--=>",
"&=>>&=;-;1::1::57274*56444661:=1537736.0531*5*;:3=O &1>;;;;--;=>==>>&>&=-;--:*166774470631-=>&&&&&&&>=====>&>&&;*;-:*:;;;>>=>>&&",
"&>=>>&,<,>>>>>-::*--=-:;&>-->>>:5474**133*:-=-;-*80s<*=:->-;;=-=-;;->&>=:::3451476434513;;-=&&&>>>&,>>&>&&>=-;-==>==---:->>&&>,&",
"=>>>>&&&&>===-=>&,&,,&&>&&=;--=&;*;:---:;>-;-:--3>Ou=4:3*::3*1*;--&>=>*:;:;:33:143547O.063::-==-=&&&>>>===---->-;=;--;;:-===>>>>",
",&==->&&,&=-==&&&>,<,,,&>==>-=-31:*;:311*:-=::1:5>.y=0571::***-;::------=;:::**::;11100311:::;;->&,>====--===-;-;===;1::;=-;-=>>",
">-=--&>,&>=--;;;*341*1*17452070.O2641:*1*;;-:=->:<2u&3-**:;;-;;;;-;;-==-;:11**131*3402*-=-;==;;::***--;:*;;-;--=-=>==>>=>&>>=->,",
":4*57--====>===>-:344131-==55;;>:1*:;-=-=---===,=80i<*>===;;;;=>>==>>>>>=-:::::1*;:574*;*1:;->==-;11;--==&>-===>==>>>&>>=;=-*3==",
":=-==&,,>>-;;:::-=---=>>&,,&=>>=>;1*3;&>>=;;=>&<:<0i<:&=;**::-=--;:;;-;:;:::**:;--:--=;***:--;>=;*:;:>>==;**;-;-;=,&&<,&>---=>*:",
"5;:;-->=:;104**131;;33:;;=-;;;;-:*:11:=>=---=>=>*80i<:&:1:***::;:3:=>==--==-:::;:*::;;-;--;-=-=-=-=;*->;****;&&&&<8,>,,&>=-==-*3",
"&=;::1::;--;--=>>>>=-=-=----&==;;;==;:-,=-===>>,=94s8;,--==:*:-;:1*;-;;-==-:;;;;**-=--;-;-=->,==>=>&===>>;1*::-=>>&=------=>>>&&",
"=>;;:;==&&&=>==&&&===-;:-==;;**--;**;-->>>===&,<-96s9:>-;->-:::;;=--==>-&=>=-=-=>>>&===;=&&>>-====--==&&>&====>>>,<&&&>;;;=&&===",
"====---=-;;::;----;::*31;-;:::=>;-;->>>==>,&>>&<=96i8*&=&&&&>>>====>>>>====----;--=-;->=->--=;=>>>;=&>>&>=-;:;--=&>&,&&>>&>>>>&>",
",&-;::--::::::-=-=>>>=;;:*:::*;;>--=;---====-=>,;80i8*&=------==-;:;;;;=====>--=;;>=:;:;-=-:;:->>==>>&>----===--=,&&&>>>>;->=>,&",
"&&&&>>&---;-;:;====>>>=-:1*1*51--;--=;-=>>>>==>&;80i<:,,,,,<&=>>&&==>=>>&===-;;----;:::;;;::-;=>==&&>>=->>>=->>=><>>&,,&&&&&>=>>",
"-&&&&=>>==;:*1:;===>=>>-=-;;-=-*;-=====-==&>>>--*&2 ,:&-=-;--->===->>=,>;-:;;:-:*:*:;-;:;:::-==-;;-=>-:1*::;--;=>>==>&&&>>>>>>>>",
"-;:;*:;::*1133*:-----=>---;--;;:;==---;-===-=>-=*<0s8*=;;;:->---;--::*:***11111***:::;;:--;===-===>,&=-;;-->>>>=&&>&&====>&&>==-",
"-;-==>=-;;===>=-=&&>=&>=>=>===;;;;=->>=>&&,,,<,,-80s8:&>>>>>>=>=>&>-;;-;;;--::;-===-==>&&>&&&&>>&>,,,,&>=>&&>&>&,&==,,&&&,<&>>&>",
";::::;;::-;:---;*:---::*::*33331113*:;:;;::--==-3=.u<:&=-;:::;;--::**;;;;;;**1:;;;;::**:;--;:;;--;*;;=&:*:-:==--;;;;=>--=-::::-=",
">>&<<&>><<8<<98<,<898<<<<,=;==-==>,,<<<88,<9dddf&g5#h8j9<<98,<,,&&&>&,>&,>>>>&&&<,,,,<,<88<<88<<889d<8,&==,<98<<<<,,88<<<<<,&&,&",
".@@@.O.2@.Oo@20@@222@@@.@@....oOoo.@22@2@000@.@2.5#e7o60222..ooOoo.@@.@2oO..@2@@@@@@.2022oo@@2020674674..206002@2067066006602@2.",
"ii isy iias    isisssii  uyuu      isissiiisssi   sa iii    uuyyyu   yu  i yu yyu uu i uutwyyiii iiia ksuuu ii wuuyu i  u iiiii ",
"<9,&&,,,&<98,,<<888d9<88&>=>>==>=&,&,&,<<,&8<<9<<<,&---&&,&>=->>=>>>>;*=&,<<&&&,&&,<<<,,>&&,<<<888d8j= d,<,,&,&&>>>>,<,,<,,8<<<,",
";--;**::3331*1;::;::*113555334533351***11*311**35144445311135513111157776433551147554413131*131*;;-;>3t;1;*333*345466733*11*31;:",
"->,,&&,,,,,,&,&&,,,,&>=--==;----->>;--;--=;;:*;=-5411:;;;:*:::;;;;;;*;-;;=>=->---;;;:*:::-===:;--&&;,*y&-&=-;;;:-;:3*:;---:;-=>=",
";====>&&&==&>&>==>&=-;-;;::-;;;;---=;==--=;:;*1*15545111**11*131111**-==-;--:==>==-;;****:;===>>>==*=1w=:=*1315751155***:*11;;;-",
"=>>>&&<8,&>>>>>>>&&&&,&--;;;---==>-->======;:;*:;-;133351111133*::*;;:;;-*;-;::;--;;;;;=--;;;--=-=&-&*y&:;:***1331113311*11:*11:",
";>&>>&&&>>=>>>>=--=-&&>=;:**33;;;-=;->&=;11**1**51;;-*11*13535453:;-;;>=;;;-=-;--;-;:->-:;->=&>==><&<; &:=;*3343531*:355511***1*",
"-===->&,,&=&,&&&=>=-=---*;;*;;;;--->&,,=:353**3063*-=::1::*;:;*:;----&>&&&==>>=;:--:::;::;=>,,<88,8,9= ,;-;13351*1***1471*1:;;;;",
";--==>==&&>&&,&>=&,&>=-:-=-==>&>&=;-&&,,=-;-:*;;:35770513547547375*;::;-=>-===;;----::**:::--=>>&&,>9-u8>>-;;:*::*:::**11:1351::",
";--;=>==>>=>====--=;;:::*::;--=>>-=--=>:*53:1@*104**1*1::;*172.2273*:=-;::;-;;-==-=-==-;;-&<,&>,8<&-&: <==-;-=;;;;-:;;;--=-:55**",
";-;*:-==:--*;-;:=>=;::***::*:=:======&&-;:-;:3*52@477*-;--;--1:**14:;-=;;=>--:-=----=----==>&&<,,&>;&1w>:-:1*1-**:;;:*:*:1*::;;;",
"4343:*;;;:1*-:1-:;;;;---=-:;-==&<,&=-*:-;=;-;:*:561511;;-*770654456751*13:;;-;===>>>&&&&&>=>=&&,,&&-,3w>:-11*34455154453444434:3",
"435**:;;*:3:;1*;-;*31;;:-;**;:1:;=::*541:;-:;=;=--:1;31:31*:11541:11:-&---:;;;--->==&&>&>>=>&&&=-&>;&*y>;;*11135*:15747566776077",
"*:::14553*;;;-::::;15***1:==>&->=;;*552.@0441:*35356600o$.4513415*567067074411*;-===>>&&&=====&>&&=-&*y&-=>;:;;;;-;;--:33263***:",
"311:*513511**:**::;;51:;33=;:-===;;=;1*544o417oo@.6%a#XOO7473306*4@.27@645361-=&&=>,&<<&,>==,<,,&>&-&*w=*;;;:11*111133366@@43311",
":;;;;-;:;;*::3131====>&&&,&=*:;->&;::31;1*1542o.Oo0.O@OO@77647476640O.2.06*33--==*1:--;>>;50@25*=,&->*w>1-:51111:::;;::*14651::;",
"41*13**53:**56543::-=&&><<8<>=-;&=:==:*::1***77465:-*11441133*;:**11;**355::**::::::*411-;562.41-&>-=3w=:;>-;:::-;;;---;1***;;:3",
";;--===>-;:*:;>&-:-;=&,<,>&&>>&&&=:>>:;-;151**3431;;111;:3*3705**4*:-,&&>=;;;-----;;::---::11*5--;=-&*y,**;--=;-:1*;*1::1155*::;",
";---->-;;;:**:--;&&=-=>&,,&&>==>>==>&>==-:;:****:-;;**:***:**3*;;=&&->>===---==>&&&>>>&&>==-==3411=:&;u>::13:-;:::--:;-:;;*1;::;",
";--==>>>=>>=->>-,,&,&>&&&&,&&,&>=-=>====-;;;;;;;;-=-=;;---;;:>;:**->=-=------===&,&&>->>>,&>&>==-;=;&: <;-;;:::-;:::;--=-;;::;:;",
";-----===-->===-&>>&<<888<,,&&,&&&,,<<&=>-;;:;;:;-;;--=&==>==---=>>>=>>&&&>>>>>>,>==&=&&======>>&&<>8-u<=>>>==--==----:;;*11:-;;",
"**:;;;;;;;->=-:-===,,<<<<8<<,&&&&&>=>=>==>;;:133*;=>=---;;;:;====-;=;->&,&&&&,,,&>&>>=>&>>>>>>&&-;>-9- 8>&-==--===--=-:;-:::::;;",
"===--=>&>&8<<8<<<8998,<<888df99<<,>&&&,&,&->&,,-==;::>&>>>&,&&,<,&&==&<8888<<<<8<,,&&>>>>>>>&&,,8<,=8;y9,<&&,,,,,,,<<,&=-=-=;;--",
"3155331**;;;;:;-:;-=-:;->,&,&,>&&>-;=>>=:11:-=--:35741::::--;;=---11:;==---=>=--;:;;;;--:;;:--;-->>:;3w=;;:*:;-;-=-=-;*1131*1133",
"&&>>&,<<9dd9d9<<9fff9899djddjfggfjjj998,99df988<<99d898<8999d8df9<,<88889dffd9d99999<89<<8899ddfjjg9f&sldd9989ffd9889d88<<&,,,&>",
"u u uu  isais  %$$aiius%a$s%as%%%%$$ai uiiissi u  uu  i   iissaassa$$%sisiisia%asis sasaaaaaaa%%%%%sa z%iaassissi ywyuuuuuywyuyy",
"o.@@2222@@.o.245547002004po727777667460660@2@o@@02222006777000@2064766745402664554002200777745555544475660002@@260.++O+X#+oX+X+O",
";=>==-=,8<8<,9dd888<<dd8di=f9fd9888dd98998&&>>>=>>>=>&<<889,&&&<<<8<<,<999d899ddffddd8<,<99fffdfjjfjjjdfdd888<8<8<&=;::1511111*;",
"5313131*;-==;;11;*:-===:>t3>=&==-;;;-;:;>&--;;:*;**11:::;--;;;;::::;;:;=&>->=---;;;:=-**-===>&>>&&&,<,>--=-;-=&==;15445745775431",
"1:*:=-=-=-=>,,,=-=,,>-=;,u:<&9<,,,&&,&---=&=;==-==---=>&&&>>&,&,&&&,,>,>=,&<dd8,&9d999<&&,,9df98<8ddfjd,&&<,<9888,=-::-:**31**:3",
"*::::;;:::1*1*;*1;--;:-=>r3&;&==>=====>-;:::-;-;;*::*--;-=&&>>=-->,&=>&&&==&&<8,&<<<&=>>>,<8<8,;---&<98<&-,,,<8&=-=====;;;*1*::1",
":;=>--;:;--====>>&>=-=-;,t3>;,=,,&&>>=>>&>=---;::*1***:-==>=---;;=&>=>&&>>=&&&<<,&>=;*;:*:==&<,>&=-,d9dd8,<888&=----==-;:=-:*1**",
":**:;-;*::;-;-=>---=-;-->y1=;==>&&&,&&==&&>---:::;*:;1:-==--:::-=>>>&&&,>>&<<,<,&>=,&===-;=;>>>,>>&>,9<<88,>,&>=-=&>,>;*:::*****",
":*:--=*:--==--=-;-;===>=>t1&;==-=>-==-=>>-=>--;:*:-;;**->=-;:;;:--=>&<,,&=&,,,,&>=->>&,>>&<,&&,>>=->>-->&><<&,>=-=&==&>;>>=-*11*",
"::;=&>=--=&&>>>>=>>&=;-1-e7:*=-=-:*;;==>>>>=--::-=>>&==;:---;==-;--=&,&>&>><,<88888<>,;:13><<8<&,>->&&&>&&=&-&>;=>,&>>=-->>,&=;*",
"=-;3:;=>>;;;-&=;*::;;;-:=r4,->>>>---;;:*-;;-=-;-:=-;::=-;;*===:1=-=;=>>>>=>><88<<8,>=::;3*-==&&>>>&>=>&&,,&>&>&&>&&=>=>&&,&,&>=>",
"=--;;:;&&==-->>-;=>>:;&=,e5&=,>;->>>->=-;=-=,&&=;-;-;:::;-;=;;*1-=&===>&>,&&,,&>&&=&&&<&>-;-::-=&&,,==>,&&&&>>>&>====-;-->>>=---",
":*1*;:;::;;;;-;;--=;;*--&t5,=&=;5:--;-;::;;;1*;;:17571:*:37541-;>--->-*=--,&>=375353**--113*;3-*1;>&&&&,&--=&>==>=-----===-;;::*",
";-;:*531:*:*1:--;:31;--*>y1=:>;:**-**3551:36o2144305*==--*23;*;3;;::143;>->;*-;:1*173:::4*13*57004:*:;=>=---;;:;=======>>;;:::::",
";:5:*4433454311*:561;133:r6*3;*314*:-;;&>13@273:;;:==-=:::*3477:1:;131*;:*15073477313221:*3*:1*764574311-=>=-:54:;;=>==-;:**1**;",
";;**:3725:115322264314671p7;*;>=-1;-;::157451;:=:*3::*;3133*763;:**:--:--;;1357411;&=17*-=-->;;::1351;-;=>>>-==-;-=>&&>--;-::;;;",
"*;41*14631555175*:;16046:q7*1=--;;-*:**4@65*:*331*;=:::*1*113531:::;::=>&-*1*-15;*-=-;;-;;=>-*365*1*73-;*1;--=-=-:;=>>=;*;-::475",
";=3*::56;:40@0337736.@621q6=:-==;-:1***1*3*1313111:*113**1*131:**:-::;;--:::331531;-&>--;;;3:343572402*;:3-:;>>=;;;53>>-1:::331*",
"::--;:6@3:35135457546004*r3=->=&;;-;;:*::**54551*::;;:663117027131*133*;33154455577551*3454717@2@661163143343*;*1*;**1**::*:*545",
"**;:*;*3:;;;;;=::;*:*15*:z25*>;;:;*1*31**31*555435462445**15551;*753547760077@.@@62.431*340656@@7451*514635::*1*5073:*-;1;:1:143",
"-=>>-;:*;-----*11:;--=>;<w3>*-:**133131113347115431143172oO.244570*;;*74343147@OOOo0531:51:*1;:;*:;11353*54733737534431:;-=;:>=-",
";:1:===>=-=->>:*:;==;;>:>y5--=:::***11***115333***3***140@22555*1:--;:=-**:;**376@62@O67@064313:;131*5*;;145535771331**;;--->>&=",
"-=;->&,8<&&&>>=-=&,,&-&-,u*>=&===;1511*1**:;=;;;::;--=>=,>>-;&,,,-&-;>>>&=--=--11;;-:1*15:7:;;*:=-=:;:**-::;:;;;*53;--=;>,&=>&,&",
">>&&---=>>==>-::;:;-;-=-,w1>*;:;;*:::;3*-;;-:::1*;:*:5*;-==;->=-;*;;*;----:*;;:1341*33*1::*-:*:-;;;;-;:3*;;;;==::*3:1*;*:>===;-=",
"<<<<<8988,&>>>&&,&&,&<<>8 ;8,<&>=>-:;-;-;;==-=>>>>>=>-=,,,&>,&<<88&=&&,<&>-;;::**3*;:::;-->>>>==&>>=>&&&&&&&&>>----==>&<,,888<<8",
"131;-;;;:1113531**111**3;t3>:-:13534513331***31155311***:*:;:::1:*::*:111447357674677773133115511*141547667453311331541*13333533",
"twyyyuuuwwwywwyuuwyuyyyuiii uuyywrretyuuuuuywwywwwywwyuuuuuuyywyuyyyyuuuterwzptqerqrpqrttwwwywttwwteqqrpzpzrrttwwwwwtyywwttwttyy",
",&,<8<8,&&&8<<8&=->98<&&><&=&&&<<=-;-=,,&>==>&>&==,&>&,<,&<8<<,&<&<&,<<&=,-9u.>1=-=>=====>>>&,<<,,>===&&&>====>>>,&>>>>,<&><<8<,",
";***-=>&=>,&,-;*:-=-;;--;>>>&==:::==;;;;:::::;--;:--;-=--=-=>&>-;;:*;;---&:, o=3==-;-:;;;--=>&-==;---:;**13;-----==-;-=-=;-=-===",
"-;-:->&,,>,,=;;&,<&;;>>>>=&>,,,,&=-;>==>>&==>>&,>&<<<,&&&&>&,&==>>===-=>,8-9 28-,>>---=&&,,88<<,&&>>&==>>>-=-;-=>&<&>,&=>&&&>>>>",
",,<,>&<,&-:=&>>&&,>=>====&>>&=&&>=*;=>=-----=&&,&>&>&,&<<<&&,&&=>&>>=>>==&*, @&1-:::---=>>=>==>===--======--->&,&&,,>===>&=>>&&&",
",<,<,,,,,,=;===>=>&>>>>===>>=;===-:==>=---;-=&>=>&>&,,&&&<,&>=>>>>==>>=-;>:< @<-,=-;:;=>>==>&>,,&==>=>-;;-;---=>>>>&=-;:-&>>>&,,",
"&&&&<,&>>>&,=-=>===--;;---::;-=>>=&>-=-;>&=-=&&&&&>>>,,<<,,>&>>>=>==>=---=1& @<:=;::;;;-->>>&&,,&>>>=-=;--;;-;;-=>=>=-=-=>==-=,&",
"&,>>>>&>=&=;;;==---=-=>===-=&,&=>>>>=>=->->>&&,&==>&&,,&&>=>==,&,,>---=&><-da08:&>>>>==-====>,,&>==----;;*:-=;*::;;;->>;;--=-->>",
">>--==>&===--;;-;-==->>-=>==>>>>=>&&&>>>&,>&<<&,&&,,&>&&>=>&&=>=>=;;**;-=>*,i2,;&---;;;:--;>>>&&>>>--;-----=>=---->==-:::-=>====",
"=>>>=>&&>>&>&&>=-;===>&&,>>&&&>====>>>>=-&&&&&>&>=&&>>&&>=&>=->===;::;;->&:8i28;=-=-----=----;;;-==-:-;;-=>==>==>=--=-;---=--;--",
"===>==>==>&&&&,,>>-=,,<,<,>>==>=>>->&&&>=>>>,,=>===>>&&&=---;;;-;11*:-=->8-fs08-&==--=>&&==-;:*;---;;=>-----=>>==-;-=&>=-:****:-",
"--=>>===>>>,<<,>>==>>>&&,,>=>>>&&>>&&&>>-->>,>-=&,======-;:**:::*:**;;;;->:,i0,*=;:-;=>=&>-;;-;;;:;;-=;-:*:->=---=--==--;*111*:;",
":;==--===>&&&&,&&&&>>-->>>=->>==>>&,&>=-;-===;::-=--;;-;;::1*::****:::=&>>*< @&3;;;----:;;;;-;:*::;;;--::;-=>=;:;;;;;;;;:**1**1*",
"--=>>->&>=&,<<,,,>>>>-====;->>=-===>===;;::-;-;*:::::;:::;;;;:*111*::*;>>&:< @>1-:--=--;;;;:-=-;:;-->>>=--=>>>=::*1**;;:*:11*:-;",
">>==::=<,,&&&&&&====>=>>-==>,&&&=>&>==-=-::;:;=-;;::;--;;---;:;-;-:;-::-->:<i2&1;**:--;:1*::;**:*:;;::::**;-;:;---**;*1:1:;:**:=",
"-&&&=;==>&,<,&&,,&>==>&>=>=>&=-====>>=-;-=:-;;-;;-:;=----===-;---==--;:;:>*, @,*>;:;=---:::-=;***:--=--;;*;;***::=;*:*:*:;;-:1*:",
"=>----==-=&&>>=>==&,>>===&>=>>===>>;------*1**::*:1::::;-:::::->>==>--&>>,*< @&;&-;;-::;:;::-;;*:;;::*:*::::1;;;---;::*1***11*:;",
"::;*:-==>>-;&=;==;-=;=&>===>>&>>>>--=---;=11:*:5;:-:;>-=-->;->&,==-=;=&&&&;8 68=,---:-;::-;;::;;-;--;;;1*:::;:::::-:;;:;;;:***::",
"::-->>=--===>:;=>;-=;>>=;--&&>;=&=;--=;-;**:51*51*:*:;;;;:-;;----==>>>>>>>:8s09;&==-=-;;:;::*:*:;;:*::*:***11*1111:;;:;:::*1****",
"13*1*-==-;;===;;=--=&>==--===&&>>&,>&,>-:1*3**:-3*=:;::;--;---;:;-->==,&>,18a0<:>-=-=-;::;--*::1*1*11:****:*::***::;;-;::**:;;*1",
";:-:1;;-;-:->>&=--->===-=>&>=>>&>=>>=---=;;*:::*:-;:;;;--===--;-;;;-:--;-,*,i09;-;:*:*:::---==---::::--:::::;:::;;;=>==>=-:;;--;",
"**::****:---==-:;-:::***::::-=>>&&>==>&>-;;;:;:*:;--;;:*;=;;;::**153*:*::=3& 0,*-:111353*;;:::-::;;::**:3311****:1:;;;:;*::*::**",
":;;::--=>>&&>=-;;=:::;-=;;--->>>>>&>>>&>=-;:;;-===>=&&&&>&>>---::*33*-;;-&:,y@>1>;**1*::*:;-;;;;:*;:*174:*:::;:::*;;-;;------;;;",
"*:*1*:;;*:;--:****331*:;--:**:::::;;;::*11131***11*:;;-;:;;:*1*1334531111;1>y+=1:;*5311*::*3351*::**::33311********:;::::::*1111",
"==>=--=,&>>>=;-<>-:;-==>,,,,,,&,,,&>&&&==&=====>>&,&&&&&&,&>,,&>>>-:;;->>,-ds08::3*:::==>&;--;--&>&,<8<&-:;;=-;;--=>>=---====---",
"Oo@..+ooOOOO+#o.o.o.@.oo.@@2@.oo....o.oOo.o+++XO@@@.ooo.@@@o..O+##+++X+++oX@rs@#+$Xo+XOX#++o.o+++X060o##X+$%###X+O+ooOOoOOOoooOo"
};
