/* XPM */
static char *planks_jungle_s[] = {
/* columns rows colors chars-per-pixel */
"128 128 67 1 ",
"  c #5D0A00",
". c #6B0A00",
"X c #670A00",
"o c #680A00",
"O c #650A00",
"+ c #660A00",
"@ c #690A00",
"# c #630A00",
"$ c #610A00",
"% c #640A00",
"& c #6A0A00",
"* c #6C0A00",
"= c #6D0A00",
"- c #5C0A00",
"; c #820A00",
": c #7B0A00",
"> c #800A00",
", c #7E0A00",
"< c #7F0A00",
"1 c #7C0A00",
"2 c #790A00",
"3 c #7A0A00",
"4 c #770A00",
"5 c #7D0A00",
"6 c #810A00",
"7 c #830A00",
"8 c #840A00",
"9 c #850A00",
"0 c #780A00",
"q c #720A00",
"w c #750A00",
"e c #740A00",
"r c #760A00",
"t c #730A00",
"y c #710A00",
"u c #700A00",
"i c #600A00",
"p c #6F0A00",
"a c #6E0A00",
"s c #620A00",
"d c #860A00",
"f c #510A00",
"g c #560A00",
"h c #530A00",
"j c #520A00",
"k c #4E0A00",
"l c #4D0A00",
"z c #4C0A00",
"x c #4F0A00",
"c c #500A00",
"v c #540A00",
"b c #550A00",
"n c #570A00",
"m c #5B0A00",
"M c #590A00",
"N c #5A0A00",
"B c #580A00",
"V c #870A00",
"C c #8B0A00",
"Z c #890A00",
"A c #880A00",
"S c #5E0A00",
"D c #480A00",
"F c #470A00",
"G c #5F0A00",
"H c #490A00",
"J c white",
/* pixels */
" .XooO+@o@++oOXooooo@@o+++###$%OXXXXoX+OXX++OO++Xo&@@&.*...*.&&@&*=**&.**&&.&@oooOO+++OX@+%OO#%%O+O++O%+o@oO%o+X&@@oXoXoXO%OXO&-",
"@;:>,,<<,,,><<><>,,,,1231:44443115<<<51:15155,,<>6;;7897;;;6<,>6><<;>;8988;;><,155,5522,<,130024215,1315,<51,551,,><555,,553:4<@",
"O2qwe4000rr3:000032232444wtetqywwr02:222rwww4rr220442:33:3:3322204w02315:33:300rrr0220202244equqrr00rrrr004rrw02222rrr4030wwrt2O",
"@<42022133133323:31,,51:32000r22:::::1:322:3322:5:2:5,,5,,,555115511::555:11135<,,,,51:1,<520033003355551::1,51511:::1:3:400:2<@",
"X5ewtetrr42:2::3:151:33222202024wr:5511131:3:1::1331:312:3324223150rwr22032044023::1:023333233244022035:2:111113:444rwwewr002r1X",
"+:eretew44rrr4:11155:::3340002200:::515555322wr24rwer02311:3231:22442331:323223315515511111151:4420023:32:1:20020rrwwwwewrr42w5O",
"O3t4wwrwwr444403:::::53311530rrw01:223::34ewwr402200031:23:0421300r42:115:0022::1:1::,::1::1:34r4rwr400220ree44320rr0r4eter03r5+",
"+:t0wer4r020442221:3233:::5:1:32:::::002322rr0203332315:31:1132r44r422333:133:13032::333:3115133::333242332::3230wrrw44r40w0:r3%",
"+1trr0040rr0400204231334r0433112330325:,12:20240440wr22133030retwwttt0:302422032040235111,5<,52rr233:333202044244reqwwrrqtwe4t3%",
"%3t4400000233::21111:133323:1,32320r0:223330402::r4r0:22115512wewtqer420044rwr4wwe232115124200223:20220444rr4222244440rwewwe4t2%",
"O2t0wrww4233:51::11155,<5:3:312r0223220r040022:11:30202:5:0231204etwerrttwr4rr0043444403:30wrrrr444023223:33133220204044rrww0t3+",
"#2twwweerr44231>><5<6<,,1,:15132233323::3:122:1215:2300:11:3321:42wtetqtw444wwr220042200:300rweewwwrew442233333204444rw4rerr4q:O",
"$4uerew40022323:5<<>>>;76<<<:333:33:::3:30202:0124,5,,5,,::2wr444twqetewer00rr422223221:3223rw440r40wwew4rr42:24443:200024r04y2%",
"%2qetr40220302:11:5,5<>>>,5513:3:3::324232:5:3:315<,55:::3204404422tw:t012r4t432:4::2::3:124r40rettew4w40r23:22043::21233042:e3#",
"%2urr40000002:,,1,<<,55>,51:13::00:1:22211351:12111,530233:::340:1104,e:2w4421w410:23:,51220r0r2rwteer0r4231522200r000rerrte22<+",
"iryrewrw402311:155,<,55,1::333323233:32402:3:::<,::55,15511::32::::130:2::qr0r24r4r00r4443w4440w42242244r432131241231124eyqe2wri",
"%3eweerww34w2:13::::1,133333:::3::022330033:,1,:5,55,,131,,<113:13:342tp0wr0wwrr3ep*e0ewr<<0ryyw0t2rw4:001::3:r:42152r:wtre0tyr$",
"#2y4r02w4retrr02031,<3:1311111::32202322rwr21::3:1:33133:::0332ww241:332w30we=q,120we2::1:>>w*@per4tua2:yraep&=2<<re638,32tete1O",
"#1e33:2eeteww4r0155>>513323111:3115:3::1,:3:15::111123::22:3::2w4::33:334r30eee02220rwewwr223rw0435111,13wteqw3:1<,2>;<<100wwurs",
"*6:50:qe4qe0wue0r:30:131::,1<>113:33:2200023::155:1:5323:3::::3:313134:2:0t2r:34rrwwww4332:300w020231:5:::33:11>6>>>51533rq44w8=",
"o>2r12=33=2:ta:y053,0250510<53:44115405555:33:3w032:351,:11:,33221:2<22:00,3atqteyyw4w444034r2,1152003::3:32:1,555:1,<1044rwu*r+",
"#,1;96>yo.*.++=y0r4wqr0r0442w431,1331,5,1435>6>:05,75::290111,r1,37<0e12:2ewqte404eqw02223000433::::5>,51:113311,<>666,55332:r2$",
"&6:,1,12e4324rewer0r001<55,,<55<<,5::13040:5<6797;897<0r899d1wyu38;72q,7>;5:322rwr4432220403::13:1,:<>:303::315,<<,<>,63w:55:3;&",
"O1r220wwrr444r4020:131:020000423:34ee03204r423::022235:12:5::3:311132<13:11:4wtwr4ww4004rewr4004r2300324rr42:224w00032021<:rrq:+",
"@>351300w402:202351555<<,111<>><11135,,511:1<,5,<,<<<51,67;6555<<<<>>5<,5,51:0035:3::5511:::5,,<51:215,5133:,,:5<51,5,,<,1135:8*",
"fghjklzxxxkxhffjhjjjcfvbbhhvhhvvbbvvhhfjjhvvbhhjvggbbjhvbnnbvhvhjhjjjhvvjffcfxcfcjjjvhjfjcvbgvjvvhhjhjcckfvvvhjjvhjhvhhjjhvbvjvf",
"eyyuppptertytqtwwtytttttwwty=pqewttqtqyyqtewwee2t:+v1prr0:04rww42rwtqeeweweyty*aytqeertqqpywwrr40weteeweuq404eetqqqyupqtweetttqe",
",,5:2:1::22<:::151:323151513::113::<>155,>><>6>;19=m8:767998865<;;;>515,1,1><,1155>,5,,,:55<>6,<<>66>65511<6<5,,51:::31515,<<<,5",
"0404ww404we4024020222220wweqtrrr023133:11:3:1<5>0d*n8r,55::11:,551:34w0022244023::2204wr40302003,>>><,,,:::113:33:2r440222440202",
"20220:::3:5:::3::33320220r0230233::3333:15,115<;19=M837;666,15<6,5555,w:1:1511515r3,,5,11,:66,323,<>6<,<,115<<<,,,555551:113315:",
"33204:204ew003:323223204r402230www4023:55:31::1,0;*N70><<<5355:553:3551:3222:::::5,:32223423r2r40:55530023::11555,51202:111:11::",
"0004wrrwr23wr3:11:113:22323231:::23333330:33003149aN90><,6>,<,::::00:::3:55:33:153432::,5:51:15::31111,,5,551:22:151323:3:31131:",
"11334wwqw4200201::20223::3::115,513021:204400003w>&N8450315,1:3:320r44431:332:32:5<,,1::322:23:3:323:,5:111::113333::2:0r4440332",
"204reteeewe0:32::31:3232:52rr23:5132023:,5:30043r>&M6w<55123:40223440023024431221::1:22::3::3:443:323311,,1:115,51:222:323323233",
":304rwetteer24w40231:233:::232:5,5:2223111:151::r6*N74,:3::51223:333302244023303::::0r4311:003232:335>>:13:,1153:1551511:2:1:3::",
":244retrrw4r2043::32221551:::::1:11:3::22:,<5:1,46&M;r5::3:::3351:32200:3300:233033322:33330222:033333r2031:3513::15:551131,53::",
":33224e4rw40442:11<<,,,,515<,111:::04442:5><31<;08.B8r1:1:513::3233:24www0:34023::2:322:2320233402333:::33:30:11333200:5:5551:53",
"0000404wr4400rw02:15<>,,:235<,,,1,:230040221<<:1w5on72<,,51:31533:332rtererrwwr202223:1::20r443:30203044233:3355,<51::5,<<,51:30",
"244rqeew423003:30r43<<,5::15<5,1120420404025122:w,oB6r10403::::3204044rr0rrwwer40r4r442202:::4220044e03:3:3::551:5551::1:55,,513",
"304rwrer002:32r315<5:35<1:1<,1211132044432302001t,@n<r520r0::302:32rewwrr44rrrwwr40404030203:022220rr2r0331333403:1322:5,1::1:::",
"3::3320r442:55:4ww43,,132;20<4<05::,,51:4rrr04r4e,on<4,3:00231:2200440ww4400022233340423:0232322400200402311:330r224rr402003:3::",
"5320r0r020::23,>5t==.w21<>e0905:5355253:5552422,r6.n>r203:32:3351:30003244rr0:33332423220rr44444400222303::::30031:::022rwr0233:",
"1:30r4w4022:,<55>6>,0eq26;0<>05>1,:<1123333:1321w<.B;413323:113:::204rrr400033332233321130422444rr4r4022022220223040032230404402",
"3313weweewr235<51:311::33:5,<888d7,re2255515115<19aN74,:02115:23333332rw40232:322200302004400320044002203232r440220033:5533232:1",
"33444402000:555,>,552115<<,,<55>,511:,5:<1550221e<&n<w3332:2033:2:33240232023202044033:::00r0:3:224r04400040rrrww44r42:123303023",
"24:2rttw42::5<<<<:515,115,,13:,,,<>;;;76111512::r>Xn>4502:11:,1:3322ww02:1224r002404w44420044023200r440:322304tw0004044443034420",
"r2er03<5:5,<,><,,1333:11:223:551123555ew1133r0r3w5&b<w,231::3333:2200r040322020233044040rw4442200340w42:200204440204wtwr04000tr0",
"001qtq4<;976><>,<>,555,5::31515,,>9V98><5>,e,:2>y>+g62,:1351,:233:1::4:5113530040:,,,:35:ree:<1,,2,312:3153230223134444r:030r523",
"5rr2r4000300000rwwrwwrrrwrwwrerrrtq2<>>,:2e3eu44t3%j1y:rrw2ytpa:412tueeteqw040330tqytrwtqequye4t2wy:e1044rqeqqqerytrereewqu0r04X",
">655:<6;9997>>666><5<><<<<<<,<;798><131;97V>u26V76@iC,7e3161<555y:;1<;22<;dZA9>,511005>>01,<<<5<;9,V3>,r65965,559>1;;;3wV6;<1qr6",
"Xs%%+oX+O+@@o@o&&XoX+o@&o&&@XX.*==appa*@&=.&oO&=@qNlt@a.O%X@&&o+S$o..@&&@@..@@++%%OX+Oo@o%O+o@&**&==a*pXo**&&&*oop*%p.***@o+%@.&",
"bgbgbhvvgbvbbBnnnBBgnbbbgggnggvBNMBBMnnBnbgggBnbBbmmngbgBgbhvhhgnnghjhhhbgggBMMNMBnggBNMgnbggbnBNNBBBbDmBBBBBnMMMBBmMMBMnggnMBgb",
"<<,55,,,5:::5<,<1,>,,51,5,,5,,>;8dd9877787;66>>>;76;66<,51155<551:15:5,,>66;;>>6>7;>,5,5,<<,,,,6;>6:<rh;<8;;6<>6;7;>6;777>>><,,,",
"qqwetewetwttwetqqqwteeteeqyyqq4000224r3:2::032204wt4rrrrr4wttteqwweeupyupytteqyuwwe4rrwwtrettyewr43w0ax3w00r44024eewewr4rrr4rwee",
"3233322:33:::24031:::2232002423:155<,>;;6>><,,1:<<6>5323233:102103333311,31,03:3:11,5,<:,<:5131,,1<35ej>:<,555111:3:1333:,<,,122",
"44rr4wr442202402000rweweterer23040r035>;,5,,,51:::2311<11wterwer42224ww3w02e:4r3203r0303311:1>:212135eh,2:132:323334rw032002024r",
"224www033043334r32wr4044rewwr2330242:,,5555>6<<1040r4ewrter4rtttwrwwr0:455q01:trwt04e4243005:0r3>5<1,eh50:03111:2rtw4214w4044002",
"wr00404400:00401322wtqtwrwwwrww031332:>55153135300044e*uwweaperwr023:3q5rw:03r::454*05u23q4:440302:43ef:w404:3240320ruu:44r4242w",
"44w00r20325rw1wp.@@.uyqetewerw40003022e221,12215335,::5:20203:304w423t5re6u:w43y,we.5r03r:3423031021>yj53<>>1:<3wu:<2y.w013u:0r3",
"qr,351002q17reyourw1,5::30200rrr40:115533<61w43:3:1::1204404w05<7878<<ea5t47@r3*40e:02,22e04<w3>ew30t@b868<:tw5<4r10r1<2055:02:3",
"y:66;54&*,51rt055513rrwrew4rwr4433222515::1:30:1::156><,,<,2eqye2567>;r7157<w4<5122t4eqw:35,>3wtayu=rqj,3:1443223331:33:::51122e",
":::3:3:2::00032400r423230000wwwr4214t2r:355:321,:::56;8;:155>66<531<6;867;6;;966;>,52wur33:,::221:<21eh,252022::330223:204r0000:",
"223::3:11::::0::3320r44wwewewrqe00:1:4120:3510023311,15,,1::322:<6;<;;5<,<6511><,<51::3331::1::33:501qf:41:3:2023:35,1:3223:3322",
":::3:333:53:323330402204wr4rrte4432323wwre404w4001:113:34023,<,<><<<<<<<>6<111,55:330rr21322233:20205tf:44023:322:3200004444223:",
"23:33331:320rww04r40232rr44rwter0332:0rr0234we02:151555513115115,;><><><<,112r4020r440223244220040341tf2ute442322230r2224wr04402",
"4w420:1322313334:3:3324r4wteetr4231023w0rrr0222:15511<,,,5551555,,><<<<;6>,,:204003:10r02304rwrr00321yh3r33:3231:42211:324rrwew4",
"44rr042::32:3rr4040:5:2224rrwwr23244w4r0442231::322:155:11,5:515,11,1566,5155:33043:5:222400400322305wj2r224421223r4r4024wweqyte",
"rrrwe4r230:204422:::1:32:240442202040220rr023:13:::1:555,5,,1,5,,,111151303::211:32:::200002200rww241ej5rwwer2:232:3334rrewwtwwr",
"w4weweww02320233:r02220022332004r03:333300200333:231::1::511155,<>,,,,55:1:22rr2:1115:20020423244312,th541::::11:0020rtquuyqqqew",
"wwwyree200wwwe44230321:220202334423201,13:02320:3203:31:51323:5,,6,5,,5,,1322042:551:1120023332rr0:4:ev,433:302204wetttputwtqq4r",
"eqertwrr44rww4w004200:::1::5:20rr230032420030400231:03:320323,>,1::5,<><<51::11:33:5:1:33303024rrr0r1tj3w44000000rweqqwqtqtqte4r",
"wweeterrw4wrrrrerw4343:512:1<12025221244rr04403:1::3233323113204223::151511:2::2022::3:0042332wer0441tf:0:0r0004ttyyuqettwwwewrr",
"tetyettttqteeweteew0400rwrr32:2rweer2523303::2233:33224:320222333:2022:::3003::00023232200r444rewr041tj1r020204r4rwyyyttqyuyuyqt",
"25000:3r4r004200223:353:022051223320:5:151::151,<1:33:3::3,,<,111::155,<1:::31:1:111:51<,:2:3300323r,wf<2151:::::3440retqqye4etr",
"pyytyyepqupuq4tppqterrrw0e4.ewteuayqqtyywweeer4w0rwewwwrw44444404etetttqeww4tttqewtqwrr20rrwwqtteeeur=krt4rwrrwwettyuqyu=*.apuyy",
"335:1200422311;67<<<<><15,1<1,1,5,<5511,5<<5<77;6;666<1,15,:5,676;6<5111<6;>><>6687666<>;>>,,,,51350:tf<:;6<<>>6<,,1:223023:1:31",
"fxgnnBgmbjgljffxvNnSnnMmnMBBnvhgbgbbbhnbvvvggnBMnnNNMngbbvvbvjvbbbvvvvvvgBBMBBnnMMNNMMNNBnnBnnBMBnMvfhFmMngbnMngbbgBghgnbfxxxcff",
"#OOX@.a*.X%#$$iSG#**..*.qlX=Xo@oOOOoXXX+&+@@o...**==**&XoO%O%#OX+X@X&@++o@@@oo&.=**=..&&&.oXXo=..&@&o@a&**aa@$X*a=pupu.X#$iXOG%$",
"55555<6;<<<;7Vd76<>;679;9g07,6,5:315555,>>5<><66;;;76>11100w43:333:,<<55515,,>>>><;777;;66;<<>6;1:1,>:35<6;77>7787;;;6:02023<>;5",
"qtqqqe4r4444eue155>12,0q2zqrqeetwtqrwtwww444w4r04rwre0rr4qupuyuyqqetytuyetttewrrwerr00r4weewttewqwrrrt4r00422002000222rqtpapqeqt",
"2233::,5,,5>6<ee1><27;4,3ht12,1113555131:112<55111:::5515:22r4rr00304444200033351,55,511153041:2<::3:23521:161><,<6>,12442430r44",
"022::32:::02035wqee0,30u.FO11<5<>5,33202r4r430:5:220e32w4220rw4rr4eer2044rrrrrr2:15:3:3:325,24e42234r243:4:52551<11300:20rwreut4",
"4023230004444rr3300311:01fq:41111324w2te0w132124t43r24r0rtqwqeww400rwr44e44rrr4:3220423ww0ay2:3a3345:51254211te2:15,,:0rweewqqr0",
"23:3:1112224024w44402313,bw,04q3;,re4eq:t4133<4q:2203t5yu32rrw20012r4230wew4r4rq162e<uy3r;te,2:2<;3r104wq3w0t10;V98<:1:104wwrw23",
":1:23:113::2244w444044re2cq,:54t05,3q=w115y02553:333043ww300102u<2r6,51303:110tw:134rtq05:<<531><6:.*a==*qr,0;>,,:11,6:2222r2355",
"35:::1:3333330r0rw0422001hq2r311202:1:04102we25::51110r330e20rr0<5,<3wet43:34ty0244202322200222402003:1,1153:2:11<<6>6,32r404022",
"11::332400330rr4wwre4r0r1cq,030211:0222:2::::2:,::22322315553:315<,:11224r00r204::::::2:24224r23:11:1,13323:3155,,55,:5:042131::",
"335,<<:0440424rrr24ww43r5jq1r02:311:33302203:::3::33::111:23155::33200wrw44r44w022:1551:204222:13::221:3:3131::32:1:333:222:::1:",
"33:4w4040244rwew0003::135jw54202332002:::1331::555:111155,<51330232we432044eerr0333:1:24440423332240221:323111:3:13:00233:2232:3",
"300rw02:32044r0200443130,jy:433:33r033333313::333:151::3:5<5:::5120we0r30wwerr204::3104043:220211304222322515::23333202:::320023",
"0233320200w0324444w002342xy0r200233:133203::511:1:3::155,<,51331,1:2w4rr0rtr2rtq0:5515,110044123::33331:03:1:233:223002:11:13244",
"04rr422rwee04r03303r00023kt3w440::::::2:15,51555,>51:31,<;<<,51:513302322003231,140:31:3343003402::5113333:333:32wreww2:3133::00",
"0044040wr0043:4rrq4ew0:01ju14322031,>,,,55,5,<,11,5551,>,5,,,,>115:34r323322220042::1:21:,040435:1,:,><13535::120402203:33222332",
"320203:0wrr20244wrwwwr4r0xt2e202,>,5111111315<55<<5,:33:5<>55::15:3:251033::1,,>523340w2111,200e:111:3151::1,<:0:5:0rr4323132233",
"30r4403440wr002:2401:3525c=1eq:1qtpuer3:5,,,,5115,551315<<55<5:,<1322330:3::20tqq44242r2:w5005u2ee,0>20147e3<e5;66,:03323:333:::",
"13302r4rr00r0:>1::qe210e:vp5<t1qa25>6<:::::1::::55,<<,511,551::33322220wrwqa.@q2<,t,33,:<e;t1>w12q>w>3rt5>1<e4,55:5>110e43:44wr2",
":,1:0tye:3330paw1763,6136vwwtwr3,7<:3::333333:::115<511:151,530232400244:11:15<,><69>;<30=t3,6;,7>:5310:,5,,,1::232:13rwwr4wrte2",
"::1,:0ut022:14pq51>665,25vq>:><<120221>>><1:513335:153,555223r4442022400r4wr00ww01,5><<<0u=t413:23321110:5:51:15<513233::5332431",
"132200024002115::,5155,5;br53<6>>6,1115,<<<>>,::,,55,,,,,15::2:13:::11113033133:115<511:::::331:,5,51,,1:311,<<,55,>6;66;55,5::1",
"222rwwwwwrr40rw2::5,3312,jt:r1:::33200335,<>5:5::13:r42r022233313220wte4420w34r002:20rrwr444r3220:5133:2r02023:1,115::1515151233",
",,<<5,51::555555<<66,<6<7g0d;d;>5:,5111,6;;76>;6<1,<6>,>6<<>5<<,<>6>5:2::11333:31:332235,5515<5,5,3:135,1311:5<,>><>5<>>>779;;6<",
"qttqyqyyqqqyyytewtr442342xu2r20044rtqqqttqt44rweteeettt02r4rewwteweqytqtwewteyaqtqqtqewttqyqqqtwrtyqqtqtqtweeqqqe0r4ew03:::4ewet",
"jjvbhhfcfhvhhvjhhjvvhvvhjfvgggbgngbvhjffcjvvbhjjfvvhfxjccffhvvvjjfhjffffjfchHkjfjfcxcfjhccfhjcffcfjcfckxfjjhhfhgggvbbjvvgbvgnbhh",
"<<,55133:51,>>,,,,,,,,<65,<>6><>>>555:11,,11,5551115:201,135<55,,5,,1555:,w;no64,1:20355155,511,,51:11311:5,51313:,66;67;><<><<<",
"330r033422332:::2004422::1,:::::5:3322230444rrweeew4400244r00000004404042:e,v+1w:4wter033r000440022232444r224rrwwr40233332ww42:3",
">>>5,<,>6,<><<5551:::3:11<667;;>,55555:1115:2:15:1,11155:51351:,111:11:33:r>b&;41000222332:33::335555113:15,315<1:5,><<11340:25<",
"55,5,1:5155<><><,111555,<,,,,15<<,,<<<<1:242303233:3:,5,,515115,<1332:1:35r6B*72<124402::::3322232311,,:::31003033115,5,11<55::1",
":5,<10002203111:55<<,55,,<,,<>,5>,,<,,51:220rr44wew22:5,,<,5,,51:::::5::15w6B.74302220032004031113311::3155122332:::1,<513:3::31",
"<<5132211555,15555::15515,,>>>6>551:5155:2320444r422355,5,1:51:115,,::33:,4;B&>r142rwr0:3323::155113:3:151:0402321,55,><13::1:<<",
"222444023315<<<<,,55,532:55,<<>>><<>><5,5::320r4132:21,:51555<<5,11:32::5<4;n@>0,:3440232rr00:113::1:223:302224011:::151:11311:2",
"0rw40r:2:,,,5,,5,13:32222215,<>51:5,<>,5:02320040:133400221:13:3331,,:<12106B&;2>1223rereewr022:::300302333223300402040230::2:32",
"304r02221<<5:3333:20204r040::515,<<6<>6>,<12020r040432003:311:1151:00r4031w>v@1q:r0eretrew023332:33:::::11322000004r2:4332230333",
"320440115::1:32020300000r40403:11::5<511:3:2r0403023333:::3:130021,,,35<5>:<B+>:11r2er200ee20042:51,,5::::1130r03:20333332rr02r0",
"04wrr032:51344023:244rr00023202222113:22:2222r:223::3:3322222220wtyw3,53>dy;noV=3p0tqrq0et300r331241tr12:433222::3:3351:34422444",
"444rwwww4004r0023204wr4020w423::1>,1::303220weer41:404422004r4001:4quyye23qVbpd0;21e:03<03:qyr:23302r:24r:400r00:551:5,53440234r",
"rwrrwr0404wt44r00rwer400rr40443:1::::3:3220r4qrr4002051<51:42304r002:233w4u1N&7:1:00ew40:2044ww305>><203342023r003:5:31230rww0ww",
"rwrwwwr0224w44r4404rweew034r244413:4223312:10,=3w0ewrpttr4retw0:5:34r02221w;no1t0ewqeqqet4rw4023130w0,120<3r1q0224242551:204rttw",
"44040404r4r402004r24r23rtt42y2<q:6r625:<0,0,r,yu4.1w20w023:513wer40:2204w4t,B@5e3400reeew4tyyerr0,>5qp;::>q5e>::r4ee:wr00::0r444",
"wtr02441:224rer20204t=Xe:42:w3;5<0*405977;876,2.oOu6>8;6><,1111124r4002031t,v%3p440204wr20rwr0:1345>,qq15q:,w1.yq1y1;t2:3:51:rrr",
"w,5er0200:<<4r4wr0:134t4153r22r04e02,<>86>6>6>2rr311<:53333:2w42:3:343::33t<v#:q0rweweww0:30:,11513:3,:3103554uy5,<,15,12rq45t,e",
"r:ra020uy3,1210rew003:132r4wtr3515220356>><<6>;,:2221,,,,,5:1:224112323::1w;M@,q2rtquyuqew4003311:515:551:151>,,344404rr00wer003",
"4e31:3023:5,,5::11:22004400rr402303:::>><,:3<:,<11115:551:12r23:3222::3:35r6B.<w0eqpqytettrer441:24231::33:4323351::3233000:3220",
"21::32r032:24333333032004rtwetue23:::2r25<6,221,,1,5:1<5,<<,5,33:3::340::546B&<e34wewww300040rw4::23:,5555133:5:0222003023333:13",
"1::1:34232351:0002423204444w4r4042:::2335>6,2:,>5<<,,<><>>,13231,::55<33:507M&<urrqqtwwrweewwwr4204002:15,,,13:1::3202:421,5::3:",
",>,,,515555513:33::51:3304044ww431:15,,5,,>520r05<,>77666;;><<6889<<6<<,,629M*;2>13r4rr00:3rw40023::1,<,<5,,<515555515::151:15,,",
"0232230444044444440r4rewreettetqtw2003:24:324e22202:,,<,51::5><5:3::1,115,06no1t:0wwwtewwwewqyyuer44tw443324wr020224000000wwwr0r",
">>6>66><>;>66<><5,151002:330232:5<6><,1:1<><<55><>>;77987766;;;8d779dZ978Z>C pA5;><,:222:1:32200::,1:11,<>6<13035,,>>><<<5,5:1,<",
"&@@oXXXo@o@@@o@@&@@@o++Xo+#$##%OXX+X++%%O+X@X+OOXXo@oo@@@...***=...*==*&.a@ajGu&=@@oXXO+oo+OXO#O%+o+o+OX.&@X++XXooo@@@@o+OOOOXo&"
};
