/* XPM */
static char *planks_oak_s[] = {
/* columns rows colors chars-per-pixel */
"128 128 71 1 ",
"  c #680A00",
". c #780A00",
"X c #750A00",
"o c #730A00",
"O c #710A00",
"+ c #720A00",
"@ c #700A00",
"# c #6E0A00",
"$ c #6C0A00",
"% c #6B0A00",
"& c #6A0A00",
"* c #740A00",
"= c #770A00",
"- c #760A00",
"; c #6D0A00",
": c #6F0A00",
"> c #690A00",
", c #660A00",
"< c #8E0A00",
"1 c #880A00",
"2 c #8D0A00",
"3 c #8B0A00",
"4 c #8A0A00",
"5 c #870A00",
"6 c #850A00",
"7 c #840A00",
"8 c #830A00",
"9 c #860A00",
"0 c #890A00",
"q c #8C0A00",
"w c #810A00",
"e c #820A00",
"r c #8F0A00",
"t c #7F0A00",
"y c #800A00",
"u c #7D0A00",
"i c #7E0A00",
"p c #7C0A00",
"a c #7B0A00",
"s c #7A0A00",
"d c #640A00",
"f c #790A00",
"g c #580A00",
"h c #5D0A00",
"j c #5C0A00",
"k c #5E0A00",
"l c #5F0A00",
"z c #610A00",
"x c #600A00",
"c c #5B0A00",
"v c #590A00",
"b c #5A0A00",
"n c #550A00",
"m c #560A00",
"M c #520A00",
"N c #570A00",
"B c #510A00",
"V c #630A00",
"C c #530A00",
"Z c #540A00",
"A c #620A00",
"S c #910A00",
"D c #900A00",
"F c #650A00",
"G c #4E0A00",
"H c #930A00",
"J c #920A00",
"K c #670A00",
"L c #4F0A00",
"P c #490A00",
"I c white",
/* pixels */
" .XXoOO+@@#$%&%$#@+++O*++o+O+X=-*+O*=-X=$;--XX:;*+OO@>%@+*oo#>+***+@@O++O@@@+O@@#@o+$#++o+O+o*o*o@OOOO+O:@++OOoo+@OO+ooO:@O+XOX,",
"=<1233415167789055510044322qq31we04qrr<2ee11421941119te510111651100511599591097788798e110190010011151999599005550300015551400e3.",
"O9y7tu7eyyttipXXaw66799977691056ewwe656919776777wyipyeuuuieyye8e8weyttwttyye8yiusuuy87wyiiwe787ewyuuitytyweeeeewX-8915ei=s597u=d",
"X2517s7188yweyssw7959887876899501987901195513<114597eyew8689919e597696876986888776678799776787888eee86688695016yp99we99w77855e6%",
"O6y681688yytwtiee7788eyeeee6604310598e65198eyy79776756ywwe677965yy98we56ee667eew977509w7eew88768877ee6668wwwitye46u605e5156t8w0*",
":0758si7yee77uytye906e6ey79008yiiy7q3q244017toiqq35.o8515wu599as1sp56e.75wais76669q296677990q3097e8877877wwe81150f5q58X769u7199%",
":wi4et16aw15uw5195y*sw71qq4406886400516e88e88869167waw98tt.e04ep5ee1tsw857fww7667te97869103440598867777ew7568yy8666687=f989y665$",
"+1w578891967wey767wutwe8776595101576687655597yw9666697676767wii7e779ei679758887887yy87768e99567ee7e8886668e8ey8679197e7777755w0X",
"+36057ee76787e8eew8105667ee879e866597797e88weee8eewww8yy58ttiuptw86w86e88wuiitwywew8e99ee8976687777578wit697e887wpaw519w88wuwp8$",
"O25410159eepu59977euw6991510431158yyyw6687eyee919555518u876uyw999tfw8615eft8878eee791q<46888767688875957wf.71515iue9155569wp8ie%",
"@9e6e887e79779196euate9511000349tpfputwe86997p*ayw791040555we8eywwst89987we7888e695003qq1669155967py96etwuwe8e8875196866tupytpw:",
"@5e599786797776779797696979515788678tttuiiywey=-aatyy8ee65678w886598yytyywytttwwe76661068e887778878yiypt87e877955995169688887w1:",
"+1e9886788e7866967ee7767666wyw877wiiyyw88weew815677697519905958teeyee8ewwwe8ee87543q3167759995597ytuyw69679577969976556766667y9@",
"O5e9667678e8887667966867eeiiy79678wyw7eyww7997e69919116666788766888w8788eewyyywwww7777687609943198yyy8ee87e768896997996786599w5@",
"+0e66ee688667ew667669668ee9887788y8e78yew8eewe767685971667995986568wwee968yywye776114ys779y717u69yi8ww8yeew8e756878688we657e589o",
"*qsi965511141995966919967yf66iu8y87yt9wpe8ew8e8ee69we8e507.1q49sXe97wt577699968w879797yy88y679w67.t5ie5iy5yie7t77w4pt9p66pi70-7X",
"+087we69966677e88e678ww76et697t59y99iw5eu85u5yt5w856p39507867e8y8678we8ywwytywytiyewe89566588w8798yewy77y68e55y96e1876e88ite8t5@",
"O5y7768wye78ewwwwyeye7e7776776976uetwwyew8eye87677855516e876787ewe876678we668778769005778iy107t5=w6i7wpwywee70466165011978ee6e0+",
"#9w7e8888767eewyywi89ee777we88797eiite878tiyw88e7611198e888eeeyytww87wytyeyye79799wyaay799*7qa77uiuit5ytytwwwi86505510557wtweu7;",
";7t8yyywe87yweetww77w886687e87e87ytuptewywtiut77691515157wewetiiptytupppwyyupitw8e69e7*y15iw907eee68u.yyipiwwpwe65000405158eei7#",
":581996997yw8968yutyey8887eeee9wutiy7iteepiuweu89577657897878eyyttyitywtiusptw8w6au195wau9ywtf015pXuyyittiwtwtie85553096w8979y8&",
"@3858e8877699559wf$+ie550iy186.s7weyst87pe79ts7e7p807s8w8yywewtyitiiiiiiwytyeweyi=y14008y507+@7609yaf-i5ewwi=wwyu-i3007esy466t7&",
"@5w97667767ewyyw8568wwtp6iw950pfi877=u8yyye9wa642ey798iutywwwytiiytiiiweyiiiipste1396it641.%X711668wtt9yeyw8itipe69wwips65769u5O",
"+0ieyyiiye77eyitwtew857tuwwewwe7pspu7a=fstytptyty7itfp1titutytyttuasauai.sipuiw86yafy605p-Of5698w.Op7iOpt8wwf-iw9tXpaiuttpww6w0o",
".<e8tiye640996543318-71048a5077-617ff164a1q06=84y=006Xu996sf78wewyyei=siwe8665wie512<q9uw5<<34465of57yf77q8aw71q9a7479117fue19r.",
"ghjkklzxxlhjcvgvbbbjjjhcvvjjjjcnmvbvbbbbvcbbcmvccncjjvMjjcvNjjccvvbbvMBkkhcbbbvkzVxlkkMCjccbjhhjbvCZgjhggNjhcvkxkjgchbvcjhvvbvbm",
"iauuupapuuuupaaaapuptytyppfausfassf-X=fs.=fppuaa-8;bis8if-fppsff..aaaa-XX.aaaafaapityittaapps.=-=.pps..a.=fppuuasaappiuiuappupsp",
"65011550059956677765995001104098ewww887158859565w0oA<w88ewyw888eye76977ewtt81041999999651011406wwwyyiw65075406667961059699998e87",
"wwe666959877yiuaityywwee7556wytuspttytywyppw87e7p9:k1u6yyw7wwyiytyyw87ewe88e76e8ww8yweyttwyyteyppptyywuf#:f7667wwwwwyitwe8wyttw8",
"6755115510997668w77795110491196e8e65776ew8799114e4+x3w168wtute8ew88799969671711777596966556e87wis*s996ysuy7777776799666597877776",
"87666555956ewtiiyy8677699559967778w89eiw8e887wy6y4Xz4i58wwiuuieee78iee8tiwwywe8686677887eewiitttpiwtutpw689we8e60567eee866w8878e",
"99955104056e78e88778we89159778679569ee9tt17eietetq-z3t7ww8767ey899917e87698wewwe779578iiweeeyiiyautt88wyiee866w67888e796ww887879",
"99w9997si69667699579550156ee86ep5198ue8e7597w6eep2=l0y7us98wwy5ww09899ewp816878887915511159w%Op866e6ss0ii5yw4tw4w859e958f=i6015t",
"5966957ywee7866978eeee996778795096eyee7555995779y4oVqy7ye77www7we568916eat677888887651598889yputw978eyw8iw7e96e69965978868wwe969",
"87667959687eee86eee87910987778666566eywye9696995w0+x4t97e8888etwe87697e87ee7ewyytyyww89668w8958es8wy88eyee86595676eewye97e668e87",
"76676996665699778e8887699967611596wpiy8667e65669i1Ok9u5e88e69678e888999888668w8eywyiut88ytiwweyyeewwyyeweew8598788787895519156ww",
"6767e869688wau7879959955555955155568e89968w79686t4+A3y98e8766687955596779977697ww888e88878ew87688ewe77weewwe8888ee86775115115166",
"76997787777etpw8699019787767665997ie678879115965w5Ozqy98795557e777676786751968e867e6788e876w86677ee887ewe76777e6788753056996768e",
"89678e791155598e8e887777787776566eyeyyw877e7995473oAqw067697wy687888611555566667ee7888e76788855698wew7ewww868wwwe8765056876788wy",
"67eewe867676eeeee8778eee8uuw91578yy7788w91040561e4*A4i7e79667799695569155555900559997790011101111687888866666878e769667999576889",
"598ytwe86995019676996698wyw66eyyeee66e8755977769w4+l4ie76861957w7165515199955976150440433400568779887895576695559650009144400679",
"968ye8e87877609777778876799597weee7ee86696777675w5od4p6ew8y818y86651591911504q36870115542367ttwewweyiyw8969668876999767768879877",
"697w8w868ww78e8888e778889669968e86e78twe87988769a1Xg78y88i918e1qs63qw73eqqqq<6t1956uw81456ee67y8wy86et996678e8879997865667656767",
"6ewiwwwwwe889588wy88699899851966wywyww87e76565=a72=x4aewwte58910y741979979243f-243p6057y05915w7677wwee19788791197999679979977699",
"yw868tewt686af1558w68wt11656817773305500101059a-.5*dSw8766888we6777e19955695987976e8w9ew679167676667866669577686714996501955678e",
"is89stuytt57i.0918u3017*t17y6096@p6e511115595510i9:k1w188879866967799155788e88e788776659ywe898eytyttyw8876599967yp6100i130017i98",
"wpywtyyw8eyi75eewi7899ete6y667wwp60517eyiwwwe789w3XA3y07776777999e677ew658eyweewww86957699768e778etityweeee899677ewe8ee6887e6616",
"6787786767118w961091666199099976168wy89875115590t1+z<84511011511968555591514951967790043119691557866e779790159788766559999976955",
"p.fsputyy8yytutyyye7yewyuywe6euuapitetwwy8yuppptf6#h9aytw8yuityetiutiyywtywiiuutiti8weeww8tyyytttiufssyiywiiuttwwitttisptuappiyt",
"69501501555095151432400433<q441040005997544051036S.VD841091090055551110154044433q34q4014443q33444059597et614w05ut2rrD<<771165115",
"**OFV;@++o**ooooo+OO+o*XX***XX+Ooo+OOOOooO:+OOOX@fFNf+=o++O:+O++O+OO*o+:##:++@+X---X*XXX--*o*+*XX*: $@=+#$@+o:+o%Opsaf=*o +$@X*o",
"zzlhhlllzzxxxxAVVVzzjjdzAddAzzAzjlAkhllkklkjjzVjjx,dljjzzjkAkljgcckkjklllkkjjhkkkhklxxzzxxzzAzAAzlhbhbGxbhjklllAzxAAldlzxclxAAzx",
"440055561009511440355a723D<2q432rD2q6a1rq74qq14<qepr2<i9r2w5rqSt71651101001015511001404043q<q33306960ic4615104q34q40104110410511",
"iiputttiittytttiittpppttuiitewwyius.apwweuweeua7ets8yui8yyafetwX=pfuuasspiiupittweyytiitwyytttiiupufp*myuiiiytuiuuusuyityitytyti",
"77669666915977678665965959555559ety8887559678718e91686976e66w789678778876959777769677e7669555556788y8fc075997e87867yywew79969955",
"886788ew777887e8778wwywewww888ee888ywywye8878ee696eyy888tttywwwytyw796777778eweew88wwyyy8891118wiuwu8sb6t8ww886e88eettiiyttyyw88",
"eew88we67678eeye7888eeww88888wytpapueeyyyttiiw5tyyewee78wweewwy8eee87786888eee7e7677878888we897yyiyu6pbeu8yywy7678eytwyyyyyy8888",
"7788eew88667wwipt8878wupyy88eeyyiutywewewyywytep79ii888e88wwww8ewtye78ee887e8eeewee778e888ee88878e8y7sb5w8yyty7e88wwwyttttyye878",
"ee8888786968e8yuiwee8ew8ytyty8wewtty8ettwe77wty787fu77766678eee8e77wy8e8888wwewwweee88w8wwewe767et8y9ub6e7ewwwew8wittweytwyw778w",
"878eee86e868wytupiyw87ye8wwtywyyyiyewwwe8e867e8e879676w68776968we7ewe678wye888e8886877eewtywe669669e6ac6w7e8666wyytttyyyyeeeeww6",
"895555677787ettyywwywyyyy8ewewtyew96959699688e88e8e88e7788ee877957878888596678w877778eee8868e88e8wei6ih9y566996wywwwyiyytwe8wtw7",
"9914166776878wwwwwwwwe87ewyyw888588997757888676ewe8ew76911114q051979777wywyyiww57e98998879999678tiyi7sc589ww776877eytwtwwe787777",
"66967968ewewwweywyyewiutw768ee959598765178769956959578wiie66996799696e79045977w759titt10046968yw458w6ab8i8981119767wwyyw87766766",
"ewe655997yttttywe8we87001789100339861111561097ty7e7ety8ee7955515688ewu-*-e10144956e98-:73q2q236uOi5w0wl2568e8tu878688867866ew788",
"56555177etiuppuiw776149888913221..e42qq<q433y=.p8wwwwtiyw88999157wwe88e7yw666e715617yiw0q43318ywy65e4tkq5009tai9344099976968ee65",
"ee8yitwwewte777765104tu913q43435u968e8915999510159788etuuye88ye7914978ee86e8888y17y6713519699615567e6pj9y77888666ewye98878666696",
"aX=ue1q0009566777996wa655595000q205110001691434596ewee75569555961888wweyiwewyyi91167959666995567yywy9ib8e6668ey8778878wywe76667t",
"568yyyyyeew8778776987ewe75104005919794405959500511977eeewe88e776097eywttwewweww879115996e68887778e8y5ih9y8876666777788etwweeytt8",
"ww88ew8yasaayyytte8959599651434441559551576595959515688ee87677787ee8ewwtppiw8ww86599999966976568788t7uh1e6ee686969987wyeyw8eywyw",
"upteeeeytitywiiuie86777ee8666904000111599551669657887888888e88eewwytttityttweytwe911967765161097ww8y7pc9w78e776775788877wywye8wy",
"iy88ywyy887yytuuie766668959551514040115555967wy79997w79788ee8766eiiytwytweewe7ew8869667915111597we7w6sb8y677wtwe6677ewitwtytwyyy",
"iyt8eye8667yiiityytw8776966100047959696967777e88877886778778878wyyy88te7668ytw77968877767777678ywwew7abet777788666678e7eywywyyyi",
"iyweeeytyytiytttwwyw776788ee8765y7167e677668eeeeeytiy8606677ewwiaptyewywwtitttwywwy8e68878676677787e6ac6y8eweee77876788wwtisssau",
"ee6666788eewwe8ee8777515543qqqq2<34q44305678889965318878w8w76yue861566667ee88e88875013345899915041581pj171515991044577ewttwtuiyw",
"puuityyitttiptytwytiiywe716ww78yuuuppuapauiutiyeewew77ew8e8wttiapiiiiua=saauiiiute877766ettyyywwwyyuy.Nypitf=utyiapue877wtuuppui",
"3q222<qq<<rr<<DrDDDrqq320ys*o.sue12r<22qqq2r<r<rr<r<q67969010511100004440q233433q2rDSHJSr2<22q4314071icq1q4322231965q2224q340101",
"xxxzzzAzAVAVVAAAVVAVFF,FFKVzlhkjhkkklxxzVAdVAVddF,,lgngcchhjhlxAdVdVAVdVAAzzzxzzAdFK  ,dVF,dFFdVAzlckvLVxzzVAAAVVF,K,VAzxlzxllll",
"+++oX*OOo++O:o=.Xoo+#&#+XZ:-O=XX-*Xooo@$#@o=XX*---=.assf=X--XXoooO:;#O+oOoXoOoX*oX-XX+++oX-===s.X+::#@X:@@@+*+o*+**X---Xoo**o+O@",
"44401433335435502313r45w0kw39099555911995079595004q341144q313JS24025600430554010942q0550qq49022q30596950qq33404q222<q3q3323142q4",
"7eae7aitt86.awup=88ii6eiaMa7y8tuapppppppuuyupuittupf=pe908p596fw77afeeat6uXuyeXf886==we766p=iiyyyywwtupfffsptw8eyyau8tiiyyy8sp16",
"416196wy401aw178t159w66y9ct1e7ee8e876799897776596tsst4qq<fa43r07627i909795199519879119550550969696669777w86613398eieq4037y16u940",
"e8w8we7ey8e8eiau8wai657i1cp7i77e8yywyyytittte776877wwew6697tww66wa77w9667e86678we799988888wwe7686eyeew86y88899677111556yteyy7e8w",
"ttww8wyte88etyett795w=u79cp7y8888wyttywewytti8eyee7516eity535efy79896ewyweeee87888w88888ee86677677ewwe8wtttyw87e87e6141048w8yyti",
"atweyyyw99919699059euayw7vs8w977ewyttyyetuaaupyw769965w68tw.wyts@#fe79967877787769968teeeweee95667eyyyw8wytiite895315096668weypu",
"wtwee659667eeeeytite866w6bp9w98eewyyyuitpaipiute869519eyi79y6wuta.ue955995155105euuieewpiweew8teeiiuyiiityeyee76966510676wyw7eew",
"6998e878euiitwwyuuyyyyet6cp6w8878yttyyytweeyiyye69667ewt878687eye678ee7659111558a+&;-i79068wfuweiutyyitwtyetitiy77e8w888778isi86",
"88yttyee8e8wwtywyweweeyp8gf8iwytiiitw8ytywewtty857788eeewywweytttufitiuye87799503q9iiwwyy87yufutttuuiywiiywwttit8e68ywwtttypt766",
"67ytyww878ewwetyytyyewwuwNs7twyywyttwiuiye78tuie78tywwey7167wewe78yyuw98ewewtiaie877919et=u968f.fsutyiiutwyyiye88eyweyeweee766e6",
"8wwe77867788wyyewywwe87y8bs8w8wtttyiiuiyiywyiapy8e77tyww8w777wye8yt7wuy815877yttyewe8w71w.711108ia=pipiww68ewywe8ewwyttieeewye78",
"e8eww6969696888yw978879w6cs7wetiitttuutyiywwtiyeettw96e89196856etwwpy8etffpsawwui76t55w0u=18568ewyustyyeye8767678w7968w87ytiyeye",
"8w87ewe6687868766767e86e9cp7e68wyyuiupyetutywiite8wea896tf495fy0ap5wow91f#8y*oy6ii6pw759188778yttt88eyy78887667688766966eyeewee8",
"te66w88we988e77wy96ee8981jp988iaptuup=o*yw8567es7989sy15ep169=t5t818iwwe-75607818ye678yee67e68wywyyww8796we77e88ewe659666669677w",
"668767w89y599euy6ui75045yC*s*-pitiyipaauwytee867yauie9787977810pa6ey79678e87896777ete87788w8768yiitwye768ww8677ewe86559565588ew8",
"ee761194py203.w96fawe5063ly4798yyiiewyitupywe8ewe8778878ew776678ew7795866695555786578ywt698w7668w8eeyiyttywee777578ee7659887e8yw",
"7w59509976966ety896876570kt5897777ee8etiywetywtyewee888765ewfy5p86y88868w6e769ty8655598ye6wi78768ewyti.y88wa777ew406f89881e9y8ww",
"75977e859699978877699905qlt1e676659978eyeeweeyit65357wty8e966w8w89876ee8788ywywe88e7etiwewyyyte8ywywwwwee8ep77766668699966666e61",
"99155195976e87667967ew963kt58599577eyyuie6ewtpaaapuye87tt6wpwwe877966978e7etuiww88868wwyeweyyeyewwywwwyiwtw987776777869959555596",
"95559666677eeee878e78e154ly1e96e7097877675t=eeyuffay8791968wwwe889777e7eyywewye766766687ywwtiyyyyyiwyywee67619678951597876665111",
"1555504119976555766950402bt31356ep5400978e8929641019695669599676789168e78w767778ye8877966887we8887ew8we8e888w8659676561445559950",
"yye8766968777888tyyie9597nu19q17sf658ye7tauieuteswyw86697e87wwwytiiww76www8eeaputewwtiytttyyw87wwyetetwytyewiupiy7578wewiytiweew",
"155969119676666w504e1qqy4Aw<32qayD328022yy91q6i79q10300ii8876995595895890043158tfsyye6966y867781498697t56e76788wye64q335ifw00490",
"piiiiufappapuauXXtypu7w.tC+sfyewassuyasaispuip.usautwyes+.aiyyiuppti.-=aiywiyiffo#@*auiuu+.et7*=8ypawui*paX.usspaia-s7977u.X=pfs",
"gbvvvgvjhbcnvjbbgvbhbvbbbjhhbjlkxkbjhkjbbhjhcjkhjvgjccbkkcjjccbgnNNNvklhhkjxNclhllhhbgvbgbcgbhhkhvnvkljNhhcPjkknBhzkMAxzhkcgNggN",
"667wyye776ewye8e7698878765677695599149771994009005767797910009656699886991wrz-D64688695405100011559166w114t.07yt10185D<rq8601786",
"ititiiuuiite7eiuutweww78weyeewywyiw88ewtwwyyuuyiuuutye89988768ewwe88tywee6i4A*4y16555765501677888ewtyy597ww9w8weewy98tiy766wttww",
"88yteeyyity88e68w8ee6777799599967665667e778778eeyiituuauwee619767901415954wDdfSy986e951330568778ee88e750067e78ee6776e8wy7ee77yye",
"97etetuwe8eewiwytyttwe78878867e8777968e7677wewttpiyyyw8e86669694411059511183A-3w6tipwe6957we8eywyyyyeyeewww8wwyyyeewewwwee87ey77",
"eywyytywyuee88ttiiwwwe896e869697886776667ee8wwwyttttyye776655995969876w049*DKprw9eyiyy6056865668wytutwe8wyeeweewtw88ey88e777ee87",
"ewyywyutyyiyty7witywee8678866688887eew89e8887eyey8wy878775988e795777878e83i6x*3y8iasapaiytweew888eewiitye88ewtttw788995197656eyw",
"ey97iuyyys7667-uew5is78aw67968e88eewe517wwttt798wi88wtw7wee05877eeee90y937wrF$otey658w6wtwee8eytytuuywyiiuuww87ye145769wy869eew8",
"8t85ifwew*e877pae87epwe80443p@*aiiis.fy699576fp091.i58.997f.504qyiqtu99feqa5A=s.1e67t897e8weeewyeeywtttwy86e6pp6589sw2ap163peq61",
"wety8yww67ieyw67ytw86677867767wwwyia.*u591576ff78etyyw79955se978we69e58stqy9dosp5wau8yutuyewwwe8wttiiiyewee77y-s989ws6wwew98weew",
"www8ye77ew78ewttywe68678e7e8796767789116wywww66yyieeywty8etew889109eiw.845-<,@styyasuee8wewyee8eeweytttttttwyeypate8yptttwwe8yw7",
"w8yee8ewwww7ytyyy8899677699596e8eeeewwwewe88ee87w8ee7yy7978yweewaff.ie69tyiqlVww0597yupttywewwew8eyyweeyiuuttyywtyyyywuueywy8wit",
"yeettwwteiiuittyyw7ee66688we791687w88e78e86788yw867ee86eytutttwyiw81q00y+6yqz>pXapy86668ewiy7e8eweewiuutwtyytyttw9978w8yyw8etyew",
"ewwpatwwwtttiuiitititw87896778weeywyi8ewweyyye59ewe68tuppaie86991056e877e8i0l+5swityw868998955151588eewtutw8wyeeuuwee888ee7eew7e",
"ewytitwttytiiuuttywywe88e776ww977ya=u-u969588t.51158ttweeywuityiuiuppitw89i9h;9i7e8eee8888695765677yte86977wee8778wewyyweeewewww",
"ityywtyytttuuutweeeywe888777-s775117so54341tit.95ewy8wtuuwweee8e87897we8w6t0x*1i7eww8796699953498wy6567tw8t6496ee8159978tw8ewe8w",
"ywyeeyy8eeeee8ewywewewew888yu79159t+s8110y.w66qwue78.teeeey67901eip..utwe6t3x@9swwwyeey951096664067Ot051696=7340et+84597688wyyty",
"78867787566787wew8888ee788ee887886tw077w6itq957X1q17aft6911507a766i#ot14427rd-qe1ets:*y176005si4977i134q3eu.w34034.568wwtw8ewe87",
"78887e866567eeee7878ewwwe867w8887e66w7wwe88eew78678797aXo-u868w144320f.e80w4lO1p6ytw900786669q219685016wusi015015eeee87888w77678",
"777876e8666977eeee878e8w8768978eeee867wyyye7788777eew878wwie866wsue8959696t3xO5uyiywwwy869566ee6968wyte69598w89966877eeeeyte6966",
"669wytw8699wy7etywwe87667e7776e6976966e819966eee969967t6e611677ww968899955i5h@9u1578866wwtyw76056914341198w786996ewyewwe8787e877",
"66788978e895etapy8778et76w7ee788978998eey7667179e5y7670w90y54775ea916u659ytSAX5.--sppsspteyw79665044686877665996876tiue54018t686",
"8p104i80099a=iy799566999iii-.ui61575q445w0315051e1tue856597945159850971115wqzo5ptuyiuff=u794138p10268<123460283ey97879s177570181",
"eue77iytywta.ppuityiiiyytttew8967ye76788878e8w8ywwewywtwe878797ee8e788eew5i5l@8seyyyw88wye787659yt8ii98777e7666eytwe66tewe1w8yt6",
"105153419969688795669950444110333044q3q359110500405559510440q<22q10444301q6rA*4w57766we71q044013255355400010q3315343510110445911",
"*+o+*oO+O@;$%$#;@O::@Oooooo*X**oO+***XXXX*-Xo@@O*o@:::@@::OOoXXXX*o:OOOo+o$+N,o%+OOO++oXXo++**XXo++@oo+*oO+O+++oO+OO+OO+O+ooo++o"
};
