/* XPM */
static char *planks_spruce[] = {
/* columns rows colors chars-per-pixel */
"128 128 20 1 ",
"  c #251F1C",
". c #26201E",
"X c #29221F",
"o c #272220",
"O c #2B2421",
"+ c #2F2824",
"@ c #302723",
"# c #332A26",
"$ c #352D29",
"% c #392F2A",
"& c #37302C",
"* c #3C332E",
"= c #3E3531",
"- c #41342E",
"; c #413631",
": c #443934",
"> c #483C36",
", c #463D38",
"< c #493D38",
"1 c #4D413B",
/* pixels */
"@*&&&%$%$$########$$$###$%$#$$$#$$$$@@$#####$#$$#$$#$$$$$$$$$$&&$&$$&$$#$#&$$$$$$&$$$#####$$$##&##$###########$$$&$&$$&*&%%%%%$@",
"%,;>>>>>::;;;:;;;;-:::::--:::::>,,,::,::;;;;;;==;==&======;;;;===;=;=;==========;=================;:=::=::,,:,:=:==:,::::::,<,<$",
"$>;:;>=;;;;;-;:*--:-:-;;-**%%%*%**=;;;-*==;;========;==*==;==========;============;;==;=======*=====;;====*=&*&&*&*=;*==,>1>:%:#",
"&,;;=;;;**=====::::::::::::->-::;;==;;;;;;;;;;;;;;:::;=;;=;===:=;;======;:====;=;;====;======:=;,=::=::,::===:::=::=:,,,11>:=-,&",
"$;*;==;=***%%*%=***;=:;==-;**;;;;*;;;;;;;;;;=;-;=;--=;*=*--*****==********=*=*====%%;*=%==*======;::=::::::::::;==*=====&===:=;$",
"$>=;:;:;;;;:;;;****-;;;:;::;;:;;;-*=****==*=**=;****&******===*=****=*************==%&==***===*==;====;;:===;=:==*****&*=*;%;%;$",
"$>;;-;*;-;-;;;*%*&&%%*;;:;;::::::;;;=*=*==**;*;********=-*****;====******==*-;=====*;==;===:=;=:========::::::,===========;;:;:&",
"$;;;**=*=;*;******---*;-;----;;;;;;;;:;===;=;*==-******&***%**%***********======*=;;;=;:===::;:::===,=:==:=======:=::=:==;;;:;:$",
"*>;>;;**;*;-==;;-::;;;;:::;:;:::::;==;=:;:::::::;;*=*;;;;=-=-;*-;;;;;-*==;;;-;;;;::=:::==:=;=::,,,:::,::,,:::,::,,,:,:,::::,,:,$",
"$>;;;;;;;;;;;;;;::::;::::;::::::,===*;=;::::::,::;;;;;;;;;;;;;;;:::;==;;;;:;;:;:::;;:========;;=::::::::,::=:=;::,:::::::::::;:$",
"$;*;;*;=-;::;:;>:::::::::::::;:::;;:;=:::::,::=:::;;;:;;;;;;;;;-;:;;=;;;,:::,:::::::,=:=::;====;=::=,==:::==;;==:::::=;;;;:;;-;$",
"$;*=====*;::>:;,::::;==:::***-*-=;::;::::;:;:=;=;;::;;;;;;;;;;;;;;;==*==;:::::::,:::::,:,::======:========:=::==;;;;;;;;===-;::$",
"$:;;=;;;;;;>;>;:::::::,,,,:,>>>:,,,,,,,,:==;=;;;;;;;;;;;*-;--;;,:;:-**--;;-;;;;;;--:;::;::;;;;;::::;:=::::::::::::;::=:=;=;:,:1%",
"#>;;===;;-==;=;;--;;:,::::=:;>::::==;===;;;;===;*;;=**********-;---*****-%*%****&*%***=*=****;;;====;====;====::;;;;==;=;;;;:;:$",
"%:===;======***&*=:;================;======::==;;=;=-===***&**********%*%**=*;*****-**&**&&**&&*=***=====&==============;;;=;;:$",
"%,=,;;;:>;::;===*=;==:,,,,:,,=:::=::,::,,,=:,:=;;;;=;;:==;*=;*;*;;-;-;-****=-;*--;=***===*====;==:::=:===========,=:,=,,===:::<$",
"$:=::====:::>;;=;=::::::;:==;;;==**==:====:=;==;;===;;;=*;***;==**;*--*****-***********=*=*--;;;==*==;=;=;:=;:=;,=====:;==:=,:,$",
"&,====,,::::;;;=::;:,,,,>>>;,,>>=:=::::::=:==;;;;;=;===;;:;;;-*********;-*-**-***-****-*;;:;;;*=;=::=:;;=:===:,,:,,:=:::::=:==,$",
"$:=:=:,=::::,,,,>,::,:,,=,>,,:::,::==:=::===;;====;::=;=;;==;;;:::::::;;;;;=;;;;;;;::;=*==;;-;=:,1,,==;*==;==:;=:=:=,=======:=:$",
"&==,=:==:=:==;:::=:;=:==;===========:===;:===&==*****=*=;**;=;;;-*===-;;;;;;;;;=;;;;=*;;;----*;:::::;:;:,=::::::::::=:::::,===:$",
"&=======================,=::::::::::,=;;;=*=======;=*===*;;*;;;*;;;-=;-;;;;;;;;;;;;;;;;*--***-;;:;:;;;;-;;;;;;;-;=;;;;=;;-%;=*=$",
"#===========;;;==========,======,,,:,:=-;=;;;;=;===;;;;;:;;;;;-;;;;-;;;;;=-*****--******-;;::::;;;-:>,:>:,::,,:::::::::::,,,1,:#",
"$,=,======:==:;;======================;;=;====;;;=:==;=;;:;:;;;;==**==;;;;;;;;=**;;=;:;;;:;;;;==;;;:::,,:,:>=,,:,:,::::,::,:::,$",
"#:=========:=**=:==========;====%=%&==%-=*=*%=***=**-*******-**-*====****==****=-**---;--%-****=-;---%-%-%--=**=-%%;-%*%%%%%;$;#",
"$=====::;>=>>;:;;:::::;;==;;>>;;::::::::;;;;;;;:;;-;;--;;;;;:;:;-;;;--;----;;;::;;;=;;-;;;;::=:;=:::::::,,:::,::,:::::==:;;=:::$",
"ooooooooooX.XoXOo    o  oo X  .  o  XXooXXo XXooooX o  o     o  .. oo.oo.ooo.o    o ooo ooooooooooooooooooooooooooooooooooooooo ",
"===*===%=*===****=-*=*=*===*;-;;;-*=-%-%-%**-**=&;#o-%-%*%*&&&%***********%%&*&*&&&*&&*&*&*&=*==-;*=*=;%&&&&&===**=*%*&*%&%=*===",
",,=,;:;;;;=::;;;;;;;;;===:=;-;;;:;;;--;;;--;--;:-;$X:-;;*;*;;;;;-;-*====**===*==;===;=;=;=;;=========:=:,=::=======:====;;===:=:",
"==;==:::;==::;:;;=;;====;===;;;>;;;:::::;;;::::,;,$O,;::;:;;;=;;;;==;;=;;;=:==========;;;;=;==:=========:========;;=====*======*",
"=:::=============**=*==*=======*=====&==-;=;====*:$o;*;;=========;===::=;====:::=:::=:::;;::::=:,=,==,,,::::,:,::,::,,=,::,=::::",
"**&&&&=&=***=*=*****====*%***=***=**&*&*********&;#o;**&*&&=*&&==******===***&*&&&&&&&*&&&&&&****&**=*=*=&======*=====*==***====",
"===;;====;==;=;========;=;;=====:;;;;;;;==;*=*;**:$o;&;;==;==;;;===;==;::;=;=:=;:;;;:;;;;;:;=:===:=;=====*=:=====***============",
":====================*==========;;=============;*;#o=*=====&============================&===:=============&=&=&==========:=====,",
"=======****==&=&***&&***&*=&**===&*=**&=&***&=&=*;#o=&****===*===******===&===&=&==&&=&===========&==&&=========&==&&**&&=======",
"===========:====:;;;:::==::=;;;;;;;;----;=;*-*;:-:$O,;;;;;:::;;::;:::=:;=========:=,===:=:,=,=,=,=::=,:=:=:===:======,=:;:===,==",
"=,=::=;======&&=**=************%%*&&****=*******%-$X:*;;=;;;==;;===============*&================*================,=:====;=:===,",
"===&&*&**=**=*****&*$*&***&&=**%*%*&*%**%*%%&&%%$-@ -$*&&*&**&&****&%%=%&**&%%=%=&=====%==&=****=%**&=&=**&*****==*&&*&%=%=%==&=",
"===::;:=========::==;*===****===---**-*=;*-*-*--*;$o;&;=*-;::;;;;:==;=;=============;:======-;==========;*=-***=================",
"=====:=====:===:========**==&&*&**&&&*****&*&=-;*:$o;&=*===&**=============***%-=%=*%%%%%-&%%**%&*%**&==*-*;****==&====*=======&",
"=:==========,:=::::;;====**=;;;;==;;;;;;;*;:;;;;;:%O:*;;;*=**-======*========;====*====*-%*=%---*--=--****;===*-&=====:::=======",
";;::,:::::,::::=::::::=,::;;;:;;:==::::::::,:::,;,*@,;::,:::=:=:=;;:;;:;:;;:;;=;;=;;------=--=;;-=---*-=-=;;;;;=;;;;;:;;;:::::;;",
";=;===;;==:======:==,=::::=====,:=,,:,:,:::::::::,&O,;,:::====::,,:::=,===========;==================***==;===;-;==========**===",
";=-;;--;:::=:=::;;;;=::::==-==;;;;:::;;;;;;;:;::;,&o:=::::==:==:========***==--==*-=*-*--*--=-==-****--***--***-;;;;;;=;=;;;=;;;",
"-=&==;=*================:=======;====*====;;==&=&:$o:&==****==**%***=***============*==**=%-=--***-***&***=*=*--=%=%*%=*%=*=***;",
"==-=*******======;=====***=*;;:=:::=;=========*==;#o:*========**============&===========**-=*===*=**==-;==-***%-*%**%%=%%*%****-",
"=*==--*****-===:;=;;;;=;=**=-:;:==:==%;==&=*=*==&;#o=&===*==*;================-===**=====-*%**-=***%**%-*-%-*%*-****-%%=********",
"*-**;-*****=*===--=-==;;;:==:;::=;=,::;:;=;==;===;$o,*::====;;;;======;:;=========--====;;;;;*--*-%-*-%-*---*-%*****-----****-*-",
";;;;:;;--*-;;::,:::::::::::,>>:,,::::::::::,:::::,&o,::,::==::;;=;:;,=,=:;;=,=;;;=:;:;;;;;;;;;;;=;;;;;;;;;;;;;:;;;;----:;;-;--;;",
"-****--=-*-**:<<<<>>>:>>-;------==%--;==-------:-:#X:-:;----;;;;;;;;-;=-==--====-;=;;;;=;==---*=-*****-%%---;;----=--===-*--**-*",
"--;;;:-=;-----::<<>>-::-->><,:::::::<1,;>-><11:>-1-O>-,,>:::::<<,,,,<::<:::::>::>;;;;>;>>:>;::;::::::-:;:;;;:::<>>>,;::>>;:;;>:-",
"$$$$###$$#$$####%#%##%-@%%%%$$%%*-$#@$$$%%%%%-%%#%@ -%%-----%%%%*%$$$%%%%$%%$$%%$$$$$%%%$$$#%##%#$$$$%%%%%%%%%%%%%%%%%%%$%#$#$#$",
"oOOoOOOoOOOOOOoOXX XXXXXXXXOOOOOoooO@oooX@@XXOOOOOO@XOOXXX XOOO@OOOO@XX@@@@X@@@@@@XXXXXXXX@XOXXXOXXXXX OOOXOOOO@XXXoXXoXXXXXXOXO",
":,,:::;;-;;;::;;---:-;--:::-->-::->::::,>>>>>>:::>:>::::::::>::,:;::::::;::::,,,>,,><,,,>>,>,,<,::<:<;O:::::::::>>>::>;;>;;;:;::",
"**-*=**;--;;;;;;------;;----;-----------------:-----------------==-----;-*=--;=-;;-==--;-=*-*==-;:=*-%X:-;--;;:::-=-**-***-*****",
"-;:;::;:::-:;---;;>->:::>->>>:>>>:>:::>:>->>::::>>::::-:::;-;:,:::::;:::::;:<<:<<:,,:;;::;::;;;;:<:=:% ;-<>::;:->>-===-;;;;;;;--",
"-;*-----------;-----::------::->-----:-:---:--:----------%--%----%%-%-%--*---;;--%=-;---*==;===--*-=:* =*%=-::::;;;;=----==**=--",
"-;;;:--:---------;----;-------;--------------------%-%-%-%%-%-*%%*******%****%--;-**=*%-*=*;**-=-=**-*X:;:-*--;;;;;;;----------=",
";;--;;:--:->;;-;-----;-----;;;--:-:-:;------%--%-%-%*-%---%--%-%--**-------**--:--;---==;-;;-=----;==%X-*-;:;-;;;;:;;;-=;;;-----",
";::-:;-:---::::::;;;;;;;-:-:;;;;:--:;;:;----:;-;----******-%%--****************-=*-====-;;==;;===*=*=* ;*==;;-;;;:;:::,:*-=;;==-",
";:-::;;-;---*==;--;-;-;;----=--=----***=----%;-;--%-*-------;;*;--;--*=;;;;;;;;;;;-;;-==;;:;:;;;=;;==* ;=;;;;==;;:;;;;;<;-=--=-;",
":-::,,:::-;:;;;;;-=*=*-=;-;-;**;---**=**--%%;%%%%-*%**&*%*&****&*==***==*=-**=***=*-*=*-**=;-;;;;;;*=* ;===-=;;=-:-;=;;=;:;;>;>:",
":-;;:;;;::;;:;;;:;:;:;:;:;;;;;;;--;;;;-;;-::;:;;---:;--;--;=;-;;---==;-=;;;;;=;;;;:;;;;;;;;;;;;:::;;:-O::::::;:>:::::,,,::;;===-",
"-**=*=*=--==;*==;**;;*=*;-==;;=;--;;;;;;-;;*-;-;--**-;=;;;-;;;;;-;-:;;;--;;;;-;;;;-:;;-;:::;;;;;:;;;;*X:-;;=;;;;;;;-=;==;*%=**=*",
";;;;;;==--======;;;;====;;==;==;;--;;==;;;*=;;=*-*==*;*=*;==*;-*=*=***=*==****%*-%*%**--%*%*-**-*****% =***==-=;===;;===;=;;=;==",
",==,:,,=,====,:,;,,,,===,=:,=,:,:,::::=::::::::;,=;;;;=;;;;;;;;;;:=;;=;;=;=;=-;=-=--=;-===--=;;;;;;;:* ;;;;;;==;;:;:;;:::==,=,=,",
"=:=:======:=======*==;==**;========:==::==;:;;:;==,=;;;;;;:::;;;;=;=;===;;;;-;;;-==--=-==*==-==-;;;=;-X:-;;;;;;==;:=;==;===:====",
"=::============;=======:==:=======:====::==;;;;;=;;;;;;-;:;;;:;;;;-;;;-;-;--;--=---=-=---%%-%-=----=;-X>;:;;-=;-;-======;=;===:=",
"===============*====*=*====;==-,:,==:=========-=;=;;;;===;;;;;;-;;==;=;;;=;=*-========**-=-=-==-=;>;:=X;;:;;=;;=;=;===========&=",
"=&&=*&**&*&&***-=-**==-**==&**=====&%-%===-%-**========*===*=====********=***********===-===-=====;;;% ;===--**=---*-=-==***=**=",
"=======&**==;;;;;,;:;;=*====$*=======-=%%==::;;;;==%=====*;=;;;:;;;;;;;:-===;;;;::;::;;;::;>::>,>,::<>@<::::;;;;==;;===;====*=**",
"==&=*==-===*----;;:=-**-;;==-----;:=*-=====-%=--====;;-;;;;:;;;;:===-===;==:;;:;=;;;=:;;;;:;-;;;;::::;X>:;;=;;:=;;=;;:;;:;-=***&",
"====**-%-*%---;-;;;=-;-:;:;;*-;%**==-::;;%-=-=%-=;=;:-:::;=;;;-;-:;::;;:::::::;==;;;:;=,;;;:;;:::::::-X,::::;=;;=;;:;;;=;;===*==",
"%**%%*%%%*$%*--------**---**%*---;---=;--::;;;->::;>-;::;;;-=---=;=-==:-=;;;;;;;:;;;;=;;;;;=====;:::,*o:;,::;===;;;-;;;---;;;---",
"-=----*------*-----;--;---------;-----;;::;:>>>>,:<:><<:<<>>:,:::::><,:,,:,,,<,<,,,,;;;,,,;;,;=;;:::,=o,,,<,,::::::,::::;;;;:;--",
"%**--%%--*%%%*%%$%*%%%%*%*%%$%%%$%%**%%-%=-%--;;=--=-%%=-%%-=*====**==*-;::;-=::;;;===;=======;=*%=%=$o=*;;=-**=;;;=;-%%%%%%%%%%",
";;;:->---;;;--->,;;;;---;;;;----;;;;;=-=;----;;;;;:::>::>::-;:;::::::;::,;,:,,;,,,,,,,,,,,,,,,,:,,,::-o,:,,::,,,::;;;;;;:;::;;;-",
"XXOXOOOOooXXXXoooOOoOOOoo@oOooooooOoooXOO@X@X X@OXOX@X  XXXXXXX@ OXOO   OOOOOOOOoOOO@oo@O#@@OOOoOOooOo ooOo@o@@oooo@ooXXooooXXXX",
"##%%%@@%$#$$$%%$%$%$%%$$$ #$$$$$$@$#####@#@##%#%%%%%$%%%#%%%%%%%*%%%***#%%*******%**%%*%%%*&*%==%%%%%-=%**%%%=%&%%%%%$$%$$$$%#$#",
";;;;;;;::::;;:,;:;=;:;>;:o-:;:;;;::;;;------;>:-;>>;:--;;::;;>>:::::;;;-:::>>:;;:,,;;,,;;,,;::,,,,::::,:;:::,,;:::::::;;;;;;;;;;",
"--=---***%-*--**--*-;---; %;;;==--==;==-=*=-%--%%%%-=-%-=-;--%%=----==-*****=*====;===;;;;;,,::=::=::::%--%=*%%-%;%;**----***%--",
";::,,,=,=:=,:,,:,,,,,,,,,o;,,,,<<<<,:,:,,:,,,::,,,,<,,,:,:::,,,:>::::::::::,::,:,,,,,,,,,,,,,<,,,1,,:,,,,,,,,,,,,1,,,::,:,,,,,:;",
"=================:=:==,=:o=:=,;:;;;=,==;:;==;=*;;;====;;====;;===-;;;;======================;===,=:=;;;;==*====::=:=;;;=;;====,=",
"=:;:=:;;==,=:=:::===::===o===;;;=,:=,==;;=,=====;;;====;==;==;=;;;==;;;========:::=:====:;=:===,=,:=;:;;===,,=:==:;;;;;-;*==::=,",
"===%==================:=:o====;-=;;==;===;;=====;==;;=;;;======;=;:;;;=;=:====,,,:==,=,;====;=,===:===;;,===========::::;,,====*",
"=======*==*=====;===-;--;o*--;--==;;-;;-=--;:==;;==;;;==;;;:;;;-;:;:,===;;;==:=:;======:-====;:;==::>>:,;=;;;;;=,=;:::::>:>;===:",
"====:,=:=*;;========-;::,o->:;:;;:;;:;;:=;;;=;;::;;:;;=;;:,<:;::;=;;=,=;;::::==;=;:-=::=;;-;;;;;*===::;>,::;=;,=;=:::>:::>::==;=",
"==:,,:=;;;======;;;:-::-:X->,,>;:;--;;;;;:;-;;;:::;;;;;;;;;;;:;-;;=;;;;;:;;;:::===::;;,:;;;;:;;;;:::---::::;-;;=,;>1>:;:;;;;;-*=",
";;;;=%%*-;-=====----;---;o-;-:;;;;;>:>;;;;::;:,:;;-=====;=;;:-;;;;;=;;;;-;--====;;--;=-=--;;;;--;;;;---:---;-----------:-------;",
"-%%---%-%-%----%-*-***-%- *;---:;::;:;;=;;;;;-*==%======*===*==========*========-=--=***=-*-===-----;;;-;;-------------;--*-%--%",
"-------=%-------------**- $=%--=-;;=--==;===-=;====%=%%=**=&**====*====***=========****==*=-====-;=;=-;-==----**%-%*%;%*--**-%%-",
"%%%%%-;*----%----******%* $-%==%--=--**=**%=**-==&=&*&=%&%&**&&=*=**=****&**&=&==*======*=***===-*====%;=**=%****%*%%-*****%-%-%",
"--==%%%*-%%%%%%%%*%-***%* $=%%%&%%&*%*=*-*==================*==*==***===*=======*=*===%=*******=%;%*%**%&**&**&=**&*%%&***%**-%-",
"%==*%*;====*---==**%%=*&* $%$&%&*&=&*&*&&*&==========&&=&&&%&*&*%%&&*&**=*==&&=&*%*%*%==*%**%*%*&&=&=*=&*&**&&*********&&**&****",
"-;;-;-;;--==-;;;;===;=;=- %=*====**==*===*=*=&==;;;,;==========*=========*================;========*====;=*&==*=====*;**********",
"*=;-***%*%**%--**==%=***-o%;*==-*=====-==========;;;=;=;==;;===:===================:======:=========**=*===*&=**===:=====***%%**",
"%===********=***%-=-=*--=o%;****===%=*-===============;=============*=====&========;;=;=======;;===;=;=;===*;=;=,,=::::===--;--*",
";;;;;====%=%==%==%======;o*=;==;=;==========;========;;==:======:=,==:=::=;=;:;;;;====;======;=====;=;==;===;;=;;===;;==;==;==;;",
"===;=====-*-*=-======-;*= %=*==;;;;========;;;;=====;=;;===:=::==========;==============;======;===;******==*==;===;*=====;;=:==",
";;;;====;;;;;::::;;;::;=;o-,;,;;;=;;;;:;;;;:,;;;;;,,;,,;:::::=:=:::==,:;::;:;;=;;;===;==;;;;;;;;::;;:=:=::;:;::;::;;;;;;==:;==;;",
"=;;;==*===-==;=;;=-=;==-;o%=*;===;====;;;;;;;;;;,;=;;;=,=========*=*=*==========*=******==%*====*******=****&&&*&&&=&***======**",
"==;========;;===-====;;;:o%:;=;=;;;;===;;,;;;;;;;;;;;===::=:;=::===;;;;==;=;==;;======;=;;;;;=,;::::=;;=:;;;;;*;;;-;*===;;**=;;;",
"***%%**%&$%%%&%%%%%&*%$$% $%$**%%%%&%%$$%&%&%%&&%%%%**%*%%%%%%%%*&***%%*&&*$%$$$$&&&%%$*$%*=%*=***%%*%%*%%&%&%&&&&&&&&*%&&*&&&*&",
"           oo o oo  oo ooooo oo o ooooo o o o o ooo ooo oo ooo         o o o    o oo   oooo o ooo    oo                         ",
"======*=====%====-*=*=*=;;==;=================================;===========*:o$;=====;===========;;=;;;;=;;*=*;=**-==;==%**==*==;",
"==***=========*%&==;;=;=;;;=;;====*==*=======*=;;=====;;=;;============;;;=:o$;=;;;===;;;;;==;;;;;=;;;*==*;===*;=====*****=&;*=*",
"=***=**=*====*====*=*&*=***;===*========*======*=========================;=;o$;=;================;====;====*===*=*==*=*=&*=**===",
"=*=;=====*====;;=====:;===;;=:==;;;;=;;;:;;;;;:;;===;;;;;;=============;;;=:o$,=;===;;=;;;;;==;;==*=;;=;==;=;;=;======;;;;;==;==",
"**=;*;*==;==;-====;:==;-;;;;;;;=;*;;*;=*=====*==;=====;;;====;=;=;;==;=;=;*:o$;*;;;;;=;;;==;=====;;;;;;:;;;;;;;;=;;====*=*******",
"====;=;===;;==;;:;;==;=;;;===;;=;;;=;;;;;====;;====;=;;;=;;;,==;====;;;;;;=:o$;=;;;;;;;;;;;;=====;==:===;=*;;=;;=;===;=========;",
";=;;;;;;;;;;;;;;:;;;:;;;;::;:;::::;;;:;::;;::=:;:;;;;;;;;;;=;;;=::::;:;;;;=:O$,=:;;;;;;;:;;;:;;:;;::::;;;:::::::::;:;;;=;;;;;;=;",
";:;;;;;;;:;:::;;;;;:::::=:::::;;;;;;:;;:;:;;,=;=;;;;;;;;;,=;::;,;:,;;;::;:=,O%,=,;,;;;::;;;;;;;===:=;;;;::;;;;;;;;;;==;=;;==:=;;",
"========;======================;=====****=========;==;;;;=====;;====;====;=,O%,;;;;;;;;;;;;=;=======;===**=;;=;==;=========*=*==",
"***-======:====:===*=***%==**=**=****%*===&===*==*====**=%*=%=**=*=&***===*:o$==;**===****====*======::=:=:==:,=====;=*&*&**&&%*",
"%*%%&***=**%===%&=&&&&&&===&&=&*****====*=&=****=**%%**===*%****======*===%:o$=*=***=%===*&=*=%*=&=&&=====*%=%&%=**&&*====****&*",
"=***%-%**%=--*%***;:--;*=%;*%;========;==;;;=:;;==;=;==-===*========-*===;*;o$,*=-=%==**=&=*=--;==*===**======-***&&****&**%*%**",
"****-***-=%-=%-----******-;-;;%;*=;-=;;;;;;=;-;;;===;=*=====%=**%*=**--==;*;o$=*=-=-***==*=&*-;:;---==*-========;;;;*;****&**%-*",
"*%=---*****-----*****-*--*-*%--%*-*-*--;==*==**-=;*=;---****=*=*******-%-=%>O$;----%%=**=%%%*%%**-------*;------;*;*;*-****&%*%-",
"---=;=---**-====---;-;;;-;-;:;;--=---;=-==;=;=--====*****====%***;;=**-=--*;o#;*;-*-=**=*=***=-%%-=%*======--;=--**--***--;----*",
";=====-==;=====*****&***&*****;-==**=***=====************=*===%=***%*****=*-o#;-=%=%--%*%*%*%===--%=*---=-*-====;;=;==;*=;*-=;-*",
"-=*--*=;===;:=&=*=*&&***=-*;=;**=-========%=*===***==**===**======*-**=**-*;o#-*=-=*-*=*====-=====;==-====;;====*******;;*******",
";;;;-=;=--=;=*-===***;;;**-===,=;===*======;===;=====-==========*===*====-%:o#;%=******====::==:=:===============***&=%=*****%==",
";=;;====;::=======;;*;%%*=*=====*****;=;;;*;============================--=:o$;==*=**=**======,,:=*=======&&*%%=**&&*&=%&&&&&-;;",
"-=;;;;;;;;--**==;;---*;-====-;-=;-;;;;;==**;;;;===*--=;;=====;;==;========%:o$:==============::=*&====,==---==%==,=;;;;%--*****-",
"--;;---;*&***-=;;-;*-;--=*---*-;*-***========*====**===*=&==*&=====**=====*;o$:%========%================:=-==;;====;;;;;;;;****",
"====--=;;;----;;-;----;;;;;-;;-%*--*;;=;;=====:;=;;;===:===========:==:====,o$,=:=========:======:=,,===;;:,,:>;;;;;-;;;:;:;;;;;",
"------=--%%-%%%%%%%%*----%--%-%-***%*=*====*=======*****=======&====&=====&=o$:%=*============&=&=&===:=-:::;:;::;;;--*-----*%--",
"=;=-*--=----;;----;;---;----;;;;--=-;-;::===*=;=;;;*=====================:=,o$,=,=============:=,:=,=,:=;;;:::;;::::::::::>:::;;",
"$$$#$##$$$$$$$$#$$$$$$$%###########$$$#$@#@#####################$###$#$#$$@$oo$$$$$&$&$$&$&&#$$$$$$$$$$$$#%#%%$$%%$%$%%&$$#$%&&$"
};
