/* XPM */
static char *planks_birch_n[] = {
/* columns rows colors chars-per-pixel */
"128 128 66 1 ",
"  c #7E7F93",
". c #7E7EA4",
"X c #7E7FAA",
"o c #7E7DB3",
"O c #7F7ABD",
"+ c #7475C3",
"@ c #7F76C2",
"# c #727ED5",
"$ c #7F72DF",
"% c #727FD8",
"& c #7B78DC",
"* c #7E72E3",
"= c #777FE2",
"- c #7F78E1",
"; c #7F77ED",
": c #787EEE",
"> c #7E7CF5",
", c #7F7FFF",
"< c #817C96",
"1 c #817FAA",
"2 c #837EB6",
"3 c #817ABA",
"4 c #8A75C3",
"5 c #877AD6",
"6 c #8B7ED5",
"7 c #8072DB",
"8 c #877EDE",
"9 c #8C7FD8",
"0 c #8172E4",
"q c #867DE2",
"w c #827BEC",
"e c #837FF6",
"r c #817FFE",
"t c #7E8193",
"y c #7C83A2",
"u c #7D81AB",
"i c #7F82B2",
"p c #7F85BD",
"a c #7C85C0",
"s c #7F89C3",
"d c #788ACA",
"f c #7182D7",
"g c #7481DB",
"h c #7F8CDF",
"j c #7780E2",
"k c #7F87E1",
"l c #7F8CE1",
"z c #7786E9",
"x c #7E87EC",
"c c #7D88ED",
"v c #7F83F5",
"b c #7F81FE",
"n c #8181A4",
"m c #8282AA",
"M c #8381B4",
"N c #8185BA",
"B c #8786C7",
"V c #8D82D7",
"C c #8385DB",
"Z c #8C81D8",
"A c #8583E2",
"S c #808CE4",
"D c #8581ED",
"F c #808DEA",
"G c #8282F5",
"H c #8181FE",
/* pixels */
"+0$$$$$$*7*-$$-*$$$$*$$$$$-*7*7*-$$*$$0$$$$$*$$$$$-*$$$$-$$*7*-*$$$$-$$*7**$*-$$*$$-$$-*7*$$*$$-$$-*7*7**$$$$$*7-*7**$$$$$-**7*4",
"fHbbbbbbbbHbbbbHbbbbbbbbbbbbbbbHbbbbbbbbbbbbbbbbbbbbbbbbbbbbbbbHbbbbbbbbbHbbbbbbbHbbbbbbbbbbbbbbbbbbbbbHbbbbbbbbbbbbbbbbbbbbbHbV",
"#r>r,>b>>,,>>,>>,>b>>r,>Hb>>,>b>>,,>>b>>b>bbe,,>b>b>,>>H>,r>>,>>r>b>>,,>>,>e,>>b>,,>>,>>>bH>>r,>>,>>,>b>>,,>b>H>,>>H>r,>bb>>,>b6",
"frbHbbbbbbbHbbbbbbbH,bbbbbbbbbbbbHbbHbbbbbbbbbbbbbbbb,bb,bbbHbbbbbbb,bbbbbbbb,bbbbbbbbHbbbbbbbbbHbbbbbbbH,bbbbbbbbbb,bbbbbHbbbbZ",
"%r>r,,b,b,,,,,,bb,,,b,,,,,,,b,H,,,,,,,H,,,,,,,,,,,,bb,,,,,,,,,,,,,,,b,,,,,,,,b,,b,,,,,,,b,,b,,b,,,,,,,r,,,,,,,,,,,,,b,,,,,b,,bb9",
"%Hb,,,r,,,,,,,,,,,,,,,,,,bb,,,,,,b,,,,,,,,,b,,,,,,,,,,,,,,,,,b,,,,,,,,,r,,,,,,,,,,,,,,b,,,,,,,,,,,,bb,,,,,b,,r,,,,r,,,b,,,,,,>,9",
"%rb,b,,,,,,,,,,,,,,b,,,b,,,,b,,,,,,bb,b,,,H,,,b,,,,,,,,,,bb,,,,,,,b,,,b,,,,br,,,r,b,,,,,,,,,b,,,,,,,,,,,,,,,,bb,,,,,,,,,,,,,bb,5",
"%r>r,,,,,,,,b,,,,,,,r,,,,,,,,,,,,,,,,,,,,,,,,,,,b,r,,,,b,,,,,,,,,,,,,,,,,b,,,,b,,,,,,,,,,b,r,,,,b,,,,,,b,,,,,b,,b,,,,,,b,,,,,>bZ",
"%r>b,,,,,,,,b,,,,,,,,,,,,,H,,,,,,,,,,,,,,,,,,b,,,b,,,,,,,H,,H,,,,r,,b,,,,,,,,b,,,,,,,,,,,b,,,,,,,,,,,,,,,b,,,,,,,,,,,,,bb,,,bb,9",
"%r,b,,,,b,,,,,,,,,b,,,,,b,,,,,,,,,b,,,,,,,,,,,,,,,,,b,,,,,,,,b,,b,,,,,,,,,,,,,r,,br,,bb,,,,,r,,b,,,,,,,b,,,,,bb,,,,,,,,,,,,,,>,9",
"%H>bb,,,,,,,,r,,,,,,b,b,,,,,,,b,,,,,,,b,,,,b,,,,,,,,,,,,,b,,,,,,,,,,,,,,,,b,,b,,,,,,,,,,,,,,,,,,br,br,,,b,,,,,,,,,,b,,,,,,,,,b,5",
"%H>r,,,,r,b,,,,b,,,r,,,,,,,,,,,,,,b,,,,,,b,,,,,,b,,,,,,,,,,,,,,,,,b,,,b,,,,,,,,,,,,,,,,,,,,,b,,,,,,,,,,,,,,,,,,,b,,,b,,,,,,b,bbZ",
"%rbb,,,,,,,,,,,,,,,,,,,,,,,,,b,,,,,,,,,bb,r,,r,,,,,,,,b,,,,,,,,,,,,,,,,,,,,,,,,,,,,,,b,,,,,,b,,,,,,,,,bb,,H,,,,,,,,,b,,,,,,,,b,6",
"%H>r,,,,,,,,,,,,b,,,,b,,,br,,,,,,,r,,,,,,,,,,,,b,,,,,,,,,,,bb,br,,,b,,,,,,,,,,b,,,,b,,,rb,,,,,,,,,,,b,,,,,,,,,b,,,,,,,,,,,,,,>,Z",
"%r>,,,,,,,,,,,,,,,,,,,b,,,,,,b,,,,,,,,,b,,,b,,,,,,,,b,,,,,b,,,,,,,,,,b,,b,b,,,,,,,,,,,,b,,,b,,,,,,,,,,,,,,b,,,,,,,,,,,,,,,,,,,,5",
"%rb,,b,b,b,bb,,,,b,,,,,,,,,,,,,,b,b,,,,,,,,,,b,,,,br,,,,,,,,,,,,,,,,,,,r,,,,,,,,,,b,,,,,,,,,,,,,,,b,,,,,,,,,b,,,,,,b,,,b,,,,,vbZ",
"%H>,,,,,,b,,,,,,,,,,,,,,,,,,,,,,,,,,,,r,,,,,b,,,,,b,,,,,,,,,,,,,bb,,b,,,,,,,,,,,,,,,,,,,,,,b,,,b,,,,,,,,,,,,b,,,,,b,,,,,,b,,,e,9",
"%rbr,,b,,,,,,,,b,,,b,,b,,,,,,b,r,,b,,,,,,b,,,,,,,,,,,,,,,,,,,b,,,,,,,r,,,b,,,bb,,r,,b,,,,,,,r,,,,b,,,r,,,r,b,,,,,,,,,,,,,,,b,H,9",
"%rbb,,,,,,,,,,,,,,,r,,,,,,b,,b,,,b,,,,b,,b,,,,,,,,,,b,b,,b,b,,,,,,,,,,,,,,,,,,,,,b,,,,,,,,,,,,,,,,,,,b,b,,,,,,,,,,,,b,,,,,,,b>,5",
"%r>r,,,,,,,,,b,,,,,,,,,,,,,,,,,,,,,,,,,,,,,,,,,,,,r,,,,,,,,,,,,,,,,,,,b,,,,,,,,,,,,,,b,,b,,,b,,,,,,,,,,,,b,,,,,bb,,,,,,,,,,,,bbZ",
"%r>H,,,,rb,,,,,,b,,,,,,,,,,,,,,,,,,,,,,,,,,,,,,,,,,,,,,,,,,,,,,bb,,,,,,b,,,,,,,b,,,,,,,,,,,,,b,b,,,,,,,,,,,,b,,,,,,,,,,,,,,,bb,9",
"%rb,,,,,,,,,br,,,,,,,,r,,,,,,,b,,,,,,,,b,,,,,,,,b,,,,,,,,,,,bb,,,,,,,,,,r,,,,,,b,,,,,,,b,,,,,,,b,b,,,,,,,,,,,,,,,,,,,,,,,,,,,>,9",
"frbb,bH,bbbbbbbbbbbHbbbbbb,bb,bb,bbbbbHbbbbHbbbHHbbb,,bbbbbbbbbbbb,bb,bb,bbbbbbbbb,b,,bb,bb,bbHbbbbb,,bHbbbbbbbbbbbbbbbbbb,b,vbZ",
"#r>,,>,>,,>,,,>b,>,>,>,>>,r>,,>,r>,,>,,>,>,>,>,>,,>,,>,>,,>,>,>b>,,>r,>,,>,,>,>b>,,,>,e,r>,,>,>b,r>,,>,>,,>,,r>b,>,>,>,>>,>,,>,6",
"fHbbbbbbbbbbbbbbbbbHbbbbbbbbbbbbbHbbbbbbbbbbbbbbbbbbbbbbbbbbbbbbbbbbbbbbbbbbbbbbbbbbbbbbbbbbbbbbbbbbbbbbbbbbbbbbbbbbbbbbbbbbbvbV",
"uMiiiiiiu2iiiiiiiiiuiii2iiiiiiiiiiiiiiiiiiiiiiioiiiuiiiiioiiiiiiMiiiiiiiiiiiiiiiiiiiiiiiiiiiiiiiiiiiiiiiu2iiiiiiiiiMiiioiiioiiim",
">>;>>>>>>>;>>>>>>e>>>>>>e>;>>>>>>>;>>>>>>>>>>>>>w,5X,;v>>>;>>>>>>>>>>;w>e>v>>;e>e>>>>;e>>>v>>;;>>;>>>>>e>>;>>>>>>>>>>>>e>>>>>>>>",
"bbbbbbbbbbbbbbHbbbbbbbbbbbbbHbbbbbbbbbHbbbbbbbbbHbqibvbbbbbbbbbbbbbbbb,b,bbbbb,b,bbbb,,bbbbbbbbbbbHbbbbbbbbbbbHbbbbbbbbbbbbbbbbb",
"r,>,>,,>,>,,,,>,,>,,,>,,,,>,>,,>,>,,,,>,,>,,,>,,>,=o,>,,,>,,,,>,>,,>,,,,>,,>,,,>>,,>,,,>e,,>,,,,,,>,>,,>,>r,,,>,>,,>,>,,,,>,>,,,",
",bbbbb,b,bbHbbbbbbbbbbbb,,bbbbbHbbb,,bbbbbbbbb,bbbAo,vb,,bbbbbbbbb,bbbbb,bbbbbbbb,bbbbbb,,bb,bbbbbHb,bb,bbbbb,bHbbbbbbbbbbbbbbb,",
",,,,,b,,,,,,,,,,,,,,,,b,,,,,,bb,b,,,,,,b,b,,,,,,e,qi,v,,b,,,,b,,,,,,,,,b,,,,,,,,,,,,,,,,,,,,,,,,,b,,,,,,,,,,,,,,,,b,,,,b,,b,,,,,",
",,,,r,,,,b,,,,,,,,,,,r,,,,,,,,,b,,,,,,,,,,,,,,bb>,=o,>,,,,,,,,,,,r,,,,,,,,,,,,,,,,b,,,,,,,,b,,bb,,b,,,,,,,,,,,b,,,,,,,,,,,,,,,,,",
",,,,,,b,,,,,,,,,,,,,b,,,,,,b,,,,,,,r,,bb,,,,,b,,v,qObv,,,b,,,,b,,,,,,,,,,,b,,,,,,,,,,,,,,,,,,,,,,,,,,,,,b,,,,,,,,,b,,,,,,,,,,,,,",
"b,,,,,,,,,b,,b,,,,,,r,,,,,,,,,,b,,,,,b,,,,,,,,b,>bqi,,,,,,,,,,,,,r,bb,,,,,,,b,r,,,b,,,,,,bb,,,,,,,,,,,,b,,,,,,,r,,,,,b,,b,H,,,,,",
",,,,,,,,,,r,,,,,,,,,,,,,,,,,,,,,,,,b,,,,,,,,,,,,>bkO,>b,,b,,,,b,,,,,,b,bbb,,,,,,,,,,b,b,,,,,,bb,,,,,b,,,,,,,b,,,,,,,,,,,,,,,,,b,",
",,b,,,bb,b,,,,b,b,,b,,,bb,,,,,b,,,,b,,,,,b,,,,,,>,qi,:,,,,,,,,,,,,,,,,,,,,,,,,b,,,,r,b,,,,,,,,,,,bb,,r,,,,,Hb,,,b,,,,,,,,,,,,,,,",
",b,r,,,,,,,b,,,b,,,,,,,b,,,,,,b,,,,,,,r,,b,,,b,,b,qo,v,,,,,,b,,,b,,,,,,,,,,,,,,,,,,,,,,,,,b,b,,r,,b,,,,,b,,,,,,b,,,,,,b,,,,,,,,,",
",,,,,,,,,,,,,,,,,,,,r,,,,,,r,,,,,,,,b,b,,b,,,,,,>bAo,:,,,,,,,,,,,,,,,,,,,,,,,,,,,b,,,,,,,b,,,,,,,,,,,b,,,,,,,,,,,,,,,,,,,,H,,b,,",
",,,b,,,,,,,,,,,,,,,,,,,,,,,,b,,,,,,,,,,,,,,,,b,,>bji,>,,,b,,,b,,,,,,b,,,,,,,,b,b,,,,,b,,,,r,,,b,,,,,,,,,,,,,,,,,,,,,b,,,,,,,,b,,",
",,,,,b,,,,r,,,,bb,,b,,,b,,,b,,,,,,b,,,,,,,,,,,,,>,AOb>,,,,,,,,,,,,b,b,,,r,b,,,,,bb,,,,,,,,,b,,,,,,,,,,b,,,,b,,,,,,b,r,,,,,,,,,,,",
",,,r,,,,b,,,b,,,,b,,,,,,,,,,,b,,,,,,,,,b,,,,,,,,>bAi,,,,,b,,,,,,,b,,,,,,,,b,,,,,,,,,,,,,,,,,,,,,b,,rb,,b,bb,bb,r,b,,,,,,,b,,,bb,",
",,,,,,b,,,,,,,,,,,,,,,,,,,bb,,,,,,,,,,,,,,,b,,b,>,qob>,,,,,,,,,b,,,,rb,,,,,r,,,,,,,b,,,b,,b,,,,,,,,,,,,,,,,,,,,,,,,,,,,b,,,,,,,,",
"b,b,,,,,,,,,,,,,,,rb,,,,,,,,,,,,,,b,,,,,,b,,,,,,v,kO,v,,,,,,,,,,,,,b,,,,,,,,,,,,,,,,,,,,r,,,,,b,,,b,,,,,,,,,,,,,,,,,,,,,,,,,,,,,",
",,,,,r,,,,,b,,,H,,,,,b,,,,,,,,,,b,,,b,,,,,,,,,,,>,qib,,,,,,,br,,,,,,,,,b,,,,,b,,,,r,,,,,,,b,,,,,,,,,,,,,,,b,b,,,,,,,b,,,,,bb,,,,",
",,,,,,,,,,,,,,b,,,,,,,,,,,b,,,,,,,,b,b,,,,,,,,,,b,qobe,,,,b,,,,,r,,,,,,b,,,,,,,,,,,,,,,,,,,,,,,,b,,,,,r,,,,,,,,,,brb,,,,,b,,r,,,",
",,b,,,,b,,,,,,,,,,,,,,,,,,,r,,,,,,,,,,,,,,,,,b,,>,Ao,>,,,,,,,,,,,,,,,,,,,,,,,,,,,,,,b,,b,,,,,,,,,b,bbb,,bb,,,,,,,r,,r,,,,,,,,b,,",
",,,,,,,,,,,,,,,,,,,,,,,,,,,,,,,,,,,,,,,,,,,,,,,bb,-i,>,,,,,,,,,,,,,,,,,,,,,,r,,,,,r,,,,,,,,,,,,,,,,,,,,,,r,,,,,b,,,,,,,,,,,,,,,,",
",,,,,,r,,,,,b,,,,,,,,,,,,,,,,,,,,,,,,,,,,,,,,,,,>bAo,b,,,,,,,,,,,,,,,,,,,,,,,,,,,,,,,,,,,,,,,,r,,,,,,,,,,,,,,,,,,,,,,,,,,,,,,,,,",
"bv>e>>bvbv>bv>>bv>>>Hbv>>Hv>bv>ev>>bv>>b>bv>Hv>,eb8obvbvbve>bv>>b>vb>e>>bv>>b>bG>bv>bv>>b>bv>Hv>b>b>b>b>vb>>b>b>b>v>>bv>Hv>>H>bv",
",,,,,,,,,,,,,,,,,,,,,,,,,,,,,,,,,,,,,,,,,,,,,,,,>,qo,>,,,,,,,,,,,,,,,,,,,,,,,,,,,,,,,,,,,,,,,,,,,,,,,,,,,,,,,,,,,,,r,,,,,,,,,,,,",
"kkkkkkkkkAkkkkkkkkkkkkkkkkkkkkkkkkkkkkkkkkkkkkkkhzByFgzkkkkkkkkkkkhkkkkhkkkkkkkkkkkkkkkkkkkkkkkkhhkkhkchkkAkhhkkkkkkkkkkkkkkkkkk",
"OOOOOOOOOOOOOOOOOOOOOOOOOOOOOOOOOOOOOOOOOOOOOOOOOOO@3OOOOOOOOOOOOOOOOOOOOOOOOOOOOOOOOOOOOOOOOOOOOOOOO3t+OOOOOOOOOOOOOOOOOOOOOOOO",
",,,,,,,,,,,,,,,,,,,,,,,,r,,,,,,,,,,,,,,,,,,r,r,,,,,,r,,,,,,,,,,,,,,,,,,,,,,,,,,,,,,,,,,,,,,,,,,,,,,r,>X,r,,,,,,,,,,,,,,,,,,,,,,,",
"vb>v>bv>vb>>vb>v>b>vebv>b>v>vH>vvb>v>b>v>vv>vb>v>>vb>bG>>vv>Gb>ve>b>v>bvvb>v>>>v>vv>vb>ve>bvv>>v>>>evD.be>b>bv>vb>evb>>v>H>v>Hv>",
",,,,,,,r,r,,,,,,,,,,,,,,,,,,,,,,,,,,,,b,,,,,,,,,H,,,,,,,,,,,,,b,,,,,,,,,,,,,r,b,,,,,,,,,,,,,,,,,,,,,beX,e,,,,,,,,,,,,,,,b,,,,,,,",
",,,,,,,,,,,,,,,,,,,,,,,,,,,,,,,,,,,,,,,,,,,,,,,,,,,,,,,,,,,,,,,,,,,,,,,,,,,,,,,,,,,,,,,,,,,,,,,,,,,eb>X,,,b,,,,,,,,,b,,,,,,,,,,,",
",r,,,,,,,,b,,,,,,,,,,,,,,,,,,b,,,,,,,,b,,,H,,b,,,,b,,,b,,,,,,,,,,,,,r,,,,,,,,,,,,,,,,,b,,b,,,,,,,,b,,eX,H,,,,,,b,,,,,,,,,,rb,,,b",
",,,,,,,,,,,,,,rb,,,,r,,,,b,,,,,,,,,,,,,,,,,,,,,,,,,,,,,b,,,rb,,,b,,,b,,,,,,,,,,b,,,b,,,,,,,,,,,b,,,H,eXb,,,,,,,,,b,,,,,,,,,,,,,,",
",,,,b,,,,,,,,,,,,,b,,b,,,,,,,,,b,,,,,,b,,,,,,,,,b,,,,,,,,,b,,,b,,,,,,,,,,,r,,b,,,,,,,,,,,,,,,,,,,,,>,vX,e,,,,,,,,,,,,b,bb,,,r,,,",
",,,,,b,,b,,,,,b,,,,,,,,,,b,,,,,,,,,,,,,,,b,,,,,b,,,,,,b,,,,,,,,,,,b,,,b,,,,,,,,,,,b,bb,,,,,,b,,,b,,,,>X,r,,bb,,,,,,,,,,,,,,,b,,,",
",,,,b,,,,,,b,,,,r,,,,,,,,,,,,b,,,,,,,,,,,,,,b,,,,,,,,,,,,,,,,,,r,,,,,,,,,,,,,,,,,,,,,b,,,,b,b,,,,,bb,GX,e,,,,,,,,r,,r,,,,,,,,,,,",
",,,,,,,r,,,,,,,,,bb,,,b,,,,,,r,,,,,,,,,,,,,,,,r,,,r,b,,,,bb,,,,,,,,b,,,,,,,,,,b,b,,,,,,,,,,,,,,,,,,>,>XbH,,,,,b,,b,,b,,,,,,b,,,,",
",,,,,,,,,b,,,,,,,,,,,,,,,,,,,,b,,b,r,b,,,,,,,,,,,,b,,,,,,,,,,b,,,,,,b,,,b,b,,,,,,,,,,,,,b,,,,,,,,,,,,>X,r,rb,,,,,b,,,,,,,,,,,,,b",
"b,,,,,,br,,,,,b,,,,,,b,,,b,,,,,,,,b,,,,,,b,,,b,,,,,,,,b,,,,,,,,,,,,,,,,,,,r,,,,,,bb,,,,,,,,,,,,,b,,,,vX,r,r,,,,,,,,,,,,,,b,,,,,,",
",,b,,,r,,,,,,,,,,,b,,,,,,,,,,,,,,,,,,,,,,,,,,,,,,,,b,,,,,,b,,,,,br,,,,,b,,,,,,H,,,b,,,,,,,,,,,,b,,,,,GX,H,,b,,,,,,b,,,,,,,,,,,,,",
",,,,,bb,,,,,,,,,,,,,,,,,,,,,,,b,,,,,,,,,,b,,,,,,,,,,,b,,,,,,r,,b,,,,,,,,,,,,,,,,,,,,,,,,b,,,,,,,,,,,,eX,>,,,,,,,,,,,,b,b,,,,,b,,",
",,,,,,,,H,,bb,b,,,r,,,,,,,b,,,,,b,,,b,b,,,,,,,,b,rb,,,,,,,,,,,,,,,,,,,,,,,,,b,,,,,,b,,,,,,,,,,,,,,,e,vX,H,r,,,,,b,,r,,r,,,b,,,,,",
",,,,,,,,,,,,,,,,,,,b,,bb,,b,,,r,,,,b,,,,,,,r,b,,,,,,,,,,,b,,,b,,,,,b,b,,,,b,,,,,,,r,,b,,,rb,br,,,,,H,>X,r,r,,,b,,,,,,,,,,,,,,br,",
"b,,,,b,,,,,,,,,,b,,,,,,,,,,,,,b,,,,,,,,,,b,,,,,,,b,,,,,,,,,,,,,,,,,b,,,,,,,,,,,,,,,,,,,,,,,,b,,,,,b,,GX,H,b,,b,,,,,,,,,,,,,,,,,,",
",,,,,,b,,,,b,,,,,,,,,,,,b,,,,,,,r,b,,r,,,,,,b,,,,b,,,,b,,,,,,,b,,,,,,,,,,,,,,,,,,,,,,,,,,,,,,,,,,,,,,>X,>,,,,,,,,,,,b,b,,,,,,,b,",
"r,,,,,,b,,,,,b,,,,,,b,,,,,,,,,,,,,,b,b,,,b,,,,,,,,,,,,,,,,,b,,,,,,,,,,,r,b,b,,b,,b,,,b,,,,,,,,,,,,,>,vX,r,r,,,,,,,b,,,,,b,,,,b,,",
",,b,,,,,,,,,,,r,,,,b,,,,,,br,,,,,,,,,,,,,,,,,,,,,,,,,rb,,,,,,b,,b,,,,,,b,r,,,,,,,,,,,,b,,b,,,,,b,,,,,>u,rbr,,,,,,,,,,,,,,,,,b,,,",
"b,,r,,,,,,,,,,,,b,,,,,,,,b,,,,,,,,,,,,,,b,,,,,,,,,,,,,,,,,,,,,,,,,,b,,,,,,r,,,,,,,,,,,,,,,,,,,,bb,,,,GX,,b,,r,,,,,,,,,,b,,,,,,r,",
",bb,b,bb,bbbrbb,,bb,bbb,bbb,bbb,bbbbb,bbbHbbb,b,bb,,bb,bbb,b,bbHbbbbb,bbbb,,bb,bbbbb,bbrbbbbb,bbb,bb>GXb>bbb,bbbb,br,bbbHb,,bb,b",
">b>vb>>b>bvb>b>v>b>v>>>Hb>>v>b>v>>ebb>>b>>vb>b>v>b>vb>>bv>>b>bv>>H>>>v>b>b>vb>>bv>>b>b>v>e>b>bb>>v>>,:.,Gb>>v>b>>bv>>bb>>b>vH>>b",
"bbbbbbbbbbbbbbbbHbbbbbbbbbbbHbbbbbbbbbbbbbbbbbHbbbHbbbHbbbbbbb,bbbbbbb,,bbbbbbbbbbbbbbbbbbbbbbbbbbbb,vubHbbbbbbbbbbbbbbbbbbbbbbb",
"pppppNNBppppppppppppppNapspppppppppNppppppppppppppppppppppppppppppppppppppppNppppppppppppppppppppppppN appppppppppppppNppppppppp",
"----7=-&--------------q&w<&0---=---&&q--------------&q--------------q&--------------------------------;q&$------------------&q--",
"bbbbbbbbbbbbbbbbbbbbbbHbH1vH,bbbHbbbbb,,Hbbbbbbbbbbbbb,bbbbbbbbHbbbbbbbHbbHbbbbbbbbbbHbbbbbbbbbbbbbbbbbbHbbHbbbbbbbbbbbbbbbbbb,b",
">>,e>b>>>>b>e>b>>b>b>,>>r.:,>>>>b>b>b>>>>>b>H>>H>b>>b>>>e>b>b>>>>H>>b>b>>b>b>>b>e>b>>b>b>>b>,e>>>b>b>>b>b>b>>b>Hb>e>b>>H>b>>b>>>",
"bb,bbb,b,bb,bb,bbb,b,bbbH1v,v,,bbb,bbb,bb,b,bb,bbb,bb,b,bb,bbb,bbbbb,Hb,bbb,bbbb,bbb,bb,bb,b,bbbbb,bbb,b,bbbrbbbbbb,bH,bb,bb,bb,",
"bb,,,,,,,,,,,,,,,,,,,,b>r1:r,,,,,,,,,,,,r,,,,,,,,,,,,,,,,,,,,,,,,,,,,,,,,,,,r,,,,,,,,,,,,r,,,,,,r,,,,,,,,,,,,,,,,,,,,,,,,,,,,,,,",
",b,,,,,,,,,b,,r,,,,,,br,rm,,,,,,,,,,,,,,,,,,,,,,,,,,,,,,,,,r,,r,,b,,,b,,,,,,,,,,,,,,,b,,,,,,,,,,,,b,,,,,,,,,,b,,,b,,,,b,,,b,b,,,",
",,,,,b,,,,,,,,,,b,,,,,r,rX:,,,b,b,,,,,b,,,,b,,,,,,br,,,b,,,,b,,,,,,,,,,,,,,,,,,,b,,,,r,,b,,,,,,bb,,,,,b,,,,,,,,,,,,,,,,,,,,,,,,,",
",,,b,,,r,,,,,,,,,,,b,,,br1v,,,,,b,,b,,,,,,,bb,,,,,,,,,,,b,,,,,,,,,,,,,,,,,,br,,,,,,,,,,,b,,,,,b,,,,,,,,,,,,,,b,,,,,,,,,,,b,,,,r,",
",,,,,,,,b,,,b,,,b,,,,,,br1>r>,,,,,,,,,,,,,,,,,,,,,,,,,,,,,,,,,,,,,b,,,b,,,,,,b,,,,,,,,,,,,,,,,,,,,,,,,,,b,,,,,,,,,,,bb,,,,,,,,,,",
",,,,,,,,,,,,,,,,,,,,,,,>r1>rb,,,,,,,,,,,,,,,,,,,,,,,,,,,,,,,,,,,,r,,,b,,,,,,,,,,,bb,,,b,,,,,,,,,,b,,b,r,,,,,,,,,,b,,,,,,,,,b,,,b",
"b,,,,,,b,,,,,bb,,,,,b,b,r1vr,,b,,,,r,,b,,,,,,rb,b,,,bbbb,,,bb,,b,,,,,,,,,bb,,b,,,,,,,,,,,,,b,,,,,,,,,,,,,b,,,,,b,,,,,,,,,,,,,,,,",
",,,bb,,,,rb,,,,,,,,,,,r,HX:b,b,,,,,,,b,,b,,,,,br,,,,,,,,,,brb,,,,,,,,b,,,,,,,,,b,,,rb,,,,,,,,,br,,,bb,r,,b,,,r,,,,,,,,,,,,b,,,,,",
",,,,,,,,,,,,,,,b,,,bb,bbrX,,>,,,,,,,,,,,,,,,,,,,,,,b,,,,,,,b,,,,,b,,r,,,,,,b,,,,,,b,,,,b,,b,,,,,,b,,,,,,,,,,,,,,,,,,,bb,b,H,,,,,",
",,,,,,r,,,,,,,,,,,,,,,r>r1,,b,b,,,,b,,,,,,,,,,,,,,,,,rb,,,,,,,,,,,,,b,,,,,,,,,,,,,,,,,,b,,,,,,,,,,b,,b,,,,,b,,,,b,b,,,,,,,,,,b,,",
"b,,,,,,b,b,,,,,,,,b,,,r,r1:,b,,,,b,,,,r,,,,b,b,,,,b,,,,,,,,,,,,b,b,,,,,,,,,,b,,,,,,,,,,,,,,,,,bb,,,,,,,,,,,,,b,,,,,,r,,,,,,,,,,,",
",,,,,,,,,,,bbb,,,,,,,,b>r1>r,b,,,,,,,,,,,b,,,,b,,,,,,,,,,,b,,,,,,,,,,b,,bb,,br,,,b,,,br,,b,,,,,,,,,,,,,,,,,,,,,,,,,b,,b,,,r,,,,,",
",,,,,,,,,,,,,,,,b,,,,,b,rm>H,,,,,,,,,,,b,,,,,,,,b,,,,,,b,,,,,,,,,,,,,,,,,,,,,,,,,,,,,,,,,,,,,,,,,,,,,,,,,,,,,rb,,,,,,,,,,,b,,,,,",
",b,,,,,,,,,,b,,r,,,,,,r,r1v,>bb,,,b,,,,,,,,H,,,,,,,,,,,,,,,,,,,,r,,,,,,b,,,,,,,,,,,,,,,,,,,b,,,,,Hb,,,b,b,,,b,,,,,,,,,b,,,b,,,b,",
",,rbb,,,b,,,,,,,,,,,,br,r1:,,r,,,,,r,b,,,,,,b,,,,,,,br,,,,b,b,,,,b,,,,,,,,,,,,,b,b,,,b,,,r,,,b,,,,,,,,,,,,,,,,,,,b,,,,,,,,,,,,,,",
",,,,,b,,,,,,,,,,,,,,,,rbr1,,>,,,,,,,,,,b,,,,,,,,,,,,,,b,,,b,,,,,,,,,,,,,,,,,,,,,,,,,,,,,,,,,,,,,,,,,,,,,,,,,,,,,,,,,,,,,,,,,,,,,",
",,,,,,,,,,,,,,,,,,,,,,H,r1:rb,,b,,,,,,,r,,,,,,,b,,,,,,,,,,,,,,,H,,,,,,,,,,,,b,,b,,,b,,,,,,,,,,,,,,,,b,,,,,,,,,,r,,,b,,,,,,,H,,,b",
",,,>,,r,,,,,r,,,,>,,,,r,r1>r>,,,,,,,,,,>,,,,,,,,,,,,b>,,,,,,,,,>,,>r,,,,,,,,,,>,,,>,,,,,r,>,,,,,,,,>,,,,,,,,,,,>,,,,,,,,,,,>,,,,",
"bbbbbbbbbb>,bbbbbbbb>,r>Hnvbbbbbbb,>bbbbbbbbb>,,bbbHbbbbbb>bbbbbbbbbb,>,H>bbbbbbbbbbbbb,bbbbbb,rbbbbbbHb,,>,bbbbbbbbbr>,bbbb>bbb",
">r,,,r,,,,,,,>,,,r>,,,r,rX>r,,,,,,,,,,,,>,,,,,>,,,,r,,,r,,,,,,,>,>,,,,,,,,,,,,,,,>,,,,,>,,,,,,,>r>,,,r,,,,,,,,,,,,r,,,rr,r,,,r,,",
"vv>>vxvve>>xvvvGvvG>vvG:H :ezvvv>evvvvvGvvv>vv>>vv>>vvvvx;>GvvvvvvvGe>vxvvvvbvvvvGvve>>vvvxvv>vvvv>>vxvve>vxvvvGxvx>G>:evv>>vvvv",
"oo3ooooooooooooooooooooo21oo2oooOooooXoX2XooXo2oX2ooooXoo3ooooo2ooioOooooou2<XooooioOooooo2ooo2Xoo3oooooOoooXooo2oooooooXoooooX2",
",r>,,,,r,r,,,r,,,,r,,,r,,,,,>,,,>>r,,r,,,,,,r,,,,,,,r,,r,,,,,,,,,,,,>,r,,,>r2=r>r,,,>r>,,,,,,,,,,r>,,r,,>,r,,r,,,,,,,,,,,r,,,,,,",
">,bbbbbbbbbvbbbbvbbbvbbb>,>bbbbbbbbbvbbbvbbbvbbb>,>bbbbbvbbbbbbb>rbbbbbvbHvHMjHvr>bbbbbHbbbbvbbb>,bbbbbbbbbvbbbbvbbbvbHb>,bHbbbb",
",,,>,,>b,,,,,,>b,,,,,,,,,,,r,,>b,,>,,,,,,,,,,,,,,,,,,,>,,,,b,,>,,,,,>,r,,,>r2=r>r,,,>,,br,>,,,,,,,,>,,>,b,,,,r>b,,,,,,,,,,,,>,,b",
",bHbb,bH,Hbbbrbb,Hb,,bbb,,,,Hbbbb,bbHbbb,,bb,,bb,b,,b,bbbbb,bb,b,,,,,bbbbbbHMjHbr,,,bbb,,bbbbb,bbbb,bb,b,b,bb,b,,b,b,bbb,,,,b,bb",
",,,,,,,,b,,,,,,,,,,,,,,,,,,,,,,,,,,,,,,,rb,,,,,,,,,,,,,r,,r,,r,b,,,,,,,,,b>r2=re,,,,,,,,,,,,b,,,,,r,,r,,r,,,,,,b,,,,,,,,,,,,,,,,",
",,,,,,,,,,,,,,,,,bb,,,,,,,,,,,,,b,,,,,,b,,,,r,b,,,,,b,,,,,,,,,,,,,b,,,,,,r>r2=H>r,,b,,,,,b,,,,b,,,,,,,,b,,,b,,,,,,,,,,,,,,,,,,,,",
",,,,,b,,,,b,,,,,,,,,,,,,,,,,,,,,,r,,,,,,,,,,,,,,,,,,,,,,,,,,,,,,,,,,,,,bb,brM=Hbr,,,,,,,,,,,,,,,,,,,,,,,,,,,,,,b,,,,,b,,,,,,,,,,",
",b,,,,,,,,,,,b,,,b,,,H,,,b,b,,b,,,,,,,,,,,,,,,,,,,,,,,,b,,,b,,,,,,,,,,,,,rer2=r>r,,,,,,,,,,b,,,,,,,,b,,,b,,,,,,,,,,,,,,,,,,b,r,b",
",,,,,b,,,,,,,,,,,,,,,,,,,,,,,,,,,,,b,,,,,,b,,,,,,b,,,,,,,,,,b,,,,,,b,,,,,,>rN=H>b,,,,,b,,,,,,,,r,,,b,,,,,,,,,,b,,H,,,,,,,b,,,,,,",
",,,br,,,,,b,,,,,,,,,,,,,,b,,,r,,,,,,,,,,,,,,,,,,,b,b,,,,,,,,,b,,H,,,,,,b,rb,M=rvrb,,,,,,b,,,,,,,,,r,,b,,,,,,,b,,,,,,,,,,,b,,,,,b",
",,,,b,,,,,,,,,,,,,b,,,,,,,,,b,,,,bb,,,,,b,,,,,bb,,,,,,,,,,,b,,,,,,,,,,,,,r>r2jr>,,,,,,,,b,bb,bb,,,,,,,,,,,,,,,r,,,,b,,,,,,,r,,,,",
",,,,,,,,,,,,b,,,,,,,b,,,,,,,,,,,,,,,,b,,r,,,b,,,,,,,,bb,,,,b,,,b,,,,,,,,,r>r2jr>r,,b,,,,,,,,b,,,,,,b,,,,,,,,,,,,,,,,,,bb,,,b,,,,",
",,,,,,,b,,,,,,b,,,,,,,,,,,,b,,b,r,,,,,,,,b,,,,,,,,,,,,,,,,,r,,,,,,b,,b,,,,bH2=rbr,,,b,,,,,,,,,,,,b,,,,,,rbb,b,,,,,,,,,,,,,,,,,,,",
"b,,,,,,,,,,,,,,,,b,,b,,,,,,,,,,bbb,,,,,,b,,b,,,,,,,,,,,,,b,,,,,,,,,b,,,,,rvrM=r>,,,,,,b,,,,,,,b,,,,,,,,,H,b,,,,,,b,r,,,,b,,bb,,,",
"b,,,,,,,H,,,,r,,,,b,,,,b,,,,,,,,,,b,r,b,,,,b,,,b,H,,,H,,,,,,b,,,,,,,,,,,,,>r2=Hbr,,,,,,,,,,,,,,,,b,,,,,b,,,,,,,b,,rbb,,,,,,r,,,,",
",,,,b,,,,,,,,,,,,,,H,,,,,,bb,,,r,,,b,,,,r,,,,,,,,b,,,,,,b,,,,,,,,,,,,,,,,rbr2jr>b,,rb,,,,H,,,,b,,,,bb,,,b,,,,,,,,,,b,,,,,,,,,,,,",
",,,,,,,,,,bbbb,,,r,,,,,,,,,,,,b,,,,,,,,,b,,,,,,,,,,,,,,,,,,,,,,,b,,,,,rb,,>H2=rbr,,,,,,,,b,,,b,,,,,,,,,,,,,,,b,,,,,,,,,,b,,,,,,b",
"b,,,,,,b,,,,,,,,,,,,,,r,b,,rb,,,,,,,,,,,,,,b,,,,,,,,,,,,,,,,,,,b,,,,,,,,,Hbr2=rbr,bb,,,,b,,,,,r,,,,r,,,,,,,,,,,b,,r,,,,,,,,,,,b,",
"r,,,,,,,,,,,,b,b,,bb,b,,,,,,,,,,r,,,,,,bb,,,b,,,,,,,b,,,,,,,,,,,,,,,,,,,,,>rM=H>,,,,,,,b,,,,,,,,b,b,,,,,,,,r,,,,,,,,,,,,,,,,,,,,",
",,,b,,,,,,,,,,,,,,,b,,,,,,,,,,,,,,,,,,,,,,r,,,,,,b,,,,,,,,,,,r,,,b,b,,,,,r>r2=r>r,b,,,,,,,,,,,,,,,,,b,b,,,,,b,,,,bb,,,,,,,,,,r,,",
",,,bb,,,,,,,,,,,,,,,,,,,,b,,,,b,,,,,,,,,,,,,,,,,,,,,,br,,,,,,,,,r,,,,,,,,rbbMjrbr,,,,,,,,,,b,,,,,,,,,,,,,,,,,,,,,,,,,,,,,,,b,b,,",
",,,,,>r,,,,r,r,,,>r,,,,,,,,,,>,,,,,,,,,,,>,,,,,,,,,,,>,,,,,,,,,r,>,,,,,,,r>r2=re,,,,,,,,,>,,,,,,,,,,,>,,,,,,,,,,,>,,,,,,,,,r,>,,",
">r>>bbbb,>>,b,>>bbbb,>>bvbb>bbbb,>>,vbb>bbbbb>>b>vbbbbbbr>>,vbb>bbbb>>>HbbvHMgH>b>>bvbb>Hbbb,>>,vbb>bbbbr>>,vbb>bbbbr>>,b,>>bbbb",
",,,,,,,,,,,,,,,,,,,,,,r,,,,,,,>r,r,,,,,,,,>r,,,,,,b,,,>,,,,,,,,,,,>,,,,,,,vr2=r>,,,,,,,,r,>,,,r,,,,,,,>r,,,,,,,,,,>r,,,,,,,,,,,,",
"lkhhhhhhhhhhhhhhhhhhhhkhhhhhhhhkhhhhhhhhhhhkhhhhhkllChhkhhhhhhhhhhhkhhhhhSCFmdFhAhhhhhhhlhhkhhkhhhhhhhhkhhhhhhhhhhhkhhhhhhhhhhhh"
};
