/* XPM */
static char *pumpkin_face_off[] = {
/* columns rows colors chars-per-pixel */
"128 128 64 1 ",
"  c #AD4E07",
". c #AB4E0A",
"X c #B34E05",
"o c #B14E09",
"O c #AE5107",
"+ c #A7510C",
"@ c #AD540C",
"# c #AF590E",
"$ c #B45307",
"% c #B95507",
"& c #BB5807",
"* c #B4550B",
"= c #B95609",
"- c #B55A0D",
"; c #BA5B0C",
": c #A84F10",
"> c #AC5512",
", c #AE5913",
"< c #AF5C18",
"1 c #B35611",
"2 c #B95612",
"3 c #B45C13",
"4 c #BA5D13",
"5 c #B45E18",
"6 c #B95F18",
"7 c #B6600F",
"8 c #BD610E",
"9 c #BF6A0F",
"0 c #B66116",
"q c #BC6215",
"w c #BE6A13",
"e c #B56219",
"r c #BC6419",
"t c #BE681D",
"y c #BE6921",
"u c #C05E0C",
"i c #C05F11",
"p c #C1620E",
"a c #C36B0E",
"s c #C86F0F",
"d c #C9700F",
"f c #C16414",
"g c #C36C13",
"h c #C1651A",
"j c #C2691C",
"k c #C96D1C",
"l c #C67313",
"z c #C97513",
"x c #C77813",
"c c #CD7D14",
"v c #C67018",
"b c #CD7D18",
"n c #D07F14",
"m c #C36C20",
"M c #CA6D20",
"N c #CF8015",
"B c #CF8018",
"V c #D28214",
"C c #D88616",
"Z c #D78814",
"A c #D88914",
"S c #D08118",
"D c #DB8718",
"F c #DD9015",
/* pixels */
"3;#>113**-*uX%;=*434hii4r6643;&uu%uu=4;;44i6rr4q1-3;;f;;=;u4;;q0hhh4fhhh4;-;8;---&qhfq0q0q4433---&7&&;8-&;-44334w643-#%--$-$--70",
"3;-,331*%&;;$%;;-34hj4ihhi643;&u&&u&;;&;0qrrwqq4---uf;;;&;;;-800hhh4hhhqq;7--8-;q-800qeq30fqq4-;;-&&&&8&-;44qqq306444**&**-$7--3",
"3113360-*-;;%=*-*3r6h43q6ihiiu;uu%uu=;;-r4460e00--8q;-8;;;8;-00qi6hhfhhqf;8;;88&37q0qrrq4hr4qq&----8u&;;&3446q434q44q--;--#-34-3",
"33113q44O*-;%=;**4hht03334644i4&u&up;;;46eeeeq0e--q8;-qu&;q8#-q04hrhrhhrq-8;;78--4e0rqq0qq4rqr8-&-78&&up;qq3404rq4q44-&;$&##4;q0",
"45334464@---*;-#30hh0h5<<3qqif;&u&u;-7-q0rt000we384;3-q8&u;;;4r0rhr0rhr43;;8&88-700q0eer3qqqh0;-&7&7pupp8;q4irq0q40j4*-;&--;04q0",
"433336h4*---**1-30rthjy5e4q;64&8a;8----3eqreeeee,3q00--8;;;-4q006rq6rh0qe088;8q8-30qe03rrqfqhr7--&-7&;p&;8;4rhhq-q4hf--;-&&-343e",
"33330331@##-==;#,eejyr66wfq43q88;;7-;-8ee0reeeee7#;3w43p;;87-3e-5eer0rh6r078;-88;7hre040wff44q;;7&&78;p88;434ff430wfh;-;----4q33",
"5334q35331*;;*4-13er3eryrhfqhfq89&8878;00r0tyete-0-qq-q8;;q7-33e06rr6trr00-q;;8;884qr0rhrr644;-877-;u;;p;q44ifr4q36rr4;;&&--4rq3",
"r44if4hq43-;;;;-16353eetffrqrhq;8;87--8rwqttyeee00-70070;q7-373qqrrqqtq0re088;;pu48qw4fqrww;8-&88u&8;8pu;43;ih60e33q03-8;;-*-04w",
"r44444r44;-4=;;-30q5eeerqqqr0hw;88;8#7-rreeeeee30e00,307;;8037q0rr0hr0trrr;88;;pp8qqq4qqrhqq-&88p8p8;;;8;--;ih40e330e-#--;8&3q33",
"4qqq4fh4;----*;;-05eerte0eqqfr437-u07770erttye<e00000870-88;8;40r0hfqfhrrr88pu;u88-08qqwhhqf9&8&8;p;;;78;7--ffq0300q<-,7&&8-3f43",
"3qqqhfjr---;;;;;--336qee0e0rw00388;4-870erwttytr007-7q8q4;q74;qwrrhrqrjt0r08pu;u888-;qrthqqq88888888;;;777-qqqhq0reee,#-;-p--rqt",
"h06jhf643--;u;;---;qrq3r0e6r004-88;u784qrwe0jttter087q8qpu48-q7rrrrtrtjt5r88fp;ua;;;;qwrrqrr7888;7;;;8-07#-0qqhqee0ee,#--88#33hr",
"qrhjjfr4;;;;&&;;0qqqrqrte0rrhh8484;aqq;0rrerjtjjrwqq8808f8p88-0rhhrtytyrrw8pp;;pq8;444rj0qjr8;88;8q88;887--34wrqet00e,##,--#-qqr",
"h6rhhrh64;;;;uu=4hqiqrfr006et0--;84;8p-qtrreeerrrhq8-070f;pq00r0trtjmytthf88a;&p;88;qrrrhqwr8788ppa;8;8q777qwhhqee0e##-#-8---rhh",
"hffhe0t6q-;pu;u*44hhrrrq0er0e07884;8aq90rtrwtgjhe0-70780qup;8qrqrtjfmythhq8;puuf8;4qrhhhrqfq887-&8pp&p888&88h6qrt0e0,#e-3;;-*rq4",
"r4jy5r003;;i;;p;;qqrr50e4eeq0q3;;7cnVccccccNnVnnl0-0q;q4qu9qe8qhjjhwjyjttq8889;f;gxxncljjqrhq8707;pq8;88&88q0rtete0e0#3-,7-#0303",
"63eer0054;;u&uuu;q44rrrqthq4qq8;aVZVVVcNBcVcznVVZc0-0888p870r;qhhwhrwjhtt8878;84gcVVVVVchrhhq77777q8;8p;87-e0weeet0we##----3-e33",
"hq<e3e30q;u;uup;4rqhrfqqrr3;qqq-zVZVVVVcccVcnVVVNBc8q88fq;q7q0wrrjhjtjrtj7778a;sVBVNVxcVcjwhq8070--8&ufp88;rheeeeee<w03,#--0130w",
"r355eee3q-;;uu;;4hrrqqrr4t034q-0zVZZVVccccnVVVVVNcZz48ua8q8808frjjjjjthrtq888f;zBVBVnnnnVvhhq40-078p&;pp8&4r0eeee0ee,##-0-3-333r",
"35ee<ee54;8;;p-84hrfqwhhfhr0-0q-cVVVVVccBVVcVnncVVNVr88fp48fqqwthtjjjrtrre0;apfSVcnnnncccVlrwq77898;&au;88eee0ytee3e,-;-38-#-,<3",
"3qer<tet0-4;q;;0rrrwrrffjrw08-0-cVNVNVcxccVnnVnzVNcBw;fquf8qqf4hjrhhwtrrtrr9p;zVnccccncnBnZcjq87;8p;&u8;;qrwh0ytw0qe-3--8;###300",
"4q5ettrr,-;;8-466qrttrwwhhte870-xVVVVVccccVVcnccVcBcnq4f;f8qq8fhrhrhwtthjt08ugVVVVnccccnccnCnl88q;auup8-44hrrweyeree3#774-#--133",
";q4eeer3-4;3-33whqrtetqqhhwr-009VnVVVVNcBVcxxcnxVVNVCcsuuppfffqftwwhhjhjrrq;fnVcccnncxnnccVVVCx8;;fu&fq88etr0eteewee,7-0;----;q3",
"344003e3-q-;,000w0wttt0qhqrh4q3xVVnVVVccncnccVcxcZnnnVVlf8;8qjqh0rhfhhjjmh4;lVVSccBcccnVccVVVVVV8-088a;;;eeee0tt0ree0-7-;--*&-qq",
"50r0eee3-8;8#00ee000eeeqhhfwrelcxccnZVVVVnVVccxcncVnccVcg;q4rfrhhjhhhhjjjh00ccVbccccccncccVVVZxVl-0-8q883ee0e0rteee,<3-3;--;&8iq",
"33ee30,3878-7000ee00eereqhfh4lVccNccVVccnVVVcxcxcccVcVVVz38qrwqhrfhhhyhhrq-lVnVcccczcnNcccVVVVNVV0,7-q083rt0reeeee000#78;---;464",
"530r00<#-;;8#rrree0w0eeqffhhncccVccBVcNcnnnVzcdcccnncVnBz38qrqfhhfhhhhytq7wNnVVVNnczxVVxNVVVVVVVVc0--87740r0r0tret000,-7;,3-4465",
"3e0e003--8;;44rrrwqqqqqqrh6cCncccBBcVVVbccVcnnncccxnVccBl4qqq4wthjhrhhhr80xVccVVVccdVVcccVcVVxVZcVx;888000rwwqjtre03,7#8;3;-;443",
"q3e0e30--888-3qqqrfqqpqwf0jVnVnncccccVccccczcccdcncVVBcBc;8qr4rhwjrrhtrq-7VVcnVVcxxxVVccNVnVcVVNVxZxf8-;3qrr0err0e0e0-,8-4;--;e4",
"q3003e0--8;83q0hr4wffqrfh6cVVcnVccVccccbccVccxxzcnVVcVNVn;qqrqrjhrrrhtrr8qVccVczzncnVNVVVNVVcNNccVVZc;883eht04r45qee3-3#3-;*-44q",
"00300q8-;;p--q6f6fhqffqh0fVbccccVNNcBVccVVnccdcnnnVVcBcNx;;4qqhhtmyhrr6f;lAccccnnznnVcNVcnnVVnVNcVVVV9;-4e0yh4005e038;7-7-;-3r04",
"0t000q4#8;8--qwhhfqfqfih5vCcnVVVVVnnVnbbcVbcccxcnVVnncccx4;788tfmjtrrwqrqaVcnnncVdccVVcVcVVVnVVnccNVZa&83eete3e03e0eq--;---#3r43",
"rr0qe3-#8;8--qqhrrfqfqhihSVcVZVcccVVnncbcbcccccncnnccVcNcq8;8qtwjkqqqq0qqgcxnnxcxcNxVVVVVVnxnnVZVBZVVc-#3e<0e,5r03e5q3;;----434e",
"wtrqw47;;;8--4fhhqrrr6hhlZccVVVcdVcVVnnccccVVzncczVVVcVVc888;qtjjkrqqq3r3gVcVcdVVNVVVVVccVVcnnVnccVVNc-#ee3e0-e33e5q4-;=7-;;q53q",
"rreqe,-3-;-;434hh4if4hhhcBcBccVBccVnnnVnccccVnnnVVnVVVVcc;9q9qhhhhtt0qq83lVdccncZcxVVVVccVcdnnVVVVVVVNw#35e533w3005031=;---#633q",
"t63e3-#---8;;qq0hfqh4hhflnnVccVnxxncVZVVnnncVcncVcccNVcZc;hh8hhhhtrre0781wNNcnzcVxncncVnxccVnVVnVNVZVVN73e0wq4q0ee504-;;3*34qqhh",
"553qq----;;--04jhhh0qqhrcVcVcVbVcnVcVnVVVcVnnncnNNncxNVVcqwqfq3yw0eee000,xcVnczcnccccVnVVcdcxVVnVVVVVVNN330rqq00e<re4;=;;-qrhrqr",
"ee33--##;;--304qrfhrqqqrcVVnBnccccVcnccnxcnVVnzncxVccVVVcqwfjrrjrtre0e0-8cVncxcccZccVncVZcVNdZVnVVVVVVNV930eer00r0q33;;=;-3hM03e",
"eq3e33#-;-;;3qq36qfhf4qqcVVnccVVdccVnccnccVVVccnVNcNxZVVcqrhkMwhteeee00-gVnnnxxcnNccVcVVVcxNnnZVVVVVVVcZx<e0,e0,eq053;u=--4hrwqe",
"e3303###---#7qq40-hhh6qqnVcZcxcVccnbnnVSNccVVVccVccVcVVVc0qqhrryttereee-sVnnCncbccnnVnnVncdcVZnVVVVVVZVVc7O70rrr0rrr3-;;-3qqwe33",
"e030#----;8-#000q3wrj00tVVxxVVcVccVcnCncVccVVcnxVnVVcVVZx-q3te0tttjttr00cVnVncnnZcnVnccVccVcnVnVZVVVVVVxV8#0errkt0rr,-;;--;q3333",
"e3-e,#-;;-;--3,qq1hr6mMjnnVVVVcclcccnVVnccVcccVncVxnVVVVl-07e03eejtttr04zVVnclcVVnVccncVccncVVnVVVVVxVVxNc7thjtr0h0re#---#-3,3r3",
"ee,0,@-;%%;-333er1405jhjVcVVVVVccccbccVnVcnccccccBcVVVVV93-3qq4rrtttrr03zVVnnnnVVVVczcccnncnVVVVxVVVVVVVcVgqkhh04hwf0---7#000333",
"0<3,#--;;&8&;3-e3300rf4wVxZVVVVVcznVVbcnVVccbccVzVNcccVV;0-0e70hretteee,lnnnnnVnnnnnzncxnxcnVVVVVVVVVVxVVVVgrjhmfh647@-7##14rq33",
"3e33---;&&;;---0q;qq4r4aVcVVVVccccccVcnVVBbcccVnczVncNVx8;-;qrqwqrrrte01lVcncnCVVnncVVcnnccnVVVVVVVVxVVVncZnrf6t6536#---##,4qq4q",
"0e33-&;;;&8&&---43qfqt0xVcVVVVVcccnVcccVVVccccxczcnnVVBz-77-0r8qr0rr0te3gVcnnnVVnnnnncnVcccNVVVVZVVVVVxVcNcVh30533e3-#--##3r4hqr",
"r0,3#-;;&;8;&-3-;4fqr08xVVVVVxccncccnccnVVVccBbccxnVVVBx-q-730-84h0t0ttqfnnxncnnnVnnVcVcnxcnVVcVVVVVVVVxVNcVl5er033<#-7&-#6irf43",
"rrq3-#--;&;;&---7-qwqt0VVNVVVNxczcVncnnxVnncnVbcxcnnVVbc;u8;;r8-ih40r6hrfnczcczNnVVxnncccnnnVccVVNVVVVcncVVVx3eer35<--;;;-4qq4>3",
"443-##-#-&u;*-#7--00qrrVVNVVVVVcxnVVnVcxnVcccVnccccnVncn&&u;8q3-qrhrwrh58ncnVncVcncxnnnnnsnnccNcVVVVVVxVcnVVZr5e3303---&;-;30333",
"3333@#*--&;%*-@#,,e-0erVVVZVVVccnnnVVncdcnVccVVnnnnVcccVp&p;;;--55650trtrVVnVncVnnVcnnnnnznncVVcVVVcVccVcxVVVx,030q4-&;&-&-qq3-4",
"13q3##--&--#*-##0,00,e3cncVVVZcVnVncnVnxcccVccccncxVVBcV;%fi88qqrr06qr6r0cxnVVVccVVxnnccnccnnVcVVNcxVVcVccVVnVw1q43-&;-%&--q41#1",
"#3#-*#-7*---*##-335000elNVVVVVcVcccncnVcncnNVVcVncxVVVcB;&pp7-qq6rr64e5r3sccncBVccVnnnncnccnnncVZVcxVVncxcBVBVh4qq4--;-*-;-36334",
"01-&*#-&%-;-#@,,353qq0evNVVVVVccBccbccVczcnzcVVcVVnVVVSc=;&u703-5rtrr05008cnccxVccNczznzcznVdccNVVVVVVccccNZcSg-f443*-#&**#333-3",
"3-*@&;&-%-#$$&--3eq3e5eecZZVVZVccnnbnnVVccnNVVVBVcccVVcq-*;q-0003qejrr060-xVVVnccVnnnnnnxznVcccVVVVVVccVVccVcVw,r63*#--**--#11*3",
"-*&*&&-&&&#--7-43q440teeqzcZVVVcxnVnbCVVxnccVVcVcVccVV84;;--3-0,3450jfh6--aBcVcVnxnnnnncccnVZnVVVVVVVVzVVNcNSVx4q3-3*&&&&*-#33%4",
";4=*%&*---#%-,3;qq44qe303348lVVnxcnVBccVcxcbcBccVVVcVw-q=;-1-0q33<56t0r0;;udVVcVBcccBczczcVcVcVnVVVVVVxVVVNNVVl5q333**==;==-3##3",
"=;3*-$&&%-#-#33-4404qq0;03#1-wBVcnnnVcccVccSccccVVBcw>3;;-7,3330530m3066-;u;zVVccBccVxnVxcVnVccVVVVVcxcVNxVNcZw30343--=*&;;*1@+4",
"%&;;-&&=%#*-,,034444448qq6--31gVVcncxbbcVccccbNVVVxg*-;;;-3-3;4533rrrr353;;;&zVVccNVVxcnVcVccNVZxVVVVxcVcNVBZc404664-**=;&u*-1*4",
"&;*%%%;%%-#3<3334qq44q8qr31**#-cccncccbcVccbccNVVVf4--4f%&q---4r43rre63rq-;;;qVVcVVVVVxnxcBccccVVVxxVdcnNVVVc444q443-%&=&==*-444",
";==%%;;&%;--1,5333334qq;43--#**8VcVBnVVVVccVVVVVVl6q*;u;;&4;;34330q5e3043;;;;2sSNNVVVVVzxcnnVcccccncNxVVnnZa3435rq64;*=%;=*#143q",
"4;;=*&&%&&--43433330448333--#*;=zVcBccVcnVVVVVVVnfq4;4;;&;ui;;4r0360r3t4-;u;&;;lABNVVnccncxnnVcVccVNVVNNnVs%33444444;==&&&**11;q",
"4;==&;&%;-$-q330<<3034qq534--;-;&dVZVSScccVZVVZNr344;;qq&&i;;;qq#33qqqq---;;-14-gVVVnnxcVccnVVNNNccNVVxVVa%;*33344442*%u&;*-1343",
"4;==-&;%&;&44433353-q4;q33;4&-&&=%;glccccVVAZVdq333*-;;;&;uu4-30#144r3----;;-1-;-8xxVVncnzzncNVcNcVnVVVxp=%*=464644*==%==u**33;;",
"4**;&*;%%;*44q333r3-33q33q;-&&&u&&---##3030ghe335<1,#4;;&;;;3334--e3534;--;;--q;---4fggzcnnnSVcCAVVccd&&;%%&;qi44444=*;===$=4244",
"4;-=*%&;&=;-40;;333-63433q4*&&&p&&8;-#@#5533q3e43333;i;u%;q;;-3q--33r04---;;--q--;-q44-3qgadlglgg8--;%&p;*-%;4ii44i4**u==**=;i2;",
"i2;*-%%;&;;-4433333,030qq3-;-&-;&&8;-,#-3q3q03e5004-*;;u&;;q8-30;-e303##70-0-----#-340-003-334*-----%uu&*---44i44i42**u==-*=2iiu",
"444-;-*&&%*;3q4313<333334f4----;;%8--,-#3330303eqh44&;i&&u;4;33e;;3e00#--##--q-07#0313#333--e4---1@#=Xuu;;1*44446443*Xu===*&u44=",
"44;4=*-&;&%;;43300,30033fi4*-#-;%%;;;-##3335,3eeqr4;;;;&;;2*#eee0&33q0-#--0#;-##--30031303-#-3***&;2u%&u=24*46442444*=;=====22;;",
";443;%=%&&%%;463-3333035;;*#*#--*=u;*;#,0e,5<16040*--;u&=u-13<303;4454--787-&77-8-733433qq&;31--=;;;=%;;&=;=44444644=&&*==;34444",
";;4===%u&&%&*;43-3q333e333*--#@&;&;-#-*33e<5y6r444-;-;;;;;;-,0e53-;;q3-300-7-7#----334544q&;3#--;;u&=&;uu;2&4i;ii4643&&X%*2;3-;*",
"=442-&%;&&%%;;433q-,1,3534>*$#-*;%;#---33<3<55y64-%-;;;=;;;;13554ln443*--8r--3#---4333534q-43*--&u;;====;&==244i;i43=;;X$==;344;",
"44244*&;u%%%$%-44-33333344gdcnVcz&=;-;*33gzclte6q;%;;;;%;;;-;355lVVcczz;;;;--8-----33q5344443#-;;;;;;%;;;p;pa444i4243=&%$;*3;;4;",
"22442==&&&u$**4;433333303gABZVZVAz***-;1wZZZVVcq3-%4---*-;-;355wVVVcVVVa*--;&;-&--3q3,34qvzcg;***--;%%;%pncNcnf42444;=&=%;%-444=",
"43441;==u%;%---;44q-33103zZcVVVVZV;**3>3VVVVVNVl2=*4*;as----45eVSCVSVnCa--&;$aV9*34hq054nccnVDn;*#1;$;-*ccccnnN424444*&=X%%*34;4",
"114=44;*&%=%%&%%443;4344;VVVVVVZVZs$13,vZVNcBNNx3=*-*gVVa=;*34cccncbVnVx$&-;;VVZq333463cVxnnDCCx;---*;$wNcVVcxc013>14**=%%%*;=31",
"i42i434**&;;%;&%=4344341qZNcVcVVVZn;*24VVVBVncVnz**-=cVnV;;32gVnccccVccV-&;;nVVVw*3,33cVVVcccVcVz+-*==ancxccccn4<,>>4=*=%%-$@*14",
"22i4=44**%%;;&;%*34aq13>qZcZccVVVVZd45lVBccVcnVcnp*-gVSVCf%-4VCSnxVcccnV8-*aZcVZx1,3,zVcVVnVccVnV8$;*pVVVxdccnZa12>>43*=*%&%*44=",
"u2;244i2*=%u&;=%$=4VV3>3xVVBcVVVVVVV4kVnccbcVVVccz$;VVSVVz=4vVVVnlVcccnVd-;cVBBVV-#>gVVcnVnVVncxVc*=$zcVnnxcncVc24,>13*==%;$*44=",
";4431442*%%&;&-$%*fVVl3fBcBVccVcVVcVlVVncccccVVccn*sVVBVVV;fAcnncnnccnVVx*aZcVccVw@cVcncncnVxnVNVcpX8cVVVNVnnVVn41>1*4*%*%=%=2-4",
"2=4444==**==&&;*&OgAccnVcVncVcccVVccVVVncBVcVVnnxVgcZnVnnclzVVVccnnnnnVnVpdVcBcnVncZnVxncccVcccVnnz$cVnVccxVcVVcg21124%*$=;$*4=;",
"=4;23224-;======&&VVVVVVVVcxcccccncVVVVBncVVVVnzcBVBVzcnnncVCnVVccnnVnVVVVVVcVczVVVnVccnbcBcccccccccnVnnVcncnVnnn41212*$%X*$*;33",
";;21143=**=**==*@dSnccBcnnccnxccxcNVVcVVccVVVVVxcbcVVxcnnnVVVnccccccccnVnVVVBVccnccVccdVcnnnBcVBcznnncnVVncxxnnnVq111;=X$X=%*=;3",
"-*4131*2*$**==*=$zVVVVVVVncnVVncccVcccVVccVVnnncccbbVVnnVnVVnVVzzcnncncnVVVnccxcnnVczVcVnVVnVnccVVxVVcVnccdcnnZnVg2322X;X*-$$*1*",
"1=41*14==**==%$%$zVccnVVncVnccnVVNnVccBcnnbnczcxnVcnnVccVnVVCnczcnnVcVbcnVnVxcnxVnVxcVcnnnnVcVnVcccnVVnncccnVnVcVB2*21==$=*X$*1*",
"422*1*1**o=*=;$**xVVBcnVcznVnccZVcVnVxVccnbVncnnlnnVVnnccVnSVVcczccclSVccVcccnVnVnnxcnccncccbnnnxcczVcVnnVnVcVZcVN412*X;X==*$$24",
"422*12*1=*==%;%&$gbcBccVccnccVVVVnnncccxnbnVVVVVnnVVnnnnnVnnCVnVcnnccVVcnVnccxnVnVVnBcdnnnncnVbnccccVnVnVnnncxVNNV4>1$*&XuX**1=4",
"*14*=13==X%%%&-O*gVVVccnccnVVcVVNVVVcccxccVVVnnVnnSnVcznVnnVnnnnnnVbVVVVVVccxdncncnVVVncnVcccVnVnccnVVVVVnnVccNNVVg*=X&XX%=*=4=1",
"=421*=1*X==*%&=*$zVnVccnxnVcVVVVnVVVBcccnVVVncVVnxnnncccxVcVccccccncVVVVVnnnccncnnnccVccVVVccnnVVzzVVccnNccNccnNZcnqXX%%%%**22=-",
"132*o2o**Xo=%===$8VcVnncdncVVnVVccVccccccVVncbcVczcVnccccnnVBccVncccVVVVNnnVdccnVVnbNccVcccccccVVnnzcccVcccNccNNVnnV&Xu%X%o*12*1",
"1141211=Xo$===*o*$nVVVncVVnnnnVVcxccZVccccVVcVnVnccccVnVnncVccccVcccVNcVncncccnVnVcZNccNVVVcnncVnxnccccccNcVncVnccnVn%%X%=X**31*",
"34=22**2*****=**@$lVncclxVcnnnVnccnVVVVVnccVBnnnVxzncnnnccccVBcBcccnNccBnnccxnnVVVcVNcccccVcnnnncccncccccVVcnnVVbcVVC;%XX%XX*2-1",
"1*-2**=1*@**$=*$*.qAVnnxxVcVVnnncbcVVVcVnVVccccVnxnnnnVVBVncBcccVccVVnccnnVncVnVVcVVVcccbcBcVnnVnxcVNcVcVcVVcnVVccVVApX%X=$X*321",
"*2=12*=X***=***$*>-NVVVxcVVVVnZncccVVVcVcnVcBZVVncnnnnVcccVVccBcnccncVVcVcnczVcNncVVVcVVVccccVcScnNVcBVVVcnNcnVVccVVAp%XX%$@*22;",
"133121=.>$*$**$*$1*annnncVVcVnVVcNBVVNccVcncnVVVncznncVnccncbccBnnccVNcccnVnVcnccccVNVVVccccVnVVxxncVVVVcVnnVnVVVcBVVnuXX%$*$32*",
"113311$$@$*$**$$o>,-zVcZVVVcVnVNNVcVVccnVcnZghVnncccVVVnVcVVbccbnncnVdZcnVVcVnccccVNcNVVccVVVcncccnnVVVVccnnnVVVccBVnc%XX=$$@2>3",
">:,,>>+%$====* @@1>>lZcnVcVVnnnVNNNVVccxVcVV46nVnnxnVnnVcxnVccxcBccVVqVccVccccxVnVVNnVVncVcBcccBxV;9VVVcVcncdNzVNcnVBz=XX$*X*>11",
">>>>>>.==*=$=$$##+1.9ZcnnnnVnVVVNVNVVVNxVnVa22jVnxccnVcncczVZBcccVcZc>ccVVcccNcVncVVnVVncBccVNccVd*.zZcVNVccncxnVcVVVz=XX=*o.*>>",
">:,,+1$$@O**o@+@1+>>qZNNVcVnnZZnVVVVVVVVBcNq624VVcccbcnVVccg8ccbcNBVa:xVVVVVNVnVVNNxcVVVccccVcBcV9O$-cVVnccxcVccVnVVVg=XXX%X.>>>",
"@,,,>+#+.@o.+@.@>+>13cBcVccZVVVVNVcVVVVVVcx4444zVnVnccVncVn@>xBcBcVc1.0VBVcBcxVVVNVdcVVVVBccccVnn;X**qVcnczccNccnnVVVfX=XX%X*>1>",
">,:<,1#+.#oo+++:1*11>jNcVVVVZVVVNcVVVZVcVZl2466jVNVVVVVVcVg#>wVcVNNq1@-nNVNVcVVVVVNcVVVVVVcccBcVz***@oqVVVcBVVnVnnVZZs=XX$* *11>",
">,,,#1>+@@$@>+$@>11,:qNcVcVVnVZVccVVZszVcVw4324rVVVVVBVVZV-*:3VZVBc,1>>zVVVccVVVVVVxVVVVVcccVVcVg1*X**$zVNVBVVcVnVVnZpX%X==Xo1*1",
">>>>*>@.$@.@+*1>1>>3:wBcVcdZVVnZcBcVV dZVn1q2624NVVVVVVVZz@3#1zZVVx1,1+7NVVVVVVVVcVcVnVZVccccVcN;*=*=**;NVVcBVncnNVVV=$*X%%Xo2>1",
">>,>>1+$$@$$@..@>>+3,rNcVVnVVnnnBBcVsXqcZn33266exxVVVVVVVw.1*1gZVZl>1>+#cVcVNVBcccNcVVVVVccBNNVc*=*X==$.qVcZBVVSVNVc*$$%$%$@$1*>",
"1,>:11#$*$@$$@+>>>>123cVcVcVVZccSVVz$*2zA0142652cVnVVVZVV#+*1<2zZV3,,>>#cVVVVcVqsVxVVZaxZccVVNVs*-*=****2vcg2lScVcV;.Xo=$%%X **>",
"13,,*2*@.*$o**3@>11131lBcVccVVccVcVq.->lv<565455aVNVVVVAcO#O>,,qVx31>>1@xccVVBc>9ZcNcZ0dVcVVVNV7.1**#***342211lZZVa * ==$X=$ @o>",
"1131=41$$**$$@3>>33>114VVVVccncVVVn@+*,fw5q132558ZVVVVVZ9@*#<43qx34<>>>$lVcZVBw.7VVNVc>3cVVVVNV8**@**-$>52;22,3flh$. o==XX=* @*1",
"1114;41$$==$*$@#2333>13hVVZVVcVZVVq:.><qte6533657VcNVVZx@@#-3313g464,<3+xBVVZl#@7VZVVg>,9ZVBZNc$*@****+3242213321*.X@$&X$$=X $..",
"*333=42*O**%*$O$431;3212qVVcVVVnVl**>1435<333353-xNBVVV&$####31>6iii323>lVVVn*@+#VVnZ3>,>cVBVVhX1******33241352444o$@X*=*X*@$...",
"1131==2*$$*$%*$#*1142323*;VCVZNVn**o@,,3<53,13551xVVZZc$**#*131#566652,.lVVc*=o$*VVVl><,1hZBVx*-=-=***1223131124*21$ $**X*=$@@+@",
"1=33=2**O$*%*=%$*34223213o-sazxa****+,1<55335455>hVVNZdX**=**5,><664351>zAc4o1@#+zCVq11244VZVq*$=;*=**#45241*=46412*XO$=%X=o**>@",
"4=;442**$*;$%*$#@24443332**. $* o4=-$1<3<<3,44,3,3VAVZ8$=***13,>256643,@wc-*=1##+aFl54133*gZf-4@*;==*$*314234156432@.X*=oX.+*1>1",
"1324;21* =*=%;O$*=4242622@11$;=*X2=**3133,3535e66*azg8*=*>##,3>,3<,66441:>@>*>##+-cr343442<4*1**====;**324264144;=2$X$*=oX*$$**>",
"13;*142*X%==%*$-14242o621*1*X=XoX*-3#153,,564r066#$***=***#>,1#3513163i4>#@-1--##>@144443332**=**uXX=**=*4434;44242*X*$*Xo%@>1:*",
"@1*;=411*$&=%***;144=2624o1=X=;=X&=2$,5443356e33,@*3;=***-#>3>>3563>3533****-;-#*-3444444222***$*==X=u*124444311443**.o=XX*.$>:@",
"@*43321*=$&=%;$$1124o=624*42=;;&%===*33445363e431+*4**-**--#13333,3*,33-*%-;;;-$***4;4466443*-;-;1XX=%*3324544544442X*==o=%$*1>1",
"1*433*44*X=&%=*$*444X*62444*==;&X%&;*36461335jr61##----**--3-#3,,<33><<1-@;;;;-&*--4i6624524=4***-*%%*$*12443333444**o=&$=*$*422",
"42433*42**=====$**44*26h41*>*&u=$%&;=266633>5tr41-*-;--**--q3#3335333,31-*-&;;&--**4ri6242=44*--*;%$;*#*34i053554244*$**$***1124",
"422-=;=4*%*=%=*=**=*464i24*21==uX%=;*444424403003-#--#1*;-#-##,,53353333-&&-&--&*;266ii631=333-*-;=%;**12464r353;442*$$=$;**=13*",
"141;4=34*$%=&;****3*=6ii42442====*==*14644465e633-#*3#--*--@#---33335551--*-7***342rih6y4134*-**%-*;*#**44334333;42**@*=%&**2423",
"*4*3;411+$#*&=*$**=*242ii4432&*;%$&=X=463644333-*---#------*-;#3w46340<-@*-;--**4;4qqqii443**%%%*&;%****44311<342i44;**&**O@@>>,",
",13>#131$O@&===$=1**i46646542*%u=$u==144444644e##,#1;---*-;-**-@6eq63331--&8-8-&q4qq4f6i443*#*****;%;;#-*333,3334ii44-*&;%$#*13,",
",>11134*$@#*==u%*2*4666i44433;=;=*==;*4466340433@>-;;#-;%=;---,-35353q43&----&--44i6firh4*33%-O##O-%-***#,4333434h44;4-O**$->1*,",
">,1314**@@@**X2===22iii66652**$;=*4=*;44644660e3###-*@-;%;;=*#3@5r3eqq647-&7--08q46whjhi44q--O#@-$-;*-;**33eq334f443-*-*#+O-43-3",
"131131@$@@$=%==**=346i6664444;*;%$u;=444i44h3551--1-----%;;*-334056rihi60#;8--08--qrhkrrh4he3-###*#=*;;*$#334444431*@@-*-@+*1-31",
"34,,13>*#*#=%%;=*=44iii64h424*%;u=&=*2i46r64q353,;--;-;-;;;-;-q6r4rfhiir8&;&8&--#;rhqrqr446r0###--*==--;;*1044;4431#OO-***$-3#14",
"13,1313****=%&&=*-44464ifi444;=;%u;;%;446r64q03311;-*-4-;;;--;4r4hr4ffhfq-&;8;---;rrr4334fhi-,#%---;;-;;**-33134q43@O-@&&&$-8,33",
"13*1,3*@*=*&%=;*-2444h44646;4;&u%uu;&444it04q03e----;-;;;;;-;;46rrhihfrff--;;8---;q3qqq3566i1,-*-**;;-;*-1*4rq43341-@#&-**##-3,-"
};
