/* XPM */
static char *stone_slab_top_s[] = {
/* columns rows colors chars-per-pixel */
"128 128 68 1 ",
"  c #310700",
". c #360700",
"X c #340700",
"o c #370700",
"O c #3A0700",
"+ c #390700",
"@ c #410700",
"# c #3E0700",
"$ c #330700",
"% c #2B0700",
"& c #2A0700",
"* c #290700",
"= c #270700",
"- c #2E0700",
"; c #300700",
": c #350700",
"> c #3C0700",
", c #400700",
"< c #380700",
"1 c #3D0700",
"2 c #430700",
"3 c #420700",
"4 c #450700",
"5 c #4A0700",
"6 c #480700",
"7 c #460700",
"8 c #440700",
"9 c #3B0700",
"0 c #4B0700",
"q c #490700",
"w c #470700",
"e c #4C0700",
"r c #4F0700",
"t c #4D0700",
"y c #4E0700",
"u c #520700",
"i c #530700",
"p c #550700",
"a c #3F0700",
"s c #500700",
"d c #320700",
"f c #2C0700",
"g c #280700",
"h c #2D0700",
"j c #2F0700",
"k c #540700",
"l c #510700",
"z c #260700",
"x c #560700",
"c c #250700",
"v c #230700",
"b c #240700",
"n c #220700",
"m c #200700",
"M c #570700",
"N c #1F0700",
"B c #210700",
"V c #5B0700",
"C c #580700",
"Z c #5A0700",
"A c #590700",
"S c #5C0700",
"D c #5D0700",
"F c #5E0700",
"G c #5F0700",
"H c #600700",
"J c #1E0700",
"K c white",
/* pixels */
" .XoO+@#$%%&*=& -;X: ; oo>,<:+122134565674,82#>9284444>OOo>1@#3770qqw0e6788875ert7@2w77eyuip5#>91a,1aOoo+O11O@#1,wsy4O$Xd f&gh;d",
"o; +9<o++jf--&-$d$$;;;;Xd+#$ .O9oX:O#75w74Oo++#377@13@+o<XX>O<1@qeyeresyqq,37qseq63+2046yikiy3,>o:o<O,>X.2242,oo6qqao1:.oX$hf;hd",
"$d..#a>1+o$-f%&hfjhhf*j-;.O:$;X.--;:>36487#< .125q7@3#<.9o:O99a2@66skyirkr48,y0trtwa865ytllrt724a+><84aO<@2w4@w2449++>9<9oX<<o+X",
":$<a8@,8..: ;h-*zz&%*&%&j.X;+::Xj;.O23@48a,#OO14wryq8#1a29><$O#8,@4eippkxteq2887w2qesytluxkk69@+#,>OO:XX:9##,33:2w@@Oo<9#43,9 :o",
"Oo,,8aoO.%;$$;  gc=cvz*=g;*& j hhh$o+oX$<+$.+>478qeq426,>a>>d.,83#1wsiks0e5w43,06aretukilewq7,,#a,@9<j$$;;fj++<.O+j.<.XX:9O++:$1",
":9a,@>+$;hf$o9+d &bvvg*g&fzj$-:;j$+:jf;o<+9>##33a356e4q4w4#1:*157,o37qyytu541a#,19455w82q0@9::+934aX:.$ h%gf X+O::j*f ::o..+#9o<",
"9a43O+.j%f;++XX-;fcz=&&*jcbhjj jd$:d*f<9Xd>>@q5q7@223,8@22>< d<2q1+130t083O+#11>##7e6spsiy8>;gX$O9 -%; hh&=*fXh;j%d-*;:$X -d.o1O",
"128>91;-f-dX.$Xod;*g=g==cn&.<>O:#>O h-;d&XO#2829++#@@8,9@3O>$jjX##>>147446777286540q7tulr8<X-f ;:1+$dddj-gvgzj;$$d+ hX<:jb=f.2a>",
">1+oO.d-jX-d<.<.<:%zgbvvz-;.o<.X<9+..$:O$Xaa>@1a1277>O9O73#+j;$a@4,<,6eirtw5q0rq4525t60063>oh=&; X..::-jh*zzg&zfho,1:.a<djh a1O>",
"o.+><;jhhjj:99#823O;*=ccgg-j=%h$ .$o.:dj  +1>>,O9883O$$ oa19+o:.d o:8tsk734wey560ls550w681>.:-%hh<933Xdjoo  &&zz&.O ;j%jvz**:X .",
".+$<ojj ;- <o9a33>2Oj%g- O@<o<Oooo$<OO<9+$ O#O:<aaaa<:XXo+@<d;;jd o#w5t677w4w6qqq64w6w78w5@O.-j-fj:9.d..OO#,+Xdj<<1+j&mg=f; Xd$X",
"X.<19  .X; o.X9o.+oOO.j;.9O.>O::,,<38>9.O::3,93ww8,23<<.::>Oo$9O131@604266q65teyq6t5e005es4O<$X$j- hhhf$a,,@+jd;:a12< *d<OO$;*j;",
"::999od$dX:X X1>##<#:df*; o<>o.<o#>a,a<:o>we500q68242#<X +<9aO9>a#>3281#3834q67w48wuy0leyu0aX$d-jdX;;d$o,>..$;jjo>o<dO$:.d1jjfdX",
"<.$$X+O:$dX:dh <a9a,XX h.o<>3,39>82aa,32aqe06tew2>9771#+O38@471@7w@8,#$.O:>3w74e00yxMlrysr7a>$d  ;$--XX#,<o;dXdo<###+9<$<.X;;$X$",
".oOo.9o jd$;jf-+a+1O.:X.$1>do+9,#>8@a,,244007w0833O.<19>wyyr5yw8072831.:+:#477q0tuuw@q,,66#X<+$-j%h ;XXdooXd .Oo@77@X..; -h-.;dj",
"-$+<O9OO.9.d;ff+<::< $$$++3aX<O>aOa1423@#44282w@,>X$$a2@ely002>3aoOO<9.$<O3qqw553,#8wq6qse@d-dXj&*%*- >3>< X<O@a8q3w1j; jfhh$.j%",
"-jX;:a,<o<oo f&h jX+ ;&j.Xaa<82231@aO.+993>d<o##858a,7654ssq4<oOO<+o9#91@8874337a8s055w5t5a>1aod$;j<>,337+; o<>a9,.X$ ;;f-;-  f&",
"ff=%.11O:$>hf-gh-h-;;&ch +,9o9<<o.9#X>,w742<@q27qysw6834232>;f-j.<+a83#1,#O@a2q6qt0w2w2@1>+:.@. d- o<O>,wwa1#,77a+$ f&**z&j**zzg",
"vzz*jXXd$;X%hf=&hfhjhd&j <<9+o+o9>>9+@@wq68#a,@4w7tew@99<d$Xh%hX871a8#1+986e5w284q6w3,9+Oa1.. fjj%;..+O@2@:$d<999.X  %-;%;%mbbbz",
"bc=&hgnc=%%**nvbzgg& Xo$% :.O9><<<<d:9o99#<<o;<a24es53#<X&*;-.9@q4ao1,3w32q77838255aa,>$ 1<X. d-fgj+.<1#93:;..d:.: ff-dd;$;=mNc=",
"%-d-jXh*=&*znvnz&*fX++12>.o$.::::9X;:O.OO+9#@##7qttq63>9:fhd::.<8wq4,3ww1#67w774wa12a@@O$XX d$j&*cXa>+<##@.XoXd.o.:-h-j-;-h*cghd",
".+1<hj%bccvbbcc=zzh d o1O<j;$j;h$o;;+9:9#:#>+:>2w056rwO>9Xj hjX9484>36q0a,55q60t626e4w9  X:; :X&zb;<+..O1+$ hdd;d9>:.<d;f;-g ;dX",
"X<o<;-h%&&=gf&*f%;.$; .ooXj*h*z=hjf-$j Xo<.<<;.9>38w049<:d$XX.:#><21806632wq5qw73@48@8@.:d; dX.$ff- :$:o1X XXo><<9o+O<$%f-;-j;j-",
";d+<:OoXj;%fh=*%hh :$-j X ;%&*zz=**hhj;;..9+.;fjj:39#31#23@>o$.9+a24w6e43wq472a,9oO9>+ooX$-hj-j$--%%d  Xj;;XO>>>a.$>:-;-**z**&h%",
"X>8,+.:oX;fjf&h$ d $; X j-f=g%f=z=cff;- .;<df-hj*-.:>9121,+$-f$:1,,>828w8teeq331 ;<.o<-;X$h%jjjdd;hj dhf;;djd;fh&*&f**fg=bBc=*hd",
"98,o$o<9..$::$:<.d$$:.<+.j%jh&f*zzbgfgh-:><offhh;X-;d .o<OodffjdOa@a@q077q5qt6w,+;j$d -;:X o>9+.+aX&ho:$X; ;$:oX;fffo:.j $X$X:.<",
"#1O1,w8a<...$d.o< d -;ddOd%jh*j%gzncg%&-;<odf*%f$<$ -&j-  jh&& O7w,@80lqst6llusw2>o djj X.9#91,111<;h%fj;X<<3w@1>,a1,+;;:9O>>1#@",
"a#12272>O$::-Xoo< hh%:.O,X;j%hX.;**%-; ;XdXohhj$:oXj;---%h;&h;Xa5ew3q6tliu555rr68,@$*-*%j-:.do>O91+ -X.XO<.$<@19OOaa1aodO+9w48,1",
">>1332,><:>odoo>aoX:d ;;$X$$:$:,# h*j-d;jh-XX$#3@,@9o9>ojd ;%;93w570sspirt7wre6w391aX; jj-;h%hj-d: - :<O@2+97w68132377#91aaa8422",
"a#@8@78@>O,::OO9O+O$ X$:X;;-O>>@,9.;$d Xd;$+9O47749#199+X*j;.:O9+187wq5w2,a8344@867@odod$;;f%fj:jj<o+;$o>,<O+9OO132a38,++#a@a+@@",
"@,,2ww4282>,#1aaO::dXd:X $ j-$188,>;.>9o<oo$:aw43aoa3#+ hh&&+od X:O#,2ww83442qse8a##X;X:j-;dod:XoO>99+aw6@.<#o$1a3@O>22O+>,482@1",
"47tt77033,O@84,O1o$:$<1$ ;;: O1@#$O$o1aXd.>>+15w4w@@1@Ooh&*-9a@31+<+O3sily0eew564@+ -j$+#8439.1+9>#2082e689d2194705wersl55y83872",
"4wey0el41@a367,#+..--:+<:.;o.>99:;X#>a1::XO<$ 99O1.Oo:<X+>98t65t5a<#26lxxitew@478aXdo91@qrq3X$oo>2@a32@5031+9280ky770qq57tps8124",
"5w4qt55,+#>42##+@aOdh;jX.9<oo d.<99#1#@1.X-h .243877@,>a3@85Ms7e6aoo+35yyte6067#:><>,>421a1OO1>.#6a@@#13@@,930ry4,O4ee0q5e6w@,@6",
"478w071o O3#a,1aq2>O.: d:XoO+oXXOOw2OO>+X<o1>,545w6684qq430pVu5lrr7<$X#w0tq3@a>a4029#>21,2,2#aOO,@383><@2w>#28072,wyyly844w,>a1a",
"681>1,1#a80,O:d@a88>oo1117>+XdX:<O,21oO#+<+o#37a2@94a854688s5@a+983#.$.>O.% .#3@w48634q4a4q40w85440484q724@O245ye5yukl0w8q0t577q",
"sru0w8@a22,19<:9>67>o:+3a743O joo:<a<.O@1##oXO148423373@aX96q6aX$.X:-%f-h;jXO1#O265e575qwty550ye43s426408>#+755irykCCpuipxZZs6ru",
"rqyp0qrlurw#4@9190w7>:1>#a#O9++2>d1a+9,472#< %;>>2,,a>111O7lise1.9<+< ;hh; 1,,339#w4q6820e,#126w27q72q6q2#916w50sliksypklspry00r",
"u56tw70lr0,>9o X<a3@><4>93a>Xd+aO.Xd $O72+jhh$:+>2@,a2224345553#1+>9,1X%z%:28@,#1@,,38#287Oa>1@a@q744qeq3#a470ytisllskACytre0e6r",
"uutMksu0qq,>1,3,a1848383#O>1:d;:+ %jd$OOX.ffOa@@747w44,a3#>@qrtt84,1#a9j&;+O1##O99>,1,8a@a#89<9,42@,a4w62#,#@w0rurskACxslytilixk",
"ilryty643,+1#,@@83821a7wq1o:..;h-hh$.dX::jo1##46qq6863#199XO+a44323#OO$$:doo$+:d$>O9>462,#a+oo+#Oa75qqt08,#1@8834q5ee00esMApsssu",
"ZiMslur8<:>31@qt2a@ao9<.:$oX$  %  ;:d<2,>$:O9Oa,@33@741Ooj%d;d$9322#OX $. :oo.:j$>:Xo:o9oXXXXX9@@@@a23a8,<; :o24qtersMiMSDCMxCZV",
"Mxl5y53>o145532wq67q43a4>9>X;f&fj  jh+>>O+> +1+,82@@,83OXd*h .<O>46#O  <o -d:+$%;j:+#9>9.>91#O1w1+O93@>#9d$.+30rtq40rpxMxustxVDF",
"Mksstq2a@80t0w747@665wq7wq3#:j;:djXX-:+<O1a:.>@>8288433,<+<Xd<o>876a<jX+d-o+99$:92w8824w42234@863@@a18819Oo,@7538q055e0sypClrrli",
"776tuy2,55yq23,@448w66ee5w72#+Xd<d>:*j;.<:.X:93@357wt7522848o+<1q4@+d <oX$$+::o>4yy58w888333w423342a3@,+d<,876qt56qw55eurruxilsy",
"t8q2,,9378q885666877tltq4a,O++.Xo;;j%jj:.;Xd;#>13w8864q22#,3+.#88w7+d o+<O+OO>#a7rr08@2#>+#3@w2aa#2858+<O937sr55qwrkietllillttrt",
"r736w4387@82,27rs7q57rC8@,19.#+ $jX+jdh%:+>9+O19>@q5qw,,w87:;;O911<X;-Xdd9OOaO@<8e5tq8744#a@37w46267w7o<>>875yq756etyeys0tqytyli",
"tew4we4832@@,834w847,a6w81.: >:Xo.++:O:hXo+O>9,a+$+1<99+aa>>O>O9.. %;*gj$.X$:XOo,,85q744qeyeutt50y0eyt4@#>#a@443447tyrtelrtqyxSD",
"Spkrtetsqq0qw50e6q3>>>,,a,.. +oO@q@$X<oOa++$o#>O9$O8<>2a1Of:>+ojd;;o.9+$X;ff.1aa,2wq62@20lppApt55066esq43aaa387w5lslilupxMi6ryxD",
"0rr0666eyrest56q8w2199a>>O+.oo9@we3>$$$.OX:o+#<o912a#@q5q08@1o..$$o<+#,+.XX<><:<O33,2@8,2yspkusss0qe66q2a<>1#,a27rylMpppipplxle0",
"w5t788w8@wsklxrw48q3@#>++9:X;hXO#1>O<>9++<+1a,##a#9+<34w8562,#.Xjj<1@42,9;-jX.O#877O.9aa3eeyuskkyeq70633a.>9Oo.,wywepxpyilsikZCp",
"sllle8tq5q0ypxxAl5087e68##O.fhd<OO+>1#31X+a84w750@a>#4teeq,>9<:$.+#7667,>>.:Xa#18,47a>o+>326kMMCxurq0r2w89.o::+25yrrsCpyrrkkxilu",
"etwyryr4wterytrlkie66655q4#.j;a40a138778#2884q0ry@@@37w650qw4@>1@664w23#1>o<o8667@7w7w3#,>#a@27rssuuss0ry2a>a,1@35erkxklr0y00e5y",
"w6t6tly6rkMsrysusiMputw18>oXj92,aa33,42282#,34w6te8,a>@qtkulrq3@2w505q,873#1a5eqw50yq2q26y5t55ee0t0stq0urw,w744a45rsrtyy6e0risyy",
"5uur6w6qkkq50errrtel60qa#XX X1a,@233@1>#a##>>a>O@7ao.<6tule552+,a84a9:aw2aO:383@>27ti670qyeyuiluMxlsqykksyq87t4+3werqw5y066ysuut",
"qyqw438qy6762@,4esie8w4#<;  o8ww7a8,#6248@a>23a1@w7>9#q0eq@@w,a#a,OOo:843199O>3782685ywt0qt050tyerlsyiCCi56@@57247@2@,84q46725q5",
"lrtse676qw50047qyeulr64#j--j-o<O,1@3@@a@3,,824qqetyy64wye53>6q4,@>9+O#wqq82#.oo#74tw0q6sr0yuyet66ttyrupClq744825555743@,8w2760ur",
"0qw82433>@,9>.>3y0qew48OXXjh-f.O245t643,@a4724q505yr64w57,>18q51++>O.#67784@OO>94trrslt5usryrltyllyqtipplew2a882483w83w72,@>>1a8",
"@wtww3@7q64q#1,>,+w,342O$dh&hh d$14507w60y5wqete57r0qq342><1O#4>14#,9@0w327,O46650tr06w4@1#+O1@@74440ixxue6e3+28,1:O>13@,o XX+o1",
"472850w70q0teytw478#,131.<:X fj $,,qq4e0wqwylllsy6sy74333,1#1a2328,4aO23a3w@244eww787#1##a248@w5q5ttuxMiitqe055w@>$X:<:jX.:11+o1",
"99,1805ttus02###8q223a+ d$o.: :X97a23@@31@4ttqqqqq0033>933>::X#33784q@@6w2283786t4@843446wl0q66q5tewepMMtq24euyeqw#O<+<.<:>aa1a1",
",1@#7t56w0sur7@aO@@:.<#a,9$  ::.,@86@572388ww37w760ew,+$>a1O:::.+>2421>@w74@38w6w3@1850q7238w760tstq6ypGp5eyrytt87738>aao>+oo#44",
"a32a0pq4875qs7@847yw1+X +7qqa;&&h9,#.1314070eqe06q5679Oo>@2,O<:d$<919<dj<>,@237wq548qrtqq47ttyusl00yyskCkrrslllks87@8O:oa83@@#,>",
"128>2w6q64#2604456471O9X$#258oj&f .XjX+#6q00050q475wwa9o:XX$jd;do>wtr00787w5trrttt06qytyllCkkMxlpsyulppiutq4wwwww4ww#<X.99>9,348",
"9#O,32828,O3467@@874@91>o##>X$d;* oX:$o,qq42,38qqeys5a3a>..a1<dX97r5660e6syqtruxxMkryylMxMCZMkiulikkpiuikkikiiklq>>1:jj;;<<:XO<9",
"o++#ary681Oo#87,4243><o1a911. ;;;d.o9<O0rlysktetyir0213682@24aOoOqw4tsCMiissslkiMpslllpixxpppiikytrplliskxkpiluxy82a>oX<Oo...$<o",
"X-;<weq83aa17srqyy2,>+<7005a+X$X;-%j;:95usuAk566yktq2w774a#a8@OO1w0erryt00ruluylxkulpCCAMxpkiipilexreirpkxxkry0u02#18<<O.91$ ; .",
"$$d$9,73a,+3q7q86qe49OOa2qp04><9Xdddo,a14w7sq2,,qy0l05rr583,#oO>a384,2weteyrtytrpustipMACkyrslstesurequkkikpxutlt5#O9;$:a+o<;j d",
"X+:$o#8,##.9#+3a1<#,o+><+>,q071<++.>29>9..>,a79:#2268477831+.jX.<<+#4eler5tlllyrulreyxCAZkpile5ylrrr0iCxVxppkyelrrt23+$.OXo>>$hf",
"#aO+9,38@ ;;d:>9+:Xjhg&&gj::@8>,#@a.$j$X -d.;3aoOa232@3#OOd-jjd<o1@835y0r0tZVMsiiipiulslMiyleqyuureeiuMACCxiiutt006w8aO+<.o<o+-$",
"1#.+#44qwohj.X$X  -bzc*&& $:36e><#X:$$f%&h:o:a#OO>,#a#a348#.O>@a,38w22w5e05ye5rlityleyluly5q6tt70iiMkriMZAZrtqw48t57,#>1@9<9+d$<",
"1;d$<a478+ ::<;dXd$X<d hf $:#5719:XXX;-fz%jX..X::dXO#,@9aw@<,>1a>481a882770s0riMMs0tiprr7qqesllqtpxixCxVZZVpsylrsrleqqe5629@9>O+",
"391,,77829.19o<<#937q39X;-:<93@O<o:h-f*c=%*;;-oO$:O9@q8+>4OO>>@,#4118a#@,85ls0yytsryrtyt66437eq5yrsiZCxkAAkusq07wt05y0yue8@1O+oO",
"doo92453<.O##+o+,,w767###: X.<<$ fh%; %*ffgfj<1,>>9>11,9,#O1@8834,a93##2@q74tqtweukltyryt558138w00slskkAAAkyewewwqwq5yult8#++:j-",
"%h-;X181O <<dd:9>:,336q6e1<.<#>#O$&=j<:hj%z-j<#@6>>1<>>>Xd:o>8w6q@#<O9aw7@weqeq850556q6e60tew5lspuytesiMVSZxsyttrrwq5qsMy6@+$dh*",
"jj$$$+<.9oX-f%jX<-ooO,145@19@OOo+o:<>9:&mb%f$O<352a1>o+.%%X<12w2,,>##1,8q77q465es528ww56qw6870ykuxlyrl0rxAHDMApsirt6w344+aa;*hh%",
"  dX..d-d -z*j%&hg$9+#9O@y2>a1O#49#++:d&cjd$1>96s55w@$<O$.>37we0,#a1,8847445tret5wqlteq7236wq6suuCksiluCpiMpMxACZCxky08,>o:&zzb%",
";:X$O+hg*cg*cgccg=oOX28O#a,.Oa@#a@@39.Xfj:X+9+@347q4#..O>9>,,477,:+11#@7tryleq6l57x00y606440uyikilpepxASCxxerkrurkxe8,a@,9oj*cfj",
"fjh&%&z***zvznvbzzghf ::oh.dh-&;o<91+$dX$$:<Oo .+12+$9O12@3@22a#<:<+a22wqq7yskDDi0llerlerrw360ypxpMkipZAApuyyprsr641,q71<+od*bgg",
"g&&gf-&ffgczzcc%=cg=%&*j-fhgmnc%-X.;h  h$ ;XO+#1##>d oO124,>.OOO>#1o18,275sixCl5sytlusssluy0llkxxkkMppAZAAxrsulkt7>126q3#+ &fz*%",
"*=cfX;fh*&j&fcb=&*=*=*jf=*fgnBmcgf-%-oX&f%&doX9+.X;jdX124r5a9>a#a2,,275sysurpkstlrtyAktelkuuisyte50tuMMZAAAZrtlsq887q438,<;%zz&&",
"O;=&;- o+><<Xjh ooo9.d:f*$ jzNJNvghd.. %gg-  X$19X: XO13@3,a9:$+9@+1480te5e0ryrtesyslyrtee6w0670eteeyupMpupV0lyq05087a2@+X--*&h ",
"Xf=&h- -%-&d:jh;:.O<O;-&f><od&cvb*;o.<.j-f $-dd$ ;$jo9,6w737add.O@3@4q65ee0qrtstlrlksikiye5082ltseq66erir66tq7qw7e624a1a+ jf&%% ",
"od%&%ff ;h;d$h--j;; -  &%:<<XXdhg=foX-dd;;$X<X$OO<1#>a47,,a@31+OX>866q23e0qqt5sstteskkMkl0ewq55t5q045yspe6w7w1>31OO+a+$<X:f=gh$o",
"..fg%hf;X-&zBbgg**c-..: j; h;:<j;&f+Xd.$h;h;$h;j X$d .+aO:oa1@#o;1382223580q4etewqytily64,75ese0tsyeupCkusye654549<+$--jj;g%gf;$",
"jXj- dh  ;h&=&&bvBz%  ..;jh :XX$.jhoa@#1.$$.$XodX:>##1,822,@8w31oa666q5674t0ylr5w4@wt4@705erruiulsukxApilrl0sut052@43o;dd$o.jjjf",
"$:O:.ojd: fg%%%%*gghhj<X h&d$;;jjd+o9.:X9o.@3a>O,>#,11#O+>o9#262#465q8qqeyyy5w8#9,7qq66ylllsskkklrrykMppstqeus5ewwq36@j :o>o.$$j",
"-;+ :O<dh&g*f*c=gg*&j:$X-ff<1o<.d+aO.Xdd.O708>:o+<#81>9++o>3aa64,845t0w57838333@2wr0rr0606qryxxkCiyqysylt0t5iClisyqr04dd@9ao;d h",
"fd:fh:aOd%&f&ggzzccgj X &% X#+o ;,@#>;$XO6e58@>o.+9128447200ttww7,3wesqq5w66ttt047624621,7tttulAZxsewwteq2sikuryly0yw:j-:>9o$d;-",
"$$-$.+O>9f&*=**zzzc*;d:d-hh9>9.j.982:.X:2w38@3342@@1@tsklsutle8388>7tlsesee56qw0w7re002#a7welCAixsrkrt0428tkuryrt6qw<$=nfdd$:o;j",
"o>o.o:< f%f%&*&*&g*%j :>X X:>:o36723<<d<88,,#a844a2q85t65065qw@@,2wtpMst50syry5syw5eqw@2646etxAissiusy@<+,25eew6w@a9XXdczf jX.  ",
"+@,><d-;&%%%jh%&gz=*%-<1O9#>:>780673><.#2788757a,336wyl6rl0481,4,855tqw68@@236784,2qeww5q5t0ttsslpys538,#2677748@2<oo$ gzh-X+<.o",
"+>a><O*b**-f%f&*gghhhd:+1X$ 97873aw7323#w7w567283,8774@w58,#19>3##q0siiiut0tt0yq00t5r00u56w0r0qqtr54#18@33232488@,O<<+$%h*g$O1+>",
"a#>+O:gnncfh%%f%$odhfdX9.j;:848322276e21a8378#9,OO1a3>#23999>80yytliMxixCpkpl6yte0yw80ytt0uy0eq60q> oa#,4w,78q684Oa9OO>$ $;X@#1,",
"@@,7w,jfbB=%hhf&-od -j.o3#,s6y037w5t55q@2327w,+X:>135q,856eett5MCuxkpr5ylxkr00qw5y0wqrrr66s0t61,>oX: X980yetree0444>o><:;-fd9###",
"345w8,.. *bbggggh;fg*d$+36ety0yttrrlyee721.O,,,8q000ee6te40yyt5qsuMCupssppCkkkt7trrskxu074wq6069-;<,o92@82w506w@13>Oddj;hgf.aaa2",
"a,4a,+o<<;hgz===cBnc% d$<6rtslkle05q68,232,a8680ut0q5yiiys565qtylysslsysuut5uew647yrrtq66331,8#<$:@@,,,#33@w02@Oa9:.$--&%hd1,##@",
"oX<<O+.oo:.j- %=c=zgghfgd6xuees0q4w6848we5ty8788qq00riluyli0w4@tr5eyrpyssy6783467qruisr5w,3a><dXX;oa1+O<#4w4ao$:d jh;-%f%hj<<o.:",
"#Ooo.X-;dXXhf*=%-j%&*g%h;1828@@w42@>>88yeeeew7,a4@65wesyytey6q6qrrtytsqw0w4726ersytipiil0233:$>XO19:>,9.++#,,3+9#+: h%*zbhXOo:++",
"11+oOo;- d-=g&ffzbnbcvvzf;O#<o:++1+9@2qq7qrse0,#a,62wt5teeqqt64qtlyqt82@@q4@@,56expMksye521@#9+X:11#2a@1,19a3,OO1.j%*g%*% :d;.<o",
"<>9  hjh--fh%=z=*&hf&fhj>>o#3q5a97445w66qrusty4>>@46w50r046esq227we4854t63aa+,5liuGAkit6r8,qeq02@w#382,1,8@@a1o*=*g&fhg&*fhh.9+:",
"-jXj*g-f%$  &c&hff**&jh;11..8ty63,23wq550e55e0w1+>2w0qeq4,@q78#+18850e5q81O<138w0xist6yse53874e3#,1,<$d$:O,1,8@:;jjf ;ff&&&*h$jj",
"hjj-&&-*d:oXh%%f&gcg*hg%>19#20y5ttlt0tw878q885w3346456w6,>O13#11,qyskse77,>aOO1O>05qw505e2a+<8w3#9:OOdO1>a,OO1O9 h fddjX$;;h;d ;",
"$-j$ h%; : f%&g*f==-hf&h$#a4qqe50reew8@qtqe1@ttq52,1a1a#Oo $O>91,5yylttlw31Ood;:<OOO.O32@##..42,+>d.a11@9@84w832dh%hj-- $;j-;:9O",
" j-X &*; d.jf-&=zg- X.;%jo9wwqq6qq44q238672##3a@@:.o+19.Oa9O>>>Ooa56542,>+:--:o12@,>985e5q41>82#o.X;::,1>o#87622:d$;fc=g&hhh*f;o",
";$.o>1.$X.9Xg%jd-hXo+.djoO#8773248319>9o@3a$o>+<+991,,22a@829+,w7quileruw8O.o>@3wye0lie5e05q2457ao1$ +3a##>a1,9,O;:+&*f=%;$.f%%-",
".93aO>+$j- jh;;df%$Xj-;:$X186w4w4,>:9a4@8@.:>,8w@@a8,@44,9<:$>@@375e0rkply82@,75q5t5lult0e5te4@,Xho fo>:Xo:o:+o.j; $f&&gf$. fh--",
".9#,.XX;hddX. jf*;$;o .: d9,446558,@@32a3,#a270rw477q7,9O<o+>a44@8760tpyl6,#@27wq0typkpMxuyree46wO9oj.  dj.$d<9$hh*&;df=gjd--h-;",
"hd.>9X$d jdd$.dj-;$do:<ffd$>2,2ww@4wa,7q0652327tq0q0e4@322@2a@8@>194qtxute5t05e0yeqwtulilkxki56e638@X.9+Xo<+#>#. *g$1>$%%-jjh-f&",
";;+a3OX.$j $-j-- ;j-d.$d- $:a@270tw4w7eu07427tw6e788,76,842O<,w8Oa8838yl0yq4w3qyiyw476q00st7e0e0@8,3 ..$$- .O#:d;zj,q,.%***&g*%f",
" $O>@1O+Oo+d&$Xd.. $+;.Xj .o48w6605w6tetq4##,2#97q663,1+>@1dX>>>#9#a27q64q2#a@4@47775646er050st5004>.9o$-h:o+9+.hbj#qq#:h&zzgggf",
"X.#9#9:o...d$X$oo$..O+X:$:$.1+O<3qqwqq64@3>>a7>>7qqq411>+O:; +:XO9Oa260q4744w0767347484a7ytrkl881Oa<92a> $ooo:X;=% :9@#+oXXh%%j ",
":<>o+1+9<+> jjfj  :+a<  :%f d.:o13@,et562#<122@#1>a26@,>9. ;X<$+O<19>#82w426w0667,#7@4,a60siye669<OXO42<$+#<<X-c&Xd<#9+++$$f%;d$",
"oo:<a83<.O>$jjf*jd$9O--$o.O+a@>O+O+9w5req3,38w>Ood$2e7822#+:>3,#3,9a8q77esyreile8@#O+,>@24yppsu02,@:oaa><XO1Odj&$9<+o..O9+>.d;Xd",
"O9<+a8@aXd++<:--X<3@#a+o9:O36@aa+$;9Oo,27a#O<#9X:915t557a99###9d:,O9a9.>@6q2406w4>aa1>2e5626qqls05,Oo#>a#9,<<X&-:oX$jj-d99@#+o..",
" :<>X..Xj +.;:+a3@,,O199+d.1#aO.h O9<+1@8#O>191+>9@6qslrq2#X&$.:<>6742a3@yt2554043@@##4ete26w@83,a+< :o:+<O.:$hX#9$dX$X.,@9+.:hf",
":o<< -jh&;j;$ <a2,.<o+>>o o;jd X$+,<1>+<9>9,+aa+,3w5tyrst2,+<O,2quMDxrurrAilkuryttt738t0yil69a,919O+O<o$$o.O1- :.X-;:oo138@,1.:j",
"Xo> h-*z=h X$h Oq71>+#>19$Xdo$ <+Xo:.Xdo,7@a>3w@86sipsr50rrqt6240pkikussyet007276qqwtt6ttys0#,##@8eq6aXoo<.<<.dd$;d$.+o3245#a<:<",
"+#1:;-&cfh d&j-h128w2@@4a@3.9+d..$..$$.a,w4,a848qw726ww7yureq60ttusuiysurut6q67ww@72q542@@72o9#<a85tw@>a1,1.<ooX;d.dd1+>91a+O...",
"..d-&h-&-;hhf=%&d8tuuy5,>@8,O OO<$ dXoa38ww1>9>17w3@6,a24w85yiMkuyrrrsrr0kttt7q6057ettry047>o9,><,@4wa,#21OX;:<:-$X;j$;$o+oO9.a>",
"jj%%*&**f*=%z%j;$936w541a#@aO<>33#$-+8577e273335ytuys00luupkCHDxittqw705te00erlllt50yute5r826279>w#87#a373o.:+o...  ;;dd:o.d;-j$",
"dj*h;f*%& jjh$jhh d9ww,OX:a<.; O91 & O>>O #46l0qtyrt0iCCMiMCxiiMxstq0e438w0ylppikyqq46rq23O@647#,4,>#,a3,191o<XX$d  j;jhd f-foo.",
":jjjX$;jfX hjXX $.X13@3:o:+.;-<238+$+44,@88ylueylq7qqesssixMMusskke65yqqe7eiusrtr637qq00w3+,77q5w078#>33,@@2O::;;;:$;;$O+O:jXa,3",
"X..  X+X--hfh d$$:+1>1+Xo+Oa9<,77@O>@wa@,7yrr0llul0ts0truklikiyt0qq65rkuurlyeyy0ett0rstt0t,.,376644a>OO>#,a,#O$$ d:X; d::o.;$oXX",
"1a#>33#dd:OX-$j;;; <+ ;.aa#3.$a39#O#1@,9#@70e0l0tu5qe85rlupytpute5ersssstlyrslutee0yllliry09>76w73@1< j#o:a1,,..d-X.:$ hfg=%*f$<",
"187132OXd::j%%&;.d.o;% O,,aOoO34@33328#>#+,@@q74yyy233,yqeiq455yrlsxi6teuult7887erysktqusus0$9870w4#o$$o+O9a,+<$:<919<Oo:;&&fdX>",
":oO1O++$-f&**chdff-ddjX.18#9+,2,w486q0a9dX>37qw66w738w2w57w6w7qew55e06q5w65t0q60q8q5skxkiCks>.a6e4w9..:+X<<>O,9$.do>a<:..;%g=ff-",
"$o9>9#3a$*=*zc**z=hd: $o3waO>1777485tlr49a#@@,99,>382,@99>,@,,37wq55w82387eyt0qte5824tpsippk8+X9wa8,9::Oo:>@1#3,1<,82<joo-h*g**h"
};
