/* XPM */
static char *close64[] = {
/* columns rows colors chars-per-pixel */
"64 64 252 2 ",
"   c #07050A",
".  c #0A060C",
"X  c #0D080E",
"o  c #130B0F",
"O  c #1A0E0E",
"+  c #13060C",
"@  c #1D110D",
"#  c #0F0910",
"$  c #120C13",
"%  c #1A0C15",
"&  c #150E1A",
"*  c #1C0C19",
"=  c #1E0716",
"-  c #161017",
";  c #1C1113",
":  c #16111B",
">  c #1A121C",
",  c #23140C",
"<  c #2B1A0D",
"1  c #29180B",
"2  c #311D0E",
"3  c #230616",
"4  c #240619",
"5  c #2B051A",
"6  c #220B1B",
"7  c #2A0719",
"8  c #33061C",
"9  c #37051C",
"0  c #221413",
"q  c #23141B",
"w  c #2C1C1A",
"e  c #291718",
"r  c #341C18",
"t  c #20010F",
"y  c #3D290A",
"u  c #38230D",
"i  c #392517",
"p  c #2F2019",
"a  c #171322",
"s  c #191526",
"d  c #1B1423",
"f  c #1B1729",
"g  c #1B192C",
"h  c #19182A",
"j  c #171B34",
"k  c #1C1C32",
"l  c #141E3B",
"z  c #1B1E39",
"x  c #161128",
"c  c #280B22",
"v  c #3D0621",
"b  c #370A25",
"n  c #221624",
"m  c #231B2B",
"M  c #291825",
"N  c #361728",
"B  c #251E32",
"V  c #3D1536",
"C  c #1B223C",
"Z  c #18213D",
"A  c #2A212D",
"S  c #282337",
"D  c #372836",
"F  c #372225",
"G  c #412C0B",
"H  c #4B2C0E",
"J  c #4C350B",
"K  c #54390B",
"L  c #533909",
"P  c #432C13",
"I  c #452818",
"U  c #4B3118",
"Y  c #553517",
"T  c #562F1D",
"R  c #643B1A",
"E  c #713A1A",
"W  c #470829",
"Q  c #550629",
"!  c #45182C",
"~  c #4A1535",
"^  c #591839",
"/  c #570733",
"(  c #6B0838",
")  c #741038",
"_  c #472727",
"`  c #532E2B",
"'  c #583426",
"]  c #462935",
"[  c #562736",
"{  c #543637",
"}  c #643928",
"|  c #763D24",
" . c #712C2C",
".. c #684A0A",
"X. c #77560A",
"o. c #684616",
"O. c #7B5716",
"+. c #744C14",
"@. c #674325",
"#. c #784627",
"$. c #724A33",
"%. c #141F40",
"&. c #0A2249",
"*. c #142143",
"=. c #182648",
"-. c #062757",
";. c #142752",
":. c #1A3450",
">. c #232644",
",. c #30364F",
"<. c #032B66",
"1. c #173D69",
"2. c #032E71",
"3. c #043578",
"4. c #0E396F",
"5. c #231F46",
"6. c #681842",
"7. c #751645",
"8. c #740B47",
"9. c #473946",
"0. c #563143",
"q. c #5F1D42",
"w. c #19415D",
"e. c #3B515D",
"r. c #0C456C",
"t. c #174767",
"y. c #064677",
"u. c #14577B",
"i. c #0F5176",
"p. c #314C6B",
"a. c #494857",
"s. c #544F55",
"d. c #704D4F",
"f. c #4C586A",
"g. c #73566D",
"h. c #4D647D",
"j. c #706877",
"k. c #45605B",
"l. c #86093A",
"z. c #B7123A",
"x. c #8D3432",
"c. c #AB313A",
"v. c #D41C3F",
"b. c #C4343F",
"n. c #825A0B",
"m. c #865B17",
"M. c #896509",
"N. c #936D0A",
"B. c #966C0B",
"V. c #9C730C",
"C. c #9A7407",
"Z. c #8B6415",
"A. c #956C12",
"S. c #986918",
"D. c #9B7213",
"F. c #A3760B",
"G. c #A47B0A",
"H. c #AA7D0C",
"J. c #A77C06",
"K. c #A67B13",
"L. c #A57714",
"P. c #A87216",
"I. c #894728",
"U. c #954B2B",
"Y. c #864835",
"T. c #974632",
"R. c #8B5728",
"E. c #A94D34",
"W. c #AD7225",
"Q. c #CC762D",
"!. c #870748",
"~. c #930A4A",
"^. c #960A56",
"/. c #981358",
"(. c #90134C",
"). c #A90B5A",
"_. c #A7135A",
"`. c #B10F50",
"'. c #B83958",
"]. c #B80D69",
"[. c #AA1664",
"{. c #B71369",
"}. c #A90C61",
"|. c #B63669",
" X c #8F2C5F",
".X c #D00955",
"XX c #C30E6E",
"oX c #C4106A",
"OX c #C71674",
"+X c #D9147C",
"@X c #D10E75",
"#X c #E91876",
"$X c #D02C76",
"%X c #E6237B",
"&X c #D71959",
"*X c #8F564D",
"=X c #AC5344",
"-X c #8F6453",
";X c #8B506D",
":X c #AA6579",
">X c #996677",
",X c #C5477A",
"<X c #AD8106",
"1X c #AD810B",
"2X c #B6880A",
"3X c #AF8414",
"4X c #B68614",
"5X c #BE9207",
"6X c #C89211",
"7X c #CB8321",
"8X c #D7A60B",
"9X c #033C90",
"0X c #044B8A",
"qX c #095889",
"wX c #155984",
"eX c #055996",
"rX c #0D4E96",
"tX c #0A628E",
"yX c #086799",
"uX c #106994",
"iX c #0456A4",
"pX c #0569A5",
"aX c #0876AA",
"sX c #127AAB",
"dX c #026CB6",
"fX c #0579B6",
"gX c #1676A8",
"hX c #276A93",
"jX c #4C6E89",
"kX c #79788D",
"lX c #0379C6",
"zX c #DB1984",
"xX c #E41A88",
"cX c #FC1D98",
"vX c #D7298A",
"bX c #EA298B",
"nX c #C84084",
"mX c #894D98",
"MX c #0684BC",
"NX c #0B86BC",
"BX c #1086BE",
"VX c #2780AA",
"CX c #0486C3",
"ZX c #058AC3",
"AX c #0383CC",
"SX c #068BC9",
"DX c #0891CC",
"FX c #038BD4",
"GX c #0597D7",
"HX c #0496E0",
"JX c #04A7E9",
"KX c #04ADF0",
/* pixels */
"                        X   X X X X X # $ # $ $ $ $ $ $ $ $ $ $ $ $ $ $ $ $ # # # # # X # # # X X X X                           ",
"                        X X X X X X # # $ $ $ $ $ $ $ $ $ $ $ $ $ $ $ $ $ $ $ $ # # # X # # # X X X X X X                       ",
"                    X X # # $ $ $ $ $ $ $ $ $ $ $ $ $ & : & & & & & & & & & & $ $ $ $ $ $ $ # # # # X X X X X                   ",
"                X X X X X # $ $ $ $ $ $ $ $ $ - : & : : : : : : > > & & & & & & & & $ $ $ $ $ # # $ X X X X                     ",
"                X X X X X X # # $ $ $ $ $ - - : > : : : : : : : d > : : : : : & : & & $ $ $ $ $ $ $ # X X X X                   ",
"              X X X X X # # $ $ $ $ $ $ - : : : d d d d d d d d d d a a a a : : d : : & & & $ $ $ $ $ $ $ X X X X X             ",
"        X X X # X # $ $ $ $ $ $ $ & : > > > d d d d d d d d d d f f f f f f d d d d d a d : : & & & $ $ $ $ # # X X X   X       ",
"        X   X X X # # $ $ $ $ $ - : : : d > d d d d d d g g g g g h g h g f a a a a a a a a & & & & & $ $ $ # X X X X           ",
"            X X # # # $ $ $ $ - : : > > d d d d d g g g k k k k j j j j j j h h h h a a d a a : & & & $ $ $ # # X X X X         ",
"      X X X X # $ $ $ $ $ $ : > > > d d f f g g k k k z C C %.*.%.*.*.%.*.%.l l l j j k g g d d d : : & & & $ $ # # X X X X     ",
"  X X X X X # $ $ # $ $ $ $ : > d d d d g g k k C z C *.*.*.*.&.&.&.&.&.&.&.&.l *.*.l j j g g f d d a : : $ $ $ $ $ # X         ",
"    X X X X # # $ $ $ $ $ : : : d d d g g k k z *.*.*.*.&.&.&.-.-.-.&.&.&.&.&.&.&.*.l l l j h h f d a a : & $ $ $ $ # X         ",
"X   X X X # # $ $ $ $ $ - : > d m g g k k z z *.;.*.&.&.-.-.<.<.2.<.-.-.-.-.-.-.-.&.&.*.l l j k k g a a a : & $ $ $ # X X       ",
"X X X # # # $ $ $ $ $ & > d d g n n B S >.*.=.=.;.;.<.2.2.2.2.2.2.2.2.2.2.2.<.<.<.<.&.&.*.*.*.z f g g d d d : & $ $ $ # # X X X ",
"X X X X $ # $ $ $ $ $ > d d d q =.t.C B >.=.*.1.wXqXy.2.3.2.3.0X0X0X2.2.9X0X0X0X<.-.2.r.;.*.Z Z :.C g f d d : : $ $ $ # # X X   ",
"X X X X $ # $ $ $ $ & > d d q wXNXaXNX:.>.=.gXZXfXfXCXfX9X3.AXSXfXCXAX3.fXGXfXfXSXy.DXGXpX*.l gXGXNXf g d d : : $ $ $ # # X X X ",
"X X # $ $ $ $ $ $ : > d m n :.NXi.tXaXBX5.sXfXqXaXfXyXaXFX9XSX0XaXpXpXAXlXeXpXpXyXCXfXyXCX1.i.fXyXtXf k g d d > & $ $ $ # # X X ",
"X X X $ $ $ $ $ - > > d f q t.yXgXKXZXr.wXMXqXCXy.y.MXpXfXlXlXAXCXfXpXfXGXlXSXpXfXfXeXMXeXZXNXqXNXk k g g d d > & & $ $ # X X   ",
"X X # $ $ $ $ $ - : > d f m C DXqXyXMX:.sXyXNX-.4.3.<.CXdXAXAXlXlXiXFXlXGXfXfX3.SXfXeXqXaXfXgXaXi.m k g g d d > & $ $ $ # X X   ",
"X X # # $ $ $ $ > > d d m m n *.MXgXqXDXNXaXaX4.rXrXrXfXlXAXFXlXJXGXpXFXAXlXGXHXyXGX0X-.ZXr.i.fXk >.k g g d d > & & $ $ $ # X X ",
"X # # $ $ $ $ $ > > d n m m w.sX=.i.aXyXKXyXDXwXrXrXiXGXlXFXFXdXyX0XGXiXAXdXeXy.CXpX4.1.qXfXfXt.>.>.S B m m d > > & $ $ $ $ # X ",
"X X # $ $ $ $ $ - > d n m m NXCXsXw.ZXuXSXfXyXDXyXpXGXfXSXfXFXFXKXAXGXdXFXlXKXfXZXtX4.1.wXfXfXt.S S S m m n > : - $ $ $ # $ X X ",
"X # # $ $ $ $ $ $ > d n m n uXuXtXNXwXDX1.aXaXtXCXCXyXfXZXyXGXSXMXDXaXGXGXCXfXCXyXDXwX1.wXsXsXt.S S S m m n > : - $ $ $ # $ X X ",
"# # $ $ $ $ $ $ > > d n B S C fXaXyXZXwXp.1.gXZXaXaXZXfXqXNXGXKXMXpXGXJXGXKXNXwXGXJXsXp.wXGXDX,.>.S S B m m d > > $ $ $ $ $ # X ",
"# # $ $ $ $ $ & > : d f m A A g t.u.:.,.p.p.,.t.uXuXi.p.hXVXwXi.uXmXp.i.t.r.t.p.t.t.p.f.e.w.:.,.,.D S B m n d > : $ $ $ $ $ # X ",
"# # $ $ $ $ $ $ > > > n n A S D D D 9.a.f.h.jXh.h.h.jXjXjXjXh.f.jX Xa.e.k.a.k.k.s.s.s.f.s.a.9.9.,.D S B m n > > $ $ $ $ $ $ # X ",
"# # $ $ $ $ $ > > > d n M A D D 9.9.a.s.s.g.j.kXkXkXj.j.j.g.g.g.;X XvXg.d.d.;X|.;X-Xd.d.d.s.s.9.9.] D A M n q > & $ $ $ $ $ # # ",
"X # $ $ $ $ : > > : n M N D D ] 9.9.s.d.g.j.>X>X:X:X:X:XnXnXbX$X|.{.cXvX|.|.OXzX|.*X*Xd.d.d.d.0.{ ] D N B n : > > & $ $ $ $ # # ",
"X X # $ $ $ > * w D.1X1X4X4X4X4X4X4X$.d.-X-X-X,X$X$X'.$X%XOXOXoX.X.X{.XX#X%XxX_. X*XY.$.$.R.6X4X4X4X4X1X1X1XD.w : - $ $ $ $ X X ",
"X X X $ $ $ > & V.M.2 y y y P P U Y } d.*X*X*X$X'.$X|.OX$XxX).oX&X#X`.oX.XbX!.x.%Xx.T.Y.I.#.Y U U P P y y i M.V.& > $ $ $ $ X X ",
"# $ $ $ : > > q 1Xw d M M F F _ ` { $.Y.*XE.=X$X'.$XbX%XbXl.`.xX.X`.z.#X%XxX'.%X_.T.E.T.U.I.} ' _ _ F M M n w 1Xq > > $ $ $ $ # ",
"$ $ $ $ : > > q 1Xy q p p i i U } @.@.$.R.R.=X$XbXbX+X{.{.%X%X~.v.v.z.`._.) [.l.x.E.U.I.I.#.@.' ' ' I i p w I H.q > ; $ $ $ $ X ",
"# $ $ $ : > > q 1Xy q p p i i I T Y @.#.#.I.I._.(.(.)  . .) ) x.b.c.c.x. .x. .x.T.x.#.| E R Y U U I i i p w P 1Xq q ; $ $ $ $ X ",
"$ $ $ $ > > > q 1Xy w i 2 ..V.G.H.Z.R +.4X4XI.E I.| T.Q.7X4X7XE.c.x.x.T.7X7XQ.x.U.6X4X4X4XK.o.G.H.B.o.r i 2 P 1Xq q ; & $ $ $ X ",
"$ $ $ & > > q q 1XP r r N.<XX.M.M.C.2XS.2X5XR.U.U.T.6XF.S.P.Z.H.7X .| 6XB.m.H.W.S.<XX.B.A.6XF.J...M.1XN.r i P <X0 q ; ; $ $ $ $ ",
"# $ $ & ; ; 0 0 <XG , X.C...<XN.G.C.5XV.B.F.O.| | 4XM.A.2XS.2Xm.V.S.#.V.A.6X1XP.m.A.H.V.B.n.X.N.N.5X..C.X.< G J.0 ; ; - $ $ $ $ ",
"# $ $ & ; ; 0 0 <XG 1 G.X.<Xu 1 2 X.K X.H.H.#.} R.H.Z.V.I _ I 1XO.H.o.2XO.5X2Xr m.D.2X..R H +.V.C.L G...G.2 y <X, ; ; ; $ $ $ $ ",
"$ $ $ ; ; 0 0 2 <XG H N.N...r Y Y P P m.F.H.#.' S.S.K.Y } } _ o.D.V.R +.2X+.V.D.m.A.O.1XF.6XN.N.F.K ..N.N.H G <X1 0 0 ; ; & $ $ ",
"$ $ $ - ; ; 0 1 <Xy G N.M...1 P Y U U n.V.G.#.` S.S.K.} ` ` _ o.D.D.@.U o.1XO.D.4XZ.O.G.V.5XM.N.F.K ..M.N.G y <X1 1 0 ; & $ $ $ ",
"$ $ $ $ ; ; 0 1 <Xy , C...1Xy 2 P n.o.+.V.G.' ] @.K.Z.K.] ] ] 3Xm.K.S.8XO.M 4XO.6XZ.4Xo.K u ..N.V...G.X.G.1 G <X1 , , @ & $ $ $ ",
"$ $ $ & ; ; , 1 <XG O ..C...1XN.H.C.6XN.M.F.4XK.R.D.Z.Z.4XS.4XO.K.O.D.+.K.4XZ.S.2XR.K.D.A.Z.O.M.N.5X..C...O G <X1 1 , @ O & $ $ ",
"o $ $ & ; 0 , 1 <XG 1 , M.G.X.M.X.N.N.X.4Xo.Z.A.6X_ K.D.m.Z.O.K.Z.V } 4Xm.m.S.P.O.3Xo.A.Z.6XB.H...X.G.n., 2 G <X1 , , @ & & $ $ ",
"X o o $ & @ , , <Xy , 2 , L N.N.N.X.1 P V.V.D.V.O.] N O.P.S.S.o.b 6.~ T P.P.Z.! ` V.P.A.V.M.U N.C.M.L O 2 1 y <X, , , @ O & o X ",
"X o o $ O @ @ , <Xy , 1 u , @ , , 1 P I w w M N ~ 0.q.V ~ W b 8./.^ ^ ~ W b N ^ ~ N N N N r r 0 , O , 2 2 1 y J., , @ O O O o X ",
"$ $ $ & ; ; , 1 J.u 1 2 u u u u P U I _ ` [ ]  X[.[ q.6.7.) 7.{.).( _.[.!./.7./.(.^ ^ [ [ [ _ _ I P u u 2 1 u J., , @ O & $ $ $ ",
"o o o o O O @ O <XL   @ @ @ , , r w i _ _ ] 7.xXOX7.OX[./ _.+XxXl.].].xX~.XX( XX8.~ ~ ! ! N N M e r 0 , , + K <XO , O O o o o X ",
"X X o o o O @ o L 5XC.C.C.G.G.G.H.V._ F _ ] 6.@X( OX!.].~.XX( OXl.@XQ {.!.].( ].) !.W ! N ' K.K.G.G.F.F.F.C.5XL o , O o o o o X ",
"X X $ o o O O @ o 1 L L L L K K K K _ ! ! ! 6.}.) {.) ].).~.~.).~._.~.{._.~.(./.[.^.W ! ! ! K K K K K K H L 1 o @ @ O o o o o X ",
"X X $ $ $ & & O 0 & o $ & & ; q q M N ! ~ ! /.!.[.^.[.xXzX~.+X).+XoX+X+X+X].zXOX].v W W ! N c c 6 * * & $ $ $ ; O o $ o o $ X X ",
"  X X $ $ o o O O @ 0 0 2 2 w w w M N N ! b ^.OX+X+X].!.^.@X).XX!.).!.!.( @XcX].9 b b b b b M e e q q q q 0 & $ o o o X X $ X X ",
"  X X o o o o o $ & & ; 0 0 q e e M N N W b W !.W / W 3 8 9 7 8 8 8 8 9 {.}.].t 8 b b 8 b c 4 4 4 q > * & & $ $ $ o o X X X X   ",
"  X X $ $ $ $ $ & & & ; q q q q e M c b b b b 3 9 8 9 Q Q W Q W Q Q W / XX].( 8 v b b 7 c c 4 4 q q > * * & $ $ $ $ $ $ X X X   ",
"      X X o $ $ $ $ $ $ & & * > q 4 4 7 7 5 8 8 v v v v v v v v W v b 5 v W 3 5 8 8 5 4 4 4 * * * * & $ $ $ $ $ $ $ # X         ",
"        X X X $ $ $ $ $ $ & & * 4 * 4 4 4 4 5 7 8 5 8 8 8 8 8 8 9 8 5 5 3 = 5 3 5 5 4 4 * * * & & & $ $ $ $ $ o # $ X           ",
"          X X $ $ o $ $ $ $ & * * * * * 4 4 4 4 5 5 5 5 5 5 5 5 8 5 5 5 5 5 3 3 5 4 4 * * * & $ $ $ $ $ $ $ X X # $ X           ",
"        X X X X X X $ $ $ $ $ & & & * * 4 4 4 4 4 5 5 5 5 5 5 5 5 5 5 5 5 4 3 4 4 & & & * * $ $ $ $ $ # $ X X X # X             ",
"          X X X X X X $ $ $ $ $ $ $ $ & & & & = = 3 3 3 5 4 4 4 4 4 4 4 4 = = = = & $ $ $ $ $ $ $ # # X X X                     ",
"              X X X X X # # # # $ $ $ $ & & & & = & = = 4 = = = = = & & 4 & = & $ $ $ $ $ $ $ # # # X   X X                     ",
"                  X     X X # $ $ $ $ $ $ $ & & * & & & * * = = * * & & * & & & & $ $ $ $ $ $ $ # # X X X X                     ",
"                          X X X $ # $ $ $ $ $ $ $ $ $ = $ $ $ $ & & $ $ $ $ $ $ $ $ X X # X X X                                 ",
"                            X X     # $ $ $ $ $ $ $ $ $ $ $ $ $ $ $ # # $ $ $ $ $ $         X X X                               ",
"                              X X     # # $ # $ $ $ $ $ $ $ $ $ $ $ $ $ $ $ $ # $ $ X   X   X X                                 ",
"                            X X         # # # # X $ # $ $ $ $ $ $ $ $ $ $ $ # X         X X                                     ",
"                              X         X               # # #           #                                                       "
};
