/* XPM */
static char * C:\Users\Usuario\Downloads\door4_xpm[] = {
"64 64 112 2",
"  	c None",
". 	c #737C6A",
"+ 	c #808675",
"@ 	c #7D8574",
"# 	c #79826E",
"$ 	c #7C867A",
"% 	c #717766",
"& 	c #80837E",
"* 	c #898C7B",
"= 	c #838C75",
"- 	c #838B7B",
"; 	c #8A8F80",
"> 	c #8C9484",
", 	c #919789",
"' 	c #9A9F92",
") 	c #9BA196",
"! 	c #939A8C",
"~ 	c #949D92",
"{ 	c #A1A79B",
"] 	c #9CA49B",
"^ 	c #A2A99E",
"/ 	c #A8AEA5",
"( 	c #A2ACA3",
"_ 	c #9DA99F",
": 	c #A0A79D",
"< 	c #9DA9A2",
"[ 	c #A9B0A6",
"} 	c #656C65",
"| 	c #666B5A",
"1 	c #616566",
"2 	c #5D625B",
"3 	c #ACB3AB",
"4 	c #565B5B",
"5 	c #4A4E4B",
"6 	c #4C514E",
"7 	c #080707",
"8 	c #000000",
"9 	c #767B74",
"0 	c #B0B6AE",
"a 	c #B1B6B1",
"b 	c #1B1C1B",
"c 	c #B4BAB4",
"d 	c #B9BEB7",
"e 	c #A1A6A5",
"f 	c #BABEBB",
"g 	c #BDC1BE",
"h 	c #BBC3C5",
"i 	c #A9AEAC",
"j 	c #C2C5C5",
"k 	c #828683",
"l 	c #AAB3B5",
"m 	c #0A0A09",
"n 	c #929694",
"o 	c #C3C6C9",
"p 	c #C5C9CC",
"q 	c #8D8F90",
"r 	c #AAAFB1",
"s 	c #181817",
"t 	c #080807",
"u 	c #B9BEC3",
"v 	c #171A1B",
"w 	c #B2BABD",
"x 	c #8C8E8E",
"y 	c #A1A7A9",
"z 	c #AEBCC1",
"A 	c #121415",
"B 	c #ACB6BA",
"C 	c #A3ABAC",
"D 	c #2D3233",
"E 	c #313435",
"F 	c #2C302D",
"G 	c #34393C",
"H 	c #999D9C",
"I 	c #90969A",
"J 	c #B1B6BA",
"K 	c #3C3E3D",
"L 	c #2A2C2D",
"M 	c #A2ADB2",
"N 	c #B5BDC3",
"O 	c #BAC3C9",
"P 	c #8B979A",
"Q 	c #9BA6AA",
"R 	c #8B9494",
"S 	c #858E92",
"T 	c #8B948C",
"U 	c #929C9C",
"V 	c #9AA4A5",
"W 	c #686D6D",
"X 	c #6A6E71",
"Y 	c #919EA4",
"Z 	c #A4B2B4",
"` 	c #656A6D",
" .	c #636769",
"..	c #848B8C",
"+.	c #8D9CA1",
"@.	c #0E1112",
"#.	c #5A5E61",
"$.	c #5D6265",
"%.	c #A5B5B9",
"&.	c #7B8583",
"*.	c #747C7E",
"=.	c #2F3639",
"-.	c #292E31",
";.	c #6B7274",
">.	c #151719",
",.	c #9EADB1",
"'.	c #9DAAAD",
").	c #8A9574",
"!.	c #8E9978",
"~.	c #88907F",
"{.	c #859171",
"].	c #838D6E",
". + + + + + + + + @ #                                                                                       # + + + + @ + @ $ $ ",
"% % % . % . . @ + + @                                                                                       + & * * + @ @ & + + ",
"= * - ; > , , ' ) ' '                                                                                       , ' ) ) , , ! ! ! ~ ",
"* ; > , , , , ) { ) {                                                                                       ' ' ) ) ' ~ ' ~ ~ ~ ",
"> , ! ' ! ' ' { { { {                                                                                       ) { { { ] ) ) ) ) ] ",
"' ' ' ) ' ' ) ^ / ^ /                                                                                       ) ^ ( ( _ ] : : _ < ",
") ) ) ) { ) ) / / / [                                                                                       { / [ [ ^ { ^ < < ( ",
"} | 1 2 2 2 , / 3 3 3                                                                                       ^ [ 3 3 : 4 5 5 6 6 ",
"7 8 8 8 8 8 9 0 0 0 a                                                                                       ( 0 0 0 : b 8 8 8 8 ",
"8 8 8 8 8 7 9 a a c c                                                                                       / 0 a d e b 8 8 8 8 ",
"8 8 8 8 8 7 9 d d d d                                                                                       [ c d f e b 8 8 8 8 ",
"8 8 8 8 8 7 & d d d f                                                                                       3 d d f / b 8 8 8 8 ",
"8 8 8 8 8 7 & f f g f                                                                                       a f g g / b 8 8 8 8 ",
"8 8 8 8 8 7 & g g g g                                                                                       a g f h i b 8 8 8 8 ",
"8 8 8 8 8 7 ; j g j g                                                                                       c f j j i b 8 8 8 8 ",
"8 8 8 8 8 7 k j g j j                                                                                       f j j j l b 8 8 8 8 ",
"8 8 8 8 8 m n o j j j                                                                                       f j j o a b 8 8 8 8 ",
"8 8 8 8 8 m ' o j j j                                                                                       f j o o a b 8 8 8 8 ",
"8 8 8 8 8 m , p o o o                                                                                       f j o p l b 8 8 8 8 ",
"8 8 8 8 8 7 q p o o o                                                                                       f j o p a b 8 8 8 8 ",
"8 8 8 8 8 7 n p p o o                                                                                       f o p p a b 8 8 8 8 ",
"8 8 8 8 8 7 q p p o o                                                                                       f o o p r b 8 8 8 8 ",
"8 8 8 8 8 7 q p p o o                                                                                       g o o p l s 8 8 8 8 ",
"8 8 8 8 7 m q p o o o                                                                                       f o p p r b 8 8 8 8 ",
"8 8 8 8 8 t q p o o o                                                                                       u j o p r s 8 8 8 8 ",
"8 8 8 8 8 t q p o j j                                                                                       g j o p r v 8 8 8 8 ",
"8 8 8 8 8 7 q p o j j                                                                                       u j j p r s 8 8 8 8 ",
"8 8 8 8 8 7 q p j u u                                                                                       f w u o i b 8 8 8 8 ",
"8 8 8 8 8 m x p r r f                                                                                       l y z o i A 8 8 8 8 ",
"8 8 8 8 8 t q u l l w                                                                                       i i B o C s 8 8 8 8 ",
"D E F E E G H f C I J                                                                                       i I r u r K L F L L ",
"l J J J J J w f C I J                                                                                       i n M j u J J J J J ",
"N u j u O u u f y P J                                                                                       i n Q u u O j u u O ",
"u u N h j u u w e R J                                                                                       i R S I u O O O O O ",
"N u u u u u u J e q l                                                                                       y T U i u u u O u O ",
"N u u u u u f J V S r                                                                                       y x Q N u u o O O O ",
"W W X X X X H J : x r                                                                                       e x Y N Z X X ` ` ` ",
"8 8 8 8 8 8  .N Y ..r                                                                                       e x Y N +.m 8 8 8 8 ",
"8 8 8 8 8 8  .J H k r                                                                                       e k Q u I m 8 8 8 8 ",
"8 8 8 8 8 8  .N y H l                                                                                       y V l u I @.8 8 8 8 ",
"8 8 8 8 8 8  .u N w J                                                                                       J u u h I m 8 8 8 8 ",
"8 8 8 8 8 8  .u w w J                                                                                       J w N N P m 8 8 8 8 ",
"8 8 8 8 8 8 1 N w J J                                                                                       B w N N R m 8 8 8 8 ",
"8 8 8 8 8 8 1 N z J J                                                                                       l J N N R m 8 8 8 8 ",
"8 8 8 8 8 8  .z z z z                                                                                       l N z N q 7 8 8 8 8 ",
"8 8 8 8 8 8  .N r z l                                                                                       l J B N q m 8 8 8 8 ",
"8 8 8 8 8 8 #.N z J M                                                                                       l B z N S 7 8 8 8 8 ",
"8 8 8 8 8 8 $.N r J z                                                                                       l z J J ..7 8 8 8 8 ",
"8 8 8 8 8 8 $.z z r z                                                                                       l B B J ..t 8 8 8 8 ",
"8 8 8 8 8 8 #.z l z r                                                                                       l B B z ..t 8 8 8 8 ",
"8 8 8 8 8 8 #.B M l l                                                                                       M B l B k 7 8 8 8 8 ",
"8 8 8 8 8 8 #.B z l M                                                                                       M B l l k 7 8 8 8 8 ",
"8 8 8 8 8 8 #.B Z r %.                                                                                      M B r B &.7 8 8 8 8 ",
"8 8 8 8 8 8 #.l Z Z M                                                                                       M r l M *.7 8 8 8 8 ",
"8 8 8 8 8 8 #.Z M M M                                                                                       M l M Z *.7 8 8 8 8 ",
"8 8 8 8 8 8 #.l M M M                                                                                       Q M M M *.7 8 8 8 8 ",
"=.E =.-.D -.;.M M M Q                                                                                       Q M M M k b v v >.>.",
"Q M ,.Q '.Q M M y M Q                                                                                       Q M y M M Y Y Y Y +.",
"M M M M M M M Q Q Q Q                                                                                       Y y Q M M M M Z M r ",
"Q M Q y M M M y Q Q Y                                                                                       y Q y Y ,.M M M M ,.",
"Q Q Q Q Q Q Q Q Q V Y                                                                                       Y V V V Q '.Q Q Q ,.",
"Q Q Q Q Q Q ,.,.Q Q Q                                                                                       Q Q Q Q '.'.'.Q Q Q ",
"+.+.P P P +.+.+.P +.+.                                                                                      I Y Y +.Y Y Y Y Y Y ",
").!.!.~.!.).* * ).{.*                                                                                       !.).{.{.{.= * & ].]."};
