/* XPM */
static char * C:\Users\Usuario\Downloads\door2_xpm[] = {
"64 64 626 2",
"  	c None",
". 	c #76826D",
"+ 	c #7A836F",
"@ 	c #818A72",
"# 	c #7C8473",
"$ 	c #7F8574",
"% 	c #818776",
"& 	c #717A66",
"* 	c #76816C",
"= 	c #747E6C",
"- 	c #6D7663",
"; 	c #717867",
"> 	c #737B69",
", 	c #79806F",
"' 	c #818576",
") 	c #7D8475",
"! 	c #7E8676",
"~ 	c #7E897D",
"{ 	c #808E85",
"] 	c #83948F",
"^ 	c #83938E",
"/ 	c #818C79",
"( 	c #848E7B",
"_ 	c #899180",
": 	c #878E7E",
"< 	c #888D7B",
"[ 	c #8E9586",
"} 	c #979C8F",
"| 	c #969B8F",
"1 	c #8F9587",
"2 	c #8F988E",
"3 	c #929D93",
"4 	c #96A49B",
"5 	c #9FAEA9",
"6 	c #9EAEAA",
"7 	c #849183",
"8 	c #8A9583",
"9 	c #8B9384",
"0 	c #8B9284",
"a 	c #898F7F",
"b 	c #92988A",
"c 	c #9CA295",
"d 	c #9A9F93",
"e 	c #969E92",
"f 	c #97A096",
"g 	c #9CA7A1",
"h 	c #A0AFAA",
"i 	c #AABBB9",
"j 	c #ACBBB8",
"k 	c #8B9485",
"l 	c #8E998A",
"m 	c #91988A",
"n 	c #939B8D",
"o 	c #92998A",
"p 	c #999F92",
"q 	c #A0A69A",
"r 	c #9EA499",
"s 	c #9CA298",
"t 	c #9EA89F",
"u 	c #A0ADA6",
"v 	c #A5B4AF",
"w 	c #AFBEBC",
"x 	c #B3C2C1",
"y 	c #8F9B90",
"z 	c #96A195",
"A 	c #99A296",
"B 	c #9DA397",
"C 	c #9FA499",
"D 	c #A5ABA1",
"E 	c #A0A79D",
"F 	c #A1AAA0",
"G 	c #A3ADA5",
"H 	c #A4B3AD",
"I 	c #ACB9B6",
"J 	c #B0C0BF",
"K 	c #B6C6C7",
"L 	c #96A296",
"M 	c #818C7E",
"N 	c #717A72",
"O 	c #70766F",
"P 	c #6F756D",
"Q 	c #767B73",
"R 	c #A8AFA6",
"S 	c #A4ABA1",
"T 	c #899088",
"U 	c #888F89",
"V 	c #919D99",
"W 	c #9BA9A8",
"X 	c #A9B9B8",
"Y 	c #BCCBCC",
"Z 	c #9AA69C",
"` 	c #585F5C",
" .	c #000000",
"..	c #2F322E",
"+.	c #ADB3AC",
"@.	c #A7AEA5",
"#.	c #5F635E",
"$.	c #1D201F",
"%.	c #212426",
"&.	c #24282A",
"*.	c #4D5657",
"=.	c #C2D0D1",
"-.	c #9FABA2",
";.	c #5D6662",
">.	c #282B27",
",.	c #B0B5B0",
"'.	c #AAAFA9",
").	c #636664",
"!.	c #2D3230",
"~.	c #C6D4D5",
"{.	c #A2ACA5",
"].	c #616A65",
"^.	c #242623",
"/.	c #B6BBB4",
"(.	c #ADB2AC",
"_.	c #696C6B",
":.	c #282D2C",
"<.	c #C5D3D4",
"[.	c #A4B2AD",
"}.	c #666E6A",
"|.	c #242523",
"1.	c #B6BAB5",
"2.	c #B0B5AF",
"3.	c #70746F",
"4.	c #1E2122",
"5.	c #C5D2D4",
"6.	c #A7B3AD",
"7.	c #67706D",
"8.	c #1F1F1E",
"9.	c #B7BBB7",
"0.	c #B2B6B3",
"a.	c #757976",
"b.	c #18191A",
"c.	c #C3D0D2",
"d.	c #A9B9B5",
"e.	c #687270",
"f.	c #1C1D19",
"g.	c #B9BDBA",
"h.	c #B3B8B4",
"i.	c #7A7E7E",
"j.	c #0C0E0B",
"k.	c #C1CECF",
"l.	c #ACB7B2",
"m.	c #6D7273",
"n.	c #141513",
"o.	c #B9BCBB",
"p.	c #B6BAB8",
"q.	c #808484",
"r.	c #BCC9CB",
"s.	c #AEBBB9",
"t.	c #6F7877",
"u.	c #0F1010",
"v.	c #BBBEBE",
"w.	c #868989",
"x.	c #B9C6C8",
"y.	c #A6B3AD",
"z.	c #B3BEBC",
"A.	c #727A78",
"B.	c #050505",
"C.	c #BBBFBD",
"D.	c #B9BDBC",
"E.	c #8A8D8D",
"F.	c #B5C1C3",
"G.	c #ABB6B2",
"H.	c #B4BEBD",
"I.	c #747C7C",
"J.	c #BABDBE",
"K.	c #B9BDBD",
"L.	c #8D9193",
"M.	c #B0BBBE",
"N.	c #ADB6B3",
"O.	c #B3BEBF",
"P.	c #767C7E",
"Q.	c #B7BBBD",
"R.	c #929596",
"S.	c #A9B4B7",
"T.	c #ACB8B5",
"U.	c #B5C1C2",
"V.	c #767D7F",
"W.	c #BABEBF",
"X.	c #96999A",
"Y.	c #A2ADAF",
"Z.	c #ABB8B6",
"`.	c #B5C0C1",
" +	c #777F81",
".+	c #B4B8BA",
"++	c #979A9C",
"@+	c #9CA8A9",
"#+	c #ACB9B5",
"$+	c #B6C2C3",
"%+	c #788083",
"&+	c #B2B5B8",
"*+	c #9A9FA1",
"=+	c #939E9E",
"-+	c #B6C1C3",
";+	c #798185",
">+	c #B0B3B5",
",+	c #B9BDBF",
"'+	c #9EA1A4",
")+	c #889194",
"!+	c #A9B4B3",
"~+	c #B7C2C3",
"{+	c #7A8286",
"]+	c #AEB1B3",
"^+	c #A0A4A6",
"/+	c #808C8D",
"(+	c #A8B5B2",
"_+	c #B5C1C5",
":+	c #7A8387",
"<+	c #ACAEB0",
"[+	c #BABEBE",
"}+	c #A3A7A9",
"|+	c #7C8787",
"1+	c #A8B5B3",
"2+	c #B5C2C4",
"3+	c #7D8488",
"4+	c #A9ACAE",
"5+	c #B6BBBD",
"6+	c #A4A8A9",
"7+	c #777D81",
"8+	c #A7B3B5",
"9+	c #B6C1C4",
"0+	c #7E8589",
"a+	c #A1A4A6",
"b+	c #AEB4B5",
"c+	c #A2A7A9",
"d+	c #6D7679",
"e+	c #A8B5B4",
"f+	c #B2C0C4",
"g+	c #7B8488",
"h+	c #989D9F",
"i+	c #A7AFB0",
"j+	c #A1A8AA",
"k+	c #636D6E",
"l+	c #A4B5B4",
"m+	c #B5C1C4",
"n+	c #828B8F",
"o+	c #1A1B19",
"p+	c #04090D",
"q+	c #949A9A",
"r+	c #A3A9AA",
"s+	c #A0A6A8",
"t+	c #5B6465",
"u+	c #A5B5B6",
"v+	c #B4C0C3",
"w+	c #ACBABE",
"x+	c #A5B1B2",
"y+	c #A3ACAD",
"z+	c #9EA7A8",
"A+	c #9FA3A7",
"B+	c #A8AEAF",
"C+	c #A1A5A6",
"D+	c #A9AEB1",
"E+	c #7F8285",
"F+	c #73797B",
"G+	c #676E70",
"H+	c #5B6264",
"I+	c #6F7A7A",
"J+	c #A2B2B1",
"K+	c #B0BEC3",
"L+	c #B7C0C6",
"M+	c #B5BEC4",
"N+	c #B5BDC3",
"O+	c #B5BDC2",
"P+	c #BBC0C4",
"Q+	c #B3B8BA",
"R+	c #9FA6A7",
"S+	c #AFB5B9",
"T+	c #B8C1C6",
"U+	c #B5C0C4",
"V+	c #B3BEC3",
"W+	c #B0BCC1",
"X+	c #9FB0B0",
"Y+	c #B3BFC5",
"Z+	c #B6C1C8",
"`+	c #B6C2C8",
" @	c #B7BEC3",
".@	c #BBC1C4",
"+@	c #B3B8BB",
"@@	c #A1A8AC",
"#@	c #BBC3C8",
"$@	c #BBC3C9",
"%@	c #BAC4CA",
"&@	c #B8C3CA",
"*@	c #B6C2C9",
"=@	c #9EAFB2",
"-@	c #B2BFC4",
";@	c #B7BFC6",
">@	c #B7BDC3",
",@	c #B6BDC3",
"'@	c #B9BFC3",
")@	c #B2B7BB",
"!@	c #9CA2A4",
"~@	c #9EA5A6",
"{@	c #B9C1C7",
"]@	c #BAC1C7",
"^@	c #B8C1C7",
"/@	c #B4C0C7",
"(@	c #9AABAD",
"_@	c #B0BFC3",
":@	c #B4BEC4",
"<@	c #B7C2C9",
"[@	c #B8C0C6",
"}@	c #B9BFC5",
"|@	c #BDC2C7",
"1@	c #B4B9BC",
"2@	c #999FA1",
"3@	c #A6ACAE",
"4@	c #BEC5CA",
"5@	c #BDC6CC",
"6@	c #BAC2C8",
"7@	c #B7C2C8",
"8@	c #B5C2C8",
"9@	c #98A9AB",
"0@	c #B1BEC0",
"a@	c #94A0A4",
"b@	c #6D7578",
"c@	c #73787C",
"d@	c #7B8082",
"e@	c #83888B",
"f@	c #9FA4A4",
"g@	c #9A9FA0",
"h@	c #A3ABAF",
"i@	c #9DA3A7",
"j@	c #A1A8AD",
"k@	c #A5AEB3",
"l@	c #A9B2B8",
"m@	c #A9B5BB",
"n@	c #95A7A9",
"o@	c #B0BCC0",
"p@	c #808B8F",
"q@	c #131516",
"r@	c #1C1E1E",
"s@	c #242726",
"t@	c #2B2E2E",
"u@	c #808789",
"v@	c #999E9F",
"w@	c #9CA5A9",
"x@	c #424648",
"y@	c #434648",
"z@	c #494E50",
"A@	c #4F5557",
"B@	c #62696B",
"C@	c #96A7AA",
"D@	c #AFBBC0",
"E@	c #767B7E",
"F@	c #979C9C",
"G@	c #9BA3A6",
"H@	c #000303",
"I@	c #1E2224",
"J@	c #94A4A7",
"K@	c #7E8D89",
"L@	c #ACBCBF",
"M@	c #818C90",
"N@	c #777C7E",
"O@	c #9A9F9F",
"P@	c #A1A8AB",
"Q@	c #222425",
"R@	c #191D1E",
"S@	c #8FA0A3",
"T@	c #7D8C87",
"U@	c #AEBBBD",
"V@	c #818C8E",
"W@	c #797E81",
"X@	c #A4ABAE",
"Y@	c #2A2C2E",
"Z@	c #080A0B",
"`@	c #8F9FA3",
" #	c #7D8B86",
".#	c #828D91",
"+#	c #797C7F",
"@#	c #ABB2B5",
"##	c #B5BCC0",
"$#	c #303335",
"%#	c #8D9CA0",
"&#	c #7C8985",
"*#	c #ABBABD",
"=#	c #828D90",
"-#	c #74797C",
";#	c #AAB1B3",
">#	c #B1BABE",
",#	c #353B3B",
"'#	c #899A9D",
")#	c #7D8A86",
"!#	c #ABB9BB",
"~#	c #828C90",
"{#	c #707579",
"]#	c #A9B0B3",
"^#	c #3B403F",
"/#	c #849396",
"(#	c #798885",
"_#	c #AAB8BA",
":#	c #838E91",
"<#	c #6C7275",
"[#	c #A8B2B6",
"}#	c #B1B9BE",
"|#	c #414545",
"1#	c #818F94",
"2#	c #7B8984",
"3#	c #AAB9BC",
"4#	c #818D8F",
"5#	c #686F72",
"6#	c #A7B2B7",
"7#	c #B0BABF",
"8#	c #484949",
"9#	c #7E8C8E",
"0#	c #7B8884",
"a#	c #A9B8BB",
"b#	c #828D8F",
"c#	c #6A6F72",
"d#	c #A5AEB1",
"e#	c #AFB7BB",
"f#	c #4D4F4F",
"g#	c #7D8A8B",
"h#	c #7B8985",
"i#	c #A8B8BA",
"j#	c #838D90",
"k#	c #64686C",
"l#	c #A6AFB3",
"m#	c #AFB9BD",
"n#	c #4D5355",
"o#	c #778585",
"p#	c #7B8A86",
"q#	c #A8B8B9",
"r#	c #818C8F",
"s#	c #606568",
"t#	c #A8AFB3",
"u#	c #AEB7BB",
"v#	c #515556",
"w#	c #748182",
"x#	c #7E8B88",
"y#	c #A7B7B8",
"z#	c #585E61",
"A#	c #A9B3B7",
"B#	c #ACB4B8",
"C#	c #565A5B",
"D#	c #748082",
"E#	c #818E8C",
"F#	c #A4B4B6",
"G#	c #858E91",
"H#	c #52585B",
"I#	c #A9B3B6",
"J#	c #AAB4B7",
"K#	c #5B6162",
"L#	c #727D7E",
"M#	c #80918E",
"N#	c #A3B3B3",
"O#	c #818D91",
"P#	c #4C5052",
"Q#	c #A7B1B4",
"R#	c #A6B0B4",
"S#	c #5F6465",
"T#	c #6D7677",
"U#	c #83938F",
"V#	c #A4B3B4",
"W#	c #45494B",
"X#	c #A5AEB2",
"Y#	c #636868",
"Z#	c #687071",
"`#	c #879592",
" $	c #A1B2B1",
".$	c #828E90",
"+$	c #404345",
"@$	c #A3ACAF",
"#$	c #686E6E",
"$$	c #636A69",
"%$	c #859492",
"&$	c #808D8F",
"*$	c #3A3D3F",
"=$	c #A7B3B6",
"-$	c #A1A9AC",
";$	c #6A7173",
">$	c #5E6664",
",$	c #899694",
"'$	c #9EAFB0",
")$	c #353739",
"!$	c #A5B2B5",
"~$	c #697174",
"{$	c #586062",
"]$	c #899693",
"^$	c #9EAEAF",
"/$	c #303234",
"($	c #A4B0B4",
"_$	c #9DA6A9",
":$	c #6E7779",
"<$	c #555B5B",
"[$	c #879693",
"}$	c #9DACAD",
"|$	c #818D90",
"1$	c #000001",
"2$	c #2C2F31",
"3$	c #A6B0B5",
"4$	c #98A2A7",
"5$	c #70787B",
"6$	c #505652",
"7$	c #899795",
"8$	c #9AABAB",
"9$	c #8A989B",
"0$	c #50585B",
"a$	c #495052",
"b$	c #404649",
"c$	c #373D40",
"d$	c #404547",
"e$	c #A2ADB2",
"f$	c #757B7D",
"g$	c #464B48",
"h$	c #8B9893",
"i$	c #99AAAB",
"j$	c #9CACAF",
"k$	c #A0AFB3",
"l$	c #A0ADB1",
"m$	c #9CA8AC",
"n$	c #9AA6AA",
"o$	c #97A2A6",
"p$	c #A1ABAF",
"q$	c #98A2A6",
"r$	c #949EA2",
"s$	c #788489",
"t$	c #707C7F",
"u$	c #667171",
"v$	c #5E6A6B",
"w$	c #677373",
"x$	c #8B9894",
"y$	c #697265",
"z$	c #98A9A9",
"A$	c #9FB0B3",
"B$	c #A3B1B5",
"C$	c #A2AEB3",
"D$	c #9FABAF",
"E$	c #A3AEB3",
"F$	c #9DA8AC",
"G$	c #959FA3",
"H$	c #A1ACB1",
"I$	c #9BA8AD",
"J$	c #97A4A7",
"K$	c #93A3A4",
"L$	c #90A09F",
"M$	c #8C9998",
"N$	c #677066",
"O$	c #96A6A6",
"P$	c #9EADB0",
"Q$	c #A0AEB2",
"R$	c #9FADB1",
"S$	c #A0ABB0",
"T$	c #A3ADB1",
"U$	c #9CA6AA",
"V$	c #959EA1",
"W$	c #A5B0B3",
"X$	c #A3B0B1",
"Y$	c #9FAAAA",
"Z$	c #8D9994",
"`$	c #6A7267",
" %	c #93A4A3",
".%	c #9DADB0",
"+%	c #9CACB0",
"@%	c #9CA9AC",
"#%	c #9EA9AD",
"$%	c #9FA9AD",
"%%	c #9BA5A9",
"&%	c #949EA0",
"*%	c #A0ACB1",
"=%	c #9FAAAF",
"-%	c #9DA9AD",
";%	c #9EAAAC",
">%	c #9CA8AA",
",%	c #6C756B",
"'%	c #91A2A1",
")%	c #9BACAF",
"!%	c #9DACAF",
"~%	c #9AA7AA",
"{%	c #9AA5A9",
"]%	c #9BA6AA",
"^%	c #9BA6A9",
"/%	c #909C9F",
"(%	c #9BA5A8",
"_%	c #9CA7A8",
":%	c #9BA6A7",
"<%	c #889895",
"[%	c #6A746B",
"}%	c #8A9C9D",
"|%	c #94A5A8",
"1%	c #99A7AC",
"2%	c #97A6AA",
"3%	c #94A0A6",
"4%	c #9CA9AD",
"5%	c #96A0A4",
"6%	c #9CA8AB",
"7%	c #9AA5A8",
"8%	c #99A4A6",
"9%	c #95A4A5",
"0%	c #96A3A5",
"a%	c #879694",
"b%	c #697368",
"c%	c #82938C",
"d%	c #8A9997",
"e%	c #8C9B9C",
"f%	c #8D9B9F",
"g%	c #8C999D",
"h%	c #8B9A9F",
"i%	c #8C999E",
"j%	c #8E9CA2",
"k%	c #8D999E",
"l%	c #93A0A7",
"m%	c #94A1A8",
"n%	c #97A5AA",
"o%	c #94A4A9",
"p%	c #96A7AB",
"q%	c #8C9C9E",
"r%	c #656F65",
"s%	c #85916A",
"t%	c #8A9571",
"u%	c #8A9576",
"v%	c #8F9A7B",
"w%	c #8E9A7C",
"x%	c #8D987C",
"y%	c #8B9580",
"z%	c #899280",
"A%	c #8B9582",
"B%	c #889484",
"C%	c #89918A",
"D%	c #89958A",
"E%	c #8C9990",
"F%	c #8E9C92",
"G%	c #92A199",
"H%	c #8E9D96",
"I%	c #666F5D",
". + @ # $ %                                                                                                                     ",
"& * = - ; > , ' ) ! ~ { ] ^                                                                                                     ",
"/ ( _ : < [ } | 1 2 3 4 5 6                                                                                                     ",
"7 8 9 0 a b c d e f g h i j                                                                                                     ",
"k l m n o p q r s t u v w x                                                                                                     ",
"y z A B B C D E F G H I J K                                                                                                     ",
"L M N O P Q R S T U V W X Y                                                                                                     ",
"Z `  . . ...+.@.#.$.%.&.*.=.                                                                                                    ",
"-.;. . . .>.,.'.). . . .!.~.                                                                                                    ",
"{.]. . . .^./.(._. . . .:.<.                                                                                                    ",
"[.}. . . .|.1.2.3. . . .4.5.                                                                                                    ",
"6.7. . . .8.9.0.a. . . .b.c.                                                                                                    ",
"d.e. . . .f.g.h.i. . . .j.k.                                                                                                    ",
"l.m. . . .n.o.p.q. . . . .r.                                                                                                    ",
"s.t. . . .u.v.o.w. . . . .x.y.                                                                                                  ",
"z.A. . . .B.C.D.E. . . . .F.G.                                                                                                  ",
"H.I. . . . .J.K.L. . . . .M.N.                                                                                                  ",
"O.P. . . . .Q.C.R. . . . .S.T.                                                                                                  ",
"U.V. . . . .Q.W.X. . . . .Y.Z.                                                                                                  ",
"`. + . . . ..+W.++ . . . .@+#+                                                                                                  ",
"$+%+ . . . .&+W.*+ . . . .=+#+                                                                                                  ",
"-+;+ . . . .>+,+'+ . . . .)+!+                                                                                                  ",
"~+{+ . . . .]+,+^+ . . . ./+(+                                                                                                  ",
"_+:+ . . . .<+[+}+ . . . .|+1+                                                                                                  ",
"2+3+ . . . .4+5+6+ . . . .7+8+                                                                                                  ",
"9+0+ . . . .a+b+c+ . . . .d+e+                                                                                                  ",
"f+g+ . . . .h+i+j+ . . . .k+l+                                                                                                  ",
"m+n+o+p+ . .q+r+s+ . . . .t+u+                                                                                                  ",
"v+w+x+y+z+A+B+C+D+E+F+G+H+I+J+                                                                                                  ",
"K+L+M+N+O+P+Q+R+S+P+T+U+V+W+X+                                                                                                  ",
"Y+Z+`+N+ @.@+@R+@@#@$@%@&@*@=@                                                                                                  ",
"-@Z+;@>@,@'@)@!@~@{@]@^@Z+/@(@                                                                                                  ",
"_@:@<@[@}@|@1@2@3@4@5@6@7@8@9@                                                                                                  ",
"0@a@b@c@d@e@f@g@h@i@j@k@l@m@n@                                                                                                  ",
"o@p@q@r@s@t@u@v@w@x@y@z@A@B@C@                                                                                                  ",
"D@p@ . . . .E@F@G@H@ . . .I@J@K@                                                                                                ",
"L@M@ . . . .N@O@P@Q@ . . .R@S@T@                                                                                                ",
"U@V@ . . . .W@X@S+Y@ . . .Z@`@ #                                                                                                ",
"L@.# . . . .+#@###$# . . . .%#&#                                                                                                ",
"*#=# . . . .-#;#>#,# . . . .'#)#                                                                                                ",
"!#~# . . . .{#]#>#^# . . . ./#(#                                                                                                ",
"_#:# . . . .<#[#}#|# . . . .1#2#                                                                                                ",
"3#4# . . . .5#6#7#8# . . . .9#0#                                                                                                ",
"a#b# . . . .c#d#e#f# . . . .g#h#                                                                                                ",
"i#j# . . . .k#l#m#n# . . . .o#p#                                                                                                ",
"q#r# . . . .s#t#u#v# . . . .w#x#                                                                                                ",
"y#j# . . . .z#A#B#C# . . . .D#E#                                                                                                ",
"F#G# . . . .H#I#J#K# . . . .L#M#                                                                                                ",
"N#O# . . . .P#Q#R#S# . . . .T#U#                                                                                                ",
"V#4# . . . .W#A#X#Y# . . . .Z#`#                                                                                                ",
" $.$ . . . .+$S.@$#$ . . . .$$%$                                                                                                ",
"X+&$ . . . .*$=$-$;$ . . . .>$,$                                                                                                ",
"'$4# . . . .)$!$j+~$ . . . .{$]$                                                                                                ",
"^$V@ . . . ./$($_$:$ . . . .<$[$                                                                                                ",
"}$|$ . . .1$2$3$4$5$ . . . .6$7$                                                                                                ",
"8$9$0$a$b$c$d$e$4$f$ . . . .g$h$                                                                                                ",
"i$j$k$l$m$n$o$p$q$r$s$t$u$v$w$x$y$                                                                                              ",
"z$A$B$C$D$E$E$F$G$H$D$I$J$K$L$M$N$                                                                                              ",
"O$P$Q$R$S$S$T$U$V$S$W$E$E$X$Y$Z$`$                                                                                              ",
" %.%+%@%#%F$$%%%&%m$*%=%-%;%>%h$,%                                                                                              ",
"'%)%!%~%{%U$]%^%/%^%m$(%(%_%:%<%[%                                                                                              ",
"}%|%1%2%3%%%n$4%5%m$6%7%8%9%0%a%b%                                                                                              ",
"c%d%e%f%g%h%i%j%k%l%m%m%n%o%p%q%r%                                                                                              ",
"s%t%u%v%w%x%y%z%A%B%C%D%E%F%G%H%I%                                                                                              "};
