/* XPM */
static char *open64[] = {
/* columns rows colors chars-per-pixel */
"64 64 226 2 ",
"   c #03001E",
".  c #060022",
"X  c #090126",
"o  c #0C012A",
"O  c #13012D",
"+  c #18032F",
"@  c #160230",
"#  c #1B0234",
"$  c #1F0338",
"%  c #1F0338",
"&  c #220235",
"*  c #20033A",
"=  c #22043A",
"-  c #26053E",
";  c #23043C",
":  c #2A053E",
">  c #270937",
",  c #2B123A",
"<  c #361636",
"1  c #3C2133",
"2  c #573B37",
"3  c #4A3031",
"4  c #6E5132",
"5  c #7E622B",
"6  c #2A0641",
"7  c #2D0642",
"8  c #2E0644",
"9  c #2C0642",
"0  c #2E0942",
"q  c #270640",
"w  c #310645",
"e  c #310846",
"r  c #320946",
"t  c #350A49",
"y  c #3A0B4C",
"u  c #380448",
"i  c #3B1848",
"p  c #3E0C51",
"a  c #390651",
"s  c #36174A",
"d  c #49024E",
"f  c #430A4E",
"g  c #45044B",
"h  c #4C0552",
"j  c #420E53",
"k  c #4A0C58",
"l  c #540857",
"z  c #451055",
"x  c #491156",
"c  c #4C135C",
"v  c #471158",
"b  c #52145D",
"n  c #5A195A",
"m  c #501E46",
"M  c #60115E",
"N  c #492745",
"B  c #53294B",
"V  c #593446",
"C  c #572855",
"Z  c #4E2E55",
"A  c #623B49",
"S  c #6B2F58",
"D  c #5A1864",
"F  c #511263",
"G  c #680C65",
"H  c #6C136B",
"J  c #671768",
"K  c #75176D",
"L  c #6C1875",
"P  c #761977",
"I  c #760D70",
"U  c #5B2C66",
"Y  c #68276E",
"T  c #7C286B",
"R  c #6A2471",
"E  c #79237B",
"W  c #733567",
"Q  c #7D5246",
"!  c #73484F",
"~  c #5A4568",
"^  c #63446D",
"/  c #684B73",
"(  c #685375",
")  c #755A79",
"_  c #71427A",
"`  c #74607F",
"'  c #977D2D",
"]  c #856439",
"[  c #997A35",
"{  c #896D2F",
"}  c #813A57",
"|  c #850776",
" . c #88167C",
".. c #85316E",
"X. c #845948",
"o. c #854857",
"O. c #805457",
"+. c #936749",
"@. c #A67258",
"#. c #A77651",
"$. c #95536E",
"%. c #A0736E",
"&. c #C47864",
"*. c #A58D1D",
"=. c #BCA81A",
"-. c #9D852A",
";. c #A58B28",
":. c #A99125",
">. c #BA9E25",
",. c #BB9F2A",
"<. c #B39B24",
"1. c #AD8B35",
"2. c #B89735",
"3. c #A99032",
"4. c #BCA424",
"5. c #BDA428",
"6. c #CBB519",
"7. c #D5BC1B",
"8. c #C1AD1D",
"9. c #C29D3E",
"0. c #C3AC23",
"q. c #C5AA2A",
"w. c #CBB326",
"e. c #DABD2E",
"r. c #D3B828",
"t. c #C4A43A",
"y. c #C9AB38",
"u. c #D5B734",
"i. c #CEB034",
"p. c #DBC515",
"a. c #E2CA18",
"s. c #F1D81A",
"d. c #DDC429",
"f. c #DCC030",
"g. c #E5C928",
"h. c #BB9647",
"j. c #B18B4B",
"k. c #A8886E",
"l. c #9B856E",
"z. c #C9A542",
"x. c #D0AA40",
"c. c #7B1F85",
"v. c #7D4B83",
"b. c #756181",
"n. c #7B6684",
"m. c #8C1C83",
"M. c #971B88",
"N. c #A61C95",
"B. c #AE1895",
"V. c #98258B",
"C. c #8E3587",
"Z. c #A5218E",
"A. c #A92895",
"S. c #B4289D",
"D. c #AB339C",
"F. c #BE1FA2",
"G. c #B52AA1",
"H. c #BC2BA4",
"J. c #BD24A3",
"K. c #B934A3",
"L. c #C42CAA",
"P. c #C92DAB",
"I. c #C528A8",
"U. c #C33BAC",
"Y. c #C632AB",
"T. c #D52BB6",
"R. c #CB37B2",
"E. c #DE34BD",
"W. c #835789",
"Q. c #8B5990",
"!. c #84748D",
"~. c #8A6693",
"^. c #8B7A94",
"/. c #8A7395",
"(. c #97769C",
"). c #8E6D94",
"_. c #AC5FA2",
"`. c #AC7AAB",
"'. c #CD42B3",
"]. c #D947BC",
"[. c #C67BBA",
"{. c #E63AC4",
"}. c #DD4CC1",
"|. c #DA42C1",
" X c #DF52C4",
".X c #E34DC5",
"XX c #E746C6",
"oX c #ED51CD",
"OX c #E555C9",
"+X c #EF55D1",
"@X c #EE5ED2",
"#X c #F45AD4",
"$X c #F04FD0",
"%X c #F664D9",
"&X c #F16AD6",
"*X c #FF75E2",
"=X c #93849B",
"-X c #9B8A9D",
";X c #9D89A4",
":X c #A689AA",
">X c #AD8DB0",
",X c #B18EB3",
"<X c #BA88B5",
"1X c #AD99B4",
"2X c #B895BB",
"3X c #A192A7",
"4X c #B7A9BB",
"5X c #AEA2B4",
"6X c #C094BF",
"7X c #BFA4C1",
"8X c #CE85C3",
"9X c #DA86CC",
"0X c #D785CA",
"qX c #C093C0",
"wX c #C3ACC5",
"eX c #C6B9C9",
"rX c #CFBED1",
"tX c #FF8AEB",
"yX c #F0A0DE",
"uX c #C8C2CC",
"iX c #D6C9D7",
"pX c #DED4DE",
"aX c #CFC8D3",
"sX c #E2D8E3",
"dX c #EAE5EA",
"fX c #F5F4F5",
/* pixels */
"                    . .     . . . . . . . . . X X X X X X X X X X X X X X X X . X X . . . . . .   . . . . .                     ",
". . .           . . . . .   . . . . . . X X X X X X X X X X X X X X X X X X X X X X X X . . . . . . . . . . . .             . . ",
"                            . . . . . . X . X X X X X X X X X X X X X X X X X X X X X X X . . .   . .                           ",
"              .     . . . . . . . . . X X X X X X X X X X X X X X X X X X X X X X X X X X X X X . . . .     . .                 ",
"          . . .   . . . . . X X X X X X X X X O O O O O O O O O O O O O O O O O X X X X X X X X X X . . . . . . . . .   .     . ",
"        . . . .   . . . . X X X X X X X X O O O O O O O @ @ @ @ @ @ @ O @ O O O O O O X X X X X X X X . . . . . . . . .         ",
"                  . . . . . X X X X X X X O O O O O O O O @ O @ @ @ O O O O O O O O O X X X X X X X . . .   . .                 ",
"      .   . . . . . X X X X X X X O O O @ O O @ @ @ @ @ @ @ @ @ @ @ @ @ @ @ @ O @ @ O O O O O X X X X X X . . . .   . . .       ",
"  . . .   . . . . X X X X X X O O O O @ @ @ @ @ @ @ @ $ = = @ $ = = $ @ @ @ @ @ @ @ @ @ @ @ O O X X X X X X X . . . . . . .     ",
"    .     . . . . X X X X X O O O O @ @ @ @ @ @ @ @ = = = = $ = = = = = = $ = @ @ @ @ @ @ @ O O X X X X X X X X .   . . . .     ",
"        . . . . . X X X X X O O O O @ @ @ @ @ @ $ = * = = = = = = = = = = = = $ @ @ @ @ @ @ O O O O X X X X X . . . . .         ",
". . . . . . . X X X X X O O O @ @ @ @ @ = = = = = = = 6 6 6 6 6 6 6 6 = 6 6 q = = = = $ @ @ @ @ @ O O O X X X X X . . . .   . . ",
". . . . . . X X X X X O O O @ @ @ @ @ = = = = 6 6 6 : 6 6 w w w w w 6 6 6 6 6 6 6 : = = @ $ @ @ @ @ O O O X X X X X . . . . . . ",
"    . . . . X X X X X O O O @ @ @ @ $ = = = = : 6 6 : 6 8 e e e e e e 6 6 6 6 6 : : = = @ $ @ @ @ @ O O O X X X X . . . .       ",
"  . . . . X X X X O O O O O @ @ = = = = : : : 6 e e t t t t t t y y t t t t e 6 6 6 6 6 = = = $ @ @ @ O O O O X X X X . . . .   ",
". . . . . X X X O O O @ @ @ @ = = = = 6 6 6 8 t t y y y y p y y p p p y y y y e t t w 6 6 6 = = @ @ @ @ @ @ O O X X X X . . . . ",
". . . X X X X X O O O @ @ @ @ , ^.n.^ 8 6 e e y y y p p j j p j j j j j p p y t t t t w 6 6 : = = = @ @ @ @ O O X X X X X . . . ",
". . . X X X X X X O O O + > > ~ pXfX5X8 8 e t y y y y j j z j j j j j j j p p y y t e e 6 6 : = = = @ @ O O O O X X X X . . . . ",
". . X X X X X O O O @ @ , *.4 !.dXdXuXi 6 y p j z z z c c c c c c c c c c c z z j p y t e w 6 6 6 = = @ @ @ @ O O X X X X . . . ",
". . X X X X O O O @ @ 2 =.p.p.;.-X4X^ n G h u j v c j c c b b b b b b c c c x z z j j y t t t 6 6 6 = = @ @ @ @ O O X X X . . . ",
". . X X X X O O O @ @ 3 6.6.p.-.N l A.].XX].V.h z c _ _ W._ W.(.(.).~.(.W.v.(.) z p p t t t w 6 6 6 = = @ @ @ @ O O X X X . . . ",
". . X X X X O O O @ @ $ *.p.a.4 d '.'.| P.]..X .f x :XwXsX7XeXsXeX>XeXiXrXiXpX~.A ] ] 5 ] 4 s 6 6 : = = @ @ @ @ O X X X X . . . ",
". X X X X O O @ @ @ = > 2 3 2 m U.U.d l }.| S.P.m.b W.dXiXdX2XpXwXv.>XsXiXiXpX~.! 3.3.;.<.6.N 6 6 6 6 = = = @ @ @ O O X X X X X ",
"X X X X X O O @ @ @ = = @ @ : m.].l y l }.M.S.#XU.M Y ,X).,XQ.2X7Xv.Q.`.`.:XwX).c c z p B >.V 6 8 w 6 6 = = @ @ @ O O O X X X X ",
". . X X X O O @ @ @ = s ~ ^ n ]. .w y f V.XX&X XI D D D J J Y R R Y J J D U U D x x z j B >.V 6 8 6 6 = = $ @ @ @ O O X X X X . ",
"X X X X O O @ @ @ = @ ( eX=XC.].l e y z l M.+X .D H P P  .L L P m.P J J H P L D P H b x B >.V w t e 6 6 = $ $ @ @ @ O O X X X X ",
"X X X X O O @ @ @ = @ b.^.* A.K.u t j c k Z.].J H '.XX}.@XA.P U.+X}.m.P K.%XL.K.+X].G z C ,.V t y t w 6 : = = @ @ @ O O X X X X ",
"X X X X O O @ @ @ = @ b.^.: K.Z.w y c c G .XA.G H.tX%XI.|.U.H.+X{.oXm.K.oXE.*X].F..XH j C ,.V t y t t s , = = @ @ @ O O O X X X ",
"X X X X X O O @ @ = @ ` ^.: U.V.w y c l S.}.G Z.%XtXH.M.OXP.&X#XOXA.G.@XB.@X@X| U.U.I A.S 5.A y s e y 4X` * @ @ @ O O O X X X X ",
"X X X O O @ @ @ @ = @ b.^.* D.K.u j h M.@X .m.oX+X'.| U.XX+X&XI.N.L.@XA.S.*XN. ..XN.].K.n q.>.:.*.3 i uXiX( * @ @ O @ O X X X X ",
"X X X O O @ @ @ * = * b.^.* G .XM.I K.@XM. .OXT.+XJ.R.%X+X$X+XI.}.@XG.m.OXR.P D.oX.X'.C.W.%.k.k.l.) n.eXn.eX/ @ @ @ @ O O X X X ",
"X X X X O O @ @ @ = @ b.^.* u  .]..X'. .l V.S.P.XX.X*XoXP.B.|.+X.XG.V.V.R.M.P M.].S.K :X4X2X2X1X1X1X5X;Xy ^ uX~ @ O O O X X X X ",
"X X X X O O @ @ @ = @ b.^.* : w l l h j h l | .XB.P.T.T.P.R.T.E.T.R.R.P.I.I.H.J.F.S.S.S.A.A.A.A.Z.Z.Z.Z.D.I ` uX, O O O X X X X ",
"X X X O O @ @ @ @ = * b.^.: / /././.(.(.(.(.8XyX`.8X8X0X9X9X9X9X9X9X9X9X9X0X8X8X8X8X[.[.[.[.[.[.[.[.[._.P n 1X=X> O O O O X X X ",
"X X X O O @ @ @ @ = @ b.^.: b.:X;X:X:X:X:X<XyX8X,X,X,X2X2X2XqXqXqX2X2X2X2X,X,X>X:X:X:X:X;X;X;X;X=X=X;XuXZ =X5X, + O O O O X X X ",
"X X X X O O @ @ @ = @ ` ^.* : : w t y j f M.|.I D J J L P E E c.c.c.P c.L L J D D b k j f a y e 6 = i 1X3X4Xs + O O O O X X X X ",
"X X X X X O @ @ @ = @ ` ^.* e N ] [ ] C b $.&.#.+.Y W @.$.E E C.@.$.$.#.@.@.@.W D U +.X.! { V y 4 { V aXiXZ @ @ O O O O X X X X ",
"X X X X X @ @ @ @ = @ b.^.* 2 4.w.p.d.q.#.w.r.f.e.h.@.d.i.$.E #.d.x.z.e.e.f.s.+.F O.a.w.,.r.>.V 4.a.] ;X/ * @ @ @ O O O X X X X ",
"X X X X X O @ @ @ = @ ` ^.> :.0.4.[ q.r.i.y.2.1.i.y.u.h.j.9.$.u.k.z.z.z.e.z.9.! F X.q.2.q.] 3.4.<.4.] 6 = * @ @ @ O O O X X X X ",
". . X X X O O O + @ + ` !.< >.4.] e N ] q.q.A F 1.t.e.y.i.e.e.f.i.z.t.h.e.f.r.S k Q q.,.,.4.6.0.a.=.5 * @ @ @ @ O O O X X X . . ",
"X X X X X O O @ @ @ @ ( eX) >.4.' N 4 [ q.q.X.S 2.t.r.y.a.f.u.s.e.t.9.t.r.y.2.U k Q q.,.>.5.p.0.;.>.5 = @ @ @ @ @ O O X X X X . ",
"X X X X X O O @ @ @ @ s ) ~ { 6.0.8.7.a.w.w.w.w.i.i.2.i.i.i.f.y.i.t.t.t.r.y.i.+.k Q w.5.4.0.-.;.;.:.{ $ @ @ @ @ @ O O X X X X . ",
". X X X X X O O O @ @ @ O @ 1 ' =.6.8.' ! :.0.w.0.X.! 7.3.! +.O.7.3.1.w.w.w.p.] p A 6.>.' 7.{ i :.6.4 @ @ @ @ @ O O O X X X . . ",
". . . X X X O O O @ @ @ @ * * e S } S M M J } o.T H K ..T P H K ..T T ........J G J W S n B i , , 1 > @ @ @ @ O O X X X X . . . ",
". . X X X X O O @ @ @ @ $ = = h S.G.H.H.H.H.H.H.H.L.L.I.I.I.I.I.I.I.I.I.I.I.I.I.I.I.H.H.M.C 1X-XU @ @ @ @ @ @ @ O X X X X X . . ",
". . X X X X O O @ @ @ @ @ $ = : u f f f d d h l l l l I I.P.P.P.P.P.P.P.P.P.P.I.I.P. .f f (.fXfXn.* * * @ @ @ @ O X X X X X . . ",
". . . . X X X X O O O @ @ @ = * @ * = = : : , e e e e j G H H H H H H H J G G G G G f : , !.dXdX^.@ @ @ @ O O O X X X X . . . . ",
". . . . X X X X X O O @ @ @ @ = = = : 6 6 e e t y y y y e t t t t t e e e w w 6 : : : : = , !.( 0 @ @ @ O O O O X X X X . . . . ",
". . . . X X X X X O @ @ @ @ @ = = = 6 6 6 w t t t y t y y y y y y y y t y y t t t w 6 6 = = * @ @ @ @ @ O O O O X X X X . . . . ",
". . . . . X X X X O O O @ @ @ @ = $ = 6 6 6 6 w e t e t y y y y y y y e t t t t w 6 6 : = = * @ @ @ @ @ O O O X X X X . . . . . ",
"    . . . . . X X X X O O O O @ @ @ @ = = = = : 6 6 6 6 8 e w e e w w 6 6 6 6 : : = = = = $ @ @ @ @ O O O X X X X . . . .       ",
". . . . . . X X X X X O O O @ @ @ @ @ = = = = 6 6 6 6 6 6 6 6 6 w 6 6 6 6 6 6 = : = = = = @ @ @ O @ O O O X X X X . . . . . . . ",
". . . . . . X X X X X X O O @ @ @ @ @ @ = $ = = = 6 6 6 6 6 6 6 6 6 6 6 6 6 6 = = = = = @ @ @ @ O O O O X X X X X . . . . . . . ",
"  . .   . . . . X X X X X X O O O @ @ @ @ @ @ = = = = = = = = = : : = = = = = @ = $ @ @ @ @ @ @ O O O X X X X X .   . . . . .   ",
"          . . .   . X X X X X O O O O @ @ @ @ @ @ @ @ @ = = = = = = = @ * @ @ @ @ @ @ @ O O O O O X X X X X X . . . .           ",
"    . . . . . . . X X X X X X X O O O @ @ @ @ @ @ @ @ @ $ $ $ $ = = $ @ $ @ @ @ @ @ @ @ O @ O O O X X X X X X . . . . . .     . ",
"    . . . . . . . . . X X X X X O X O O O @ @ @ @ @ @ @ @ @ @ @ @ @ @ @ @ @ @ @ @ @ @ O O O O X X X X X . . . . . . . . .     . ",
"              .   . . . . . X X X X X O X O O O O O O O @ @ @ @ @ @ @ O O O O O O O O X X X X X X X . . . . . .                 ",
"          .     . . . . . . X X X X X X X X X O O O O O O @ O O @ O O O O O O O O O O X X X X X X X X . . . . .     .           ",
"    .     . . . . . . . . . . X X X X X X X X O O O O O O O O O O O O O O O O X X X X X X X X X . X . . . . . . .   . .         ",
"            . . . . . . . . . . X X X X X X X X X X X X O O X X O O X O X X X X X X X X X X X X . . . . . . . . .               ",
"                            .   . . . . . . X X X X X X X X X X X X X X X X X X X X . . . . . .   .                             ",
"                  . . . . . . . . . . . . X X X X X X X X X X X X X X X X X X X X X X . . . . . . . . .     .           .       ",
"                    . . . . . . . . . . . . . X X X . X X X X X X X X . X X X X X X X . . . . . . . . .                 .       "
};
