/* XPM */
static char *f367fdc71f3f4ee2f1a45e338d508612D2OyuglbxgynjYi8[] = {
/* columns rows colors chars-per-pixel */
"64 64 256 2 ",
"   c #3C0206",
".  c #420301",
"X  c #4C0301",
"o  c #4C0A04",
"O  c #540300",
"+  c #5A0300",
"@  c #540B01",
"#  c #5C0C01",
"$  c #56070C",
"%  c #4D140A",
"&  c #5C1302",
"*  c #5C1B02",
"=  c #581607",
"-  c #5A1A17",
";  c #630300",
":  c #630C01",
">  c #6B0D01",
",  c #6B0500",
"<  c #780901",
"1  c #631301",
"2  c #6B1401",
"3  c #631B01",
"4  c #6C1B01",
"5  c #66190B",
"6  c #731401",
"7  c #731B01",
"8  c #7B1C02",
"9  c #781906",
"0  c #6E1712",
"q  c #582104",
"w  c #5B2417",
"e  c #662406",
"r  c #732303",
"t  c #7D2302",
"y  c #782609",
"u  c #682A16",
"i  c #782C14",
"p  c #783518",
"a  c #6F320D",
"s  c #773826",
"d  c #6C332A",
"f  c #622522",
"g  c #7A4935",
"h  c #784630",
"j  c #7A4F48",
"k  c #7E615B",
"l  c #881901",
"z  c #981A00",
"x  c #8C0A00",
"c  c #A51C00",
"v  c #832302",
"b  c #8C2302",
"n  c #882907",
"m  c #962A05",
"M  c #89360A",
"N  c #993609",
"B  c #862B15",
"V  c #893718",
"C  c #983816",
"Z  c #A72802",
"A  c #B92C01",
"S  c #A33402",
"D  c #A83908",
"F  c #B63606",
"G  c #A63B14",
"H  c #B83D15",
"J  c #973C25",
"K  c #863928",
"L  c #A33B28",
"P  c #C82800",
"I  c #C83A07",
"U  c #D63903",
"Y  c #CD3106",
"T  c #C21C00",
"R  c #994517",
"E  c #944A18",
"W  c #AA4307",
"Q  c #B84609",
"!  c #AA4618",
"~  c #B44B1B",
"^  c #B94917",
"/  c #BA561A",
"(  c #B55411",
")  c #86452C",
"_  c #974727",
"`  c #99522B",
"'  c #864834",
"]  c #975638",
"[  c #8E5036",
"{  c #A74927",
"}  c #B54B24",
"|  c #A85429",
" . c #B95727",
".. c #A85738",
"X. c #B65A37",
"o. c #A94D33",
"O. c #B7622B",
"+. c #BB6538",
"@. c #AF621A",
"#. c #C74809",
"$. c #D64909",
"%. c #C8540B",
"&. c #D8550A",
"*. c #C44D14",
"=. c #C64918",
"-. c #D54A13",
";. c #CC5313",
":. c #C85818",
">. c #D25314",
",. c #D55C1B",
"<. c #DB5C1B",
"1. c #D75815",
"2. c #E7580A",
"3. c #E65916",
"4. c #E9530D",
"5. c #C9641D",
"6. c #D8651A",
"7. c #DE6D0F",
"8. c #E8670A",
"9. c #F5680B",
"0. c #EA7708",
"q. c #F37708",
"w. c #EA6918",
"e. c #F36816",
"r. c #EC7717",
"t. c #F57918",
"y. c #C95A25",
"u. c #D65C23",
"i. c #C54F27",
"p. c #E35D26",
"a. c #C86629",
"s. c #D46423",
"d. c #DB6C23",
"f. c #D86828",
"g. c #D9742A",
"h. c #C66737",
"j. c #D56B34",
"k. c #CB743B",
"l. c #DB7433",
"z. c #D97837",
"x. c #C67327",
"c. c #E76926",
"v. c #F46A25",
"b. c #E9762A",
"n. c #F57927",
"m. c #E76D34",
"M. c #E77936",
"N. c #F77B36",
"B. c #8A5747",
"V. c #975A46",
"C. c #8A564F",
"Z. c #AB5A45",
"A. c #996858",
"S. c #966651",
"D. c #B86746",
"F. c #BA744A",
"G. c #A66A57",
"H. c #B8785A",
"J. c #AC6C52",
"K. c #997875",
"L. c #926D6A",
"P. c #AA7866",
"I. c #B57863",
"U. c #AC776E",
"Y. c #A15E67",
"T. c #D77846",
"R. c #CE734B",
"E. c #E67945",
"W. c #F27C41",
"Q. c #CE7E66",
"!. c #F8850D",
"~. c #EE8518",
"^. c #F7851B",
"/. c #F78E15",
"(. c #D88634",
"). c #EB8329",
"_. c #F78729",
"`. c #E98537",
"'. c #F38533",
"]. c #FC8C33",
"[. c #F58B3A",
"{. c #F78937",
"}. c #FC9638",
"|. c #FB9429",
" X c #FEA134",
".X c #B78577",
"XX c #B3876F",
"oX c #D58452",
"OX c #E78645",
"+X c #F78A45",
"@X c #FE9B44",
"#X c #FB9648",
"$X c #E78655",
"%X c #FD9957",
"&X c #EB9550",
"*X c #FBA549",
"=X c #FDA657",
"-X c #F7AF56",
";X c #C89777",
":X c #D89776",
">X c #CF8D6D",
",X c #E9946E",
"<X c #FCB768",
"1X c #F5AD72",
"2X c #DEA36F",
"3X c #FEC572",
"4X c #9E8583",
"5X c #BA9785",
"6X c #B99B97",
"7X c #B08D89",
"8X c #BDA9A8",
"9X c #BEA197",
"0X c #C69686",
"qX c #C59A96",
"wX c #D29386",
"eX c #DAA788",
"rX c #C8A699",
"tX c #D7A897",
"yX c #D2AD96",
"uX c #E7A988",
"iX c #EBB796",
"pX c #F0B18B",
"aX c #C9A8A7",
"sX c #CAB6A8",
"dX c #D6B9AD",
"fX c #CAB8B3",
"gX c #D6BAB4",
"hX c #D3AEAB",
"jX c #EFBCAB",
"kX c #C69CA0",
"lX c #F8C59A",
"zX c #FBC990",
"xX c #D6C6BA",
"cX c #D0C3B3",
"vX c #FCCAA7",
"bX c #FFD5A9",
"nX c #E7C7B9",
"mX c #FACCB9",
"MX c #FCD5B5",
"NX c #ECCCB5",
"BX c #FFE2B3",
"VX c #DBBDC9",
"CX c #DBC8C6",
"ZX c #DED4CF",
"AX c #E5CBC4",
"SX c #E7D3C8",
"DX c #F7D9CA",
"FX c #E9D9D4",
"GX c #F6DAD4",
"HX c #F4CDC6",
"JX c #FFEACA",
"KX c #FBE7D8",
"LX c #F9EFD2",
"PX c #F9E6E4",
"IX c #F9F0E6",
"UX c #E8DCE0",
/* pixels */
"_._._.'.+X+X+X[.'.@XM./ / / Q D G v + @ O O | OXz.g./ S m Z l B DXKXIXJXBX(.b.&XKXIXLXLXIXIXPXPXSXuX(.).r.#.t.^.w.S d.#X}. X@X#X",
"].]._._.[.[.{.{.}.{.+X&Xz.a.s.:.! 6 + @ O O v OX`.g.s.Q Z F z C vXJXKXJXzX`.(.zXLXIXJXJXJXLXKXKXNX;X@.).].9.Q r.^.w.Z %.}.}.@X@X",
"_._._._._._.n._._.].[.+X+X'.d.*.L ; O X X O # T.z.M.c.1.I A Z ^ 1XBXJXJX*X(.2XBXJXbXzX1X-X1XzXBXMX;X| / ].^.8.Q 8.t.t.W S M.+X[.",
"M.'.n._.).)._.^.^._.'.[.'.b.s.} B : # @ = & # | OXM.n.w.3.P P #.=X<XbXzX(.`.bXbXzX1X=X*X}.[.&X2XMXtX>XC %.|._.r.#.F 8.r.*.b S g.",
"< m M.b.b._._.t._._.b.M.'.M.y.C 1 $ o o = = & 3 oX`.n.n.3.Y Y $.*X*X<X3X3X3X<X=X*X@X}.}.|.|.].`.lXiXwXJ.M Q M.].n.e.#.Z A H Z l ",
"6 8 8 `.).n.r._.b.'.'.M.l.a.{ V 5 - w % % = * 1 R &X[.].v.U U $.}. X-X-X<X=X}.).)._._._.~.~.^.).2XvXtX.X] M N Q s.b.N.m.=.Z z l ",
"6 6 6 G M.n._.n.).M.M.l.h.R...u f d d f q = * 3 & k.OX[.n.$.P U ]. X X*X}.r._._.).r.r.~.^.~.t.b.oXMXNXtXI.] V C R N N C N m b l ",
": 2 0 6 i.W.b.b.M.z.a.j.R.D.' s B.j g d w q * e 3 y &X#X'.3.P U n.|. X|.^._._._._.^.r.0.r.r.r.d.R.MXmXdXqXP.] V i i B y y 9 6 2 ",
"X X @ & 2 _ X. . .a.T.E.h...' C.C.S.C.j d w * 3 5 & E &X}.n.Y U 3.}.|.|._._.^.t.r.t.0.0.r.t.9.6.R.mXHXHXdXrX.XG.V.[ K p i 0 1 O ",
"# O O X X & V X.$XoXk.h.X._ C.L.K.L.L.k g d q * 3 4 3 (.}.].$.P $.{.]._._.^.q.q.0.0.q.8.t.8.8.s.,XjXGXFXCXgXiXeXuXwX:X:XQ.Z._ r ",
":.D n 8 y 5 & O 4 X.O. .` V.K.L.K.K.K.L.k j u q & e 3 r &X#Xv.P P v.].|.^.~.0.!.q.q.q.9.2.8.6. .jXnXFXFXPXGXMXvXpX,XoXR.T.&XOXg.",
"w.,.~ n 1 @ $ @ # _ | E ` G.K.4X4X4X4XK.L.k h u e * e 3 M %X+X4.T U ].|./.!.0.0.q.8.9.8.8.w.^ uXeXSXGXKXPXHXXXp 4 2 > 6 8 N `.).",
"n.f.C 4 = % . o @ i E _ A.XX4X7X7X7X7X7X7XK.S.h q e e * 3 | %XN.Y P w.|.!.q.q.q.8.e.2.8.,.~ ,X>XyXSXKXKX5Xd * & # & # 1 7 8 / +X",
"l. .y & % % .   X V ` V.U.7X6X6X6X6XrXqXqX6XXXA.h u * e e 1 k.%X3.A I ]._.!.q.8.w.1.&.>.y.,XJ.0XMXLXtXh w = * 3 & @ @ X & 7 8 a.",
"4 2 & - - w - o O K ) P.7X6X6X6X9XrX.XB.u d C..XG.g e * e 3 4 &X#X&.c $.n.t.q.8.6.:.y.$XT...wXmXjXV.u e i 5 5 5 e & 5 p * & 2 > ",
"@ 5 u d g d u = & ' S..X6X6XaXrXrXA.u = = @ % f A.G.) e q e e r +X#X>.#.n.w.n.1.u.E.T.o.R.uXjXG.p i i i i s ' ' ) ) p ] V.) e # ",
"p ) B.B.[ h s d p [ U.6X8X8XaXaXP.d = O X X $ o o B.G.) e a e r v %X#X6.@X=Xy.E.j.} h.,X,XD.E V V p E ` ] S.G.G.J.Z.[ ] J.G.V.s ",
"G.G.G.G.S.V.[ ' s A.7XaX8XsXhX.Xs 3 # 1 i 0 # X @ X u G.[ e a y t 7 x.-X&X<XlXR.T.,XE.} M V M E _ ..D.F.H.XXXX.XXXI.J.[ J.I.P.P.",
"U.XXI.I.H.I.Z.) B.7XaXaXsXsXtX] i 4 { X.| X._ i + O X = [ ] p M M v r y O.oXpXQ.{ N m N R R ! O.F.>X>X>X:X:X:XeX0X;XXX] ` >X;X;X",
"I.I.H.D...o.J p U.rXaXfXsXsX.XV t } / / / ! ! R B > O O # 3 _ o.V M M r r 7 > C N N ! R R O.k.R.:X:XuXuXuXuXiXeXeXeX;X>X....F.>X",
" .}  .y.} C M _ 0XsXfXfXfXsXS.i N / ( %.:.( / ~ X.o.B + O # + : o.X.N N n l m D G ! | | F.oX2XuXpXpXlXlXlXlXlXiXiXeXeX:XD.| R. .",
"i.^ F D G C V V.yXfXgXfXfXsX' y ~ Q :.:.5./ N S m m { J : : + : + : C  . .! S l./ / h.oX2X2XpXlXvXvXlXvXvXbXvXlXiXiXuXeX:X+.} a.",
"! } ~ } G _ [ XXsXcXxXgXdXqX) 7 / Q :.6.s.( W ! ! ~ v { V 1 0 # : # # + n h.l.`.&XOX&X1XpXlXbXbXbXzX>X` ] 2XbXbXlXlXiXuX2X,X} i.",
"R C C { } { ' XXcXcXCXCXgX.X' 2  .W 6.s.:.! ~ ~ ~ ! ~ N | _ 1 0 2 : : : + ; n a.=X=X<X<XzXbXbXBX<XE 1 4 4 4 F.bXbXvXvXiXpX>X{ } ",
"H.F.D.X.} o.) .XxXCXCXVXVX7X' 2 } W :.s.y.~ ~ ~ ~ ~ ~ ! C | y y 8 8 2 > ; , < m Q 1.r.).[.@X@X*X`.( W N v 8 2 R.MXMXMXMXiXuX>XQ.",
"iXpXpX,XR.o.[ P.nXCXCXCXAX7X' 2 } W :.6.y.~ ~ } ^ ^ ~ ~ N | C n n v 8 8 8 b m F #.&.8.r.r.0.~.0.8.7.d.OX$X+.v 4 >XBXBXMXMXvXvXiX",
"iXiXpXpXuXZ.] A.nXCXCXCXxX5X[ 4 ! W ;.,.:.:.^ *.*.*.^ ~ N } ! m N N m N S Q #.&.&.b.b.b._.~.0.0.0.r.r.[.<X1XoX_ 4 F.vXbXvXvXiXlX",
"* o @ i J.;X] g nXSXCXxXxX5X] 7 N Q %.,.,.:.^ *.*.*.^ ^ N ~ ~ S G D W Q %.%.1.6.m.N > ; W ).~.q.!.t._.).<X1X1X,X{ 2 4 a a e q q ",
"y 9 4 1 X h G.g dXSXCXAXCXrXV.y b ^ %.6.,.;.*.*.*.#.*.^ W / Q Q ^ Q Q %.7.d.j. .: @ X X X v ).~.^.~.)._.d.l.j.T.$XR.N 8 7 r y r ",
"R.R.R.Z.K & ' B.5XSXAXSXSXhXS.B 8 / Q 6.,.;.;.*.#.#.*.^ ^ *.Q *.*.;.6.6.g.a.M O X       X X t `._._._.].w.c.b.g.j.j.j.j.j.k.h.R.",
"O. .h.h.h.C 1 P.A.AXSXSXSXnXG.K 2  .Q :.,.>.;.;.*.*.*.^ ^ ^ Q *.;.f.l./ M 1 O X . . . . . X O 7 OX}.].r.8.e.n.c.c.d.,.,.:.y.y. .",
"/ 5.:./ y.} 4 V.g AXFXZXSXHXI.K 2 } Q %.1.1.%.;.%.;.*.*./ ^ ^ ^ W m 7 # & X X X @ @ @ X X X X + 2 / w.&.9.n.n.n.c.c.1.<.<.;.:.:.",
"*.*.:.*.:. .C p A.6XFXFXSXSX.X[ y M ^ *.1.1.%.;.;.*.*.y.^ ^ W N t y & = # # # 1 2 2 2 # $ X . X X ; m $.e.n.{.+X=X%X+XN.v.6.;.*.",
"u.<.<.6.s.y.G 1 I.L.FXFXFXDXtXV.i 7 y.Q &.1.<.>.;.;.,.=.^ ! n t r e s - 1 2 9 9 i 9 9 9 + # o . @ 2 m 1.w.n.=X<X`.6.$.$.$.&.<.d.",
"$.-.$.1.1.s.y.v ] C.xXFXFXFXnXG.V ; h.:.>.<.w.6.6.<.>.H ~ C 8 B V K s 1 8 8 6 2 2 9 C 9 y 2 1 1 2 v D 1.6.@X=Xb.%.%.&.2.&.&.$.$.",
"-.>.-.3.1.<.u.N y I.9XFXFXFXHXU.) 2 ! j.>.3.3.c.c.1.#.F { B B o._ ..y t n 8 > ; : + 6 B v v 9 v v S Q %.N.#Xn.1.1.1.&.$.$.&.>.-.",
"F F A A I $.-.H 6 H.A.DXFXGXGX0X] y t T.-.3.p.p.<.#.S D { n G X...Z.n m 6 > b N n 7 ; 6 m b m m N F Q :.+X+X<.3.1.#.I I #.I F F ",
"F F F I I I I H b _ S.nXGXFXPXhXG.B 1 T.p.-.<.>.*.Q m D { v  .X.F.o.b m m N G N G { N + m N m S S F Q f.+XM.3.I A A A I A A A F ",
"$.$.$.$.U U I H m y P.qXDXFXPXAXH.V 2  .m.u.>.=.~ G b m { t  .a.R.{ C m D S N N N G } b , C S D D Q D M.+X6.$.$.4.4.2.2.$.4.$.$.",
"-.-.$.$.-.=.I Z b 1 H.S.DXKXPXGXI.{ r n j.M.y.y.~ m 6 n { 8  .j.oXC N G D D N l v n N } 6 l H F H D D m.M.c.&.4.4.4.2.2.2.4.$.-.",
"i.=.=.H Z z x < < : ) B.nXKXPXKX>X..M 2 b y.$XT. .C < < L b  .z.$XN S ^ H m t 7 y 6 m G C , G H H D m m.b.w.3.4.3.3.4.4.4.1.-.-.",
"< < < < l l m C B 2 & S.P.DXFXKXtXQ.] t > ; n R.R.{ 9 > J n  .j.$XS S ^ H m y a y y t n ! b b ~ H m l j.b.v.2.4.3.3.e.3.-.c x x ",
"A A F D G ! { { { V @ ' g NXDXKXAX0XI.Z.B : : 2 o.D.J B o.C C E.W.S Z H =.G _ h s p i 8 N G < G G m ; h.f.n.8.2.e.e.4.$.c A I I ",
"=.=.i.y.h.h.h.+.X.o.i = g P.HXDXGXgXtX0XG.K u & 4 ..D.X.X._ n T.W.F Z Z m. .J.S.B.h s y v C l l C N : C j.b.w.9.9.e.e.$.=.i.,.-.",
"T.T.T.T.T.k.h.h.+...V e u d yXDXFXPXGXGXGXHX0Xg * y { X.X.C 6 h.W.F c z c.j.Q.>XU.S.) V y v C > n C 2 : R.s.n.8.9.9.e.3.m.m.m.M.",
"T.T.k.k.z.k.k.k.h.+.` p = u g yXDXGXSXDXDXDXDXNXB.* { { { C 6  .m.=.z z F +XT.>X0X.XS.) p r B n > C 7 O V h.M.w.9.9.e.v.M.OX`.M.",
"T.T.z.l.l.g.g.x.k.O.| ` 3 o u s ;XvXMXmXvXiXhXDXNXh B Z.X._ 2 C f.=.z z x j.`.OX:X;X.XC.) i 9 B 6 9 B : X D.y.v.9.9.e.w.{.M.l.M.",
"z.z.z.l.g.g.g.a.a.h.O.` V & O 5 i s ' ) i u w j tXtX4 L Z.J 8 n y.=.F x l z #X`.T.:X0X.XV.) i r i : B 9 X 2 y.c.e.9.e.v.c.'.OXz.",
"z.g.z.z.l.j.j.j.a.a.+.| _ i 1 X O @ = = o X o o * >Xo.n n C C 8 *.*.I Z x x u.#XM.T.:X0X.XC.s p r r : B : O C y.v.e.e.e.w.b.M.T.",
"l.l.z.l.l.j.j.j.a.a.O. .| V y # O O X X O X X X @ 5 _ v }  .{ v ^ =.#.A x x S %X{.`.T.:X0X.XB.h p r : 9 B O + h.y.c.e.9.e.n.M.z.",
"z.l.l.l.l.j.f.f.f.a.y. . .{ C n 1 # # : 2 7 2 : @ # y C {  .X.v H =.-.I Z x l %X+X'.b.$XeX0XP.' s y 7 : B 9 O v j.c.r.9.e.w.M.M.",
"l.l.l.l.l.g.f.f.f.s.5.:./ ~ ! R n v t v n N n n y i B _ !  .h.N Q >.U $.A z l %X#Xb.n.b.:X0X5XA.[ p r 3 7 B 2 O | a.w.e.e.w.b.M.",
"l.l.g.l.g.f.d.d.6.s.s.s.y./ ~ ~ ! G C C G G D D N V _ .. .k.T.~ *.1.$.$.F m D %X+Xn.t.b.>XtXqX5XA.[ p r 1 B y + 7 h.c.e.w.v.c.N.",
"l.l.g.g.g.d.d.d.d.s.s.s.y.:.:./ ^ ^ } i.*.Q Q Q  .h.D.T.O.T.OXy.,.6.2.2.#.Z f.#XN.w.e.c.Q.tXkXqXU.S.' p & B B 2 O R.d.v.v.v.3.v.",
"g.l.g.g.d.d.6.d.d.s.s.u.u.,.:.:.u.>.>.<.1.&.:.a.$X,X&XT.l.+X$Xm.b.r.8.8.&.<.{.{.w.&.3.s.H.tXaXaX5XA.V.] i i n v # +.y.c.v.c.3.c.",
"g.g.g.g.d.d.d.d.f.c.m.m.m.c.f.d.u.>.&.1.8.w.{.=X<X<XOXM.#X#X[.#X_.t.^.t.N.N.N.%.#.#.*.y.J.rXfXaXqXXXG.] ) y N m 2 C l.c.v.c.f.s.",
"y.f.l.f.s.d.c.c.c.d.<.1.>.;.%.#.$.$.8.n._.}.@X@X@X[.).r.^./././.|./.^._.M.^ m b m b m J .XaXfXfXrX.XP.S.] V D D n C E.c.w.c.l.y.",
"y.s.f.s.,.6.<.<.>.<.<.>.>.>.>.#.$.&.n.n.].}.}.@X@X].~.!.q.!.!./.!.~.7.W < > > > ; + 0 V.qXhXfXfXqX5XXXJ.` C #.F C { M.d.w.b.z.h.",
"s.s.f.f.s.6.,.1.1.1.>.>.;.#.#.#.%.6.6.b.[.#X=X%X@X}.^.t.q.q.r.r.d.Q 6 , ; O X X # 1 C.qXaXaXxXsXrX5XXXI.| ! -.#.~  .m.<.1.M.z.a.",
"s.f.d.d.d.d.6.,.;.,.,.;.:.*.D m D / j.OX%X=X=X=X@X].t.t.e.8.6.( m , > $ $ $ X 5 u G.qXhXgXdXfXsXrX5X.XH.R.*.$.>.=.y.c.1.&.b.M.a.",
"`.[.[.[.[.+X[.{.b.6.:.:./ D l l m N n # 1 R.&X#X]._.r.7.1.%.W b , > 5 - f - 5 i V.qXhXgXxXxXdXsXrX5X;X2X:.1.&.3.,.m.<.-.-.N.M.`.",
"'.[.[.[.[.[.[.[.[.[.M.5.Q S b l l B O . o @ oX+X'.).7.:.Q Q b < 0 f d d g s V _ 0XsXgXCXcXxXxXsXsXyXuXk.6.8.w.w.c.p.-.A N.N.+X#X",
"].{.{.[.[.[.[.{.[.[.[.`.g./ ! G N 7 . . . . M OX`.g.5.( D N < < d C.C.S.Z.J { H.hXCXCXAXZXCXCXSXAXNX,X6.8.9.t.w.<.-.F ;.'.}.}.@X",
"].'.{.{.[.{.{.{._.{.[.[.OXE.h.! G + o     . # T.z.5.5.W N l < 0 Y.L.K.U.D.| { uXnXCXSXSXFXUXFXFXSXiXj.v.9.t.t.c.#.A #.N.{._.@X[."
};
